<?xml version="1.0" encoding="UTF-8"?>
<svg width="100pt" height="100pt" version="1.1" viewBox="0 0 100 100" xmlns="http://www.w3.org/2000/svg">
 <path d="m47.719 30.406 8.5 5.8594c1.375 0.79688 2.8906 1.1875 4.4219 1.1875 1.3594 0 2.7344-0.3125 3.9844-0.95312l25.688-13c0.8125-0.40625 1.4219-1.125 1.6719-1.9375 0.29688-0.85938 0.23438-1.7812-0.1875-2.5938-1.75-3.4531-5.9844-4.8438-9.4375-3.0938l-5.9062 2.9844-14.359-4.7031c-0.39062-0.125-0.82812-0.09375-1.1875 0.09375l-5.4844 2.7656c-0.48438 0.25-0.79688 0.71875-0.84375 1.25s0.1875 1.0625 0.60938 1.3906l7.9062 5.9531-3.6406 1.8438-5.4688-2.2188c-0.42188-0.17188-0.89062-0.15625-1.2969 0.046875l-4.8438 2.4531c-0.48438 0.25-0.8125 0.73438-0.85938 1.2812-0.03125 0.54688 0.21875 1.0781 0.67188 1.3906zm5.7969-2.0156 5.4688 2.2188h0.0625c0.17188 0.0625 0.34375 0.10938 0.53125 0.10938h0.015625c0.17188 0 0.34375-0.046875 0.51562-0.10938 0.03125 0 0.046875-0.015625 0.078125-0.03125 0.03125 0 0.046875 0 0.078125-0.03125l6.4844-3.2812h0.015625c0.20312-0.10938 0.375-0.26562 0.51562-0.4375 0 0 0.015625 0 0.03125-0.03125 0.046875-0.0625 0.0625-0.14062 0.09375-0.20312 0.046875-0.09375 0.10938-0.1875 0.14062-0.29688 0.03125-0.09375 0.03125-0.1875 0.03125-0.29688 0-0.09375 0.03125-0.20312 0.015625-0.29688 0-0.10938-0.046875-0.21875-0.09375-0.32812-0.03125-0.078125-0.03125-0.15625-0.0625-0.21875l-0.03125-0.03125c-0.046875-0.09375-0.125-0.15625-0.1875-0.25-0.0625-0.078125-0.125-0.17188-0.20312-0.23438 0 0-0.015625-0.03125-0.03125-0.03125l-7.9062-5.9531 2.6562-1.3438 14.359 4.7031h0.09375c0.17188 0.046875 0.32812 0.078125 0.51562 0.0625 0.1875 0 0.35938-0.0625 0.53125-0.14062h0.046875l6.4844-3.2812c1.9219-0.96875 4.2656-0.20312 5.2344 1.7188 0.03125 0.0625 0.03125 0.10938 0 0.21875-0.015625 0.0625-0.0625 0.09375-0.10938 0.125l-25.688 13c-1.7344 0.875-3.7656 0.8125-5.3281-0.09375l-6.2344-4.2969 1.8594-0.9375z" fill="#7031ff"/>
 <path d="m90.625 89.062h-10.266l8.375-29.875c1.9844-0.54688 3.4531-2.3438 3.4531-4.5 0-2.5781-2.1094-4.6875-4.6875-4.6875h-53.125v-10.938h4.6875c0.78125 0 1.4531-0.59375 1.5469-1.375l1.5625-12.5c0.0625-0.4375-0.078125-0.89062-0.375-1.2344s-0.71875-0.53125-1.1719-0.53125h-6.25v-4.6875c0-0.85938-0.70312-1.5625-1.5625-1.5625h-4.6875v-7.8125c0-0.85938-0.70312-1.5625-1.5625-1.5625s-1.5625 0.70312-1.5625 1.5625v7.8125h-4.6875c-0.85938 0-1.5625 0.70312-1.5625 1.5625v4.6875h-6.25c-0.45312 0-0.875 0.1875-1.1719 0.53125-0.29688 0.32812-0.4375 0.78125-0.375 1.2344l1.5625 12.5c0.09375 0.78125 0.76562 1.375 1.5469 1.375h4.6875v10.938h-6.25c-2.5781 0-4.6875 2.1094-4.6875 4.6875 0 2.1562 1.4688 3.9531 3.4531 4.5l8.375 29.875h-10.266c-0.85938 0-1.5625 0.70312-1.5625 1.5625s0.70312 1.5625 1.5625 1.5625h81.25c0.85938 0 1.5625-0.70312 1.5625-1.5625s-0.70312-1.5625-1.5625-1.5625zm-68.75-68.75h9.375v3.125h-9.375zm-7.6094 6.25h24.578l-1.1719 9.375h-22.234zm7.6094 12.5h9.375v10.938h-9.375zm-9.375 14.062h75c0.85938 0 1.5625 0.70312 1.5625 1.5625s-0.70312 1.5625-1.5625 1.5625h-75c-0.85938 0-1.5625-0.70312-1.5625-1.5625s0.70312-1.5625 1.5625-1.5625zm51.422 6.25h9.1875l-5.5469 29.688h-6.4219zm-15.484 29.688h-6.4531l-2.7812-29.688h9.2188v29.688zm-20.406-23.562-1.1406-6.125h9.1875l1.8594 19.938 0.90625 9.75h-6.4219l-4.4062-23.562zm-13.469-6.125h9.1406l4.4062 23.562 1.1406 6.125h-6.3594zm37 0h9.2188l-2.7812 29.688h-6.4531v-29.688zm19.188 29.688 5.5469-29.688h9.1406l-8.3281 29.688z" fill="#7031ff"/>
</svg>
