<?xml version="1.0" encoding="UTF-8"?>
<svg width="100pt" height="100pt" version="1.1" viewBox="0 0 100 100" xmlns="http://www.w3.org/2000/svg">
 <path d="m17.699 59.977 35.461-30.754c3.5547-3.082 6.5078-6.6797 7.6016-10.043 0.67969-2.1016 0.54688-3.8555-0.47266-4.7344-0.88672-0.76562-2.4414-0.9375-4.4805-0.28516-3.3672 1.0742-6.9766 4.0664-10.074 7.6406l-30.75 35.461zm69.328-10.922v6.0938-0.003907c0 0.41797-0.23047 0.80078-0.60156 0.99219-0.36719 0.19141-0.8125 0.16016-1.1523-0.082031l-1.8359-1.1406-1.8984 1.1758h-0.003906c-0.33984 0.21094-0.76953 0.22266-1.1211 0.023437-0.35156-0.19531-0.57031-0.56641-0.57031-0.96875v-6.0898h-5.7422v18.676h18.668v-18.676zm-4.9648 0h2.7383v4.0898c-0.39062-0.32812-0.85547-0.54688-1.3555-0.64453-0.24609-0.003906-0.48437 0.074219-0.67969 0.22266l-0.69922 0.43359v-4.1016zm-9.0859-2.2266 20.91-0.003906c0.29297 0 0.57812 0.12109 0.78516 0.32812 0.21094 0.20703 0.32812 0.49219 0.32812 0.78906v41.809c0 0.61719-0.5 1.1133-1.1133 1.1133h-41.812c-0.61328 0-1.1133-0.49609-1.1133-1.1133v-20.898c0-0.29687 0.11719-0.58203 0.32812-0.78906 0.20703-0.21094 0.49219-0.32812 0.78516-0.32812h19.789l0.003907-19.793c0-0.61719 0.5-1.1172 1.1133-1.1172zm-6.8516 23.133v6.0938-0.003907c0 0.41797-0.23438 0.79688-0.60156 0.98828-0.37109 0.19141-0.81641 0.16406-1.1562-0.078124l-1.8359-1.1406-1.9023 1.1797c-0.33984 0.21094-0.76953 0.21875-1.1211 0.023438-0.35156-0.19531-0.57031-0.56641-0.57031-0.96875v-6.0938h-5.7461v18.676h18.676v-18.676zm-4.9648 0v4.1016l0.69922-0.43359v-0.003906c0.19531-0.14453 0.43359-0.22266 0.67969-0.21875 0.5 0.09375 0.96484 0.31641 1.3555 0.64453v-4.0898zm25.867 0v6.0938-0.003907c0 0.41797-0.23047 0.79688-0.60156 0.98828-0.36719 0.19141-0.8125 0.16406-1.1523-0.078124l-1.8359-1.1406-1.9023 1.1797c-0.34375 0.21094-0.77344 0.21875-1.125 0.023438-0.34766-0.19531-0.56641-0.56641-0.56641-0.96875v-6.0938h-5.7422v18.676h18.668v-18.676zm-4.9648 0v4.1016l0.69922-0.43359 0.003906-0.003906c0.19531-0.14453 0.43359-0.22266 0.67969-0.21875 0.49609 0.09375 0.96484 0.31641 1.3555 0.64453v-4.0898zm-59.488-41.844c0.4375-0.43359 1.1406-0.43359 1.5781 0 0.43359 0.43359 0.43359 1.1406-0.003906 1.5742l-4.9219 4.9219v0.003907c-0.43359 0.43359-1.1406 0.43359-1.5742 0-0.4375-0.4375-0.43359-1.1406 0-1.5781zm-4.3359-2.5117c0.43359-0.43359 1.1406-0.43359 1.5742 0 0.4375 0.4375 0.4375 1.1406 0 1.5781l-6.7461 6.7461c-0.4375 0.43359-1.1406 0.4375-1.5781 0-0.43359-0.43359-0.43359-1.1406 0-1.5742zm-4.3398-2.5039c0.4375-0.4375 1.1406-0.4375 1.5781 0 0.43359 0.43359 0.43359 1.1406 0 1.5742l-8.5781 8.5703c-0.43359 0.43359-1.1406 0.43359-1.5742 0-0.43359-0.4375-0.43359-1.1406 0-1.5781zm31.367 27.707c0.4375-0.43359 1.1406-0.43359 1.5781 0 0.43359 0.4375 0.43359 1.1406 0 1.5781l-4.9219 4.9219h-0.003906c-0.43359 0.43359-1.1406 0.43359-1.5742 0-0.43359-0.4375-0.4375-1.1406 0-1.5781zm2.5117 4.3359c0.43359-0.43359 1.1406-0.43359 1.5742 0 0.4375 0.4375 0.4375 1.1406 0 1.5781l-6.75 6.7461c-0.4375 0.4375-1.1406 0.4375-1.5781 0-0.43359-0.43359-0.43359-1.1406 0-1.5742l6.7461-6.7461zm2.5117 4.3359v0.003906c0.43359-0.4375 1.1406-0.4375 1.5742 0 0.43359 0.43359 0.4375 1.1367 0 1.5742l-8.5742 8.5742c-0.43359 0.43359-1.1406 0.43359-1.5742 0-0.4375-0.43359-0.4375-1.1406 0-1.5742l8.5742-8.5742zm7.5664-15.219 5.5547 14.008-1.6172 1.6211-17-20.473 8.293-7.1914zm1.4648-2.332-0.20312-0.51953 1.0234-1.0234v0.003906c0.10156-0.089844 0.25391-0.085937 0.35156 0.007813 0.097656 0.097656 0.10156 0.25391 0.011718 0.35547l-1.1797 1.1797zm-1.1016-2.7734h0.003906c0.5-0.65625 1.2734-1.0508 2.0977-1.0664 0.93359 0 1.7852 0.52344 2.207 1.3477 0.42578 0.82812 0.35547 1.8242-0.1875 2.582 0.55469 0.44141 0.89453 1.0938 0.93359 1.8008 0.042968 0.70703-0.21875 1.3984-0.71875 1.8984l-1.2383 1.2383 4.3906 11.078c0.21875 0.42969 0.13672 0.95312-0.20312 1.293l-2.9922 2.9922h-0.003907c-0.22266 0.22266-0.52344 0.33594-0.83594 0.32422-0.3125-0.015625-0.60156-0.16016-0.80078-0.39844l-17.754-21.371-18.352 15.914 2.8516 9.3867v0.003907c0.16797 0.41406 0.070312 0.89062-0.24609 1.207l-1.918 1.9141c-0.43359 0.43359-1.1406 0.43359-1.5742 0l-18.223-18.219c-0.4375-0.4375-0.4375-1.1406 0-1.5781l1.918-1.918c0.28906-0.28906 0.71484-0.39453 1.1055-0.27734l9.4922 2.8906 15.918-18.359-21.301-17.68c-0.27344-0.1875-0.44922-0.48828-0.48047-0.81641-0.03125-0.33203 0.089844-0.65625 0.32422-0.89062l2.9922-2.9922v-0.003907c0.3125-0.3125 0.78516-0.41016 1.1953-0.24609l11.18 4.4336 1.2344-1.2461c0.50391-0.49609 1.1914-0.75781 1.8984-0.71875 0.70703 0.042968 1.3633 0.38281 1.8008 0.93359 0.75781-0.53906 1.7539-0.60938 2.582-0.1875 0.82812 0.42578 1.3477 1.2773 1.3477 2.207-0.015625 0.82813-0.40625 1.6016-1.0664 2.1016l8.4766 3.3672c3.4102-3.8828 7.1992-6.8789 10.867-8.0508 9.0078-2.8789 12.949 7.0195-0.27734 18.645l3.3594 8.4727zm2.4102 4.6133 0.003906 0.003907c0.10547-0.089844 0.26172-0.082032 0.35547 0.019531 0.09375 0.10156 0.089844 0.25781-0.007812 0.35547l-0.55859 0.55859-0.19922-0.51562 0.41797-0.41797zm-29.887-26.652 11.992 4.7539-7.1914 8.2891-20.473-17 1.6172-1.6172 14.055 5.5703zm0.027343-2.375-0.51562-0.20313 0.55859-0.55859c0.10156-0.097657 0.25781-0.097657 0.35938 0 0.24609 0.24609-0.15234 0.51562-0.39844 0.76562zm2.7734 1.1016-0.51953-0.20312 1.1836-1.1836c0.10156-0.089843 0.25391-0.085937 0.35156 0.011719 0.097656 0.09375 0.10156 0.25 0.007812 0.35156zm-20.133 39.84-5.3906-5.3906 0.66016-0.66016 7.8984 2.3984zm9.5195 2.6992 2.3984 7.8945-0.66016 0.66016-5.3906-5.3906z" fill="#7031ff" fill-rule="evenodd"/>
</svg>
