<?xml version="1.0" encoding="UTF-8"?>
<svg width="100pt" height="100pt" version="1.1" viewBox="0 0 100 100" xmlns="http://www.w3.org/2000/svg">
 <path d="m98.438 87.5h-1.5625v-28.125c0-0.86328-0.69922-1.5625-1.5625-1.5625h-1.5625v-17.188c0-0.86328-0.69922-1.5625-1.5625-1.5625h-2.457l5.4883-15.094-0.011719-0.003906c0.0625-0.16797 0.10547-6.7773 0.10547-6.7773 0-0.86328-0.69922-1.5625-1.5625-1.5625h-28.125c-0.86328 0-1.5625 0.69922-1.5625 1.5625l0.085938 6.25 5.4961 15.625h-2.457c-0.86328 0-1.5625 0.69922-1.5625 1.5625v17.188h-4.6875v-6.25c0-0.86328-0.69922-1.5625-1.5625-1.5625h-57.812c-0.51953 0-1.0039 0.25781-1.293 0.6875-0.28906 0.42969-0.35156 0.97656-0.15625 1.457l3.0156 7.5352v27.824l-1.5664-0.003906c-0.86328 0-1.5625 0.69922-1.5625 1.5625v9.375c0 0.86328 0.69922 1.5625 1.5625 1.5625h96.875c0.86328 0 1.5625-0.69922 1.5625-1.5625v-9.375c0-0.86328-0.69922-1.5625-1.5625-1.5625zm-42.188 0v-12.5h37.5v12.5zm-50-26.562h9.375v10.938h-9.375zm12.5 0h9.375v10.938h-9.375zm34.375 0v10.938h-9.375v-10.938zm-12.5 10.938h-9.375v-10.938h9.375zm-12.5 3.125v12.5h-9.375v-12.5zm3.125 0h9.375v12.5h-9.375zm12.5 0h9.375v12.5h-9.375zm24.105-50h10.27v6.25h-7.9961zm13.395 0h10.27l-2.2734 6.25h-7.9961zm-14.062-6.25h25v3.125h-25zm4.0781 15.625h16.844l-1.7031 4.6875h-13.438zm-2.5156 7.8125h21.875v15.625h-4.6875v-9.375c0-0.86328-0.69922-1.5625-1.5625-1.5625s-1.5625 0.69922-1.5625 1.5625v9.375h-6.25v-9.375c0-0.86328-0.69922-1.5625-1.5625-1.5625s-1.5625 0.69922-1.5625 1.5625v9.375h-4.6875zm-1.5625 18.75h26.562v10.938h-37.5v-10.938zm-9.375-7.8125v4.6875h-52.066l-1.875-4.6875zm-51.562 21.875h9.375v12.5h-9.375zm90.625 21.875h-93.75v-6.25h93.75z" fill="#7031ff"/>
 <path d="m10.551 21.383 11.035 4.4961 7.1914 14.32c0.16797 0.33594 0.45703 0.60156 0.80859 0.74609 0 0 6.1875 2.4766 6.3867 2.4766 0.33984 0 0.67969-0.10938 0.95703-0.32812 0.44141-0.33984 0.66797-0.89062 0.59375-1.4414l-1.3125-9.8281 9.082 3.7031c0.73828 0.29688 1.582 0 1.9609-0.70312l6.75-12.438c0.21094-0.39062 0.25-0.85156 0.097656-1.2734-0.14844-0.41797-0.46875-0.75391-0.88281-0.92188l-4.3438-1.7656c-0.45703-0.1875-0.97266-0.14844-1.3906 0.10938l-6.0156 3.6133-2.9727-1.2109 7.5078-8.1406c0.34766-0.375 0.48828-0.89844 0.375-1.3984-0.10938-0.5-0.46094-0.91406-0.93359-1.1055l-5.7812-2.3594c-0.45312-0.1875-0.97266-0.14453-1.3945 0.10938l-12.719 7.6406-3.6289-1.4727c-1.1406-0.46094-2.3242-0.69141-3.5234-0.69141-3.832 0-7.2461 2.2891-8.6953 5.8281-0.15625 0.38281-0.15625 0.8125 0.003906 1.1953 0.16016 0.38281 0.46875 0.68359 0.85156 0.84375zm28.645-10.266 2.9727 1.2109-6.7734 7.3477-6.2344-2.5273zm-18.457 5.9844 20.266 8.2344c0.45703 0.1875 0.97656 0.14844 1.3945-0.10547l6.0195-3.6133 2.0039 0.8125-5.25 9.6719-10.281-4.1914c-0.51562-0.21094-1.1055-0.12891-1.5469 0.21094s-0.66797 0.89062-0.59375 1.4414l1.3125 9.832-2.7578-1.125-7.1914-14.32c-0.16797-0.33594-0.45703-0.60156-0.80469-0.74609l-9.9453-4.0547c1.6211-2.1797 4.6836-3.1367 7.3789-2.0508z" fill="#7031ff"/>
 <path d="m64.062 68.75h6.25c0.86328 0 1.5625-0.69922 1.5625-1.5625s-0.69922-1.5625-1.5625-1.5625h-6.25c-0.86328 0-1.5625 0.69922-1.5625 1.5625s0.69922 1.5625 1.5625 1.5625z" fill="#7031ff"/>
 <path d="m70.312 79.688h-6.25c-0.86328 0-1.5625 0.69922-1.5625 1.5625s0.69922 1.5625 1.5625 1.5625h6.25c0.86328 0 1.5625-0.69922 1.5625-1.5625s-0.69922-1.5625-1.5625-1.5625z" fill="#7031ff"/>
 <path d="m79.688 68.75h6.25c0.86328 0 1.5625-0.69922 1.5625-1.5625s-0.69922-1.5625-1.5625-1.5625h-6.25c-0.86328 0-1.5625 0.69922-1.5625 1.5625s0.69922 1.5625 1.5625 1.5625z" fill="#7031ff"/>
 <path d="m85.938 79.688h-6.25c-0.86328 0-1.5625 0.69922-1.5625 1.5625s0.69922 1.5625 1.5625 1.5625h6.25c0.86328 0 1.5625-0.69922 1.5625-1.5625s-0.69922-1.5625-1.5625-1.5625z" fill="#7031ff"/>
</svg>
