<?xml version="1.0" encoding="UTF-8"?>
<svg width="1200pt" height="1200pt" version="1.1" viewBox="0 0 1200 1200" xmlns="http://www.w3.org/2000/svg">
 <defs>
  <clipPath id="a">
   <path d="m225 260h752.86v680h-752.86z"/>
  </clipPath>
 </defs>
 <g clip-path="url(#a)">
  <path d="m616.14 434.32c26.789 2.2383 52.777 9.1523 76.848 20.324 0 0 20.742-41.141 29.719-62.355 1.8828-4.4258 4.9102-8.3047 10.062-8.7109 5.0078-0.42188 9.7305 2.5 11.242 7.0195l50.199 143.14c2.4844 7.1211 0.96875 14.945-4.0078 20.84-4.9766 5.8867-12.715 9.0195-20.777 8.3711l-160.3-12.934c-4.9258-0.39844-9.0977-4.0195-9.8125-8.7188-0.80859-4.6992 2.4727-8.4609 6.7734-11.086 15.477-9.418 49.125-32.613 49.125-32.613-24.324-8.9258-50.516-12.871-77.203-9.9336-39.316 4.2578-74.684 21.484-100.96 48.719l-25.441 53.418c-4.207 9.3242-11.859 15.512-21.801 17.266l-26.57 4.6914c-6.7969 1.1992-13.531-0.78125-18.41-5.8516-4.3398-4.5195-6.2852-10.434-5.8398-16.617l0.070313-0.94922 21.676-108.33-72.48 12.793c-0.47656 0.082031-0.60938 0.066406-0.63672 0.042968l-0.21875 0.40625-16.051 29.113c-4.5195 8.6562-12.395 14.133-22.273 15.875l-17.715 3.1289c-6.7969 1.1992-13.531-0.78125-18.402-5.8438-4.3516-4.5195-6.293-10.438-5.8477-16.625l0.070313-0.96094 11.422-56.629c0.14844-1.8086-0.13672-3.4219-0.89062-5.0703l-30.082-49.301-0.39453-0.88281c-2.5312-5.6602-2.7305-11.887-0.1875-17.621 2.8477-6.4219 8.4922-10.582 15.289-11.781l17.711-3.1289c9.8828-1.7422 19.156 0.70703 26.363 7.2969l25.035 21.859 0.33594 0.30859c0.019531-0.03125 0.13672-0.09375 0.60938-0.17969l72.496-12.797-57.387-94.383-0.38672-0.87109c-2.5352-5.6562-2.7305-11.879-0.1875-17.617 2.8438-6.4219 8.4922-10.586 15.285-11.785l26.57-4.6875c9.9453-1.7578 19.254 1.4414 26.395 8.7656l102.33 100.7 76.898-13.574c6.4961-1.1445 12.93-1.2695 19.246-0.34766l0.62109 0.089844 6.5977 1.5273 0.42578 0.125c4.5078 1.3281 9.1953 3.4609 14.156 6.3711 5.918 3.4727 10.555 7.9414 13.586 13.438 0.73828 1.0547 1.3867 2.0898 1.9531 3.1289 0.71094 1.3047 1.2969 2.625 1.7344 4.0234 1.0391 2.5078 1.7891 4.9414 2.2148 7.3633 0.46875 2.6523 0.55469 5.3477 0.27344 8.043-0.097656 13.281-6.8984 24.68-19.066 33.996zm-222.01 156.07c-0.14844 2.0391 0.39844 3.7031 1.6406 4.9961 1.2422 1.293 2.8477 1.7617 4.8164 1.418l26.57-4.6914c4.9219-0.87109 8.4688-3.7617 10.648-8.6797l61.668-129.48c1.6875-4.8281 5.2344-7.7227 10.648-8.6797l77.496-13.676c4.9219-0.87109 9.4219-2.6719 13.508-5.4062 12.832-7.8047 19.125-16.723 18.879-26.75 0.23438-1.5508 0.22266-3.0625-0.035156-4.5273-0.25781-1.4648-0.80469-3.1289-1.6406-4.9961-0.085937-0.48828-0.31641-1.0781-0.69141-1.7656-0.375-0.69141-0.89453-1.4805-1.5586-2.3711-1.5859-3.2461-4.3594-6.0273-8.3203-8.3516-3.9609-2.3203-7.5469-3.9531-10.758-4.8984l-5.5547-1.2852c-4.6836-0.68359-9.4883-0.58984-14.41 0.27734l-77.496 13.68c-5.4141 0.95312-9.7383-0.54688-12.973-4.5078l-102.18-100.56c-3.7266-3.875-8.0508-5.375-12.973-4.5078l-26.57 4.6914c-1.9648 0.34766-3.3125 1.3398-4.0391 2.9766-0.72656 1.6406-0.67188 3.3945 0.16406 5.2617l64.285 105.73c1.3281 1.7773 1.5078 3.5117 0.53516 5.1914-0.97266 1.6836-2.4414 2.6992-4.4102 3.0469l-86.355 15.242c-5.4141 0.95312-9.9375-0.26172-13.578-3.6484l-25.184-21.992c-3.6406-3.3828-8.168-4.6016-13.582-3.6445l-17.711 3.125c-1.9688 0.34766-3.3164 1.3398-4.043 2.9805s-0.67188 3.3906 0.16406 5.2578l29.957 49.102c2.3398 4.6211 3.1992 9.5039 2.582 14.648l-11.375 56.395c-0.14844 2.043 0.39844 3.707 1.6406 5 1.2422 1.2891 2.8477 1.7617 4.8164 1.4141l17.715-3.125c5.4102-0.95703 9.25-3.6484 11.516-8.0742l16.148-29.289c2.2656-4.4297 6.1016-7.1211 11.516-8.0781l86.355-15.242c2.4609-0.43359 4.3125-0.003907 5.5508 1.2852 1.2422 1.293 1.5469 3.0039 0.90625 5.1289zm173.59 212.38c-24.055-2.832-47.367-9.4531-69.117-19.547 0 0-20.738 41.141-29.715 62.355-1.8867 4.4258-4.9102 8.3047-10.062 8.7148-5.0078 0.42188-9.7344-2.5039-11.242-7.0234l-50.203-143.14c-2.4844-7.1172-0.96484-14.941 4.0078-20.836 4.9805-5.8867 12.715-9.0234 20.777-8.3711l160.3 12.93c4.9297 0.39844 9.0977 4.0234 9.8164 8.7227 0.80469 4.6953-2.4766 8.4609-6.7734 11.082-15.48 9.418-49.125 32.613-49.125 32.613 24.32 8.9297 50.516 12.871 77.199 9.9336 33.66-3.6445 64.43-16.797 89.078-37.594l48.824-102.52c4.207-9.3242 11.859-15.516 21.801-17.27l26.57-4.6875c6.7969-1.2031 13.527 0.77734 18.406 5.8477 4.3438 4.5195 6.2891 10.434 5.8398 16.617l-0.066407 0.95313-21.676 108.33 72.48-12.793c0.47656-0.085938 0.60938-0.066406 0.63672-0.042969l0.21484-0.41016 16.055-29.113c4.5195-8.6562 12.395-14.129 22.273-15.875l17.715-3.125c6.7969-1.1992 13.527 0.77734 18.402 5.8398 4.3477 4.5234 6.293 10.441 5.8438 16.625l-0.070313 0.96484-11.422 56.629c-0.14453 1.8086 0.14062 3.418 0.89453 5.0664l30.082 49.305 0.39453 0.88281c2.5312 5.6602 2.7266 11.883 0.1875 17.617-2.8477 6.4219-8.4922 10.586-15.289 11.785l-17.715 3.125c-9.8789 1.7461-19.156-0.70703-26.363-7.293l-25.031-21.863-0.33984-0.30469c-0.015625 0.03125-0.13672 0.09375-0.60547 0.17578l-72.496 12.797 57.383 94.383 0.39062 0.87109c2.5312 5.6602 2.7266 11.879 0.1875 17.621-2.8438 6.4219-8.4922 10.582-15.289 11.781l-26.57 4.6914c-9.9414 1.7539-19.254-1.4414-26.391-8.7656l-102.34-100.7-76.898 13.574c-6.4961 1.1484-12.93 1.2695-19.242 0.35156l-0.62109-0.09375-6.5977-1.5273-0.42969-0.125c-4.5039-1.3242-9.1914-3.4609-14.152-6.3672-5.9219-3.4727-10.559-7.9414-13.586-13.441-0.73828-1.0547-1.3906-2.0859-1.9531-3.125-0.71094-1.3086-1.2969-2.625-1.7344-4.0273-1.0391-2.5039-1.7891-4.9375-2.2148-7.3594-0.28125-1.6016-0.42578-3.2188-0.43359-4.8438zm241.23-193.26c0.14453-2.0391-0.40234-3.707-1.6406-4.9961-1.2461-1.293-2.8516-1.7656-4.8164-1.418l-26.57 4.6914c-4.9219 0.86719-8.4727 3.7617-10.648 8.6758l-61.668 129.48c-1.6875 4.8281-5.2383 7.7227-10.648 8.6758l-77.496 13.68c-4.9219 0.86719-9.4258 2.6719-13.508 5.4062-12.832 7.8047-19.125 16.719-18.883 26.75-0.23438 1.5508-0.21875 3.0586 0.039063 4.5234 0.25781 1.4648 0.80469 3.1328 1.6406 5 0.085938 0.48828 0.31641 1.0742 0.69141 1.7656 0.375 0.6875 0.89453 1.4766 1.5586 2.3672 1.5859 3.2461 4.3594 6.0312 8.3203 8.3516 3.9609 2.3242 7.5469 3.957 10.758 4.8984l5.5508 1.2891c4.6875 0.68359 9.4922 0.58984 14.41-0.27734l77.5-13.68c5.4102-0.95703 9.7344 0.54688 12.969 4.5078l102.19 100.55c3.7266 3.875 8.0469 5.3789 12.969 4.5078l26.57-4.6875c1.9688-0.34766 3.3164-1.3398 4.043-2.9805 0.72656-1.6367 0.67188-3.3906-0.16406-5.2578l-64.285-105.73c-1.332-1.7812-1.5078-3.5117-0.53516-5.1953 0.97266-1.6797 2.4414-2.6953 4.4102-3.043l86.355-15.242c5.4141-0.95703 9.9375 0.25781 13.578 3.6445l25.184 21.992c3.6406 3.3867 8.168 4.6016 13.578 3.6484l17.715-3.1289c1.9688-0.34766 3.3164-1.3398 4.043-2.9805 0.72656-1.6367 0.66797-3.3906-0.16797-5.2578l-29.957-49.098c-2.3359-4.625-3.1953-9.5078-2.5781-14.652l11.375-56.395c0.14453-2.0391-0.39844-3.707-1.6406-4.9961-1.2461-1.293-2.8516-1.7656-4.8164-1.418l-17.715 3.1289c-5.4141 0.95312-9.25 3.6445-11.516 8.0742l-16.148 29.289c-2.2656 4.4258-6.1016 7.1211-11.516 8.0742l-86.355 15.242c-2.4609 0.4375-4.3125 0.007813-5.5547-1.2852-1.2422-1.2891-1.543-3-0.90234-5.1289z" fill="#7031ff"/>
 </g>
</svg>
