<?xml version="1.0" encoding="UTF-8"?>
<svg width="1200pt" height="1200pt" version="1.1" viewBox="0 0 1200 1200" xmlns="http://www.w3.org/2000/svg">
 <path d="m292.18 925.6-187.87-268.31c-24.938-35.578-30.609-81.281-15.141-121.97l86.578-227.68c9.6562-25.406 36.141-40.266 62.859-35.297l12.562 2.3438c29.016 5.3906 48.938 32.25 45.609 61.641l-21.188 187.13c17.438 0.23437 34.547 8.5781 45.328 24l68.484 97.781c1.6875 2.3906 4.2188 4.0312 7.125 4.5938 3.1406 0.5625 6.3281 1.2188 9 1.7812 0.09375 0.046874 0.42187 0.14062 0.46875 0.09375 5.4844 1.125 10.734 2.9531 15.609 5.5781l0.09375 0.046876c37.406 20.109 64.5 50.625 80.203 92.906 7.9219 21.469 10.125 44.672 6.375 67.266l-9.4219 56.484c12.562-1.5938 25.406 1.0781 36.375 7.7344 12.844 7.8281 22.078 20.531 25.5 35.25l9.9844 42.562c6.8906 29.484-10.781 59.109-40.031 67.125l-214.82 58.453c-14.859 4.0312-30.797 1.7812-43.922-6.1875-13.219-8.0156-22.547-21.047-25.828-36.141l-10.172-46.922c-6.4688-29.672 11.812-59.109 41.203-66.516zm-56.016-387.47 23.344-206.02c1.125-9.7969-5.5312-18.797-15.188-20.578l-12.562-2.3438c-8.9062-1.6406-17.719 3.3281-20.953 11.812l-86.578 227.68c-11.109 29.062-7.0312 61.688 10.781 87.141l195.52 279.19 128.86-32.344 11.906-71.344c2.6719-16.125 1.0781-32.719-4.5938-48.047-12.281-33.141-33.469-57.094-62.766-72.891-1.6406-0.89062-3.4688-1.5-5.2969-1.875-0.375-0.046875-0.70312-0.14062-1.0781-0.23438-2.25-0.51562-5.0625-1.0781-7.875-1.5938-12.516-2.2969-23.672-9.4688-30.984-19.922l-68.484-97.781c-5.8125-8.2969-17.203-10.5-25.641-4.9688-0.14062 0.14062-0.32812 0.23438-0.46875 0.375l-14.156 9.8906c-8.4375 5.9062-10.547 17.625-4.5938 26.109l75.516 107.81c5.9062 8.4375 3.8438 20.203-4.5938 26.109-8.4844 5.9062-20.203 3.8438-26.156-4.5938l-75.469-107.81c-17.812-25.453-11.672-60.516 13.781-78.375zm680.34 387.47 15 3.75c29.438 7.4062 47.672 36.844 41.25 66.516l-10.219 46.922c-3.2344 15.094-12.609 28.125-25.781 36.141s-29.062 10.266-43.969 6.1875l-214.82-58.5c-29.203-7.9688-46.922-37.594-39.984-67.078l9.9844-42.562c3.4219-14.719 12.609-27.375 25.5-35.203 10.922-6.7031 23.766-9.375 36.375-7.7812l-9.4219-56.484c-3.7969-22.547-1.5938-45.797 6.375-67.266 15.703-42.281 42.797-72.797 80.203-92.906l0.046875-0.046875c4.9219-2.625 10.172-4.5 15.328-5.4844 2.7656-0.65625 6.2812-1.3594 9.75-1.9688 2.9062-0.5625 5.4844-2.2031 7.1719-4.5938l68.438-97.781c10.781-15.422 27.938-23.766 45.375-24l-21.234-187.13c-3.3281-29.344 16.594-56.25 45.656-61.641l12.516-2.3438c26.719-4.9688 53.203 9.8906 62.859 35.297l86.625 227.68c15.469 40.688 9.75 86.344-15.141 121.97zm27.562-361.55c-8.4375-5.5781-19.781-3.375-25.641 4.9219l-68.484 97.734c-7.2656 10.5-18.422 17.672-30.984 20.016-2.8125 0.51562-5.6719 0.98438-7.875 1.5469-0.32812 0.09375-0.70312 0.14062-1.0781 0.23438-1.7812 0.375-3.6094 0.98438-5.2969 1.875-29.297 15.797-50.438 39.75-62.766 72.891-5.6719 15.375-7.2656 31.922-4.5469 48.094l11.906 71.297 128.81 32.391 195.52-279.28c17.812-25.406 21.891-58.031 10.828-87.094l-86.625-227.68c-3.1875-8.4844-12.047-13.453-20.906-11.766l-12.562 2.2969c-9.7031 1.7812-16.359 10.781-15.234 20.578l23.391 206.02 7.6875 5.4375c25.453 17.766 31.641 52.875 13.828 78.328l-75.516 107.81c-5.9062 8.4375-17.625 10.5-26.109 4.5938-8.4844-5.9531-10.547-17.672-4.5938-26.109l75.469-107.81c5.9531-8.4844 3.8906-20.156-4.5938-26.109l-14.156-9.9375c-0.14062-0.09375-0.28125-0.1875-0.46875-0.28125zm-344.06-451.55c144.89 0 262.5 117.61 262.5 262.5s-117.61 262.5-262.5 262.5-262.5-117.61-262.5-262.5c0-144.84 117.61-262.5 262.5-262.5zm0 37.5c-124.18 0-225 100.83-225 225s100.83 225 225 225 225-100.83 225-225-100.83-225-225-225zm0 243.74c-47.906 0-85.219-34.219-85.219-74.156-0.046875-34.5 27.938-64.781 66.469-72.328v-27.375c0-10.359 8.3906-18.75 18.75-18.75s18.75 8.3906 18.75 18.75v27.375c38.531 7.5469 66.469 37.828 66.516 72.328-0.046875 10.359-8.4375 18.75-18.797 18.75s-18.75-8.3906-18.75-18.75c0-21.234-22.219-36.656-47.719-36.609-25.5 0-47.719 15.375-47.766 36.609 0.046875 21.281 22.266 36.656 47.766 36.656 47.906 0 85.219 34.266 85.219 74.156 0 34.5-27.938 64.828-66.469 72.328v27.375c0 10.359-8.3906 18.75-18.75 18.75s-18.75-8.3906-18.75-18.75v-27.375c-38.578-7.5-66.469-37.781-66.469-72.328-0.046875-10.359 8.4375-18.75 18.703-18.75 10.359 0 18.797 8.3906 18.797 18.75 0 21.234 22.219 36.609 47.719 36.656 25.5 0 47.766-15.422 47.719-36.656 0-21.234-22.219-36.656-47.719-36.656z" fill="#60c" fill-rule="evenodd"/>
</svg>
