<?xml version="1.0" encoding="UTF-8"?>
<svg width="100pt" height="100pt" version="1.1" viewBox="0 0 100 100" xmlns="http://www.w3.org/2000/svg">
 <path d="m18.922 40.922c5.2148-12.012 17.18-20.398 31.094-20.398 13.859 0 25.785 8.3242 31.031 20.258 0.69141 1.582 2.5352 2.3008 4.1172 1.6055 1.5781-0.69531 2.2969-2.5391 1.6016-4.1172-6.207-14.125-20.32-23.996-36.75-23.996-16.492 0-30.656 9.9453-36.824 24.156-0.6875 1.5859 0.039063 3.4258 1.6211 4.1133s3.4258-0.039063 4.1094-1.6211z" fill="#7031ff"/>
 <path d="m50 38.992c-7.2695 0-13.523 4.3828-16.25 10.664-0.6875 1.582-2.5312 2.3086-4.1133 1.6211s-2.3086-2.5273-1.6211-4.1133c3.6836-8.4805 12.137-14.422 21.984-14.422 9.8125 0 18.238 5.8945 21.941 14.324 0.69531 1.582-0.023437 3.4258-1.6016 4.1211-1.582 0.69141-3.4258-0.023438-4.1172-1.6055-2.7461-6.2422-8.9805-10.59-16.223-10.59z" fill="#7031ff"/>
 <path d="m37.5 75c0 2.3008-1.8672 4.168-4.168 4.168s-4.1641-1.8672-4.1641-4.168 1.8633-4.168 4.1641-4.168 4.168 1.8672 4.168 4.168z" fill="#7031ff"/>
 <path d="m45.832 71.875c-1.7227 0-3.125 1.3984-3.125 3.125s1.4023 3.125 3.125 3.125h25c1.7266 0 3.125-1.3984 3.125-3.125s-1.3984-3.125-3.125-3.125z" fill="#7031ff"/>
 <path d="m9.375 70.832c0-6.3281 5.1289-11.457 11.457-11.457h58.336c6.3281 0 11.457 5.1289 11.457 11.457v8.3359c0 6.3281-5.1289 11.457-11.457 11.457h-58.336c-6.3281 0-11.457-5.1289-11.457-11.457zm11.457-5.207c-2.875 0-5.207 2.332-5.207 5.207v8.3359c0 2.875 2.332 5.207 5.207 5.207h58.336c2.875 0 5.207-2.332 5.207-5.207v-8.3359c0-2.875-2.332-5.207-5.207-5.207z" fill="#7031ff" fill-rule="evenodd"/>
</svg>
