<?xml version="1.0" encoding="UTF-8"?>
<svg width="1200pt" height="1200pt" version="1.1" viewBox="0 0 1200 1200" xmlns="http://www.w3.org/2000/svg">
 <path d="m400.92 305.27c-4.6289 0.41797-8.8125 2.9453-11.336 6.8477l-119.73 190.35c-1.5273 2.3984-2.3438 5.1836-2.3594 8.0273 0 39.316 28.465 74.391 68.484 74.391 2.4297 0 4.793-0.17578 7.0859-0.47266v219.63c0 4.0117 1.5938 7.8555 4.4258 10.688 2.8359 2.8359 6.6797 4.4297 10.688 4.4297h256c-8.9844 18.129-14.172 38.535-14.172 60.457 0.003906 4.0078 1.5938 7.8516 4.4297 10.688 2.832 2.832 6.6797 4.4258 10.688 4.4258h226.71c4.0078 0 7.8516-1.5938 10.684-4.4258 2.8359-2.8359 4.4297-6.6797 4.4297-10.688 0-5.1445-0.40234-10.137-0.94531-15.117h61.402c4.0078 0 7.8516-1.5898 10.688-4.4258 2.832-2.8359 4.4258-6.6797 4.4258-10.688 0-41.586-22.363-77.227-55.023-96.352 7.5898-10.449 12.516-23.004 12.516-36.844 0-34.773-28.516-63.289-63.293-63.289-14.754 0-28.434 5.1641-39.203 13.695-1.8906-2.3828-3.9805-4.707-6.1367-6.8477v-75.336c2.2891 0.29688 4.6562 0.47266 7.082 0.47266 40.023 0 68.488-35.074 68.488-74.391-0.015624-2.8438-0.83594-5.6289-2.3633-8.0273l-119.73-190.35c-2.8086-4.3008-7.6133-6.8828-12.75-6.8477h-319.76c-0.47266-0.023438-0.94531-0.023438-1.418 0zm9.918 30.227h10.391l-60.691 209c-6.707 7.6445-12.043 10.156-24.562 10.156-21.934 0-36.312-16.633-37.785-40.387zm41.801 0h28.105l-26.688 208.53c-7.2852 6.6445-19.066 10.629-31.645 10.629-12.09 0-23.371-3.7344-30.703-9.9219zm58.332 0h36.133v208.77c-7.3008 6.5117-18.969 10.391-31.41 10.391-12.367 0-23.863-3.9492-31.172-10.391zm66.363 0h36.129l26.453 208.77c-7.3125 6.4414-18.809 10.391-31.176 10.391-12.441 0-24.105-3.8789-31.406-10.391zm66.359 0h28.102l60.93 209.24c-7.332 6.1875-18.609 9.9219-30.699 9.9219-12.582 0-24.363-3.9844-31.645-10.629zm59.512 0h10.391l112.65 178.77c-1.4727 23.754-15.848 40.387-37.785 40.387-12.52 0-17.852-2.5117-24.559-10.156zm-234.27 235.22c13.469 9.8906 30.52 14.168 46.758 14.168 16.238 0 33.055-4.2773 46.523-14.168 13.473 9.8906 30.285 14.168 46.523 14.168 16.242 0 33.293-4.2773 46.762-14.168 13.469 9.8906 30.285 14.168 46.523 14.168 15.953 0 32.469-4.1602 45.816-13.695 1.0781 0.27734 2.1875 0.4375 3.3047 0.47266v69.664c-7.1289-2.25-14.824-3.5391-22.672-3.5391-41.426 0-75.336 33.906-75.336 75.332 0 18.078 6.7891 34.234 17.477 47.234-13.582 7.3555-25.824 17.078-36.133 28.574h-57.148v-136.03c-0.003906-4.0078-1.5938-7.8516-4.4297-10.688-2.832-2.8359-6.6797-4.4258-10.688-4.4258h-136.03c-0.47266-0.023437-0.94531-0.023437-1.418 0-3.7578 0.35156-7.2461 2.1016-9.7812 4.8984-2.5352 2.7969-3.9297 6.4414-3.9141 10.215v136.03h-37.785v-217.27c1.1133-0.035156 2.2227-0.19531 3.3047-0.47266 13.344 9.5352 29.859 13.695 45.816 13.695 16.234 0 33.051-4.2773 46.523-14.168zm-27.633 97.297h105.8v120.91h-105.8zm287.17 0c25.09 0 45.105 20.016 45.105 45.105 0 16.18-8.5352 30.012-21.254 38.023-3.25 2.0703-5.5859 5.3008-6.5352 9.0391-0.94531 3.7344-0.42969 7.6914 1.4414 11.059 1.875 3.3711 4.9648 5.8945 8.6367 7.0625 36 11.219 62.789 44.914 68.488 86.195h-191.76c5.6992-41.281 32.484-74.977 68.484-86.195 3.6719-1.168 6.7617-3.6914 8.6367-7.0625 1.8711-3.3672 2.3867-7.3242 1.4414-11.059-0.94531-3.7383-3.2852-6.9688-6.5352-9.0391-12.719-8.0117-21.254-21.844-21.254-38.023 0-25.09 20.016-45.105 45.105-45.105zm98.242 15.113c18.441 0 33.062 14.625 33.062 33.062 0 11.832-6.2812 22.242-15.586 28.105-3.25 2.0703-5.5898 5.3008-6.5352 9.0391-0.94531 3.7344-0.42969 7.6914 1.4414 11.059 1.875 3.3672 4.9648 5.8945 8.6367 7.0586 26.66 8.3086 46.754 32.543 52.191 62.82h-50.773c-8.8281-25.066-24.699-46.461-45.109-62.109 0.58203-0.19922 1.0703-0.52734 1.6562-0.71094 3.6719-1.1641 6.7617-3.6914 8.6328-7.0586 1.875-3.3672 2.3906-7.3242 1.4453-11.059-0.94922-3.7383-3.2852-6.9688-6.5391-9.0391-3.4531-2.1758-6.4609-5.2852-8.9727-8.7383 2.3242-7.0273 3.543-14.582 3.543-22.438 0-6.2148-0.92188-12.156-2.3633-17.945 6.0352-7.2812 14.988-12.047 25.27-12.047z" fill="#60c"/>
</svg>
