<?xml version="1.0" encoding="UTF-8"?>
<svg width="1200pt" height="1200pt" version="1.1" viewBox="0 0 1200 1200" xmlns="http://www.w3.org/2000/svg">
 <path d="m417.29 748.76c-56.352 0-102.19 45.836-102.19 102.19 0 56.352 45.836 102.19 102.19 102.19 56.352 0 102.19-45.836 102.19-102.19 0-56.348-45.852-102.19-102.19-102.19zm0 175.16c-40.238 0-72.961-32.738-72.961-72.977s32.738-72.977 72.961-72.977c40.238 0 72.961 32.738 72.961 72.977s-32.727 72.977-72.961 72.977zm41.074-51.289c0 15.477-11.012 28.711-26.477 33.926v0.085938c0 8.0625-6.5391 14.613-14.613 14.613-8.0625 0-14.613-6.5391-14.613-14.613v-0.050782c-10.562-3.5117-19.176-10.773-23.539-20.414-3.3242-7.3516-0.0625-16.012 7.3008-19.324 7.3516-3.3242 16.012-0.0625 19.336 7.3008 1.25 2.7617 5.6016 5.5625 11.512 5.5625 6.6758 0 11.863-3.8008 11.863-7.0742 0-3.2734-5.1875-7.0742-11.863-7.0742-22.648 0-41.086-16.289-41.086-36.301 0-15.477 11.012-28.711 26.477-33.926l0.003906-0.097656c0-8.0625 6.5391-14.613 14.613-14.613 8.0625 0 14.613 6.5391 14.613 14.613v0.0625c9.1992 3.0625 16.988 9 21.727 16.949 4.1367 6.9258 1.875 15.898-5.0625 20.039-6.9258 4.1367-15.898 1.875-20.039-5.0625-1.4492-2.4258-5.5859-5.0508-11.25-5.0508-6.6758 0-11.863 3.8008-11.863 7.0742 0 3.2734 5.1875 7.0742 11.863 7.0742 22.672 0.015624 41.098 16.289 41.098 36.301zm643.27-45.586h-17.461l1.1133-317.05c43.562-16.789 74.164-55.852 74.188-101.25 0.011719-2.625-0.6875-5.2383-2.0859-7.5625l-146.46-244.1c-2.6367-4.3984-7.4023-7.0859-12.527-7.0859h-37.062v-26.438c0-26.211-21.324-47.539-47.539-47.539h-396.07c-26.211 0-47.539 21.324-47.539 47.539v26.438h-37.062c-5.1367 0-9.8867 2.6875-12.523 7.0859l-146.46 244.1c-1.3867 2.3125-2.0859 4.9141-2.0859 7.5117 0 45.637 30.914 84.875 74.824 101.52l-0.6875 194.71-146.85-11.434-60.273-104.39c-2.6133-4.5234-7.4375-7.3008-12.648-7.3008h-74.301c-8.0742-0.011719-14.613 6.5391-14.613 14.602s6.5391 14.613 14.613 14.613h65.875l58.949 102.1 72.125 266.62v22.488c0 11.512 4.5 22.352 12.664 30.523 8.1641 8.1641 19 12.664 30.5 12.664h0.023438 4.9141c-3.8242 7.3984-5.9883 15.789-5.9883 24.676 0 29.711 24.176 53.887 53.887 53.887s53.887-24.176 53.887-53.887c0-8.8984-2.1758-17.312-6.0117-24.727l101.26-0.050781c-3.8125 7.3867-5.9766 15.762-5.9766 24.637 0 29.711 24.176 53.887 53.887 53.887s53.887-24.176 53.887-53.887c0-29.711-24.176-53.887-53.887-53.887h-0.011719l-249.88 0.13672h-0.011718c-3.6992 0-7.1992-1.4609-9.8359-4.1016-2.6484-2.6484-4.1133-6.1484-4.1133-9.8633v-9.8125h271.54c21.863 0 41.051-13.188 48.887-33.586l3.8633-10.051h545.34c8.0625 0 14.613-6.5391 14.613-14.613v-46.25c0-33.586-27.301-60.887-60.863-60.887zm-559.55 218.24h0.023437c13.602 0 24.664 11.062 24.664 24.664s-11.062 24.664-24.676 24.664c-13.613 0-24.664-11.062-24.664-24.664 0.003906-13.59 11.066-24.652 24.652-24.664zm-197.04 0.125c13.602 0 24.664 11.062 24.664 24.664s-11.062 24.664-24.664 24.664c-13.602 0-24.664-11.062-24.664-24.664 0-13.59 11.062-24.664 24.664-24.664zm692.54-555.86c-45.375 0-83.25-28.602-91.148-66.238h182.3c-7.9141 37.637-45.777 66.238-91.152 66.238zm-538.17-365.99c0-10.102 8.2109-18.312 18.312-18.312h396.07c10.102 0 18.312 8.2109 18.312 18.312v26.438h-432.7zm-58.016 55.664h548.73l128.93 214.88h-806.59zm472.79 244.09c-7.8984 37.625-45.773 66.238-91.148 66.238s-83.25-28.602-91.148-66.238zm-214.55 0c-7.8984 37.625-45.773 66.238-91.148 66.238s-83.25-28.602-91.148-66.238zm-396.85 0h182.3c-7.8984 37.625-45.773 66.238-91.148 66.238-45.379 0-83.242-28.602-91.152-66.238zm73.285 94.273c5.8359 0.77344 11.801 1.1758 17.863 1.1758 46.301 0 86.648-23.438 107.27-57.852 20.625 34.414 60.977 57.852 107.27 57.852 46.301 0 86.648-23.438 107.27-57.852 20.625 34.414 60.977 57.852 107.27 57.852 46.301 0 86.648-23.426 107.27-57.852 20.625 34.414 60.977 57.852 107.27 57.852 6.2734 0 12.438-0.42578 18.461-1.2617l-1.0859 309.54h-124.11l0.011718-217.33c0-8.0625-6.5391-14.613-14.613-14.613l-402.64 0.003906c-8.0625 0-14.613 6.5391-14.613 14.613v107.15l-123.59-9.6367zm525.55 106.73v202.73h-172.1v-202.73zm-223.91 112.38c-2.4609-3.8984-6.625-6.4141-11.211-6.7617l-138.29-10.789v-94.824h172.1v202.73h-51l29.699-77.312c1.6367-4.3008 1.1641-9.1406-1.3008-13.039zm-106.3 211.66c-3.5742 9.3008-11.648 14.852-21.613 14.852l-274.96-0.003906-64.801-239.55 434.66 33.887zm561.86-28.801h-519.5l24.301-63.289h463.55c17.449 0 31.648 14.199 31.648 31.637z" fill="#60c"/>
</svg>
