<?xml version="1.0" encoding="UTF-8"?>
<svg width="1200pt" height="1200pt" version="1.1" viewBox="0 0 1200 1200" xmlns="http://www.w3.org/2000/svg">
 <path d="m1052.5 652.45c13.359 17.062 16.312 40.078 7.6875 60l-8.2969 19.547c-3 6.7031-3 14.297 0 21l8.2969 19.219c11.203 25.688 2.9062 55.688-19.922 72h66.938v-736.22h-1014.5v735.24h557.02c-17.344-12.562-26.531-33.562-24-54.844h-400.55c-9 0-16.312-7.3125-16.312-16.312-0.046875-24.844-20.156-44.953-45-45-4.3594 0.046875-8.5312-1.6875-11.625-4.7344s-4.8281-7.2188-4.8281-11.578v-470.76c0-9.0938 7.3594-16.453 16.453-16.453 24.844-0.046875 44.953-20.156 45-45 0-9 7.3125-16.312 16.312-16.312h749.53c4.3125 0 8.4844 1.7344 11.531 4.7812s4.7812 7.2188 4.7812 11.531c0.046875 24.844 20.156 44.953 45 45 9.0938 0 16.453 7.3594 16.453 16.453zm-168.14-124.45c-22.453-19.922-56.25-19.922-78.703 0-24.844 22.078-20.766 22.078-54 18.609-30.328-2.8594-57.984 17.484-64.312 47.25-5.8594 28.781-3.8438 27.375-31.922 43.219-26.484 14.766-37.547 47.156-25.594 75l8.2969 19.922c3.3281 7.7812 2.8125 16.641-1.3125 24h-396.84c-6.375-30.094-29.906-53.625-60-60v-441.37c30.094-6.4219 53.578-29.906 60-60h720c6.4219 30.094 29.906 53.578 60 60v374.16c-13.312-7.5469-13.922-19.547-17.062-34.781-6-30-33.891-50.484-64.312-47.297-33.141 3.4688-29.156 3.4688-54-18.609zm24 150.24c25.781 25.734 33.516 64.453 19.547 98.109-13.922 33.656-46.734 55.594-83.156 55.594-36.375 0-69.234-21.938-83.156-55.594s-6.1875-72.375 19.594-98.109c35.109-35.109 92.062-35.109 127.18 0zm-63.609-59.062v0.046875c49.688-0.1875 94.594 29.672 113.67 75.516 19.125 45.844 8.7188 98.719-26.344 133.92-35.109 35.156-87.938 45.75-133.82 26.766-45.938-18.984-75.891-63.797-75.891-113.48 0.09375-67.688 54.938-122.53 122.68-122.63zm22.219 84v0.046875c5.8125-6.8906 16.125-7.7812 23.062-1.9219 6.8906 5.8125 7.7344 16.125 1.875 23.016l-46.172 55.688c-3.0938 3.7031-7.6875 5.8594-12.562 5.8594-4.8281 0-9.4219-2.1562-12.516-5.8594l-22.781-27h-0.046875c-5.3906-6.9375-4.3594-16.875 2.3906-22.547 6.7031-5.6719 16.688-4.9688 22.594 1.5469l10.453 12 33.938-40.312zm-132 232.69-42.609 101.86 46.312-5.8594c6.0469-1.125 12.234 1.2656 15.984 6.1406l28.781 37.781 45.234-108c-8.4375-2.5312-16.219-6.8438-22.781-12.703-24.844-21.938-20.766-21.938-54-18.469-5.6719 0.46875-11.344 0.23437-16.922-0.75zm261-26.859 43.547 104.16c1.0781 2.625 1.4531 5.4844 1.0781 8.2969-0.51562 4.2656-2.7656 8.2031-6.1875 10.828-3.4219 2.6719-7.7344 3.8438-12.047 3.3281l-65.859-8.5312-40.594 52.922c-3.5156 4.5938-9.2344 6.9844-15 6.2344s-10.688-4.5-12.938-9.8438l-34.781-82.312-50.625 121.22h-0.046875c-2.25 5.4844-7.3594 9.3281-13.266 9.9375-5.9531 0.65625-11.766-1.9688-15.141-6.8438l-39.938-52.453-65.859 8.5312h-0.046875c-4.3125 0.5625-8.6719-0.60938-12.094-3.2812s-5.625-6.5625-6.1406-10.875c-0.375-2.8125-0.046875-5.6719 1.0781-8.25l54.375-129.94-0.046875-0.046875c-10.734-9.8438-17.578-23.203-19.312-37.688 0-3-1.0781-5.7656-1.6875-8.3906h-608.16c-4.3594 0-8.5312-1.7344-11.578-4.8281-3.0469-3.0938-4.7812-7.2656-4.7344-11.625v-768c-0.14063-4.4062 1.5469-8.6719 4.5938-11.859 3.0938-3.1406 7.3125-4.9219 11.719-4.9219h1047.4c9 0 16.312 7.3125 16.312 16.312v768c0.14062 4.4531-1.5 8.7188-4.5469 11.953-3.0938 3.1875-7.3594 4.9688-11.766 4.9688h-118.08c-1.125 11.484-4.3594 22.688-9.6094 33zm-31.219-12c-5.7188 6.1875-14.016 9.3281-22.406 8.3906-23.062-2.5312-41.156-6.8438-63.234 12.703l-16.359 13.359c-10.219 9.1406-25.734 9.1406-36 0l-15.703-13.922c-22.078-19.547-40.219-15.234-63.234-12.703v-0.046876c-13.688 1.4531-26.297-7.7344-29.062-21.234-4.5469-22.453-5.8594-41.391-32.391-56.391l-14.391-8.7656c-12.141-6.4688-17.344-21.141-12-33.844l8.1562-19.219v0.046874c6.6094-14.859 6.6094-31.828 0-46.688l-8.1562-19.219c-5.3438-12.656-0.14062-27.328 12-33.844 20.156-12 38.391-18.469 44.531-48.703l2.7656-16.922c2.7188-13.547 15.281-22.734 29.016-21.234 23.062 2.5312 41.156 6.7031 63.234-12.703l15.703-13.922h0.046875c10.219-9.1875 25.734-9.1875 36 0l15.703 13.922c22.078 19.453 40.219 15.234 63.234 12.703 13.547-1.2656 25.875 7.9219 28.547 21.234 4.5469 22.453 5.8594 41.297 32.391 56.297l15.469 8.8594h0.046875c12.141 6.4688 17.344 21.141 12 33.844l-8.1562 19.219c-6.6094 14.859-6.6094 31.781 0 46.641l8.1562 19.219c5.3438 12.703 0.14062 27.375-12 33.844-20.156 12-38.391 18.375-44.531 48l-3.375 16.547c-0.9375 4.8281-3.2344 9.2812-6.5625 12.844zm-88.922 66 31.547 75.375 28.594-38.531c3.75-4.875 9.9375-7.2188 15.938-6.1406l46.312 5.8594-28.641-67.5c-30.609 14.297-51.469-6-69.469 9.9375-7.7812 7.4062-16.078 14.203-24.844 20.391zm-440.39-673.78c-9 0-16.312-7.3125-16.312-16.359 0-9 7.3125-16.312 16.312-16.312h329.06c9 0 16.312 7.3125 16.312 16.312 0 9.0469-7.3125 16.359-16.312 16.359zm-86.766 94.781c-8.4844-0.75-15-7.8281-15-16.359 0-8.5781 6.5156-15.656 15-16.406h502.6c8.4844 0.75 15 7.8281 15 16.406 0 8.5312-6.5156 15.609-15 16.359zm-42.234 315.47c-1.4062 8.9062-9.7969 15-18.703 13.594-8.9062-1.4531-15-9.8438-13.547-18.75 7.7812-47.156 26.062-73.453 45.609-84 28.922-15.609 58.922 0.84375 70.781 30.844 12.562-9.3281 28.922-11.953 43.781-7.0312 14.859 4.9688 26.391 16.875 30.844 31.875h24c9 0 16.312 7.3125 16.312 16.312s-7.3125 16.312-16.312 16.312h-37.688c-8.8125-0.046875-16.031-7.0781-16.312-15.938 0-12.844-9.9375-22.219-21.609-17.156-8.9062 4.9219-15.609 12.984-18.844 22.688-3.0938 7.4531-11.203 11.531-19.031 9.6562-7.875-1.9219-13.172-9.2812-12.516-17.344 2.9531-14.25-1.2188-29.016-11.156-39.609-4.5469-4.2656-11.438-5.0156-16.781-1.7812-12 6.2344-22.922 24.844-28.781 60zm-49.547-221.63c-8.4844-0.75-15.047-7.8281-15.047-16.406 0-8.5312 6.5625-15.609 15.047-16.359h686.16c8.4844 0.75 15.047 7.8281 15.047 16.359 0 8.5781-6.5625 15.656-15.047 16.406zm0 94.219c-9 0-16.312-7.3125-16.312-16.359 0-9 7.3125-16.312 16.312-16.312h377.29c9 0 16.312 7.3125 16.312 16.312 0 9.0469-7.3125 16.359-16.312 16.359z" fill="#7031ff" fill-rule="evenodd"/>
</svg>
