<?xml version="1.0" encoding="UTF-8"?>
<svg width="100pt" height="100pt" version="1.1" viewBox="0 0 100 100" xmlns="http://www.w3.org/2000/svg">
 <path d="m77.699 11.289h-55.398c-2.5508 0-4.6211 2.0703-4.6211 4.6211v68.18c0 2.5508 2.0703 4.6211 4.6211 4.6211h55.398c2.5508 0 4.6211-2.0703 4.6211-4.6211v-68.18c0-2.5508-2.0703-4.6211-4.6211-4.6211zm-38.828 74.391v-18.469c0-6.1406 4.9883-11.129 11.129-11.129s11.129 4.9883 11.129 11.129v18.48h-22.258zm40.43-1.5898c0 0.87891-0.71875 1.5898-1.5898 1.5898h-13.562v-18.469c0-7.8086-6.3516-14.148-14.148-14.148-7.8008-0.003906-14.148 6.3359-14.148 14.148v18.48h-13.551c-0.87891 0-1.5898-0.71875-1.5898-1.5898v-68.191c0-0.87891 0.71875-1.5898 1.5898-1.5898h55.398c0.87891 0 1.5898 0.71875 1.5898 1.5898v68.18z" fill="#7031ff"/>
 <path d="m34.09 22.059h-8.4297c-0.83984 0-1.5117 0.67969-1.5117 1.5117 0 0.83984 0.67969 1.5117 1.5117 1.5117h8.4297c0.83984 0 1.5117-0.67969 1.5117-1.5117 0-0.83984-0.67187-1.5117-1.5117-1.5117z" fill="#7031ff"/>
 <path d="m60.879 22.059h-8.4297c-0.83984 0-1.5117 0.67969-1.5117 1.5117 0 0.83984 0.67969 1.5117 1.5117 1.5117h8.4297c0.83984 0 1.5117-0.67969 1.5117-1.5117 0-0.83984-0.67969-1.5117-1.5117-1.5117z" fill="#7031ff"/>
 <path d="m74.34 22.059h-8.4297c-0.83984 0-1.5117 0.67969-1.5117 1.5117 0 0.83984 0.67969 1.5117 1.5117 1.5117h8.4297c0.83984 0 1.5117-0.67969 1.5117-1.5117 0-0.83984-0.67969-1.5117-1.5117-1.5117z" fill="#7031ff"/>
 <path d="m47.41 22.059h-8.4297c-0.83984 0-1.5117 0.67969-1.5117 1.5117 0 0.83984 0.67969 1.5117 1.5117 1.5117h8.4297c0.83984 0 1.5117-0.67969 1.5117-1.5117 0-0.83984-0.67188-1.5117-1.5117-1.5117z" fill="#7031ff"/>
 <path d="m34.09 37.211h-8.4297c-0.83984 0-1.5117 0.67969-1.5117 1.5117 0 0.82812 0.67969 1.5117 1.5117 1.5117h8.4297c0.83984 0 1.5117-0.67969 1.5117-1.5117 0-0.83203-0.67187-1.5117-1.5117-1.5117z" fill="#7031ff"/>
 <path d="m60.879 37.211h-8.4297c-0.83984 0-1.5117 0.67969-1.5117 1.5117 0 0.82812 0.67969 1.5117 1.5117 1.5117h8.4297c0.83984 0 1.5117-0.67969 1.5117-1.5117 0-0.83203-0.67969-1.5117-1.5117-1.5117z" fill="#7031ff"/>
 <path d="m74.34 37.211h-8.4297c-0.83984 0-1.5117 0.67969-1.5117 1.5117 0 0.82812 0.67969 1.5117 1.5117 1.5117h8.4297c0.83984 0 1.5117-0.67969 1.5117-1.5117 0-0.83203-0.67969-1.5117-1.5117-1.5117z" fill="#7031ff"/>
 <path d="m47.41 37.211h-8.4297c-0.83984 0-1.5117 0.67969-1.5117 1.5117 0 0.82812 0.67969 1.5117 1.5117 1.5117h8.4297c0.83984 0 1.5117-0.67969 1.5117-1.5117 0-0.83203-0.67188-1.5117-1.5117-1.5117z" fill="#7031ff"/>
 <path d="m34.09 29.629h-8.4297c-0.83984 0-1.5117 0.67969-1.5117 1.5117 0 0.83984 0.67969 1.5117 1.5117 1.5117h8.4297c0.83984 0 1.5117-0.67969 1.5117-1.5117s-0.67187-1.5117-1.5117-1.5117z" fill="#7031ff"/>
 <path d="m60.879 29.629h-8.4297c-0.83984 0-1.5117 0.67969-1.5117 1.5117 0 0.83984 0.67969 1.5117 1.5117 1.5117h8.4297c0.83984 0 1.5117-0.67969 1.5117-1.5117s-0.67969-1.5117-1.5117-1.5117z" fill="#7031ff"/>
 <path d="m74.34 29.629h-8.4297c-0.83984 0-1.5117 0.67969-1.5117 1.5117 0 0.83984 0.67969 1.5117 1.5117 1.5117h8.4297c0.83984 0 1.5117-0.67969 1.5117-1.5117s-0.67969-1.5117-1.5117-1.5117z" fill="#7031ff"/>
 <path d="m47.41 29.629h-8.4297c-0.83984 0-1.5117 0.67969-1.5117 1.5117 0 0.83984 0.67969 1.5117 1.5117 1.5117h8.4297c0.83984 0 1.5117-0.67969 1.5117-1.5117s-0.67188-1.5117-1.5117-1.5117z" fill="#7031ff"/>
 <path d="m34.09 44.34h-8.4297c-0.83984 0-1.5117 0.67969-1.5117 1.5117 0 0.83984 0.67969 1.5117 1.5117 1.5117h8.4297c0.83984 0 1.5117-0.67969 1.5117-1.5117 0-0.83203-0.67187-1.5117-1.5117-1.5117z" fill="#7031ff"/>
 <path d="m74.34 44.34h-8.4297c-0.83984 0-1.5117 0.67969-1.5117 1.5117 0 0.83984 0.67969 1.5117 1.5117 1.5117h8.4297c0.83984 0 1.5117-0.67969 1.5117-1.5117 0-0.83203-0.67969-1.5117-1.5117-1.5117z" fill="#7031ff"/>
</svg>
