<?xml version="1.0" encoding="UTF-8"?>
<svg width="512pt" height="512pt" version="1.1" viewBox="0 0 512 512" xmlns="http://www.w3.org/2000/svg">
 <path d="m107.88 243.01h29.922-0.003906c2.707-0.003907 4.8945-2.1953 4.8945-4.9023v-56.512c0-2.7031-2.1914-4.8945-4.8945-4.8945h-29.918c-2.707 0-4.8984 2.1875-4.9023 4.8945v56.512c0.003906 2.707 2.1953 4.8984 4.9023 4.9023zm4.8945-56.52h20.125v46.723h-20.125zm80.988-38.605h-29.918c-2.7031 0-4.8945 2.1914-4.8945 4.8945v85.328c0 2.707 2.1914 4.8984 4.8945 4.9023h29.922c2.7031-0.003907 4.8945-2.1953 4.8945-4.9023v-85.328c0-1.3008-0.51562-2.5469-1.4375-3.4648-0.91797-0.91797-2.1641-1.4336-3.4609-1.4297zm-4.8945 85.328h-20.133v-75.52h20.133zm30.934 9.793h29.922v0.003907c2.7031-0.003907 4.8945-2.1953 4.8945-4.9023v-120.79c0-2.7031-2.1914-4.8945-4.8945-4.8945h-29.922c-2.7031 0-4.8945 2.1914-4.8945 4.8945v120.79c0 2.707 2.1914 4.8984 4.8945 4.9023zm4.8945-120.8h20.133v111h-20.133zm-30.008 157.34c0 2.7031-2.1914 4.8945-4.8945 4.8945h-81.922c-2.7031 0-4.8945-2.1914-4.8945-4.8945s2.1914-4.8945 4.8945-4.8945h81.922c2.7031 0 4.8945 2.1914 4.8945 4.8945zm-91.711 30.961c0.003906-2.7031 2.1953-4.8945 4.9023-4.8945h68.176c2.7031 0 4.8945 2.1914 4.8945 4.8945s-2.1914 4.8945-4.8945 4.8945h-68.176c-2.707 0-4.8984-2.1914-4.9023-4.8945zm0 30.965c0.003906-2.7031 2.1953-4.8945 4.9023-4.8945h65.574c2.7031 0 4.8945 2.1914 4.8945 4.8945 0 2.707-2.1914 4.8984-4.8945 4.8984h-65.574c-2.707 0-4.8984-2.1914-4.9023-4.8984zm82.5 30.965v0.003906c-0.003906 2.7031-2.1953 4.8945-4.9023 4.8945h-72.703c-2.7031 0-4.8945-2.1914-4.8945-4.8945 0-2.7031 2.1914-4.8945 4.8945-4.8945h72.703c2.707 0 4.8984 2.1875 4.9023 4.8945zm143.74-40.152c0 2.7031 2.1914 4.8945 4.8945 4.8984h64.945c1.3008 0.003906 2.5508-0.51172 3.4727-1.4297 0.92188-0.92187 1.4375-2.168 1.4414-3.4688-0.007812-7.1445-2.0586-14.137-5.9141-20.152-3.8555-6.0117-9.3555-10.793-15.848-13.777 3.2812-3.6523 5.0391-8.4258 4.9062-13.332-0.12891-4.9062-2.1328-9.5781-5.6016-13.055-3.4648-3.4727-8.1328-5.4883-13.043-5.6289-4.9062-0.13672-9.6797 1.6094-13.34 4.8828-3.6562 3.2734-5.9258 7.8203-6.332 12.715-0.40625 4.8906 1.0781 9.7539 4.1445 13.586-6.9844 2.7461-12.98 7.5312-17.215 13.727-4.2305 6.1992-6.5 13.527-6.5117 21.035zm38.676-56.129v-0.003906c3.8047 0 7.2344 2.2891 8.6914 5.8008s0.65234 7.5547-2.0352 10.246c-2.6875 2.6875-6.7305 3.4961-10.246 2.0391-3.5117-1.4531-5.8047-4.8828-5.8047-8.6836 0.003906-5.1953 4.2148-9.4102 9.4102-9.4102zm-1.2969 28.551c6.4609 0.007812 12.715 2.2812 17.672 6.4219 4.957 4.1445 8.3047 9.8945 9.4609 16.25h-54.27c1.1562-6.3555 4.5039-12.105 9.4609-16.246 4.9609-4.1445 11.215-6.418 17.676-6.4258zm-64.211 33.844c-0.007812-7.1719-2.0703-14.188-5.9453-20.223-3.8711-6.0352-9.3906-10.836-15.906-13.832 3.293-3.6602 5.0586-8.4414 4.9336-13.367-0.12891-4.9219-2.1367-9.6094-5.6133-13.098-3.4805-3.4844-8.1602-5.5078-13.082-5.6445-4.9258-0.14062-9.7148 1.6133-13.383 4.8984-3.668 3.2852-5.9375 7.8477-6.3438 12.758-0.40625 4.9062 1.0859 9.7852 4.168 13.625-7.0078 2.7578-13.023 7.5586-17.266 13.777-4.2461 6.2227-6.5195 13.574-6.5312 21.105 0 2.7031 2.1914 4.8945 4.8945 4.8945h65.164c1.3008 0.003906 2.5508-0.50781 3.4688-1.4297 0.92188-0.91797 1.4414-2.1641 1.4414-3.4648zm-36.145-56.359c3.8242 0 7.2695 2.3047 8.7305 5.8359s0.65234 7.5977-2.0508 10.301c-2.707 2.6992-6.7695 3.5078-10.301 2.0469-3.5312-1.4648-5.832-4.9102-5.832-8.7344 0.003906-5.2188 4.2344-9.4492 9.4531-9.4492zm-28.598 51.465c1.5391-8.5938 7.0469-15.961 14.852-19.871 7.8086-3.9102 17.004-3.9102 24.812 0 7.8047 3.9102 13.312 11.277 14.852 19.871zm74.586 52.949c3.293-3.6562 5.0586-8.4414 4.9336-13.363-0.12891-4.9219-2.1367-9.6055-5.6133-13.094-3.4766-3.4844-8.1562-5.5039-13.078-5.6445-4.9219-0.13672-9.707 1.6133-13.379 4.8984-3.668 3.2812-5.9375 7.8477-6.3398 12.754-0.40625 4.9062 1.0859 9.7812 4.1641 13.621-7.0078 2.7578-13.027 7.5586-17.27 13.781-4.2461 6.2188-6.5195 13.574-6.5273 21.105 0 2.7031 2.1914 4.8945 4.8945 4.8945h65.203c2.7031 0 4.8945-2.1914 4.8945-4.8945-0.007813-7.1719-2.0742-14.195-5.9531-20.23s-9.4062-10.836-15.93-13.828zm-14.305-22.309v0.003907c3.8242-0.003907 7.2773 2.3008 8.7422 5.832 1.4648 3.5352 0.65625 7.6016-2.0469 10.309-2.7031 2.707-6.7734 3.5156-10.309 2.0508-3.5312-1.4609-5.8359-4.9102-5.8359-8.7344 0.003906-5.2188 4.2305-9.4492 9.4492-9.457zm-28.578 51.473c1.5391-8.5938 7.0469-15.957 14.852-19.867 7.8086-3.9141 17.004-3.9141 24.812 0 7.8047 3.9102 13.312 11.273 14.852 19.867zm152.54-27.902c3.1836-3.5273 4.9414-8.1094 4.9375-12.855v-0.56641c0.027343-0.078125 0.050781-0.15234 0.070312-0.23438v-0.003906c7.3672-29.246 2.9375-60.219-12.336-86.227-15.273-26.004-40.16-44.961-69.293-52.777v-179.11c0.003906-1.3008-0.51172-2.5469-1.4297-3.4648-0.91797-0.92188-2.1641-1.4375-3.4648-1.4375h-217.93c-1.3008 0-2.543 0.51562-3.4609 1.4336l-49.262 49.254c-0.91797 0.92188-1.4336 2.1641-1.4336 3.4609v296.75c0 2.7031 2.1914 4.8945 4.8945 4.8945h73.527 71.68c18.594 29.691 49.734 49.258 84.551 53.121 34.812 3.8672 69.488-8.3906 94.141-33.281h41.738c2.7031 0 4.8945-2.1914 4.8945-4.8945-0.003907-7.168-2.0586-14.188-5.9258-20.227-3.8672-6.0352-9.3867-10.84-15.898-13.84zm-23.762-12.855c0-3.8281 2.3047-7.2812 5.8438-8.7461 3.5352-1.4609 7.6055-0.64844 10.309 2.0625 2.7031 2.7109 3.5078 6.7812 2.0352 10.316-1.4727 3.5352-4.9336 5.8281-8.7617 5.8164-5.2148-0.003906-9.4453-4.2344-9.4492-9.4492zm22.328-33.859h-99.941v-99.938c26.098 1.2578 50.789 12.191 69.262 30.668 18.473 18.477 29.402 43.172 30.656 69.27zm-302.91-273.24v32.543h-32.555zm29.184 329.28h-68.609v-286.94h44.363c2.707-0.003906 4.8945-2.1953 4.8945-4.8984v-44.359h208.1v172.03c-6.5625-1.1484-13.215-1.7266-19.879-1.7266-1.6836 0-3.3555 0.039063-5.0195 0.11328v-147.89c0-2.7031-2.1914-4.8984-4.8945-4.9023h-29.922c-2.7031 0.003906-4.8945 2.1992-4.8945 4.9023v154.59c0 0.72266 0.16016 1.4336 0.46875 2.0859-29.293 12.234-52.207 36.066-63.281 65.816-11.074 29.75-9.3203 62.762 4.8398 91.172zm147.97-163.97h-14.008l-0.003906-144.81h20.125v143.87c-2.0703 0.25-4.1133 0.5625-6.1328 0.9375zm-84.059 112.82c0.035156-26.977 10.441-52.91 29.066-72.422 18.625-19.516 44.043-31.121 70.988-32.41v104.83c0.003907 0.19531 0.015626 0.39453 0.042969 0.58984v0.14844c0.027344 0.15234 0.054688 0.30078 0.09375 0.44922l0.035157 0.13672c0.050781 0.17578 0.10937 0.34766 0.17969 0.51172 0.078125 0.17578 0.16797 0.34766 0.26562 0.51562v0.035156l52.5 90.914c-32.555 16.762-71.488 15.367-102.76-3.6836-31.273-19.047-50.371-53-50.414-89.617zm161.63 88.387-48.176-83.492h96.324c-0.14453 3.043-0.41406 6.0742-0.8125 9.0898-4.9648-4-11.59-5.2773-17.688-3.4102-6.0977 1.8633-10.871 6.6289-12.75 12.723s-0.61328 12.719 3.375 17.695c-7.0117 2.7539-13.027 7.5547-17.27 13.777-4.2461 6.2188-6.5195 13.574-6.5312 21.105 0 2.7031 2.1914 4.8945 4.8945 4.8945h8.9883c-3.293 2.7461-6.75 5.2891-10.355 7.6172zm6.6953-17.406 0.003906-0.003906c1.543-8.5938 7.0469-15.957 14.855-19.867 7.8047-3.9141 17-3.9141 24.809 0 7.8047 3.9102 13.312 11.273 14.852 19.867z" fill="#e7e7e7" stroke="#e7e7e7" stroke-width="1"/>
</svg>
