<?xml version="1.0" encoding="UTF-8"?>
<svg width="1200pt" height="1200pt" version="1.1" viewBox="0 0 1200 1200" xmlns="http://www.w3.org/2000/svg">
 <path d="m300 1023.5v-114.98c0-7.875-1.4062-15.656-4.1719-23.062l-46.219-123.28c-3.6562-9.7031-14.438-14.625-24.141-10.969s-14.625 14.438-10.969 24.141l46.219 123.28c1.2188 3.1875 1.7812 6.4688 1.7812 9.8438v122.72c0 4.9688 1.9688 9.75 5.4844 13.266l5.4844 5.4844h-29.719v-131.26c0-10.359-8.3906-18.75-18.75-18.75s-18.75 8.3906-18.75 18.75v150c0 10.359 8.3906 18.75 18.75 18.75h93.75c7.5938 0 14.438-4.5938 17.344-11.578 2.9062-7.0312 1.3125-15.094-4.0312-20.438l-32.016-32.016z" fill="#7031ff"/>
 <path d="m356.26 600h-30.469l28.969-67.594c4.0781-9.5156-0.32812-20.531-9.8438-24.609-9.5156-4.0781-20.531 0.32812-24.609 9.8438l-35.344 82.406h-59.953c-8.625 0-16.125 5.8594-18.188 14.203l-5.3438 21.516-65.625-16.406c-10.031-2.5312-20.25 3.6094-22.734 13.641-2.5312 10.031 3.5625 20.25 13.641 22.734l15.703 3.9375c-34.406 10.125-68.625 15.75-81.891 7.125-1.5-0.9375-4.2656-2.7656-4.2656-10.5 0-24.094 13.172-52.266 34.359-73.453 25.172-25.172 59.578-39.047 96.891-39.047 29.719 0 43.875 14.156 61.734 32.016 7.3125 7.3125 19.219 7.3125 26.531 0s7.3125-19.219 0-26.531c-9.5625-9.5625-20.25-20.25-34.219-28.594 12.938-13.5 20.906-31.781 20.906-51.891 0-41.344-33.656-75-75-75-41.391 0-75 33.656-75 75 0 17.859 6.2812 34.312 16.781 47.156-67.219 23.156-110.53 84.281-110.53 140.34 0 23.25 11.625 35.625 21.328 41.953 11.016 7.125 25.594 9.9375 41.672 9.9375 3.9375 0 7.9688-0.1875 12-0.46875v78.281l-18.281 109.5-55.781 167.34c-1.875 5.7188-0.9375 12 2.5781 16.875 3.5156 4.875 9.1875 7.7812 15.188 7.7812h93.75c6.4688 0 12.562-3.375 15.938-8.9062 3.4219-5.5312 3.75-12.422 0.84375-18.234l-14.859-29.719 52.828-123.28c0.375-0.9375 0.70312-1.875 0.9375-2.8125l18.75-75c2.5312-10.031-3.5625-20.25-13.641-22.734-10.031-2.5312-20.25 3.6094-22.734 13.641l-18.375 73.547-55.688 129.84c-2.1562 5.0625-1.9688 10.828 0.46875 15.75l5.1562 10.359h-37.406l48-144.1c0.28125-0.9375 0.5625-1.875 0.70312-2.8125l18.75-112.5c0.1875-1.0312 0.28125-2.0625 0.28125-3.0938v-85.875c21.656-5.0625 42.469-12.188 58.266-18.188l-1.4531 5.8125c-1.4062 5.625-0.14062 11.531 3.4219 16.078s9 7.2188 14.812 7.2188h131.26c8.625 0 16.125-5.8594 18.188-14.203l18.75-75c1.4062-5.625 0.14062-11.531-3.4219-16.078s-9-7.2188-14.812-7.2188zm-206.26-131.26c0-20.672 16.828-37.5 37.5-37.5s37.5 16.828 37.5 37.5c0 20.672-16.828 37.5-37.5 37.5s-37.5-16.828-37.5-37.5zm172.87 206.26h-92.625l9.375-37.5h92.625z" fill="#7031ff"/>
 <path d="m1162.5 131.26h-75c0-10.359-8.3906-18.75-18.75-18.75s-18.75 8.3906-18.75 18.75h-75c-10.359 0-18.75 8.3906-18.75 18.75 0 10.359 8.3906 18.75 18.75 18.75h75v37.5h-56.25c-10.359 0-18.75 8.3906-18.75 18.75 0 10.359 8.3906 18.75 18.75 18.75h86.484l-3.0469 9.1406c-2.25 6.8438-8.3438 11.812-15.469 12.656l-105.47 13.219v-53.766c0-10.359-8.3906-18.75-18.75-18.75h-187.5c-10.359 0-18.75 8.3906-18.75 18.75v53.766l-105.47-13.219c-7.125-0.89063-13.219-5.8594-15.469-12.656l-3.0469-9.1406h86.484c10.359 0 18.75-8.3906 18.75-18.75 0-10.359-8.3906-18.75-18.75-18.75h-56.25v-37.5h75c10.359 0 18.75-8.3906 18.75-18.75 0-10.359-8.3906-18.75-18.75-18.75h-75c0-10.359-8.3906-18.75-18.75-18.75s-18.75 8.3906-18.75 18.75h-75c-10.359 0-18.75 8.3906-18.75 18.75 0 10.359 8.3906 18.75 18.75 18.75h75v37.5h-18.75c-6 0-11.719 2.9062-15.188 7.7812-3.5156 4.875-4.5 11.156-2.5781 16.875l11.25 33.844c6.8438 20.438 25.031 35.344 46.406 38.016l112.69 14.062c0.79688 2.5312 1.7812 4.9688 2.9062 7.3594-3.2812 3.2812-80.484 81.844-80.484 200.76 0 10.359 8.3906 18.75 18.75 18.75s18.75-8.3906 18.75-18.75c0-102.47 68.203-172.92 69.516-174.24 7.3125 3.5156 15.562 5.5312 24.234 5.5312h37.5v18.75h-18.75c-10.359 0-18.75 8.3906-18.75 18.75v75c0 10.359 8.3906 18.75 18.75 18.75h75c10.359 0 18.75-8.3906 18.75-18.75v-75c0-10.359-8.3906-18.75-18.75-18.75h-18.75v-18.75h37.5c8.6719 0 16.875-1.9688 24.234-5.5312 1.0312 1.0781 69.516 71.578 69.516 174.24 0 10.359 8.3906 18.75 18.75 18.75s18.75-8.3906 18.75-18.75c0-118.88-77.203-197.44-80.484-200.76 1.125-2.3438 2.1094-4.8281 2.9062-7.3594l112.69-14.062c21.375-2.6719 39.562-17.625 46.406-38.062l11.25-33.844c1.875-5.7188 0.9375-12-2.5781-16.875s-9.1875-7.7812-15.188-7.7812h-18.75v-37.5h75c10.359 0 18.75-8.3906 18.75-18.75 0-10.359-8.3906-18.75-18.75-18.75zm-300 318.74h-37.5v-37.5h37.5zm56.25-150c0 10.312-8.4375 18.75-18.75 18.75h-112.5c-10.312 0-18.75-8.4375-18.75-18.75v-56.25h150z" fill="#7031ff"/>
</svg>
