<?xml version="1.0" encoding="UTF-8"?>
<svg width="100pt" height="100pt" version="1.1" viewBox="0 0 100 100" xmlns="http://www.w3.org/2000/svg">
 <path d="m94.27 74.059c0.007813-0.011719 0.019531-0.027344 0.027344-0.042969 0.011719-0.019531 0.023437-0.035156 0.035156-0.054687 0.007813-0.015626 0.019531-0.03125 0.027344-0.050782 0.007813-0.019531 0.019531-0.035156 0.023437-0.054687 0.007813-0.019531 0.015626-0.039063 0.023438-0.058594 0.007812-0.015625 0.011719-0.035156 0.019531-0.050781 0.007813-0.019532 0.011719-0.042969 0.019531-0.0625 0.003907-0.015625 0.007813-0.035156 0.011719-0.050782 0.003907-0.019531 0.011719-0.042968 0.011719-0.0625 0.003906-0.019531 0.007812-0.039062 0.007812-0.058593 0.003907-0.019531 0.003907-0.039063 0.007813-0.058594 0.003906-0.023437 0.003906-0.046875 0.003906-0.070313 0-0.011718 0.003907-0.023437 0.003907-0.035156v-8.9297c0-2.2266-1.8125-4.0391-4.0391-4.0391h-10.992v-1.8086c0-2.9961-2.4375-5.4336-5.4336-5.4336h-8.4336c-4.7422-6.2422-11.508-10.574-19.016-12.34 7.0312-2.9805 11.977-9.957 11.977-18.062 0-10.812-8.7969-19.609-19.605-19.609-10.809 0-19.605 8.7969-19.605 19.605 0 8.1016 4.9375 15.07 11.961 18.055-14.77 3.4688-25.797 16.75-25.797 32.562v6.0352c0 0.67188 0.54297 1.2188 1.2188 1.2188h3.25v1.1211c0 0.55859 0.37891 1.043 0.91797 1.1797l2.3984 0.60938c0.28125 0.94531 0.66016 1.8633 1.1328 2.7305l-1.2656 2.1289c-0.28516 0.48047-0.21094 1.0898 0.18359 1.4844l3.3086 3.3086c0.39453 0.39453 1.0039 0.47266 1.4844 0.18359l2.1289-1.2695c0.87109 0.47266 1.7852 0.85156 2.7305 1.1328l0.60938 2.3984c0.13672 0.53906 0.62109 0.91797 1.1797 0.91797h4.6758c0.55859 0 1.043-0.37891 1.1797-0.91797l0.60547-2.3984c0.94531-0.28125 1.8633-0.66016 2.7305-1.1328l2.1289 1.2656c0.47656 0.28516 1.0898 0.20703 1.4844-0.18359l3.3047-3.3086c0.39453-0.39453 0.46875-1.0039 0.18359-1.4844l-1.2695-2.1289c0.47266-0.87109 0.85156-1.7852 1.1328-2.7305l2.3984-0.60937c0.53906-0.13672 0.91797-0.62109 0.91797-1.1797v-4.6758c0-0.55859-0.37891-1.043-0.91797-1.1797l-2.3984-0.60938c-0.28125-0.94531-0.66016-1.8633-1.1328-2.7305l1.2656-2.1289c0.28516-0.48047 0.21094-1.0898-0.18359-1.4844l-3.3047-3.3086c-0.39453-0.39453-1.0039-0.46875-1.4844-0.18359l-2.1289 1.2695c-0.87109-0.47266-1.7852-0.85156-2.7305-1.1328l-0.60938-2.3984c-0.13672-0.53906-0.62109-0.91797-1.1797-0.91797h-4.6758c-0.55859 0-1.043 0.37891-1.1797 0.91797l-0.60938 2.3984c-0.94531 0.28125-1.8594 0.66016-2.7305 1.1328l-2.1289-1.2695c-0.48047-0.28516-1.0898-0.21094-1.4844 0.18359l-3.3086 3.3086c-0.39453 0.39453-0.46875 1.0039-0.18359 1.4844l1.2656 2.1289c-0.47266 0.87109-0.85156 1.7852-1.1328 2.7305l-2.3984 0.60938c-0.53906 0.13672-0.91797 0.62109-0.91797 1.1797v1.1211h-2.0273v-4.8164c0-17.098 13.91-31.008 31.008-31.008 9.2422 0 18.008 4.1602 23.875 11.227-1.9453 0.82812-3.3125 2.7578-3.3125 5.0039v1.8086h-10.992c-2.2266 0-4.0391 1.8125-4.0391 4.0391v8.9375c0 0.011719 0 0.023437 0.003906 0.035156 0 0.023437 0 0.046875 0.003906 0.070313 0.003907 0.019531 0.003907 0.039062 0.007813 0.058593s0.003906 0.039063 0.007812 0.058594c0.003906 0.023437 0.007813 0.042969 0.011719 0.0625 0.003906 0.015625 0.007813 0.035156 0.011719 0.050781 0.007812 0.019532 0.011718 0.042969 0.019531 0.0625 0.007813 0.015625 0.011719 0.035156 0.019531 0.050782 0.007813 0.019531 0.015625 0.039062 0.023438 0.054687 0.007812 0.019531 0.015625 0.035156 0.027344 0.054687 0.007812 0.015626 0.019531 0.03125 0.027343 0.046876 0.011719 0.019531 0.023438 0.039062 0.035157 0.054687 0.007812 0.011719 0.019531 0.027344 0.027343 0.039063 0.011719 0.019531 0.027344 0.039062 0.042969 0.054687 0.011719 0.011719 0.019531 0.023437 0.03125 0.039063 0.015625 0.019531 0.03125 0.035156 0.046875 0.050781 0.011719 0.011719 0.027344 0.023437 0.039063 0.039062 0.015624 0.015625 0.03125 0.027344 0.046874 0.042969 0.015626 0.011719 0.035157 0.027344 0.050782 0.039062 0.011718 0.007813 0.019531 0.015626 0.03125 0.023438 0.007812 0.007812 0.015625 0.011719 0.023437 0.019531 0.40234 0.28516 0.82812 0.5625 1.2734 0.83203v17.531c0 2.2891 1.6602 4.1484 3.7031 4.1484l38.984 0.003906c2.043 0 3.7031-1.8633 3.7031-4.1484v-17.531c0.44531-0.26953 0.87109-0.54297 1.2695-0.82812l0.003906-0.003906c0.007813-0.003907 0.015625-0.011719 0.023438-0.015626 0.011719-0.007812 0.019531-0.015624 0.027343-0.023437 0.019532-0.011719 0.035157-0.027344 0.054688-0.042969 0.015625-0.011718 0.03125-0.027344 0.042969-0.039062 0.011719-0.011719 0.027343-0.027344 0.039062-0.039063 0.015625-0.015625 0.03125-0.03125 0.042969-0.050781 0.011719-0.011719 0.023438-0.023438 0.03125-0.039062 0.023438-0.019532 0.035156-0.039063 0.050781-0.058594zm-81.863 3.9297 2.1719-0.55078c0.4375-0.10938 0.77734-0.45703 0.88281-0.89453 0.28906-1.1992 0.76562-2.3438 1.4102-3.3984 0.23438-0.38672 0.23828-0.87109 0.007812-1.2578l-1.1484-1.9258 1.9688-1.9648 1.9258 1.1484c0.38672 0.23047 0.87109 0.22656 1.2578-0.007812 1.0586-0.64453 2.1992-1.1172 3.3984-1.4102 0.4375-0.10547 0.78125-0.44531 0.89453-0.88281l0.55078-2.1719h2.7812l0.55078 2.1719c0.11328 0.4375 0.45703 0.77734 0.89453 0.88281 1.1992 0.28906 2.3438 0.76563 3.3984 1.4102 0.38672 0.23438 0.87109 0.23828 1.2578 0.007812l1.9258-1.1484 1.9648 1.9648-1.1484 1.9258c-0.23047 0.38672-0.22656 0.87109 0.007813 1.2578 0.64453 1.0586 1.1211 2.1992 1.4102 3.4023 0.10547 0.4375 0.44531 0.78125 0.88281 0.89453l2.168 0.55078v2.7812l-2.1719 0.55078c-0.4375 0.10938-0.77734 0.45703-0.88281 0.89453-0.28906 1.1992-0.76562 2.3438-1.4102 3.3984-0.23438 0.38672-0.23828 0.86719-0.007813 1.2578l1.1484 1.9258-1.9648 1.9648-1.9258-1.1484c-0.38672-0.23047-0.87109-0.22656-1.2578 0.007812-1.0586 0.64453-2.1992 1.1172-3.4023 1.4102-0.4375 0.10547-0.78125 0.44531-0.89453 0.88281l-0.55078 2.168h-2.7812l-0.55078-2.1719c-0.10938-0.4375-0.45703-0.77734-0.89453-0.88281-1.1992-0.28906-2.3438-0.76562-3.3984-1.4102-0.38281-0.23438-0.86719-0.23828-1.2578-0.007813l-1.9258 1.1484-1.9688-1.9648 1.1484-1.9258c0.23047-0.38672 0.22656-0.87109-0.007813-1.2578-0.64453-1.0547-1.1172-2.1992-1.4102-3.4023-0.10547-0.4375-0.44531-0.78125-0.88281-0.89453l-2.1641-0.54688zm9.3711-55.258c0-9.4688 7.7031-17.172 17.172-17.172s17.172 7.7031 17.172 17.172-7.7031 17.172-17.172 17.172-17.172-7.7031-17.172-17.172zm40.168 35.84c0-1.0781 0.57422-2.0234 1.4336-2.5547 3.9883-0.39844 8.2266-0.39844 12.215 0 0.85938 0.52734 1.4336 1.4727 1.4336 2.5547v1.8086h-15.082zm-13.426 4.2422h41.938c0.88281 0 1.6016 0.71875 1.6016 1.6016v8.2969c-0.37109 0.24219-0.75781 0.48047-1.168 0.71094-0.003906 0.003906-0.011719 0.007813-0.015625 0.007813-1.0078 0.56641-2.1367 1.0898-3.375 1.5703v-1.3203c0-0.67188-0.54297-1.2188-1.2188-1.2188h-5.6016c-0.67188 0-1.2188 0.54297-1.2188 1.2188v3.4766c-3.1719 0.55078-6.5234 0.83203-9.9766 0.83203-3.457 0-6.8047-0.28125-9.9766-0.83203v-3.4766c0-0.67188-0.54297-1.2188-1.2188-1.2188h-5.6016c-0.67188 0-1.2188 0.54297-1.2188 1.2188v1.3203c-1.2383-0.48047-2.3633-1.0039-3.3711-1.5703-0.003906-0.003907-0.011718-0.007813-0.015625-0.007813-0.41016-0.23047-0.79688-0.46484-1.168-0.71094v-8.293c0-0.88672 0.71875-1.6055 1.6055-1.6055zm33.379 15.383v-3.2969h3.168v5.3008h-3.168zm-27.992-1.4375v-1.8555h3.168v5.3047h-3.168zm36.344 15.969c0 0.92969-0.58203 1.7148-1.2695 1.7148h-38.988c-0.6875 0-1.2695-0.78516-1.2695-1.7148v-16.246c0.85938 0.39844 1.7773 0.76953 2.7461 1.1172v3.8203c0 0.67188 0.54297 1.2188 1.2188 1.2188h5.6016c0.67188 0 1.2188-0.54297 1.2188-1.2188v-1.7891c3.1836 0.52734 6.5352 0.79297 9.9766 0.79297s6.793-0.26562 9.9766-0.79297v1.7891c0 0.67188 0.54297 1.2188 1.2188 1.2188h5.6016c0.67188 0 1.2188-0.54297 1.2188-1.2188v-3.8203c0.97266-0.34766 1.8867-0.71875 2.7461-1.1172zm-63.133-4.2305c5.0273 0 9.1172-4.0898 9.1172-9.1172s-4.0898-9.1172-9.1172-9.1172c-5.0273 0-9.1172 4.0898-9.1172 9.1172-0.003906 5.0273 4.0859 9.1172 9.1172 9.1172zm0-15.801c3.6836 0 6.6836 2.9961 6.6836 6.6836 0 3.6836-2.9961 6.6836-6.6836 6.6836-3.6836 0-6.6836-2.9961-6.6836-6.6836 0-3.6836 2.9961-6.6836 6.6836-6.6836z" fill="#7031ff"/>
</svg>
