<?xml version="1.0" encoding="UTF-8"?>
<svg width="1200pt" height="1200pt" version="1.1" viewBox="0 0 1200 1200" xmlns="http://www.w3.org/2000/svg">
 <path d="m1081.2 823.2c-15.602-30-51.602-43.199-82.801-32.398l-91.199 32.398c-56.398-123.6-177.6-204-313.2-210v-80.398c180-16.801 362.4-170.4 362.4-392.4v-13.199l-13.199-2.3984c-130.8-21.602-218.4 24-270 67.199-60 50.398-96 120-108 174-13.199-19.199-31.199-38.398-54-54-73.199-52.801-169.2-64.801-264-33.602l-10.801 3.6016v12c0 108 150 241.2 324 241.2h1.1992v79.199c-103.2 4.8008-198 51.602-264 130.8-2.3984 2.3984-3.6016 6-3.6016 9.6016-16.801 2.3984-33.602 7.1992-50.398 14.398l-90 40.801c-8.3984 3.6016-12 13.199-8.3984 21.602 3.6016 8.3984 13.199 12 21.602 8.3984l90-39.602c60-25.199 130.8-16.801 183.6 21.602l80.398 50.398c19.199 12 43.199 18 66 15.602l120-12c14.398-1.1992 28.801 8.3984 32.398 22.801 3.6016 14.398-6 30-20.398 34.801l-92.398 28.801c-31.199 9.6016-66 12-98.398 4.8008l-78-15.602c-8.3984-1.1992-16.801 3.6016-19.199 13.199-2.3984 9.6016 3.6016 16.801 13.199 19.199l78 15.602c15.602 3.6016 30 4.8008 45.602 4.8008 22.801 0 46.801-3.6016 68.398-10.801l92.398-28.801c25.199-7.1992 42-30 43.199-55.199l238.8-86.398c16.801-6 34.801 1.1992 43.199 16.801 4.8008 8.3984 4.8008 18 2.3984 27.602-2.3984 9.6016-9.6016 16.801-18 20.398l-427.2 215.99c-16.801 8.3984-36 10.801-54 4.8008l-277.2-82.801c-19.203-6-39.602-6-58.801-2.3984l-40.801 8.3984c-8.3984 2.3984-14.398 10.801-12 19.199 2.3984 8.3984 10.801 14.398 19.199 12l39.602-8.3984c14.398-3.6016 28.801-2.3984 43.199 1.1992l277.2 82.801c9.6016 2.3984 20.398 4.8008 30 4.8008 16.801 0 32.398-3.6016 48-12l426-217.2c16.801-8.3984 28.801-22.801 33.602-39.602 7.1992-18 4.8008-36-3.6016-51.602zm-486-373.2v-50.398c0-38.398 27.602-121.2 99.602-182.4 43.199-37.199 118.8-76.801 229.2-62.398-7.1992 195.6-168 330-328.8 345.6zm-33.598 51.602c-147.6 0-279.6-106.8-290.4-196.8 80.398-22.801 160.8-12 222 33.602 42 30 68.398 73.199 68.398 111.6v51.598c1.1992 0 1.1992 0 0 0zm141.6 340.8-120 12c-15.602 1.1992-31.199-2.3984-44.398-10.801l-79.199-50.398c-36-26.398-80.398-40.801-124.8-42 62.398-67.199 150-106.8 242.4-106.8 128.4 0 244.8 74.398 298.8 189.6l-111.6 42c-10.797-22.801-34.797-36-61.199-33.602z" fill="#7031ff"/>
</svg>
