<?xml version="1.0" encoding="UTF-8"?>
<svg width="1200pt" height="1200pt" version="1.1" viewBox="0 0 1200 1200" xmlns="http://www.w3.org/2000/svg">
 <path d="m595.85 1149.3c303.5 0 550.4-246.9 550.4-550.4s-246.9-550.45-550.4-550.45-550.45 246.9-550.45 550.45c0.046875 303.5 246.95 550.4 550.45 550.4zm0-991.45c243.25 0 441 197.85 441 441.05 0 243.15-197.75 441-441 441-243.2 0-441.05-197.85-441.05-441 0.050781-243.2 197.9-441.05 441.05-441.05z" fill="#60c"/>
 <path d="m595.85 716.3c30.199 0 54.699-24.449 54.699-54.75v-291.7c0-30.199-24.551-54.699-54.699-54.699-30.148 0-54.699 24.5-54.699 54.699v291.7c-0.003906 30.301 24.547 54.75 54.699 54.75z" fill="#60c"/>
 <path d="m595.85 882.6c30.199 0 54.699-24.449 54.699-54.699v-9.1016c0-30.199-24.551-54.699-54.699-54.699-30.148 0-54.699 24.449-54.699 54.699v9.1016c-0.003906 30.246 24.547 54.699 54.699 54.699z" fill="#60c"/>
</svg>
