<?xml version="1.0" encoding="UTF-8"?>
<svg width="1200pt" height="1200pt" version="1.1" viewBox="0 0 1200 1200" xmlns="http://www.w3.org/2000/svg">
 <path d="m651.37 882h-102.56c-7.125 0-12.938-5.8125-12.938-12.938v-48c-14.438-4.3125-28.5-10.125-42-17.625l-33.75 33.938c-2.4375 2.4375-5.8125 3.75-9.1875 3.75s-6.75-1.3125-9.1875-3.75l-72.562-72.562c-5.0625-5.0625-5.0625-13.312 0-18.375l33.75-33.938c-7.125-13.312-12.938-27.375-17.438-42.188h-48c-7.125 0-12.938-5.8125-12.938-12.938v-102.38c0-7.125 5.8125-12.938 12.938-12.938h48c4.3125-14.812 10.125-28.875 17.438-42.188l-33.75-33.938c-5.0625-5.0625-5.0625-13.312 0-18.375l72.562-72.562c2.4375-2.4375 5.8125-3.75 9.1875-3.75s6.75 1.3125 9.1875 3.75l33.75 33.938c13.5-7.3125 27.75-13.125 42-17.625v-47.812c0-7.125 5.8125-12.938 12.938-12.938h102.56c7.125 0 12.938 5.8125 12.938 12.938v47.812c14.438 4.3125 28.5 10.125 42 17.625l33.75-33.938c2.4375-2.4375 5.8125-3.75 9.1875-3.75s6.75 1.3125 9.1875 3.75l72.562 72.562c5.0625 5.0625 5.0625 13.312 0 18.375l-33.75 33.938c7.125 13.312 12.938 27.375 17.438 42.188h47.812c7.125 0 12.938 5.8125 12.938 12.938v102.38c0 7.125-5.8125 12.938-12.938 12.938h-48c-4.3125 14.625-10.125 28.875-17.438 42.188l33.75 33.938c5.0625 5.0625 5.0625 13.312 0 18.375l-72.562 72.562c-2.4375 2.4375-5.8125 3.75-9.1875 3.75s-6.75-1.3125-9.1875-3.75l-33.75-33.938c-13.5 7.3125-27.75 13.125-42 17.625v48c0.1875 7.125-5.625 12.938-12.75 12.938zm-89.812-25.875h76.688v-44.812c0-6 4.125-11.062 9.75-12.562 18.562-4.6875 36.562-12.188 53.625-22.312 5.0625-3 11.625-2.25 15.75 2.0625l31.5 31.688 54.188-54.188-31.688-31.688c-4.125-4.3125-5.0625-10.688-1.875-15.75 9.9375-16.5 17.438-34.5 22.125-53.625 1.5-5.8125 6.5625-9.75 12.562-9.75h44.812v-76.5h-44.812c-6 0-11.062-4.125-12.562-9.75-4.875-19.312-12.188-37.312-22.125-53.625-3-5.0625-2.25-11.625 1.875-15.75l31.688-31.688-54.188-54.188-31.5 31.688c-4.125 4.125-10.688 5.0625-15.75 2.0625-17.062-10.312-35.25-17.812-53.625-22.312-5.8125-1.5-9.75-6.5625-9.75-12.562v-44.625h-76.688v44.625c0 6-4.125 11.062-9.75 12.562-18.562 4.6875-36.562 12.188-53.625 22.312-5.0625 3-11.625 2.25-15.75-2.0625l-31.5-31.688-54.188 54.188 31.688 31.688c4.125 4.3125 5.0625 10.688 1.875 15.75-9.9375 16.312-17.25 34.312-22.125 53.625-1.5 5.8125-6.5625 9.75-12.562 9.75h-44.812v76.5h44.812c6 0 11.062 4.125 12.562 9.75 4.6875 19.125 12.188 37.125 22.125 53.625 3 5.0625 2.25 11.625-1.875 15.75l-31.688 31.688 54.188 54.188 31.5-31.688c4.125-4.125 10.688-5.0625 15.75-2.0625 17.062 10.312 35.25 17.812 53.625 22.312 5.8125 1.5 9.75 6.5625 9.75 12.562z" fill="#7031ff"/>
 <path d="m600 732.37c-69.375 0-125.81-56.438-125.81-125.81s56.438-125.81 125.81-125.81 125.81 56.438 125.81 125.81-56.438 125.81-125.81 125.81zm0-225.56c-55.125 0-99.75 44.812-99.75 99.75s44.812 99.75 99.75 99.75 99.75-44.812 99.75-99.75-44.625-99.75-99.75-99.75z" fill="#7031ff"/>
 <path d="m512.26 427.69c-3.9375 0-7.875-1.875-10.5-5.25l-155.63-212.63c-4.3125-5.8125-3-13.875 2.8125-18.188s13.875-3 18.188 2.8125l155.63 212.63c4.3125 5.8125 3 13.875-2.8125 18.188-2.4375 1.5-5.0625 2.4375-7.6875 2.4375z" fill="#7031ff"/>
 <path d="m323.81 224.26c-42.188 0-76.5-34.312-76.5-76.5s34.312-76.5 76.5-76.5 76.5 34.312 76.5 76.5-34.125 76.5-76.5 76.5zm0-127.31c-27.938 0-50.625 22.688-50.625 50.625s22.688 50.625 50.625 50.625 50.625-22.688 50.625-50.625-22.688-50.625-50.625-50.625z" fill="#7031ff"/>
 <path d="m337.5 619.5h-213.94c-7.125 0-12.938-5.8125-12.938-12.938s5.8125-12.938 12.938-12.938h213.94c7.125 0 12.938 5.8125 12.938 12.938s-5.8125 12.938-12.938 12.938z" fill="#7031ff"/>
 <path d="m67.5 674.06c-37.125 0-67.5-30.188-67.5-67.5s30.188-67.5 67.5-67.5 67.5 30.188 67.5 67.5-30.375 67.5-67.5 67.5zm0-111.94c-24.562 0-44.625 20.062-44.625 44.625s20.062 44.625 44.625 44.625 44.625-20.062 44.625-44.625c-0.1875-24.75-20.062-44.625-44.625-44.625z" fill="#7031ff"/>
 <path d="m355.69 1023c-1.6875 0-3.5625-0.375-5.25-1.3125-5.625-2.8125-7.6875-9.75-4.875-15.375l94.875-183.37c2.8125-5.625 9.75-7.6875 15.375-4.875s7.6875 9.75 4.875 15.375l-94.875 183.37c-2.0625 3.9375-6 6.1875-10.125 6.1875z" fill="#7031ff"/>
 <path d="m330.74 1128.9c-37.125 0-67.5-30.188-67.5-67.5s30.188-67.5 67.5-67.5 67.5 30.188 67.5 67.5-30.188 67.5-67.5 67.5zm0-111.94c-24.562 0-44.625 20.062-44.625 44.625s20.062 44.625 44.625 44.625 44.625-20.062 44.625-44.625-19.875-44.625-44.625-44.625z" fill="#7031ff"/>
 <path d="m600 1063.5c-2.25 0-4.5-0.5625-6.5625-1.6875l-393.74-230.26c-3.9375-2.25-6.375-6.5625-6.375-11.25v-455.26c0-4.6875 2.625-9 6.75-11.25l393.74-217.5c3.9375-2.0625 8.625-2.0625 12.562 0l393.74 217.5c4.125 2.25 6.75 6.5625 6.75 11.25v455.06c0 4.6875-2.4375 8.8125-6.375 11.25l-393.74 230.26c-2.25 1.3125-4.5 1.875-6.75 1.875zm-380.81-250.69 380.81 222.74 380.81-222.74v-440.06l-380.81-210.37-380.81 210.37z" fill="#7031ff"/>
 <path d="m687.74 427.69c-2.625 0-5.25-0.75-7.6875-2.4375-5.8125-4.3125-6.9375-12.375-2.8125-18.188l155.63-212.63c4.3125-5.8125 12.375-6.9375 18.188-2.8125 5.8125 4.3125 6.9375 12.375 2.8125 18.188l-155.63 212.63c-2.625 3.375-6.5625 5.25-10.5 5.25z" fill="#7031ff"/>
 <path d="m876.19 224.26c-42.188 0-76.5-34.312-76.5-76.5s34.312-76.5 76.5-76.5 76.5 34.312 76.5 76.5-34.312 76.5-76.5 76.5zm0-127.31c-27.938 0-50.625 22.688-50.625 50.625s22.688 50.625 50.625 50.625 50.625-22.688 50.625-50.625-22.688-50.625-50.625-50.625z" fill="#7031ff"/>
 <path d="m1076.4 619.5h-213.94c-7.125 0-12.938-5.8125-12.938-12.938s5.8125-12.938 12.938-12.938h213.94c7.125 0 12.938 5.8125 12.938 12.938s-5.8125 12.938-12.938 12.938z" fill="#7031ff"/>
 <path d="m1132.5 674.06c-37.125 0-67.5-30.188-67.5-67.5s30.188-67.5 67.5-67.5c37.125 0 67.5 30.188 67.5 67.5s-30.188 67.5-67.5 67.5zm0-111.94c-24.562 0-44.625 20.062-44.625 44.625s20.062 44.625 44.625 44.625 44.625-20.062 44.625-44.625c0-24.75-19.875-44.625-44.625-44.625z" fill="#7031ff"/>
 <path d="m844.31 1023c-4.125 0-8.0625-2.25-10.125-6.1875l-94.875-183.37c-2.8125-5.625-0.75-12.562 4.875-15.375s12.562-0.75 15.375 4.875l94.875 183.37c2.8125 5.625 0.75 12.562-4.875 15.375-1.6875 0.9375-3.5625 1.3125-5.25 1.3125z" fill="#7031ff"/>
 <path d="m869.26 1128.9c-37.125 0-67.5-30.188-67.5-67.5s30.188-67.5 67.5-67.5 67.5 30.188 67.5 67.5-30.375 67.5-67.5 67.5zm0-111.94c-24.562 0-44.625 20.062-44.625 44.625s20.062 44.625 44.625 44.625 44.625-20.062 44.625-44.625-20.062-44.625-44.625-44.625z" fill="#7031ff"/>
 <path d="m600 652.69c-29.062 0-52.688-23.625-52.688-52.688s23.625-52.688 52.688-52.688 52.688 23.625 52.688 52.688-23.625 52.688-52.688 52.688zm0-87.562c-19.312 0-34.875 15.562-34.875 34.875s15.562 34.875 34.875 34.875 34.875-15.562 34.875-34.875-15.562-34.875-34.875-34.875z" fill="#7031ff"/>
 <path d="m600 652.69c-29.062 0-52.688-23.625-52.688-52.688s23.625-52.688 52.688-52.688 52.688 23.625 52.688 52.688-23.625 52.688-52.688 52.688zm0-87.562c-19.312 0-34.875 15.562-34.875 34.875s15.562 34.875 34.875 34.875 34.875-15.562 34.875-34.875-15.562-34.875-34.875-34.875z" fill="#7031ff"/>
</svg>
