<?xml version="1.0" encoding="UTF-8"?>
<svg width="100pt" height="100pt" version="1.1" viewBox="0 0 100 100" xmlns="http://www.w3.org/2000/svg">
 <path d="m71.094 64.898c1.5156 0 2.75 1.2109 2.75 2.7031 0 0.42969 0.35156 0.78125 0.78125 0.78125s0.78125-0.35156 0.78125-0.78125c0-2.0859-1.5234-3.8281-3.5312-4.1953v-1.2891c0-0.42969-0.35156-0.78125-0.78125-0.78125s-0.78125 0.35156-0.78125 0.78125v1.2891c-2.0078 0.36719-3.5312 2.1016-3.5312 4.1953 0 2.3516 1.9375 4.2656 4.3125 4.2656 1.5156 0 2.75 1.2109 2.75 2.7031 0 1.4922-1.2344 2.7031-2.75 2.7031s-2.75-1.2109-2.75-2.7031c0-0.42969-0.35156-0.78125-0.78125-0.78125s-0.78125 0.35156-0.78125 0.78125c0 2.0859 1.5234 3.8281 3.5312 4.1953v1.2891c0 0.42969 0.35156 0.78125 0.78125 0.78125s0.78125-0.35156 0.78125-0.78125v-1.2891c2.0078-0.36719 3.5312-2.1016 3.5312-4.1953 0-2.3516-1.9375-4.2656-4.3125-4.2656-1.5156 0-2.75-1.2109-2.75-2.7031 0-1.4922 1.2344-2.7031 2.75-2.7031z" fill="#e7e7e7" stroke="#e7e7e7" stroke-width="1"/>
 <path d="m77.688 53.547c0.79688-2.9297 1.2188-5.9531 1.2188-9.0156 0-18.953-15.422-34.375-34.375-34.375s-34.375 15.422-34.375 34.375 15.422 34.375 34.375 34.375c3.0625 0 6.0859-0.42188 9.0156-1.2188 2.6719 7.0938 9.5312 12.156 17.547 12.156 10.336 0 18.75-8.4141 18.75-18.75 0-8.0156-5.0625-14.875-12.156-17.547zm7.875 8.2891-2.8047 1.6172c-2.3594-3.5938-6.3359-6.0234-10.891-6.2812v-3.25c5.75 0.26562 10.773 3.3594 13.695 7.9141zm-13.359-9.4531c0.64844-2.2969 1.0078-4.6641 1.0781-7.0703h4.0391c-0.0625 2.625-0.4375 5.2266-1.1172 7.7422-1.2891-0.35938-2.625-0.59375-4-0.67188zm5.1172-8.6328h-4.0391c-0.125-4.6641-1.3594-9.0625-3.4609-12.922l3.4922-2.0156c2.4531 4.4531 3.8828 9.5391 4.0078 14.938zm-4.7812-16.289-3.5 2.0156c-2.3672-3.8438-5.6172-7.0859-9.4609-9.4609l2.0156-3.5c4.4688 2.7344 8.2188 6.4844 10.945 10.945zm-27.227-15.719c5.3984 0.125 10.484 1.5547 14.938 4l-2.0156 3.4922c-3.8594-2.1016-8.2578-3.3359-12.922-3.4609zm-1.5625 0v4.0391c-4.6641 0.125-9.0625 1.3594-12.922 3.4609l-2.0156-3.4922c4.4531-2.4531 9.5391-3.8828 14.938-4.0078zm-16.289 4.7812 2.0156 3.5c-3.8438 2.3672-7.0859 5.6172-9.4609 9.4609l-3.5-2.0156c2.7344-4.4688 6.4844-8.2188 10.945-10.945zm-11.719 12.289 3.4922 2.0156c-2.1016 3.8594-3.3359 8.2578-3.4609 12.922h-4.0391c0.13281-5.3984 1.5625-10.484 4.0078-14.938zm-4 16.5h4.0391c0.125 4.6641 1.3594 9.0625 3.4609 12.922l-3.4922 2.0156c-2.4531-4.4531-3.8828-9.5391-4.0078-14.938zm4.7812 16.289 3.5-2.0156c2.3672 3.8438 5.6172 7.0859 9.4609 9.4609l-2.0156 3.5c-4.4688-2.7344-8.2188-6.4844-10.945-10.945zm27.227 15.719c-5.3984-0.125-10.484-1.5547-14.938-4l2.0156-3.4922c3.8594 2.1016 8.2578 3.3359 12.922 3.4609zm1.5625-0.007812v-4.0391c2.4062-0.0625 4.7734-0.42969 7.0703-1.0781 0.078126 1.375 0.3125 2.7188 0.67969 4-2.5234 0.6875-5.125 1.0547-7.75 1.1172zm7.0469-6.7266c-2.5312 0.75781-5.1562 1.1562-7.8281 1.1562-15.008 0-27.211-12.211-27.211-27.211s12.203-27.211 27.211-27.211 27.211 12.203 27.211 27.211c0 2.6719-0.39844 5.2969-1.1562 7.8281-3.6328 0.09375-7.0156 1.2344-9.8594 3.125v-13.922h4.6328c0.34375 0 0.64844-0.22656 0.75-0.55469 0.10156-0.32812-0.023437-0.67969-0.30469-0.875l-20.836-14.164c-0.26562-0.17969-0.61719-0.17969-0.88281 0l-20.828 14.164c-0.28125 0.19531-0.40625 0.54688-0.30469 0.875 0.10156 0.32813 0.40625 0.55469 0.75 0.55469h4.6328v15.938h-0.88281c-0.29688 0-0.5625 0.16406-0.69531 0.42969l-2.0859 4.1641c-0.125 0.24219-0.10938 0.53125 0.03125 0.75781 0.14062 0.22656 0.39062 0.36719 0.66406 0.36719h28.711c-1.0391 2.2578-1.6484 4.75-1.7188 7.3672zm-22.461-29.023h29.273v15.078c-0.33594 0.27344-0.65625 0.5625-0.96875 0.85938h-3.7188v-9.6328c0-0.42969-0.35156-0.78125-0.78125-0.78125h-5c-0.42969 0-0.78125 0.35156-0.78125 0.78125v9.6328h-6.7734v-9.6328c0-0.42969-0.35156-0.78125-0.78125-0.78125h-5c-0.42969 0-0.78125 0.35156-0.78125 0.78125v9.6328h-4.6875zm-3.6641-1.5625 18.297-12.438 18.297 12.438zm26.68 8.6484v8.8516h-3.4375v-8.8516zm-13.328 0v8.8516h-3.4375v-8.8516zm17.141 10.414c-0.67969 0.8125-1.2969 1.6875-1.8281 2.6016h-28.273l1.3047-2.6016zm13.586-5.1328v3.25c-4.5547 0.25-8.5234 2.6875-10.891 6.2812l-2.8047-1.6172c2.9297-4.5625 7.9531-7.6562 13.695-7.9141zm-16.406 17.164c0-2.8516 0.70312-5.5391 1.9297-7.9062l2.8047 1.6172c-0.96094 1.8906-1.5078 4.0234-1.5078 6.2812 0 2.2578 0.55469 4.3906 1.5078 6.2812l-2.8047 1.6172c-1.2266-2.3516-1.9297-5.0391-1.9297-7.8906zm16.406 17.164c-5.7422-0.25781-10.766-3.3516-13.688-7.9141l2.8047-1.6172c2.3594 3.5938 6.3359 6.0234 10.891 6.2812v3.25zm-11.617-17.164c0-6.8359 5.5625-12.398 12.398-12.398s12.398 5.5625 12.398 12.398-5.5625 12.398-12.398 12.398-12.398-5.5625-12.398-12.398zm13.18 17.164v-3.25c4.5547-0.25 8.5234-2.6875 10.891-6.2812l2.8047 1.6172c-2.9297 4.5625-7.9531 7.6562-13.695 7.9141zm11.664-10.883c0.96094-1.8906 1.5078-4.0234 1.5078-6.2812s-0.55469-4.3906-1.5078-6.2812l2.8047-1.6172c1.2344 2.3594 1.9375 5.0469 1.9375 7.8984s-0.70312 5.5391-1.9297 7.9062z" fill="#e7e7e7" stroke="#e7e7e7" stroke-width="1"/>
 <path d="m81.078 71.094c0-0.74219-0.60938-1.3516-1.3594-1.3516s-1.3594 0.60156-1.3594 1.3516 0.60938 1.3516 1.3594 1.3516 1.3594-0.60937 1.3594-1.3516zm-1.5625 0c0-0.11719 0.09375-0.21094 0.20312-0.21094s0.20312 0.09375 0.20312 0.21094c0 0.23438-0.40625 0.23438-0.40625 0z" fill="#e7e7e7" stroke="#e7e7e7" stroke-width="1"/>
 <path d="m62.469 69.742c-0.75 0-1.3594 0.60156-1.3594 1.3516s0.60938 1.3516 1.3594 1.3516 1.3594-0.60937 1.3594-1.3516-0.60938-1.3516-1.3594-1.3516zm-0.20312 1.3516c0-0.11719 0.09375-0.21094 0.20312-0.21094s0.20312 0.09375 0.20312 0.21094c0 0.23438-0.40625 0.23438-0.40625 0z" fill="#e7e7e7" stroke="#e7e7e7" stroke-width="1"/>
</svg>
