<?xml version="1.0" encoding="UTF-8"?>
<svg width="1200pt" height="1200pt" version="1.1" viewBox="0 0 1200 1200" xmlns="http://www.w3.org/2000/svg">
 <path d="m437.16 576.71c32.484 0.046875 60.469-22.828 66.844-54.656 6.3281-31.875-10.688-63.75-40.641-76.219-30-12.422-64.594-1.9688-82.641 25.031s-14.531 63 8.4375 85.922c12.703 12.797 30 19.969 48 19.922zm-22.547-90.609v0.046875c12.516-12.469 32.719-12.469 45.234 0 12.469 12.469 12.469 32.719 0 45.234-12.656 12.141-32.625 12.141-45.234 0-12.469-12.516-12.469-32.766 0-45.234z" fill="#e7e7e7"/>
 <path d="m872.53 705.61c-112.55-52.453-216-16.078-289.78 102.61-60 95.297-97.453 106.45-97.219 106.45h-3.2344l-1.6875 0.84375-1.4531 0.70312-1.4531 1.0781-1.3125 1.0781-1.2188 1.3125-1.0781 1.3125h0.046875c-0.42188 0.51562-0.75 1.0781-0.98438 1.6875l-0.70312 1.0781v1.9219c-0.09375 0.51562-0.09375 1.0312 0 1.5469v1.3125c-0.09375 0.75-0.09375 1.4531 0 2.1562v3.6094c0.375 2.0156 1.125 3.8906 2.1562 5.625 0.9375 1.5938 2.1562 3 3.6094 4.2188l0.70312 0.60938c1.0781 0.89062 2.25 1.6406 3.4688 2.2969 31.219 12.844 64.688 19.312 98.391 18.938 14.438 0.46875 28.922-0.23438 43.219-2.1562 72-12 172.45-61.078 252-222.47 37.5-5.8594 75.281 8.9062 98.859 38.625 30.891 37.078 33.422 90.094 6.2812 129.94-70.641 107.44-190.64 172.03-319.22 171.84h-241.22c-57.562-0.046875-112.83-22.641-153.98-63-41.109-40.312-64.781-95.109-66-152.68-1.2188-57.609 20.156-113.34 59.578-155.34l21.938 22.078c12.938 12.984 30.516 20.25 48.844 20.25s35.906-7.2656 48.844-20.25l23.156-23.156c47.672 33.938 112.88 28.5 154.31-12.844l109.55-109.69 5.0625 5.0625c3.375 3.375 7.9219 5.25 12.703 5.25s9.375-1.9219 12.75-5.25l53.062-53.062h-0.046874c7.0312-7.0781 7.0312-18.469 0-25.547l-40.312-40.312 137.53-137.29c10.453-10.406 16.312-24.516 16.312-39.234s-5.8594-28.875-16.312-39.234c-21.703-21.562-56.766-21.562-78.469 0l-137.53 137.26-40.312-40.312-40.312-40.219 137.48-137.63c21.703-21.656 21.703-56.812 0-78.469-21.656-21.656-56.812-21.656-78.469 0l-137.53 137.53-40.547-40.219c-3.375-3.375-7.9219-5.2969-12.703-5.2969s-9.375 1.9219-12.75 5.2969l-52.781 52.922c-7.0312 7.0781-7.0312 18.516 0 25.547l4.9219 4.9219-109.55 109.55v0.046876c-41.391 41.391-46.875 106.59-12.984 154.31l-23.156 23.156c-26.859 27-26.859 70.688 0 97.688l21.844 21.703c-46.266 48.75-71.484 113.72-70.312 180.89 1.1719 67.172 28.688 131.21 76.594 178.31 47.906 47.102 112.41 73.5 179.58 73.547h241.22c140.68 0.14062 271.92-70.547 349.22-188.06 36.094-52.922 32.625-123.37-8.4375-172.55-31.125-39.141-80.672-58.875-130.18-51.844zm-340.45 221.53c32.016-28.688 59.344-62.109 81.141-99.141 54.938-88.453 124.64-123.61 202.78-104.3-44.859 20.484-86.672 47.016-124.22 78.984-7.5469 6.4219-8.5312 17.766-2.0625 25.359 6.4219 7.5938 17.766 8.5312 25.359 2.1094 33.469-28.406 70.547-52.312 110.3-71.016-102.38 181.18-231.52 181.08-293.29 168zm262.55-644.39v-0.046874c5.625-5.5312 14.016-7.2188 21.281-4.2188 7.3125 3.0469 12.047 10.125 12.094 18.047 0.046875 5.1562-2.0625 10.172-5.7656 13.781l-137.53 137.53-27.562-27.844zm-158.63-159.14c3.7031-3.6094 8.625-5.625 13.781-5.6719 7.9219 0 15.047 4.7344 18.094 12 3 7.3125 1.3125 15.703-4.2656 21.281l-138 137.48-27.609-27.469zm-216 110.02 146.39 146.39 105.61 105.98 40.312 40.312-27.609 27.469-146.39-145.78-141.47-141.84-4.9219-4.9219zm-144.94 180 108.94-109.31 128.86 128.63 128.68 128.76-109.59 109.59c-15.75 15.75-37.078 24.609-59.391 24.609-22.266 0-43.641-8.8594-59.391-24.609l-69.375-69.234-69.234-69.281c-15.797-15.75-24.656-37.125-24.656-59.438s8.8594-43.688 24.656-59.484zm-46.219 201.14c-0.046875-8.7188 3.4219-17.109 9.6094-23.297l21.938-21.938 115.88 115.88-21.797 22.594c-13.078 12.469-33.609 12.469-46.688 0l-34.688-34.688-34.688-34.547h0.046875c-6.375-6.375-9.8438-15.047-9.6094-24z" fill="#e7e7e7"/>
</svg>
