<?xml version="1.0" encoding="UTF-8"?>
<svg width="100pt" height="100pt" version="1.1" viewBox="0 0 100 100" xmlns="http://www.w3.org/2000/svg">
 <path d="m84.375 93.75h-68.75c-5.1719 0-9.375-4.2031-9.375-9.375v-68.75c0-5.1719 4.2031-9.375 9.375-9.375h68.75c5.1719 0 9.375 4.2031 9.375 9.375v68.75c0 5.1719-4.2031 9.375-9.375 9.375zm-68.75-84.375c-3.4453 0-6.25 2.8047-6.25 6.25v68.75c0 3.4453 2.8047 6.25 6.25 6.25h68.75c3.4453 0 6.25-2.8047 6.25-6.25v-68.75c0-3.4453-2.8047-6.25-6.25-6.25z" fill="#7031ff"/>
 <path d="m50 86.062c-0.86328 0-1.5625-0.69922-1.5625-1.5625s0.69922-1.5625 1.5625-1.5625c18.172 0 32.953-14.773 32.953-32.938 0-0.86328 0.69922-1.5625 1.5625-1.5625s1.5625 0.69922 1.5625 1.5625c0 19.887-16.184 36.062-36.078 36.062z" fill="#7031ff"/>
 <path d="m15.5 51.562c-0.86328 0-1.5625-0.69922-1.5625-1.5625 0-19.891 16.18-36.078 36.062-36.078 0.86328 0 1.5625 0.69922 1.5625 1.5625s-0.69922 1.5625-1.5625 1.5625c-18.164 0-32.938 14.781-32.938 32.953 0 0.86328-0.69922 1.5625-1.5625 1.5625z" fill="#7031ff"/>
 <path d="m23.922 51.562c-0.86328 0-1.5625-0.69922-1.5625-1.5625 0-15.242 12.398-27.641 27.641-27.641 0.86328 0 1.5625 0.69922 1.5625 1.5625s-0.69922 1.5625-1.5625 1.5625c-13.516 0-24.516 11-24.516 24.516 0 0.86328-0.69922 1.5625-1.5625 1.5625z" fill="#7031ff"/>
 <path d="m50 77.641c-0.86328 0-1.5625-0.69922-1.5625-1.5625s0.69922-1.5625 1.5625-1.5625c13.516 0 24.516-11 24.516-24.516 0-0.86328 0.69922-1.5625 1.5625-1.5625s1.5625 0.69922 1.5625 1.5625c0 15.242-12.398 27.641-27.641 27.641z" fill="#7031ff"/>
 <path d="m58.973 66.883c-2.5859 0-4.6875-2.1016-4.6875-4.6875v-7.5078h-8.5703v7.5078c0 2.5859-2.1016 4.6875-4.6875 4.6875-2.5859 0-4.6875-2.1016-4.6875-4.6875v-24.391c0-2.5859 2.1016-4.6875 4.6875-4.6875 2.5859 0 4.6875 2.1016 4.6875 4.6875v7.5078h8.5703v-7.5078c0-2.5859 2.1016-4.6875 4.6875-4.6875 2.5859 0 4.6875 2.1016 4.6875 4.6875v24.391c0 2.5859-2.1016 4.6875-4.6875 4.6875zm-14.82-15.32h11.695c0.86328 0 1.5625 0.69922 1.5625 1.5625v9.0703c0 0.86328 0.70312 1.5625 1.5625 1.5625s1.5625-0.69922 1.5625-1.5625v-24.391c0-0.86328-0.70312-1.5625-1.5625-1.5625s-1.5625 0.69922-1.5625 1.5625v9.0703c0 0.86328-0.69922 1.5625-1.5625 1.5625h-11.695c-0.86328 0-1.5625-0.69922-1.5625-1.5625v-9.0703c0-0.86328-0.70312-1.5625-1.5625-1.5625s-1.5625 0.69922-1.5625 1.5625v24.391c0 0.86328 0.70312 1.5625 1.5625 1.5625s1.5625-0.69922 1.5625-1.5625v-9.0703c0-0.86328 0.69922-1.5625 1.5625-1.5625z" fill="#7031ff"/>
 <path d="m15.5 51.562h-0.015625c-0.86328 0-1.5625-0.69922-1.5625-1.5625s0.69922-1.5625 1.5625-1.5625 1.5703 0.69922 1.5703 1.5625-0.69141 1.5625-1.5547 1.5625z" fill="#7031ff"/>
 <path d="m50 86.062c-19.887 0-36.062-16.18-36.062-36.062 0-0.86328 0.69922-1.5625 1.5625-1.5625h8.4219c0.86328 0 1.5625 0.69922 1.5625 1.5625 0 13.516 11 24.516 24.516 24.516 0.86328 0 1.5625 0.69922 1.5625 1.5625v8.4219c0 0.86328-0.69922 1.5625-1.5625 1.5625zm-32.902-34.5c0.79297 16.922 14.414 30.547 31.34 31.34v-5.3047c-14-0.78516-25.25-12.035-26.035-26.035z" fill="#7031ff"/>
 <path d="m84.516 51.562h-8.4375c-0.86328 0-1.5625-0.69922-1.5625-1.5625 0-13.516-11-24.516-24.516-24.516-0.86328 0-1.5625-0.69922-1.5625-1.5625v-8.4375c0-0.86328 0.69922-1.5625 1.5625-1.5625 19.895 0 36.078 16.184 36.078 36.078 0 0.86328-0.69922 1.5625-1.5625 1.5625zm-6.918-3.125h5.3203c-0.79297-16.93-14.422-30.562-31.352-31.352v5.3203c14 0.78516 25.25 12.035 26.035 26.035z" fill="#7031ff"/>
</svg>
