<?xml version="1.0" encoding="UTF-8"?>
<svg width="1200pt" height="1200pt" version="1.1" viewBox="0 0 1200 1200" xmlns="http://www.w3.org/2000/svg">
 <path d="m1077.8 419.25-406.5-319.5c-20.277-16.062-45.383-24.801-71.25-24.801s-50.973 8.7383-71.25 24.801l-406.5 319.5c-30 24.086-47.391 60.527-47.25 99v482.62c-0.70312 32.227 11.426 63.41 33.723 86.691 22.293 23.277 52.926 36.746 85.152 37.434h812.25c32.227-0.6875 62.859-14.156 85.152-37.434 22.297-23.281 34.426-54.465 33.723-86.691v-482.62c0.14062-38.473-17.25-74.914-47.25-99zm-365.25 613.5c-0.19141 4.8438-2.332 9.4062-5.9297 12.652-3.6016 3.2461-8.3555 4.9062-13.195 4.5977h-187.5c-4.8398 0.30859-9.5938-1.3516-13.195-4.5977-3.5977-3.2461-5.7383-7.8086-5.9297-12.652v-303c0.19141-4.8438 2.332-9.4062 5.9297-12.652 3.6016-3.2461 8.3555-4.9062 13.195-4.5977h187.5c4.8398-0.30859 9.5938 1.3516 13.195 4.5977 3.5977 3.2461 5.7383 7.8086 5.9297 12.652zm337.5-31.875c0.61719 12.312-3.6445 24.371-11.855 33.566-8.2109 9.1953-19.715 14.785-32.02 15.559h-218.62c1.1992-5.6719 1.8281-11.453 1.875-17.25v-303c-0.29297-25.031-10.621-48.895-28.672-66.238-18.047-17.348-42.305-26.719-67.328-26.012h-187.5c-24.57 0-48.152 9.6797-65.633 26.949-17.477 17.27-27.445 40.73-27.742 65.301v303c0.046875 5.7969 0.67578 11.578 1.875 17.25h-220.5c-12.305-0.77344-23.809-6.3633-32.02-15.559-8.2109-9.1953-12.473-21.254-11.855-33.566v-482.62c-0.078125-15.508 6.8047-30.234 18.75-40.125l406.12-319.12c7.0938-5.7852 15.969-8.9492 25.125-8.9492s18.031 3.1641 25.125 8.9492l406.12 319.12c11.945 9.8906 18.828 24.617 18.75 40.125z" fill="#e7e7e7"/>
</svg>
