<?xml version="1.0" encoding="UTF-8"?>
<svg width="1200pt" height="1200pt" version="1.1" viewBox="0 0 1200 1200" xmlns="http://www.w3.org/2000/svg">
 <path d="m1156.5 542.44-0.046875-166.97c-0.09375-69.328-56.297-125.53-125.63-125.63h-133.5c-20.719 0-37.5 16.828-37.5 37.5 0 20.719 16.781 37.5 37.5 37.5h133.5c27.938 0.046875 50.578 22.688 50.625 50.625v129.47h-101.39c-82.125 0-148.69 66.562-148.69 148.64s66.562 148.64 148.69 148.64h101.39v129.37c-0.046875 27.938-22.688 50.578-50.625 50.625h-562.03c142.87-137.29 55.734-393.79-139.55-418.64v-188.11c0.046875-27.938 22.688-50.578 50.625-50.625h133.08c20.484-0.28125 36.984-16.969 36.984-37.5-0.046875-20.484-16.5-37.172-36.984-37.5h-133.08c-69.328 0.09375-125.53 56.297-125.63 125.63v188.44c-79.688 12.469-148.36 62.953-184.08 135.28-35.719 72.328-34.078 157.5 4.4531 228.37 38.531 70.875 109.08 118.64 189.24 128.02 39.844 5.5312 76.781-7.3594 116.06 1.6406h650.95-0.046875c69.328-0.09375 125.53-56.297 125.63-125.63 0.375-94.031-0.23438-293.95 0.046875-389.16zm-883.08 438.74c-59.297-6.6094-111.05-43.219-136.97-96.984-25.922-53.719-22.406-117 9.3281-167.53 31.781-50.531 87.234-81.188 146.9-81.141 241.03 11.484 220.5 361.55-19.266 345.66zm706.6-253.97h0.046875c-40.359-0.46875-72.797-33.281-72.797-73.641 0-40.359 32.438-73.172 72.797-73.641h101.39v147.28zm-375.79-380.81c-14.156-14.719-13.922-38.062 0.51562-52.547 14.438-14.438 37.828-14.672 52.547-0.46875l10.594 10.594-0.046876-123.71c0-20.719 16.828-37.5 37.5-37.5 20.719 0 37.5 16.781 37.5 37.5v123.71l10.641-10.594c14.719-14.156 38.062-13.969 52.5 0.51562 14.438 14.438 14.672 37.781 0.51562 52.5-115.88 114.84-86.625 114.47-202.26 0zm-312.47 614.48v-0.046875c-16.781-0.09375-31.406-11.531-35.531-27.797-10.453 2.0625-21.234-0.375-29.766-6.6562-8.5781-6.2812-14.109-15.844-15.234-26.438-1.125-10.547 2.2031-21.094 9.1875-29.062 7.0312-7.9688 17.062-12.656 27.656-12.844h43.688c2.7188-0.046875 5.625-0.09375 5.625-6.1875s-2.9062-6.1875-6.2812-6.2344c-36.984-0.89062-68.672-26.578-77.25-62.578-8.5312-35.953 8.2031-73.172 40.781-90.609 1.0312-17.859 14.625-32.438 32.344-34.734 17.766-2.25 34.594 8.4844 40.031 25.5 10.406-2.1562 21.281 0.1875 29.906 6.4219 8.625 6.2812 14.203 15.844 15.375 26.438 1.2188 10.594-2.1094 21.188-9.0938 29.203-7.0312 8.0156-17.062 12.703-27.703 12.938h-43.688c-2.7188 0.046875-5.625 0.09375-5.625 6.2344 0 6.0938 2.8594 6.1406 6.1875 6.1875 36.938 0.84375 68.625 26.438 77.25 62.344 8.6719 35.906-7.9219 73.125-40.406 90.656-0.14062 20.625-16.875 37.219-37.453 37.219zm688.31-269.81c-20.203-0.70312-36.234-17.297-36.234-37.5s16.031-36.797 36.234-37.5c20.203 0.70312 36.234 17.297 36.234 37.5s-16.031 36.797-36.234 37.5z" fill="#60c"/>
</svg>
