<?xml version="1.0" encoding="UTF-8"?>
<svg width="100pt" height="100pt" version="1.1" viewBox="0 0 100 100" xmlns="http://www.w3.org/2000/svg">
 <path d="m39.41 55.199-1.3281 2.5508c-0.16016 0.30078-0.10156 0.66016 0.14062 0.89844l3.1484 3.1406c0.23828 0.23828 0.60156 0.28906 0.89844 0.14063l2.5508-1.3203c0.42969 0.21094 0.89063 0.39844 1.3516 0.57031l0.87109 2.7305c0.10156 0.32031 0.39844 0.53125 0.73047 0.53125h4.4492c0.32812 0 0.62891-0.21875 0.73047-0.53125l0.87109-2.7305c0.46875-0.17188 0.92188-0.35156 1.3516-0.57031l2.5508 1.3203c0.28906 0.14844 0.66016 0.10156 0.89844-0.14063l3.1406-3.1406c0.23828-0.23828 0.28906-0.60156 0.14062-0.89844l-1.3203-2.5508c0.21094-0.42188 0.39062-0.87109 0.57031-1.3711l2.7383-0.87109c0.32031-0.10156 0.53906-0.39844 0.53906-0.73047v-4.4297c0-0.32812-0.21094-0.62891-0.53125-0.73047l-2.7305-0.87891c-0.16016-0.46875-0.35156-0.92969-0.57031-1.3594l1.3203-2.5508c0.14844-0.30078 0.10156-0.66016-0.14062-0.89844l-3.1406-3.1406c-0.23047-0.23828-0.60156-0.28906-0.89844-0.14062l-2.5391 1.3203c-0.42188-0.21094-0.87109-0.39062-1.3711-0.57031l-0.87109-2.7383c-0.10156-0.32031-0.39844-0.53906-0.73047-0.53906h-4.4492c-0.32812 0-0.62891 0.21875-0.73047 0.53906l-0.87109 2.7383c-0.5 0.17188-0.94922 0.35938-1.3711 0.57031l-2.5312-1.3203c-0.30078-0.14844-0.66016-0.10156-0.89844 0.14062l-3.1484 3.1406c-0.23828 0.23828-0.30078 0.60156-0.14062 0.89844l1.3281 2.5508c-0.21875 0.44141-0.41016 0.89062-0.57031 1.3594l-2.7305 0.87891c-0.32031 0.10156-0.53125 0.39844-0.53125 0.73047v4.4297c0 0.32813 0.21875 0.62891 0.53906 0.73047l2.7305 0.87109c0.13281 0.47266 0.32422 0.93359 0.55469 1.3711zm-2.3086-6.8477 2.5781-0.82812c0.23828-0.078126 0.42969-0.26953 0.5-0.51172 0.19141-0.64062 0.44922-1.25 0.76172-1.8203 0.12109-0.23047 0.12891-0.5 0.011719-0.73047l-1.25-2.3984 2.3516-2.3398 2.3906 1.2383c0.23047 0.12109 0.5 0.10937 0.73047-0.011719 0.53125-0.28906 1.1289-0.53906 1.8398-0.76953 0.23828-0.078126 0.42969-0.26172 0.5-0.5l0.82031-2.5781h3.3203l0.82031 2.5781c0.078126 0.23828 0.26172 0.42187 0.5 0.5 0.71094 0.23047 1.3086 0.48047 1.8516 0.76953 0.21875 0.12109 0.48828 0.12109 0.71875 0.011719l2.3906-1.2383 2.3398 2.3398-1.2383 2.4102c-0.12109 0.23047-0.10937 0.5 0.011719 0.73047 0.32031 0.57031 0.57031 1.1797 0.76172 1.8203 0.070312 0.23828 0.26172 0.42969 0.5 0.51172l2.5781 0.82812v3.3086l-2.5781 0.82031c-0.23828 0.078124-0.42188 0.26172-0.5 0.5-0.23047 0.71875-0.48047 1.3203-0.76953 1.8398-0.12109 0.23047-0.12891 0.5-0.011719 0.73047l1.2383 2.4102-2.3398 2.3398-2.4102-1.2383c-0.23047-0.12109-0.48828-0.10938-0.71094 0-0.57031 0.30078-1.1914 0.55859-1.8398 0.76953-0.23828 0.078125-0.42188 0.26172-0.5 0.5l-0.82031 2.5586h-3.3203l-0.82031-2.5586c-0.078124-0.23828-0.26172-0.42188-0.5-0.5-0.64844-0.21094-1.2695-0.46875-1.8398-0.76953-0.21875-0.12109-0.48828-0.12109-0.71094 0l-2.4102 1.2383-2.3516-2.3398 1.25-2.3984c0.12109-0.23047 0.12109-0.5-0.011718-0.73047-0.32031-0.57031-0.57031-1.1797-0.76172-1.8281-0.070313-0.25-0.26172-0.44141-0.5-0.51953l-2.5781-0.82031-0.003906-3.3242z" fill="#7031ff"/>
 <path d="m50 57.969c4.3906 0 7.9688-3.5703 7.9688-7.9688s-3.5703-7.9688-7.9688-7.9688-7.9688 3.5703-7.9688 7.9688 3.5781 7.9688 7.9688 7.9688zm0-14.398c3.5508 0 6.4297 2.8789 6.4297 6.4297s-2.8789 6.4297-6.4297 6.4297-6.4297-2.8789-6.4297-6.4297 2.8789-6.4297 6.4297-6.4297z" fill="#7031ff"/>
 <path d="m17.172 63.25c-2.3633 1.3594-3.1719 4.3906-1.8125 6.75 0.91016 1.5781 2.5781 2.4688 4.2891 2.4688 0.83984 0 1.6914-0.21094 2.4609-0.66016 0.53125-0.30859 0.98828-0.71094 1.3594-1.1797l21.93 12.66c-0.21094 0.55078-0.33984 1.1406-0.33984 1.7695 0 2.7305 2.2188 4.9414 4.9414 4.9414 2.7188 0 4.9414-2.2188 4.9414-4.9414 0-0.62891-0.12891-1.2188-0.33984-1.7695l21.93-12.648c0.37891 0.46094 0.82812 0.87109 1.3594 1.1797 0.78125 0.44922 1.6211 0.66016 2.4609 0.66016 1.7109 0 3.3711-0.89062 4.2891-2.4688 1.3594-2.3594 0.55078-5.3906-1.8086-6.75-0.53906-0.30859-1.1094-0.5-1.7109-0.58984v-25.352c0.58984-0.089843 1.1719-0.26172 1.7109-0.55859 2.3594-1.3594 3.1719-4.3906 1.8086-6.75-1.3711-2.3594-4.3906-3.1719-6.75-1.8086-0.53125 0.30859-0.98828 0.71094-1.3594 1.1797l-21.93-12.672c0.21094-0.55078 0.33984-1.1406 0.33984-1.7695 0-2.7305-2.2188-4.9414-4.9414-4.9414-2.7188 0-4.9414 2.2188-4.9414 4.9414 0 0.62891 0.12891 1.2188 0.33984 1.7695l-21.93 12.66c-0.37891-0.46094-0.82812-0.87109-1.3594-1.1797-2.3594-1.3594-5.3906-0.55078-6.75 1.8086s-0.55078 5.3906 1.8086 6.75c0.53125 0.30859 1.1094 0.46875 1.7109 0.55859v25.34c-0.59766 0.10156-1.1797 0.29297-1.707 0.60156zm29.008 18.711-21.949-12.66c0.058593-0.16016 0.14062-0.32031 0.17969-0.48828 0.26953-1.0195 0.19922-2.0781-0.17188-3.0508l9.8008-5.6602c3.2305 5.0781 8.8008 8.5117 15.191 8.7695v11.32c-1.2305 0.19922-2.3008 0.83984-3.0508 1.7695zm-13.559-31.961c0-9.5781 7.8008-17.379 17.379-17.379s17.379 7.8008 17.379 17.379-7.8008 17.379-17.379 17.379-17.379-7.8008-17.379-17.379zm17.379 38.461c-1.8789 0-3.3984-1.5312-3.3984-3.4102 0-1.8789 1.5312-3.3984 3.3984-3.3984 1.8711 0 3.3984 1.5312 3.3984 3.3984 0 1.8789-1.5195 3.4102-3.3984 3.4102zm3.8203-6.5c-0.75-0.92969-1.8203-1.5781-3.0508-1.7695v-11.312c6.3906-0.26172 11.969-3.6914 15.191-8.7695l9.8008 5.6602c-0.37109 0.96875-0.44922 2.0195-0.17188 3.0508 0.050781 0.17188 0.12109 0.32813 0.17969 0.48828zm28.238-17.383c1.6289 0.94141 2.1797 3.0312 1.25 4.6484-0.94141 1.6289-3.0312 2.1797-4.6484 1.25-0.78906-0.46094-1.3516-1.1914-1.5898-2.0703-0.23828-0.87891-0.12109-1.8008 0.33984-2.5781 0.46094-0.78906 1.1914-1.3516 2.0703-1.5898 0.28906-0.078125 0.58984-0.12109 0.89062-0.12109 0.58984 0.003906 1.168 0.16406 1.6875 0.46094zm-4.9883-32.988c0.23047-0.87891 0.80078-1.6094 1.5898-2.0703 0.53125-0.30859 1.1211-0.46094 1.6992-0.46094 1.1797 0 2.3203 0.60938 2.9609 1.6992 0.94141 1.6289 0.37891 3.7109-1.25 4.6484-0.78906 0.46094-1.7109 0.57812-2.5781 0.33984-0.87891-0.23828-1.6094-0.80078-2.0703-1.5898-0.46094-0.76562-0.58203-1.6875-0.35156-2.5664zm-0.53906 3.9805c0.64844 0.80859 1.5312 1.3984 2.5508 1.6719 0.17188 0.039062 0.33984 0.039062 0.51172 0.070312v25.359c-0.17188 0.03125-0.33984 0.039063-0.51172 0.078125-1.0195 0.26953-1.8984 0.87109-2.5508 1.6719l-9.7891-5.6484c1.3789-2.6289 2.1719-5.6094 2.1719-8.7812 0-3.1719-0.78906-6.1484-2.1719-8.7812zm-22.711-17.531 21.949 12.66c-0.058593 0.16016-0.14062 0.32031-0.17969 0.48828-0.26953 1.0195-0.19922 2.0781 0.17188 3.0508l-9.8008 5.6602c-3.2305-5.0781-8.8008-8.5117-15.191-8.7695v-11.32c1.2305-0.19922 2.3008-0.83984 3.0508-1.7695zm-3.8203-6.5c1.8789 0 3.3984 1.5312 3.3984 3.4102 0 1.8789-1.5312 3.3984-3.3984 3.3984-1.8711 0-3.3984-1.5312-3.3984-3.3984 0-1.8789 1.5195-3.4102 3.3984-3.4102zm-3.8203 6.5c0.75 0.92969 1.8203 1.5781 3.0508 1.7695v11.32c-6.3906 0.26172-11.969 3.6914-15.191 8.7695l-9.8008-5.6602c0.37109-0.96875 0.44922-2.0195 0.17188-3.0508-0.050781-0.17188-0.12109-0.32812-0.17969-0.48828zm-12.918 23.18c-1.3789 2.6289-2.1719 5.6094-2.1719 8.7812s0.78906 6.1484 2.1719 8.7812l-9.7891 5.6484c-0.64844-0.80859-1.5312-1.3984-2.5508-1.6719-0.17188-0.039062-0.33984-0.058593-0.51172-0.078124v-25.371c0.17188-0.03125 0.33984-0.019532 0.51172-0.070313 1.0195-0.26953 1.8984-0.87109 2.5508-1.6719zm-15.32-5.7969c-1.6289-0.94141-2.1797-3.0312-1.25-4.6484 0.62891-1.0898 1.7812-1.6992 2.9609-1.6992 0.57812 0 1.1602 0.14844 1.6992 0.46094 0.78906 0.46094 1.3516 1.1914 1.5898 2.0703 0.23828 0.87891 0.12109 1.8008-0.33984 2.5781-0.46094 0.78906-1.1914 1.3516-2.0703 1.5898-0.88281 0.22656-1.8125 0.10547-2.5898-0.35156zm1.6875 28.699c0.30078 0 0.58984 0.039062 0.89062 0.12109 0.87891 0.23828 1.6094 0.80078 2.0703 1.5898 0.46094 0.78906 0.57812 1.7109 0.33984 2.5781-0.23047 0.87891-0.80078 1.6094-1.5898 2.0703-1.6211 0.94141-3.7109 0.37891-4.6484-1.25-0.94141-1.6289-0.37891-3.7109 1.25-4.6484 0.51953-0.30078 1.0977-0.46094 1.6875-0.46094z" fill="#7031ff"/>
</svg>
