<?xml version="1.0" encoding="UTF-8"?>
<svg width="100pt" height="100pt" version="1.1" viewBox="0 0 100 100" xmlns="http://www.w3.org/2000/svg">
 <path d="m58.164 20.59h0.52734v-8.6094c0-0.73047 0.59375-1.3242 1.3242-1.3242h2.6445l0.003906-6.043c0-0.73047 0.59375-1.3242 1.3242-1.3242s1.3242 0.59375 1.3242 1.3242v6.043h3.7891l-0.003906-3.4219c0-0.73047 0.59375-1.3242 1.3242-1.3242s1.3242 0.59375 1.3242 1.3242v3.4258h2.7578c0.73047 0 1.3242 0.59375 1.3242 1.3242v8.6094h0.52734c0.73047 0 1.3242 0.59375 1.3242 1.3242v9.1406l8.4648 3.7109c0.49609 0.21484 0.79297 0.69922 0.79297 1.2109h0.003906v5.8594c2.8008 0.96875 3.6523 4.5586 1.5352 6.6797-2.5391 2.5391-6.8984 0.73047-6.8984-2.8594 0-1.7461 1.1133-3.2656 2.7188-3.8203l-0.007813-5.0078-6.6133-2.8984v25.414h7.0391c0.73047 0 1.3242 0.59375 1.3242 1.3242v1.5273h2.832c0.96875-2.7773 4.5352-3.6211 6.6367-1.5195 2.5273 2.5273 0.72656 6.8594-2.8398 6.8594-1.7344 0-3.2422-1.1055-3.7969-2.6953h-2.832c0 1.3711 0.16016 2.4688-0.69141 3.5508-0.46484 0.58984-1.1094 0.99219-1.8828 1.1367l-2.832 0.55859c-1.3867 0.27344-1.4297 1.3906-1.9453 2.5391-0.17578 0.42188-0.34375 0.80078-0.50391 1.1328-0.30859 0.64453-0.25781 1.3164 0.13672 1.9102l1.6367 2.4414c0.84766 1.2695 0.62891 2.9336-0.44531 4.0078l-3.0977 3.0977 2.6953 2.6953c2.6484-1.2812 5.7695 0.64844 5.7695 3.6172 0 3.5664-4.3359 5.3672-6.8594 2.8398-1.2031-1.2031-1.5234-3.043-0.77734-4.5898l-2.6953-2.6953-3.0977 3.0977c-1.0977 1.0977-2.8359 1.3047-4.1016 0.37891l-2.3477-1.5742c-0.58984-0.39844-1.2656-0.44531-1.9102-0.13672-0.35156 0.16797-0.75 0.34375-1.1992 0.53125v0.003907c-0.40625 0.16797-0.81641 0.32422-1.2266 0.47266-0.67578 0.23828-1.1055 0.74219-1.2461 1.4453l-0.5625 2.8789c-0.30078 1.4922-1.6211 2.5195-3.1523 2.5195v0.003906h-11.406v-0.003906c-1.5508 0-2.875-1.043-3.1602-2.5703l-0.55859-2.832c-0.13672-0.70312-0.57031-1.207-1.2461-1.4453l-1.2266-0.47266v0.003907c-0.42578-0.17578-0.82422-0.35156-1.1992-0.53125-0.64453-0.30469-1.3164-0.25781-1.9102 0.13672l-2.4375 1.6367 0.003906 0.003906c-1.2695 0.84375-2.9375 0.62891-4.0117-0.44531l-3.0977-3.0977-2.6953 2.6953c1.2812 2.6484-0.64844 5.7656-3.6211 5.7656-3.5664 0-5.3672-4.3359-2.8398-6.8594 1.2031-1.2031 3.043-1.5234 4.5898-0.77734l2.6953-2.6953-3.0977-3.0977c-1.0898-1.0898-1.2969-2.7969-0.40625-4.0625l1.5977-2.3828c0.39844-0.58984 0.44531-1.2656 0.13672-1.9102-0.16797-0.35156-0.34375-0.75-0.53125-1.1992h-0.003906c-0.16797-0.40625-0.32422-0.81641-0.47266-1.2266-0.23828-0.67578-0.74219-1.1055-1.4453-1.2461l-2.8828-0.56641c-1.4922-0.30078-2.5234-1.6289-2.5234-3.1523v-1.5273h-2.832c-0.96875 2.7773-4.5352 3.6211-6.6367 1.5195-2.5273-2.5234-0.72656-6.8594 2.8398-6.8594 1.7344 0 3.2422 1.1055 3.7969 2.6953h2.832v-1.5273c0-0.73047 0.59375-1.3242 1.3242-1.3242h9.2891l0.007813-25.418-6.6133 2.8984v4.9961c2.8008 0.96875 3.6523 4.5586 1.5352 6.6797-2.5391 2.5391-6.8984 0.73047-6.8984-2.8594 0-1.7461 1.1133-3.2656 2.7188-3.8203v-5.8594h0.003906c0-0.50781 0.29688-0.99219 0.79297-1.2109l8.4648-3.7109-0.003906-15.719c0-0.73047 0.59375-1.3242 1.3242-1.3242h15.918c0.73047 0 1.3242 0.59375 1.3242 1.3242v14.488h13.703v-7.9023c0-0.73437 0.58984-1.3242 1.3203-1.3242zm-50.828 41.559c-1.2227 0-1.832 1.4805-0.97266 2.3438 0.86328 0.86328 2.3438 0.25 2.3438-0.97266 0-0.75391-0.61328-1.3711-1.3711-1.3711zm74.496 28.41c-0.86328-0.86328-2.3438-0.25-2.3438 0.97266 0 1.2188 1.4805 1.832 2.3438 0.97266 0.53516-0.53906 0.53516-1.4062 0-1.9453zm-8.2227-6.2734 4.0352-4.0352c0.1875-0.1875 0.25781-0.46484 0.11328-0.67969l-1.6289-2.4297c-0.91797-1.3711-1.043-3.0273-0.33203-4.5117l0.89844-2.168c0.55078-1.5508 1.8164-2.6445 3.4297-2.9609l2.8711-0.56641c0.25781-0.054688 0.39453-0.29297 0.39453-0.55859v-4.3789h-10.871c-0.68359 11.875-10.535 21.234-22.52 21.234s-21.836-9.3594-22.523-21.238h-10.867v4.3789c0 0.26172 0.14062 0.50781 0.39453 0.55859l2.8711 0.56641c1.6133 0.31641 2.8789 1.4102 3.4297 2.9609 0.12891 0.36719 0.26953 0.73438 0.41797 1.0938h-0.003906c0.5 1.1914 1.0312 1.9414 0.92578 3.3711-0.054687 0.77344-0.31641 1.5273-0.77734 2.2148l-1.6289 2.4297c-0.14453 0.21875-0.074219 0.49219 0.11328 0.67969l8.0664 8.0664c0.1875 0.1875 0.45703 0.25781 0.67188 0.11328l0.003906 0.003907 2.4336-1.6328c1.3711-0.91797 3.0273-1.043 4.5117-0.33203 0.37109 0.17578 0.73047 0.33594 1.0742 0.48047v0.003907c1.2031 0.5 2.0898 0.64062 3.0352 1.7305 0.51172 0.58984 0.86328 1.3086 1.0195 2.1133l0.56641 2.8711c0.054687 0.25781 0.30078 0.39844 0.55859 0.39844h11.406v0.003906c0.25391 0 0.50781-0.14453 0.55859-0.39844l0.56641-2.8711c0.31641-1.6133 1.4102-2.8789 2.9609-3.4297 0.36719-0.13281 0.73438-0.26953 1.0938-0.41797v0.003906c1.168-0.50391 1.9883-1.0273 3.3711-0.92578 0.77344 0.054687 1.5273 0.31641 2.2148 0.77734l2.4336 1.6289c0.21484 0.14453 0.48828 0.070312 0.67578-0.11328zm-54.469 5.875c-1.2188 0-1.832 1.4805-0.97266 2.3438 0.86328 0.86328 2.3438 0.25 2.3438-0.97266 0-0.75781-0.61328-1.3711-1.3711-1.3711zm-2.5039-45.906c-1.2422 0-1.8633 1.5078-0.98828 2.3828 0.875 0.87891 2.3828 0.25391 2.3828-0.98828 0.003906-0.76953-0.62109-1.3945-1.3945-1.3945zm69.961 0.41016c-0.875-0.87891-2.3828-0.25391-2.3828 0.98828 0 1.2422 1.5078 1.8633 2.3828 0.98828 0.54688-0.54688 0.54688-1.4297 0-1.9766zm7.0352 17.887c-0.86328-0.86328-2.3438-0.25-2.3438 0.97266 0 1.2188 1.4805 1.832 2.3438 0.97266 0.53906-0.53906 0.53906-1.4102 0-1.9453zm-23.762-0.55859h-39.742c0.68359 10.414 9.3477 18.594 19.871 18.594s19.188-8.1797 19.871-18.594zm-17.559-18.934v1.6484c0 0.73047 0.59375 1.3242 1.3242 1.3242s1.3242-0.59375 1.3242-1.3242v-1.6484c0-0.73047-0.59375-1.3242-1.3242-1.3242s-1.3242 0.59375-1.3242 1.3242zm-3.6445 0v1.6484c0 0.73047 0.59375 1.3242 1.3242 1.3242 0.73047 0 1.3242-0.59375 1.3242-1.3242v-1.6484c0-0.73047-0.59375-1.3242-1.3242-1.3242-0.73438 0-1.3242 0.59375-1.3242 1.3242zm-3.6484 0v1.6484c0 0.73047 0.59375 1.3242 1.3242 1.3242s1.3242-0.59375 1.3242-1.3242v-1.6484c0-0.73047-0.59375-1.3242-1.3242-1.3242s-1.3242 0.59375-1.3242 1.3242zm7.293-6.5v1.6484c0 0.73047 0.59375 1.3242 1.3242 1.3242s1.3242-0.59375 1.3242-1.3242v-1.6484c0-0.73047-0.59375-1.3242-1.3242-1.3242s-1.3242 0.59375-1.3242 1.3242zm-3.6445 0v1.6484c0 0.73047 0.59375 1.3242 1.3242 1.3242 0.73047 0 1.3242-0.59375 1.3242-1.3242v-1.6484c0-0.73047-0.59375-1.3242-1.3242-1.3242-0.73438 0-1.3242 0.59375-1.3242 1.3242zm-3.6484 0v1.6484c0 0.73047 0.59375 1.3242 1.3242 1.3242s1.3242-0.59375 1.3242-1.3242v-1.6484c0-0.73047-0.59375-1.3242-1.3242-1.3242s-1.3242 0.59375-1.3242 1.3242zm26.383 19.625v1.6484c0 0.73047 0.59375 1.3242 1.3242 1.3242 0.73047 0 1.3242-0.59375 1.3242-1.3242v-1.6484c0-0.73047-0.59375-1.3242-1.3242-1.3242-0.73047 0.003906-1.3242 0.59766-1.3242 1.3242zm0-6.2852v1.6484c0 0.73047 0.59375 1.3242 1.3242 1.3242 0.73047 0 1.3242-0.59375 1.3242-1.3242v-1.6484c0-0.73047-0.59375-1.3242-1.3242-1.3242-0.73047 0-1.3242 0.59375-1.3242 1.3242zm0-6.2891v1.6484c0 0.73047 0.59375 1.3242 1.3242 1.3242 0.73047 0 1.3242-0.59375 1.3242-1.3242v-1.6484c0-0.73047-0.59375-1.3242-1.3242-1.3242-0.73047 0.003906-1.3242 0.59375-1.3242 1.3242zm0-6.2852v1.6484c0 0.73047 0.59375 1.3242 1.3242 1.3242 0.73047 0 1.3242-0.59375 1.3242-1.3242v-1.6484c0-0.73047-0.59375-1.3242-1.3242-1.3242-0.73047 0-1.3242 0.59375-1.3242 1.3242zm0-6.2891v1.6484c0 0.73047 0.59375 1.3242 1.3242 1.3242 0.73047 0 1.3242-0.59375 1.3242-1.3242v-1.6484c0-0.73047-0.59375-1.3242-1.3242-1.3242-0.73047 0-1.3242 0.59375-1.3242 1.3242zm0-6.2891v1.6484c0 0.73047 0.59375 1.3242 1.3242 1.3242 0.73047 0 1.3242-0.59375 1.3242-1.3242v-1.6484c0-0.73047-0.59375-1.3242-1.3242-1.3242-0.73047 0.003906-1.3242 0.59375-1.3242 1.3242zm-3.6445 31.438v1.6484c0 0.73047 0.59375 1.3242 1.3242 1.3242s1.3242-0.59375 1.3242-1.3242v-1.6484c0-0.73047-0.59375-1.3242-1.3242-1.3242-0.73047 0.003906-1.3242 0.59766-1.3242 1.3242zm0-6.2852v1.6484c0 0.73047 0.59375 1.3242 1.3242 1.3242s1.3242-0.59375 1.3242-1.3242v-1.6484c0-0.73047-0.59375-1.3242-1.3242-1.3242s-1.3242 0.59375-1.3242 1.3242zm0-6.2891v1.6484c0 0.73047 0.59375 1.3242 1.3242 1.3242s1.3242-0.59375 1.3242-1.3242v-1.6484c0-0.73047-0.59375-1.3242-1.3242-1.3242-0.73047 0.003906-1.3242 0.59375-1.3242 1.3242zm0-6.2852v1.6484c0 0.73047 0.59375 1.3242 1.3242 1.3242s1.3242-0.59375 1.3242-1.3242l-0.003906-1.6484c0-0.73047-0.59375-1.3242-1.3242-1.3242-0.72656 0-1.3203 0.59375-1.3203 1.3242zm0-6.2891v1.6484c0 0.73047 0.59375 1.3242 1.3242 1.3242s1.3242-0.59375 1.3242-1.3242v-1.6484c0-0.73047-0.59375-1.3242-1.3242-1.3242s-1.3242 0.59375-1.3242 1.3242zm0-6.2891v1.6484c0 0.73047 0.59375 1.3242 1.3242 1.3242s1.3242-0.59375 1.3242-1.3242v-1.6484c0-0.73047-0.59375-1.3242-1.3242-1.3242-0.73047 0.003906-1.3242 0.59375-1.3242 1.3242zm-3.6445 31.438v1.6484c0 0.73047 0.59375 1.3242 1.3242 1.3242s1.3242-0.59375 1.3242-1.3242v-1.6484c0-0.73047-0.59375-1.3242-1.3242-1.3242-0.73438 0.003906-1.3242 0.59766-1.3242 1.3242zm0-6.2852v1.6484c0 0.73047 0.59375 1.3242 1.3242 1.3242s1.3242-0.59375 1.3242-1.3242v-1.6484c0-0.73047-0.59375-1.3242-1.3242-1.3242-0.73438 0-1.3242 0.59375-1.3242 1.3242zm0-6.2891v1.6484c0 0.73047 0.59375 1.3242 1.3242 1.3242s1.3242-0.59375 1.3242-1.3242v-1.6484c0-0.73047-0.59375-1.3242-1.3242-1.3242-0.73438 0.003906-1.3242 0.59375-1.3242 1.3242zm0-6.2852v1.6484c0 0.73047 0.59375 1.3242 1.3242 1.3242s1.3242-0.59375 1.3242-1.3242l-0.003907-1.6484c0-0.73047-0.59375-1.3242-1.3242-1.3242-0.73047 0-1.3203 0.59375-1.3203 1.3242zm0-6.2891v1.6484c0 0.73047 0.59375 1.3242 1.3242 1.3242s1.3242-0.59375 1.3242-1.3242v-1.6484c0-0.73047-0.59375-1.3242-1.3242-1.3242-0.73438 0-1.3242 0.59375-1.3242 1.3242zm0-6.2891v1.6484c0 0.73047 0.59375 1.3242 1.3242 1.3242s1.3242-0.59375 1.3242-1.3242v-1.6484c0-0.73047-0.59375-1.3242-1.3242-1.3242-0.73438 0.003906-1.3242 0.59375-1.3242 1.3242zm-3.6484 31.438v1.6484c0 0.73047 0.59375 1.3242 1.3242 1.3242 0.73047 0 1.3242-0.59375 1.3242-1.3242v-1.6484c0-0.73047-0.59375-1.3242-1.3242-1.3242-0.73047 0.003906-1.3242 0.59766-1.3242 1.3242zm0-6.2852v1.6484c0 0.73047 0.59375 1.3242 1.3242 1.3242 0.73047 0 1.3242-0.59375 1.3242-1.3242v-1.6484c0-0.73047-0.59375-1.3242-1.3242-1.3242-0.73047 0-1.3242 0.59375-1.3242 1.3242zm0-6.2891v1.6484c0 0.73047 0.59375 1.3242 1.3242 1.3242 0.73047 0 1.3242-0.59375 1.3242-1.3242v-1.6484c0-0.73047-0.59375-1.3242-1.3242-1.3242-0.73047 0.003906-1.3242 0.59375-1.3242 1.3242zm0-6.2852v1.6484c0 0.73047 0.59375 1.3242 1.3242 1.3242 0.73047 0 1.3242-0.59375 1.3242-1.3242v-1.6484c0-0.73047-0.59375-1.3242-1.3242-1.3242-0.73047 0-1.3242 0.59375-1.3242 1.3242zm0-6.2891v1.6484c0 0.73047 0.59375 1.3242 1.3242 1.3242 0.73047 0 1.3242-0.59375 1.3242-1.3242v-1.6484c0-0.73047-0.59375-1.3242-1.3242-1.3242-0.73047 0-1.3242 0.59375-1.3242 1.3242zm0-6.2891v1.6484c0 0.73047 0.59375 1.3242 1.3242 1.3242 0.73047 0 1.3242-0.59375 1.3242-1.3242v-1.6484c0-0.73047-0.59375-1.3242-1.3242-1.3242-0.73047 0.003906-1.3242 0.59375-1.3242 1.3242zm-24.609 33.695h2.6367c0.73047 0 1.3242-0.59375 1.3242-1.3242 0-0.73047-0.59375-1.3242-1.3242-1.3242h-2.6367c-0.73047 0-1.3242 0.59375-1.3242 1.3242 0 0.73047 0.59375 1.3242 1.3242 1.3242zm-6.6367 0h2.6367c0.73047 0 1.3242-0.59375 1.3242-1.3242 0-0.73047-0.59375-1.3242-1.3242-1.3242h-2.6367c-0.73047 0-1.3242 0.59375-1.3242 1.3242 0.003907 0.73047 0.59375 1.3242 1.3242 1.3242zm6.6367-4.7812h2.6367c0.73047 0 1.3242-0.59375 1.3242-1.3242 0-0.73047-0.59375-1.3242-1.3242-1.3242l-2.6367 0.003906c-0.73047 0-1.3242 0.59375-1.3242 1.3242 0 0.73047 0.59375 1.3203 1.3242 1.3203zm-6.6367 0h2.6367c0.73047 0 1.3242-0.59375 1.3242-1.3242 0-0.73047-0.59375-1.3242-1.3242-1.3242h-2.6367c-0.73047 0-1.3242 0.59375-1.3242 1.3242 0.003907 0.73437 0.59375 1.3242 1.3242 1.3242zm6.6367-4.7773h2.6367c0.73047 0 1.3242-0.59375 1.3242-1.3242 0-0.73047-0.59375-1.3242-1.3242-1.3242l-2.6367 0.003906c-0.73047 0-1.3242 0.59375-1.3242 1.3242 0 0.72656 0.59375 1.3203 1.3242 1.3203zm-6.6367 0h2.6367c0.73047 0 1.3242-0.59375 1.3242-1.3242 0-0.73047-0.59375-1.3242-1.3242-1.3242h-2.6367c-0.73047 0-1.3242 0.59375-1.3242 1.3242 0.003907 0.73047 0.59375 1.3242 1.3242 1.3242zm6.6367-4.7812h2.6367c0.73047 0 1.3242-0.59375 1.3242-1.3242 0-0.73047-0.59375-1.3242-1.3242-1.3242l-2.6367 0.003906c-0.73047 0-1.3242 0.59375-1.3242 1.3242s0.59375 1.3203 1.3242 1.3203zm-6.6367 0h2.6367c0.73047 0 1.3242-0.59375 1.3242-1.3242 0-0.73047-0.59375-1.3242-1.3242-1.3242h-2.6367c-0.73047 0-1.3242 0.59375-1.3242 1.3242 0.003907 0.73438 0.59375 1.3242 1.3242 1.3242zm6.6367-4.7773h2.6367c0.73047 0 1.3242-0.59375 1.3242-1.3242s-0.59375-1.3242-1.3242-1.3242h-2.6367c-0.73047 0-1.3242 0.59375-1.3242 1.3242s0.59375 1.3242 1.3242 1.3242zm-6.6367 0h2.6367c0.73047 0 1.3242-0.59375 1.3242-1.3242s-0.59375-1.3242-1.3242-1.3242h-2.6367c-0.73047 0-1.3242 0.59375-1.3242 1.3242 0.003907 0.73047 0.59375 1.3242 1.3242 1.3242zm6.6367-4.7812h2.6367c0.73047 0 1.3242-0.59375 1.3242-1.3242s-0.59375-1.3242-1.3242-1.3242l-2.6367 0.003907c-0.73047 0-1.3242 0.59375-1.3242 1.3242 0 0.72656 0.59375 1.3203 1.3242 1.3203zm-6.6367 0h2.6367c0.73047 0 1.3242-0.59375 1.3242-1.3242s-0.59375-1.3242-1.3242-1.3242h-2.6367c-0.73047 0-1.3242 0.59375-1.3242 1.3242 0.003907 0.73047 0.59375 1.3242 1.3242 1.3242zm6.6367-4.7812h2.6367c0.73047 0 1.3242-0.59375 1.3242-1.3242s-0.59375-1.3242-1.3242-1.3242l-2.6367 0.003907c-0.73047 0-1.3242 0.59375-1.3242 1.3242 0 0.73047 0.59375 1.3203 1.3242 1.3203zm-6.6367 0h2.6367c0.73047 0 1.3242-0.59375 1.3242-1.3242s-0.59375-1.3242-1.3242-1.3242h-2.6367c-0.73047 0-1.3242 0.59375-1.3242 1.3242 0.003907 0.73438 0.59375 1.3242 1.3242 1.3242zm6.6367-4.7773h2.6367c0.73047 0 1.3242-0.59375 1.3242-1.3242 0-0.73047-0.59375-1.3242-1.3242-1.3242h-2.6367c-0.73047 0-1.3242 0.59375-1.3242 1.3242 0 0.73047 0.59375 1.3242 1.3242 1.3242zm-6.6367 0h2.6367c0.73047 0 1.3242-0.59375 1.3242-1.3242 0-0.73047-0.59375-1.3242-1.3242-1.3242h-2.6367c-0.73047 0-1.3242 0.59375-1.3242 1.3242 0.003907 0.73047 0.59375 1.3242 1.3242 1.3242zm6.6367-4.7812h2.6367c0.73047 0 1.3242-0.59375 1.3242-1.3242 0-0.73047-0.59375-1.3242-1.3242-1.3242l-2.6367 0.003906c-0.73047 0-1.3242 0.59375-1.3242 1.3242 0 0.73047 0.59375 1.3203 1.3242 1.3203zm-6.6367 0h2.6367c0.73047 0 1.3242-0.59375 1.3242-1.3242 0-0.73047-0.59375-1.3242-1.3242-1.3242h-2.6367c-0.73047 0-1.3242 0.59375-1.3242 1.3242 0.003907 0.73438 0.59375 1.3242 1.3242 1.3242zm11.273 39.145v-42.695h-13.273v42.695zm5.75-10.543h7.4922c0.73047 0 1.3242 0.59375 1.3242 1.3242v9.2188h1.7812v-26.887h-13.703v26.887h1.7812v-9.2188c0.003906-0.73047 0.59375-1.3242 1.3242-1.3242zm6.1719 2.6445h-4.8477v7.8984h4.8477zm16-34.711h1.7812c0.73047 0 1.3242-0.59375 1.3242-1.3242 0-0.73047-0.59375-1.3242-1.3242-1.3242h-1.7812c-0.73047 0-1.3242 0.59375-1.3242 1.3242 0.003906 0.73047 0.59375 1.3242 1.3242 1.3242zm-4.9766 0h1.7812c0.73047 0 1.3242-0.59375 1.3242-1.3242 0-0.73047-0.59375-1.3242-1.3242-1.3242h-1.7812c-0.73047 0-1.3242 0.59375-1.3242 1.3242 0.003907 0.73047 0.59375 1.3242 1.3242 1.3242zm-2.0977 3.8516h11.836v-7.2852h-11.836zm13.688 2.6445h-15.539v36.113h15.539z" fill="#e7e7e7" fill-rule="evenodd" stroke="#e7e7e7" stroke-width="1"/>
</svg>
