<?xml version="1.0" encoding="UTF-8"?>
<svg width="100pt" height="100pt" version="1.1" viewBox="0 0 100 100" xmlns="http://www.w3.org/2000/svg">
 <path d="m65.43 58.164h5.3906v-5.7617h-5.3906zm-2.2461 1.6406c-0.058594-0.13672-0.097656-0.29297-0.097656-0.46875v-8.1055c0-0.64453 0.52734-1.1719 1.1719-1.1719h7.7344c0.64453 0 1.1719 0.52734 1.1719 1.1719v8.1055c0 0.17578-0.039062 0.3125-0.097656 0.46875h5.6445v-14.238c-1.0156 0.019532-1.9531-0.39062-2.6367-1.0352-1.4844 1.4062-3.7695 1.3867-5.2344-0.019531-1.4844 1.4258-3.8086 1.4062-5.293-0.019531-1.4844 1.4453-3.8477 1.4453-5.3125-0.019532-0.70312 0.70312-1.6602 1.0938-2.6953 1.0938v14.238zm15.508-16.582c0.80078 0 1.4648-0.64453 1.4648-1.4648v-3.0469h-2.8711v3.0469c0 0.097657 0 0.19531-0.019531 0.3125 0.058594 0.27344 0.19531 0.52734 0.39062 0.72266 0.25391 0.27344 0.625 0.42969 1.0352 0.42969zm-3.7891-1.1523-0.019532-3.3594h-2.8711v3.0664c0 1.25 1.5625 1.9531 2.5 1.0156 0.17578-0.19531 0.33203-0.44922 0.39062-0.72266zm7.5977-4.1016v3.7891c0 1.1914-0.54688 2.2656-1.4258 2.9688v15.059h0.42969c0.64453 0 1.1719 0.52734 1.1719 1.1719v5.2539c0 0.64453-0.52734 1.1719-1.1719 1.1719h-11.895c-4.9609 5.4883-12.012 8.6914-19.551 8.6914-14.531 0-26.309-11.777-26.309-26.328 0-14.531 11.777-26.309 26.309-26.309 11.797 0 18.34 7.5781 18.594 7.6953h12.793c0.64453 0 1.1719 0.52734 1.1719 1.1719v5.1367c0 0.19531-0.058594 0.37109-0.11719 0.52734zm-12.832 3.8086v-3.0664h-2.9102v3.0469c0 1.2695 1.5625 1.9727 2.4805 1.0352 0.25391-0.25391 0.41016-0.625 0.42969-1.0156zm-6.7773 1.4453c0.80078 0 1.4648-0.66406 1.4648-1.4648v-3.0469h-2.9102v3.0469c0 0.82031 0.64453 1.4648 1.4453 1.4648zm-3.7891-1.1523-0.019531-3.3594h-2.9883v3.0469c0 1.543 2.1094 2.0312 2.7734 0.625 0.078124-0.11719 0.15625-0.21484 0.23437-0.3125zm-3.9062 2.6562c-0.87891-0.70312-1.4258-1.7773-1.4258-2.9688v-3.7891c-0.058593-0.21484-0.11719-0.11719-0.11719-0.66406-3.8281 0.23437-7.5195 0.11719-11.25-0.39063-0.85938 3.418-1.3867 7.4023-1.4648 11.68h14.258zm0.74219 20.312h24.375v-2.8906h-24.375zm10.352 2.3438h-7.6562c-0.89844 2.3438-1.9727 4.2969-3.2031 5.7422 4.082-0.9375 7.8125-2.9297 10.859-5.7422zm-10.176 0h-1.3477c-0.64453 0-1.1719-0.52734-1.1719-1.1719v-1.6602c-3.457-0.23438-7.1484-0.097656-10.566 0.33203 1.3086 4.082 3.7695 8.8281 6.9922 8.8281 2.832 0.019531 4.9805-3.6719 6.0938-6.3281zm-2.5195-5.1758v-1.2305c0-0.64453 0.52734-1.1719 1.1719-1.1719h0.42969v-8.8672h-14.258c0.078125 4.2773 0.60547 8.2617 1.4648 11.68 3.7109-0.50781 7.3633-0.625 11.191-0.41016zm2.4023-25.918h24.277v-2.793h-24.277zm-2.3633-1.3281v-2.6562c0-0.64453 0.52734-1.1719 1.1719-1.1719h0.85937c-1.1133-2.3242-3.1055-5.3516-5.625-5.3516-3.2227 0-5.6836 4.7461-6.9922 8.8477 3.418 0.42969 7.1289 0.56641 10.586 0.33203zm4.5898-3.8281h6.9141c-2.8125-2.2852-6.1328-3.9258-9.707-4.7461 1.0547 1.25 1.9922 2.8516 2.793 4.7461zm-30.664-4.0625c0.44922 0.46875 0.44922 1.2109 0 1.6602-0.46875 0.44922-1.2109 0.44922-1.6602 0l-5.3906-5.4102 0.078126 0.3125c0.17578 0.625-0.19531 1.2695-0.82031 1.4258-0.625 0.17578-1.2695-0.19531-1.4258-0.82031l-1.1914-4.4727c-0.27344-0.9375 0.54687-1.7578 1.4648-1.4648l4.4922 1.2109c0.625 0.17578 0.99609 0.80078 0.82031 1.4258s-0.80078 0.99609-1.4258 0.82031l-0.3125-0.078124zm-0.21484 45.176c0.46875-0.46875 1.2109-0.46875 1.6602 0 0.44922 0.44922 0.44922 1.1914 0 1.6602l-5.3906 5.3906 0.3125-0.078125c0.625-0.17578 1.2695 0.19531 1.4258 0.83984 0.17578 0.625-0.19531 1.2695-0.83984 1.4258l-4.4727 1.2109c-0.9375 0.27344-1.7578-0.54687-1.4648-1.4844l1.2109-4.4922c0.17578-0.625 0.80078-0.99609 1.4258-0.83984 0.625 0.17578 0.99609 0.80078 0.82031 1.4258l-0.097656 0.33203zm22.539 9.4531c0-0.64453 0.52734-1.1719 1.1719-1.1719 0.64453 0 1.1719 0.52734 1.1719 1.1719v7.6367l0.15625-0.27344c0.3125-0.54688 1.0352-0.74219 1.6016-0.42969s0.76172 1.0352 0.42969 1.582l-2.2852 3.9648c-0.46875 0.91797-1.6602 0.91797-2.1289 0l-2.3047-3.9844c-0.3125-0.56641-0.13672-1.2695 0.42969-1.6016 0.56641-0.3125 1.2695-0.13672 1.582 0.42969l0.17578 0.29297zm22.637-9.2578c-0.46875-0.46875-0.46875-1.2109 0-1.6602 0.44922-0.46875 1.1914-0.46875 1.6602 0l5.3906 5.3906-0.078124-0.3125c-0.17578-0.625 0.19531-1.2695 0.83984-1.4258 0.625-0.17578 1.2695 0.19531 1.4258 0.83984l1.2109 4.4727c0.27344 0.9375-0.54688 1.7578-1.4844 1.4844l-4.4922-1.2109c-0.625-0.17578-0.99609-0.80078-0.83984-1.4258 0.17578-0.625 0.80078-0.99609 1.4258-0.83984l0.3125 0.097656zm0.21484-45.156c-0.46875 0.44922-1.2109 0.44922-1.6602 0-0.46875-0.46875-0.46875-1.2109 0-1.6602l5.3906-5.3906-0.29297 0.078125c-0.625 0.17578-1.2695-0.19531-1.4258-0.83984-0.17578-0.625 0.19531-1.2695 0.83984-1.4258l4.4727-1.1914c0.9375-0.27344 1.7578 0.54688 1.4844 1.4844l-1.2109 4.4922c-0.17578 0.625-0.80078 0.99609-1.4258 0.82031-0.625-0.17578-0.99609-0.80078-0.83984-1.4258l0.097656-0.3125zm-22.539-9.4727c0 0.64453-0.52734 1.1719-1.1719 1.1719-0.64453 0-1.1719-0.52734-1.1719-1.1719v-7.6367l-0.15625 0.27344c-0.3125 0.56641-1.0352 0.76172-1.6016 0.42969-0.56641-0.3125-0.74219-1.0352-0.42969-1.6016l2.2852-3.9648c0.46875-0.91797 1.6602-0.91797 2.1289 0l2.3047 3.9844c0.3125 0.56641 0.13672 1.2695-0.42969 1.582s-1.2695 0.13672-1.6016-0.42969l-0.17578-0.29297v7.6562zm-24.102 30.781h12.48c0.078125-4.3945 0.60547-8.4961 1.5039-12.051-2.9297-0.52734-5.7227-1.2891-8.3594-2.2461-3.2812 3.8867-5.3711 8.8477-5.625 14.297zm12.48 2.3438h-12.48c0.25391 5.4297 2.3438 10.391 5.625 14.297 2.6172-0.95703 5.4297-1.7188 8.3594-2.2461-0.87891-3.5742-1.4062-7.6758-1.5039-12.051zm6.0742 22.188c-1.7773-2.0898-3.0469-4.9805-3.9453-7.8711-2.5586 0.44922-4.9414 1.0547-7.2266 1.8359 3.0469 2.9297 6.8945 5.0586 11.172 6.0352zm-3.9453-38.848c0.89844-2.8906 2.168-5.7812 3.9453-7.8711-4.2773 0.97656-8.125 3.1055-11.191 6.0352 2.3047 0.76172 4.6875 1.3672 7.2461 1.8359z" fill="#7031ff"/>
</svg>
