<?xml version="1.0" encoding="UTF-8"?>
<svg width="100pt" height="100pt" version="1.1" viewBox="0 0 100 100" xmlns="http://www.w3.org/2000/svg">
 <path d="m30.645 36.656c-0.097656-0.035156-0.58984 23.051 19.363 29.625 19.75-6.5039 19.613-29.684 19.348-29.625-0.027344-0.47266-0.26562-0.90625-0.65234-1.1797l-8.9023-6.3594c-0.67969-0.5-1.7188-0.31641-2.1914 0.38281-3.0039 4.1406-12.219 4.1484-15.215 0.003906-0.46484-0.71094-1.5156-0.89062-2.1953-0.38672l-8.9023 6.3594c-0.38672 0.27734-0.625 0.71094-0.65234 1.1797zm10.242-4.1875c4.2305 4.3594 14.012 4.3359 18.223 0l7.1406 5.1016c0.011719 3.6016-0.86328 19.125-16.25 25.469-15.387-6.3438-16.262-21.863-16.25-25.469l7.1406-5.0977z" fill="#7031ff"/>
 <path d="m47.973 54.566c0.43359 0 0.85938-0.17969 1.168-0.52344l11.805-13.281c1.3477-1.5312-0.96875-3.6016-2.3359-2.0781l-10.82 12.172-6.2188-4.9766c-1.5977-1.2695-3.543 1.1562-1.9531 2.4414l7.3789 5.9023c0.28516 0.23047 0.63281 0.34375 0.97656 0.34375z" fill="#7031ff"/>
 <path d="m28.516 44.43h-11.973l22.195-20.156c1.5-1.3672-0.57422-3.6836-2.1016-2.3125l-25.188 22.875c-1.0508 0.89453-0.33984 2.7656 1.0508 2.7188h16.016c2.0547-0.039063 2.0547-3.0898 0-3.125z" fill="#7031ff"/>
 <path d="m83.457 44.43h-11.957c-2.0508 0.03125-2.0547 3.0898 0 3.125h16c1.3828 0.042968 2.1094-1.8203 1.0508-2.7188l-25.188-22.875c-1.5078-1.3594-3.6133 0.92578-2.1016 2.3125l22.195 20.156z" fill="#7031ff"/>
 <path d="m9.375 85.055v1.7852c-2.6875 0.69922-4.6875 3.125-4.6875 6.0273-2.0195 0.023437-2.082 3.0859 0 3.125h1.5625 89.062c2.0195-0.023438 2.082-3.0859 0-3.125 0-2.9023-2-5.3281-4.6875-6.0273v-1.7852c0-1.7227-1.4023-3.125-3.125-3.125v-23.438c1.7227 0 3.125-1.4023 3.125-3.125v-1.5938c5.6367-0.1875 8.3281-7.668 4.0195-11.375l-40.219-36.672c-2.5234-2.2969-6.3281-2.2969-8.8555 0l-40.215 36.672c-4.2891 3.6992-1.6406 11.195 4.0195 11.375v1.5938c0 1.7227 1.4023 3.125 3.125 3.125v23.438c-1.7227 0-3.125 1.4023-3.125 3.125zm79.688 4.6875c1.7227 0 3.125 1.4023 3.125 3.125h-84.375c0-1.7227 1.4023-3.125 3.125-3.125h78.125zm-46.875-3.125v-1.5625h15.625v1.5625zm43.75-1.5625h1.5625v1.5625h-15.625v-1.5625zm-10.938-3.125v-23.438h9.375v23.438zm12.5-26.562c-2.1992 0-13.426 0-15.625 0.003906v-1.5664h15.625zm-76.562-4.6875h-1.1562c-3.2227-0.09375-4.6211-3.75-2.3203-5.9727l40.219-36.672c1.3242-1.207 3.3242-1.2031 4.6445 0l40.223 36.676c2.3125 2.2227 0.87109 5.875-2.3242 5.9688h-20.859c-1.6875-0.027344-2.1406 2.3867-0.60938 3v1.6875c0 1.7227 1.4023 3.125 3.125 3.125v23.438c-1.7227 0-3.125 1.4023-3.125 3.125v1.5625h-7.8125v-1.5625c0-1.7227-1.4023-3.125-3.125-3.125v-15.016c0-0.86328-0.69922-1.5625-1.5625-1.5625-0.86328 0-1.5625 0.69922-1.5625 1.5625v15.016h-9.375v-15.016c0-0.86328-0.69922-1.5625-1.5625-1.5625-0.86328 0-1.5625 0.69922-1.5625 1.5625v15.016c-1.7227 0-3.125 1.4023-3.125 3.125v1.5625h-7.8125v-1.5625c0-1.7227-1.4023-3.125-3.125-3.125v-23.438c1.7227 0 3.125-1.4023 3.125-3.125v-1.6836c1.5508-0.60156 1.0977-3.0312-0.59375-3.0039h-0.96875zm3.125 4.6875c-0.011719 0.003906-1.5625 0.003906-1.5625 0.003906v-1.5664h15.625v1.5625h-14.062zm10.938 3.125v23.438h-9.375v-23.438zm3.125 26.562v1.5625h-15.625v-1.5625z" fill="#7031ff"/>
 <path d="m50 30.367c5.168 0 9.375-4.207 9.375-9.375-0.44141-12.406-18.312-12.406-18.75 0 0 5.168 4.207 9.375 9.375 9.375zm0-15.625c8.2578 0.26172 8.2578 12.238 0 12.5-8.2578-0.26172-8.2578-12.238 0-12.5z" fill="#7031ff"/>
</svg>
