<?xml version="1.0" encoding="UTF-8"?>
<svg width="100pt" height="100pt" version="1.1" viewBox="0 0 100 100" xmlns="http://www.w3.org/2000/svg">
 <path d="m31.531 56.668h-13.684c-0.63281-0.003907-1.1406-0.51172-1.1406-1.1445v-9.5664c0.019531-4.5391 2.8789-8.5781 7.1562-10.098-0.19922-0.16406-0.39062-0.33594-0.57031-0.51953-2.1953-2.1836-2.8164-5.4961-1.5586-8.3242 1.2539-2.832 4.125-4.5938 7.2188-4.4336 3.0898 0.16016 5.7656 2.2109 6.7188 5.1562 0.95703 2.9453 0 6.1719-2.4102 8.1211 0.5625 0.19922 1.1133 0.44922 1.6367 0.74219 0.46094-0.60937 0.96484-1.1914 1.5039-1.7344 2.0898-2.0898 4.6992-3.5898 7.5547-4.3398-0.47656-0.30469-0.93359-0.64453-1.3672-1.0117-1.8047-1.5547-3.0742-3.6367-3.6328-5.9531h-2.3672c-0.49219 0-0.96484-0.19531-1.3125-0.54297-0.03125-0.03125-0.058594-0.066406-0.085938-0.097656-0.29297-0.33594-0.45312-0.76953-0.45312-1.2148v-3.2852c-0.003906-0.49219 0.19141-0.96484 0.54297-1.3086h0.003906c0.29297-0.29297 0.67188-0.48047 1.082-0.53516 0.42969-5.1445 3.7148-9.6133 8.5-11.555v-0.87109c0.003906-0.62891 0.25391-1.2305 0.69922-1.6758v-0.011718 0.003906c0.44531-0.44141 1.0469-0.69141 1.6758-0.69531h5.5039c1.3164 0 2.3789 1.0625 2.3789 2.3789v0.87109c4.793 1.9375 8.082 6.4062 8.5117 11.555 0.41016 0.054687 0.78906 0.24219 1.082 0.53516h0.003906c0.34766 0.34766 0.53906 0.81641 0.53906 1.3086v3.2812c0 0.49219-0.19531 0.96484-0.54297 1.3125-0.34766 0.35156-0.82031 0.54688-1.3125 0.54688h-2.3633c-0.55859 2.3164-1.832 4.3984-3.6406 5.9531-0.42969 0.36719-0.88672 0.70703-1.3672 1.0078 3.6172 0.94922 6.8047 3.0898 9.0586 6.0742 0.52734-0.29297 1.0742-0.54297 1.6406-0.74219-2.4375-1.9883-3.3594-5.293-2.3047-8.2578 1.0547-2.9609 3.8594-4.9375 7.0039-4.9375 3.1445 0 5.9492 1.9766 7.0039 4.9375 1.0547 2.9648 0.13281 6.2695-2.3047 8.2578 4.2773 1.5156 7.1406 5.5586 7.1562 10.098v9.5703-0.003907c0.003907 0.30469-0.11719 0.59375-0.32812 0.80859-0.21484 0.21094-0.50391 0.33203-0.80469 0.33203h-13.684v5.4141h-0.003906c0 0.30469-0.11719 0.59375-0.33203 0.80469-0.21484 0.21484-0.50391 0.33203-0.80859 0.33203h-34.656c-0.30078 0-0.59375-0.11719-0.80469-0.33203-0.21484-0.21094-0.33594-0.5-0.33594-0.80469zm55.395 4.6367v2.75c0.007813 1.8984-1.2148 3.5781-3.0195 4.1562l-0.6875 0.22266v-0.003906c-1.4883 0.45312-2.6562 1.6055-3.125 3.0859-0.22266 0.66016-0.46875 1.3086-0.73828 1.9492-0.26562 0.64062-0.54688 1.2734-0.85547 1.9023-0.34766 0.68359-0.53125 1.4375-0.53125 2.2031 0.011719 0.76172 0.20703 1.5117 0.55859 2.1914l0.32812 0.64062v-0.003906c0.87109 1.6836 0.54688 3.7383-0.80078 5.0703l-3.8945 3.8945v0.003907c-1.3359 1.3398-3.3867 1.6641-5.0703 0.80078l-0.64453-0.32812c-0.67578-0.35938-1.4258-0.55078-2.1914-0.5625-0.76562 0.003906-1.5195 0.18359-2.2031 0.52734-0.63281 0.31641-1.2617 0.60156-1.8945 0.86719-0.63281 0.26172-1.293 0.50781-1.9531 0.73828-0.72656 0.23438-1.3828 0.63672-1.9258 1.1758-0.52734 0.55078-0.92578 1.2148-1.1562 1.9453l-0.21875 0.68359h-0.003906c-0.57031 1.8086-2.2539 3.0312-4.1484 3.0195h-5.5039c-1.8984 0.015625-3.5859-1.2109-4.1523-3.0195l-0.22656-0.68359c-0.44922-1.4883-1.6016-2.6562-3.0781-3.1289-0.66016-0.22656-1.3125-0.46875-1.9531-0.73828-0.64063-0.26953-1.2695-0.55469-1.8945-0.86719v0.003906c-0.68359-0.34766-1.4375-0.52734-2.2031-0.52734-0.76172 0.011718-1.5078 0.20312-2.1836 0.55859l-0.64453 0.32812c-1.6875 0.86328-3.7344 0.53906-5.0703-0.80078l-3.8945-3.8945c-1.3477-1.332-1.6758-3.3867-0.80469-5.0703l0.32812-0.64062c0.73047-1.3711 0.74219-3.0117 0.027344-4.3906-0.31641-0.63281-0.59766-1.2617-0.85938-1.8984-0.26562-0.63672-0.51172-1.2852-0.73828-1.9492-0.23438-0.72656-0.64063-1.3867-1.1797-1.9297-0.54688-0.53125-1.2109-0.92969-1.9414-1.1562l-0.68359-0.22266c-1.8047-0.57422-3.0273-2.2578-3.0195-4.1523v-2.75c0-0.62891 0.51172-1.1406 1.1406-1.1406h15.281c0.62891 0 1.1406 0.51172 1.1406 1.1406 0 6.918 3.6914 13.309 9.6836 16.77 5.9883 3.457 13.371 3.457 19.359 0 5.9922-3.4609 9.6836-9.8516 9.6836-16.77 0-0.62891 0.51172-1.1406 1.1406-1.1406h15.285c0.62891 0 1.1406 0.51172 1.1406 1.1406zm-2.2812 2.75v-1.6094h-13.031c-0.39844 7.4492-4.6016 14.168-11.125 17.785-6.5234 3.6133-14.453 3.6133-20.977 0-6.5234-3.6172-10.727-10.336-11.125-17.785h-13.035v1.6094c-0.003906 0.44531 0.13672 0.87891 0.39453 1.2383 0.26172 0.35938 0.62891 0.62109 1.0508 0.75391l0.6875 0.21875c2.168 0.67969 3.8711 2.3594 4.5703 4.5156 0.21094 0.61328 0.4375 1.2188 0.68359 1.8086 0.25391 0.60938 0.51562 1.1953 0.80078 1.7656h0.003907c1.0234 2.0234 1.0078 4.418-0.039063 6.4258l-0.32812 0.64453v0.003907c-0.20703 0.39453-0.28125 0.84375-0.21094 1.2812 0.074218 0.43359 0.28516 0.83594 0.59766 1.1445l3.8945 3.8945c0.63281 0.66016 1.625 0.82031 2.4297 0.39062l0.64453-0.32812v-0.003906c2.0078-1.0547 4.4062-1.0664 6.4258-0.035156 0.57031 0.28125 1.1641 0.55078 1.7656 0.79687 0.60156 0.24609 1.1992 0.47266 1.8086 0.68359 2.1562 0.70312 3.8398 2.4023 4.5156 4.5664l0.22266 0.69141h-0.003906c0.27344 0.86719 1.082 1.4531 1.9922 1.4414h5.5078c0.90234 0.003906 1.7031-0.58203 1.9727-1.4453l0.22656-0.69141v0.003906c0.33203-1.0664 0.91406-2.0391 1.6992-2.832 0.78906-0.79297 1.75-1.3867 2.8086-1.7383 0.61328-0.21094 1.2148-0.4375 1.8125-0.68359s1.1914-0.51562 1.7617-0.79688c2.0234-1.0312 4.4219-1.0195 6.4336 0.039063l0.64062 0.32812h-0.003906c0.39844 0.19922 0.84375 0.27344 1.2812 0.21094 0.4375-0.074218 0.83984-0.28516 1.1484-0.60156l3.8945-3.8945v-0.003906c0.65625-0.62891 0.8125-1.6211 0.38281-2.4258l-0.32812-0.64453c-1.0508-2.0117-1.0625-4.4062-0.039063-6.4297 0.27734-0.57031 0.54688-1.1562 0.80078-1.7656 0.24219-0.58984 0.47266-1.1953 0.67969-1.8086v0.003906c0.70312-2.1602 2.4062-3.8438 4.5742-4.5156l0.68359-0.21875v-0.003907c0.87109-0.26562 1.4609-1.0781 1.4453-1.9922zm-39.777-56.547c-1.6406 0.83594-3.0625 2.0508-4.1367 3.543-1.168 1.625-1.8867 3.5234-2.0781 5.5117h6.2188zm2.2812 9.0508h5.6992v-12.406c0-0.027344-0.011718-0.054688-0.03125-0.070313-0.015625-0.019531-0.042968-0.03125-0.070312-0.03125h-5.5c-0.023438 0-0.050782 0.007813-0.070313 0.023438-0.015625 0.023437-0.023437 0.046875-0.019531 0.070312zm7.9766 0h6.2227v0.003906c-0.38672-3.8828-2.7344-7.3008-6.2227-9.0547zm-13.809 7.0078c1.1602 3.8203 4.6836 6.4297 8.6758 6.4258h0.015624c3.9883 0 7.5117-2.6055 8.6758-6.4219zm21.676-4.7227h-25.984v2.4414h25.984zm-5.25 42.094v-12.832c0-0.62891 0.51172-1.1406 1.1406-1.1406 0.62891 0 1.1406 0.51172 1.1406 1.1406v12.832h6.1641v-14.332c-0.011719-3.7969-1.5234-7.4375-4.2109-10.125-2.6836-2.6836-6.3242-4.1992-10.121-4.2109h-3.7109c-3.7969 0.011719-7.4375 1.5273-10.121 4.2109-2.6875 2.6875-4.2031 6.3281-4.2148 10.125v14.332h6.168v-12.832c-0.011718-0.30859 0.10547-0.60547 0.32031-0.82812s0.50781-0.34375 0.81641-0.34375c0.30859 0 0.60547 0.12109 0.82031 0.34375 0.21094 0.22266 0.32812 0.51953 0.32031 0.82812v12.832zm-24.09-22.43c-0.44922-0.23828-0.91797-0.4375-1.4023-0.59375-0.82031-0.25781-1.6758-0.39062-2.5391-0.38672h-2.293c-4.6484 0.011718-8.4141 3.7773-8.4258 8.4297v8.4297h2.9492l-0.003906-7.5c0-0.62891 0.51172-1.1367 1.1367-1.1367 0.62891 0 1.1406 0.50781 1.1406 1.1367v7.4961h7.3203v-7.7773c-0.003906-2.8359 0.72656-5.6289 2.1211-8.0977zm32.695 0c1.3945 2.4727 2.125 5.2656 2.1211 8.1055v7.7773h7.3203v-7.5039c-0.007812-0.30859 0.10547-0.60547 0.32031-0.82812s0.51172-0.34766 0.82031-0.34766c0.30469 0 0.60156 0.125 0.81641 0.34766s0.32812 0.51953 0.32031 0.82812v7.4961h2.9492v-8.4258c-0.015625-4.6523-3.7812-8.418-8.4297-8.4297h-2.3047c-0.85938-0.003906-1.7148 0.12891-2.5352 0.38672-0.48047 0.15625-0.94922 0.35547-1.3984 0.59375zm8.7461-12.102c-1.7461-1.7539-4.4922-2.0312-6.5547-0.65625-2.0586 1.3711-2.8633 4.0117-1.9219 6.3008 0.94531 2.2891 3.3789 3.5938 5.8086 3.1094 2.4297-0.48047 4.1797-2.6094 4.1797-5.0859 0.007812-1.375-0.53906-2.6953-1.5117-3.668zm-42.871 0h0.003906c-1.75-1.7461-4.4844-2.0117-6.5391-0.64062s-2.8516 4.0039-1.9062 6.2852 3.3711 3.5781 5.793 3.0977c2.4219-0.48047 4.168-2.6055 4.168-5.0742 0.003906-1.3789-0.54297-2.6953-1.5156-3.668z" fill="#7031ff"/>
</svg>
