<?xml version="1.0" encoding="UTF-8"?>
<svg width="1200pt" height="1200pt" version="1.1" viewBox="0 0 1200 1200" xmlns="http://www.w3.org/2000/svg">
 <path d="m1136.7 491.34c-2.4375-23.812-23.109-46.078-57.938-42.516-0.09375 0-0.1875 0.046875-0.28125 0.046875l-116.67 13.969-76.266-45.562c-3.2812-11.578-8.4844-22.828-15.562-33.469-5.8125-8.7188-12.516-16.453-19.922-23.109 7.9688 2.3438 16.359 3.6094 25.125 3.6094 49.125 0 89.109-39.984 89.109-89.109s-39.984-89.109-89.109-89.109-89.109 39.984-89.109 89.109c0 24.797 10.172 47.25 26.578 63.375-14.297-4.9688-29.859-7.125-46.078-6.0938l-148.31 9.2812c-18.328 1.1719-33.844 8.6719-46.125 22.312l-94.266 104.81c-23.531 26.156-16.641 54.938-0.28125 70.641 17.25 16.547 48.375 21.562 72.188-1.6875l90.375-88.312 44.484-2.1562-57.656 147.94c-0.65625 1.7344-1.3125 3.375-1.9688 5.0156-5.1562 12.891-10.031 25.125-9.5625 42.891 0.046876 1.0312 0.09375 2.1094 0.1875 3.1406l-98.156 161.11c-4.875 8.0156-2.3438 18.469 5.6719 23.344 2.7656 1.6875 5.8125 2.4844 8.8125 2.4844 5.7188 0 11.297-2.9062 14.531-8.1562l83.391-136.92c5.3906 7.9688 12.141 15.094 20.156 21.094l23.016 17.203-79.312 124.6c-5.0625 7.9219-2.7188 18.422 5.2031 23.438 2.8125 1.7812 6 2.6719 9.0938 2.6719 5.625 0 11.109-2.7656 14.344-7.875l77.906-122.39 79.406 59.438-60.141 113.11c-9.6094 18.094-9.3281 37.734 0.79687 53.906 10.641 17.016 30.469 27.797 50.906 27.797 0.65625 0 1.3594 0 2.0156-0.046876 19.5-0.70312 36.094-11.203 45.469-28.875l84.188-158.29c12.844-24.188 6.9844-53.109-14.25-70.359l-83.719-67.969c-6.1406-4.9688-7.9219-13.125-4.4062-20.25l60.609-123.05 67.969 37.031c2.5312 1.3594 5.2969 2.0625 8.1094 2.0625 0.9375 0 1.875-0.09375 2.8594-0.23438l150.37-25.547c33.281-3.7031 48.703-30.656 46.312-54.281zm-261.56-271.26c30.422 0 55.172 24.75 55.172 55.172s-24.75 55.172-55.172 55.172-55.172-24.75-55.172-55.172 24.75-55.172 55.172-55.172zm-28.125 264-77.016 156.32c-10.5 21.281-4.9219 46.641 13.453 61.594l83.719 67.969c8.4844 6.8906 10.828 18.422 5.6719 28.031l-84.188 158.29c-3.7031 6.9375-9.3281 10.641-16.688 10.875-9 0.28125-18.422-4.5469-22.969-11.812-3.6562-5.8594-3.5156-12.562 0.375-19.969l66.984-125.95c3.9375-7.4062 1.875-16.547-4.8281-21.562l-141.28-105.75c-12.938-9.7031-20.578-24.188-21-39.797-0.28125-10.781 2.6719-18.188 7.125-29.391 0.70312-1.6875 1.3594-3.4688 2.1094-5.25l61.875-158.76c0.14063-0.32812 0.28125-0.70312 0.375-1.0781 2.6719-8.4375 0.98438-17.672-4.4531-24.609-5.1094-6.5625-12.938-10.312-21.047-10.312-0.51562 0-1.0312 0-1.5938 0.046875l-61.734 3c-4.125 0.1875-8.0625 1.9219-11.062 4.8281l-95.016 92.812c-10.359 10.125-20.531 5.6719-24.938 1.4531-6.4688-6.2344-5.7656-14.766 2.0156-23.391l94.266-104.81c6.2812-6.9844 13.594-10.547 22.969-11.109l148.31-9.2812c29.859-1.8281 56.531 11.344 73.078 36.234 16.594 24.891 18.516 54.562 5.2969 81.422zm239.34 27.844-1.125 0.14062-145.08 24.656-64.031-34.875 1.3594-2.7656c6.4219-13.031 10.312-26.531 11.719-40.031l60.188 35.953c3.2344 1.9219 6.9844 2.7188 10.734 2.2969l122.26-14.672c12-1.1719 19.688 3.375 20.578 12.188 0.5625 5.6719-2.25 15.656-16.594 17.109zm-548.48 463.87c6.2344 6.9844 5.6719 17.719-1.3125 23.953-10.453 9.375-23.625 14.156-37.219 14.156-10.219 0-20.719-2.6719-30.469-8.1562-23.391-13.031-35.719-37.172-31.406-61.547 1.6406-9.2344 10.453-15.375 19.688-13.734s15.375 10.453 13.734 19.688c-2.1094 12 6.4688 21.469 14.484 25.922 3.8906 2.1562 17.344 8.3906 28.547-1.6406 6.9844-6.2812 17.719-5.6719 23.953 1.3125zm62.812-89.391-89.766-51.844c-16.125-9.3281-36.797-3.75-46.125 12.375l-0.75 1.3125c-50.297-26.156-69.422-31.641-108.47-29.812-14.625-66.375-73.828-116.16-144.52-116.16-81.609 0-147.98 66.375-147.98 147.98s66.375 147.98 147.98 147.98c80.953 0 146.86-65.344 147.94-146.02 29.531-1.3125 44.344 2.7656 88.031 25.406l-0.09375 0.1875c-9.2812 16.125-3.75 36.797 12.375 46.125l89.766 51.844c5.2031 3 10.922 4.5469 16.781 4.5469 2.9531 0 5.9062-0.375 8.8125-1.1719 8.7188-2.3438 16.031-7.9219 20.531-15.703l17.859-30.891c4.5-7.7812 5.6719-16.875 3.375-25.641-2.3438-8.7188-7.9219-16.031-15.703-20.531zm-389.63 77.906c-62.859 0-114.05-51.141-114.05-114.05 0-62.859 51.141-114.05 114.05-114.05 62.859 0 114.05 51.141 114.05 114.05 0 62.859-51.141 114.05-114.05 114.05zm354.84-18.047-89.438-51.656 17.625-30.609 89.484 51.656-17.672 30.562zm-296.39-59.906c-1.7812 14.438-10.828 27.094-24.188 33.75-5.2031 2.5781-11.062 4.4531-17.297 5.5781v9.0469c0 9.375-7.5938 16.969-16.969 16.969s-16.969-7.5938-16.969-16.969v-9.75c-16.875-3.7031-32.156-12.469-39.703-26.297-4.5-8.25-1.5-18.562 6.75-23.062 8.2031-4.5 18.562-1.5 23.062 6.75 5.4844 9.9844 32.156 14.25 46.031 7.3125 3.1406-1.5469 5.25-4.3594 5.625-7.4531 0.23438-2.0156 0.5625-4.7812-6-8.625-6.4688-3.7969-14.297-5.6719-23.391-7.8281-3.6562-0.89062-7.4531-1.7812-11.344-2.8594-11.906-3.3281-26.766-9-35.766-23.391-9.7969-15.703-7.5469-35.484 5.6719-49.266 7.875-8.2031 18.328-12.844 29.109-15.094v-9.3281c0-9.375 7.5938-16.969 16.969-16.969s16.969 7.5938 16.969 16.969v9.5156c17.109 3.7031 30.469 12.656 37.219 25.172 4.4531 8.25 1.3594 18.562-6.8906 23.016s-18.562 1.3594-23.016-6.8906c-2.2031-4.125-9.2812-7.5469-17.953-8.7188-12.797-1.7344-23.906 1.7344-27.891 5.8594-2.5312 2.625-2.9531 5.2031-1.4062 7.7812 2.2031 3.5625 7.0312 6.1406 16.078 8.6719 3.2812 0.89062 6.5625 1.6875 10.078 2.5312 10.734 2.5781 21.891 5.2031 32.719 11.578 16.641 9.7969 24.656 24.703 22.547 42.047zm99.703-565.5c0-9.375 7.5938-16.969 16.969-16.969h151.18c9.375 0 16.969 7.5938 16.969 16.969s-7.5938 16.969-16.969 16.969h-151.18c-9.375 0-16.969-7.5938-16.969-16.969zm218.81-98.484c0-9.375 7.5938-16.969 16.969-16.969h112.5c9.375 0 16.969 7.5938 16.969 16.969s-7.5938 16.969-16.969 16.969h-112.5c-9.375 0-16.969-7.5938-16.969-16.969zm-212.21 303.47c9.375 0 16.969 7.5938 16.969 16.969s-7.5938 16.969-16.969 16.969h-104.02c-9.375 0-16.969-7.5938-16.969-16.969s7.5938-16.969 16.969-16.969zm-152.81-106.12c0-9.375 7.5938-16.969 16.969-16.969h184.78c9.375 0 16.969 7.5938 16.969 16.969s-7.5938 16.969-16.969 16.969h-184.78c-9.375 0-16.969-7.5938-16.969-16.969z" fill="#60c"/>
</svg>
