<?xml version="1.0" encoding="UTF-8"?>
<svg width="512pt" height="512pt" version="1.1" viewBox="0 0 512 512" xmlns="http://www.w3.org/2000/svg">
 <path d="m488.21 280.46c0-1.5547-0.57031-2.9609-1.6133-3.9414-0.98437-0.98828-2.3828-1.6094-3.8945-1.6094-1.4492 0-2.8555 0.62109-3.8438 1.5547-1.0352 1.0391-1.6562 2.4414-1.6562 4 0 1.5078 0.62109 2.9062 1.6562 3.9453 0.98828 0.93359 2.3906 1.6055 3.8438 1.6055 1.5117 0 2.9102-0.67578 3.8945-1.6055 1.043-1.0469 1.6133-2.4453 1.6133-3.9492zm3.9414-9.3438c2.3359 2.4375 3.8438 5.707 3.8438 9.3438s-1.5078 7.0039-3.8945 9.4414l-0.15625 0.10547c-2.3867 2.3359-5.6055 3.7852-9.2383 3.7852-3.6289 0-6.9023-1.5039-9.2852-3.8945l-0.16016-0.15234c-2.332-2.3867-3.7305-5.7109-3.7305-9.2891 0-3.6836 1.5-7.0117 3.8359-9.4492l0.15625-0.15625c2.3867-2.332 5.6055-3.7852 9.1836-3.7852 3.6914 0 6.9531 1.5039 9.3477 3.9414z" fill="#e7e7e7" stroke="white" stroke-width="5"/>
 <path d="m461.85 53.738c1.8633 1.0898 2.4922 3.4258 1.4492 5.2969-0.35938 0.625-0.82422 1.0898-1.4492 1.4531l-14.066 8.1992c-1.8672 1.0898-4.1992 0.41016-5.2969-1.4531-1.0312-1.8203-0.41406-4.207 1.4531-5.2969l8.3086-4.8242-8.3086-4.8828c-1.8672-1.0352-2.4883-3.4766-1.4531-5.3438 1.0977-1.8711 3.4297-2.4414 5.2969-1.3477z" fill="#e7e7e7" stroke="white" stroke-width="5"/>
 <path d="m383.43 464.04c2.125 0 3.8359 1.7148 3.8359 3.8945 0 2.125-1.7148 3.8945-3.8359 3.8945h-20.145c-2.1289 0-3.8945-1.7695-3.8945-3.8945 0-2.1797 1.7656-3.8945 3.8945-3.8945z" fill="#e7e7e7" stroke="white" stroke-width="5"/>
 <path d="m369.98 474.47c2.0703 0 3.8438 1.7656 3.8438 3.9414 0 2.1289-1.7695 3.8945-3.8438 3.8945h-43.027c-2.1797 0-3.8945-1.7656-3.8945-3.8945 0-2.1797 1.7148-3.9414 3.8945-3.9414z" fill="#e7e7e7" stroke="white" stroke-width="5"/>
 <path d="m260.05 200.32c-8.8242 4.5664-16.352 11.418-22.477 20.605-0.67578 1.1445-1.9219 1.8711-3.2695 1.8711-2.1836 0-3.8945-1.7656-3.8945-3.9414v-21.543h-19.309v172.06h22.422v-94.258c0-11.938 1.1953-21.953 3.6328-30.152 1.9219-6.3359 4.5664-11.629 7.9414-15.836 1.1445-1.3984 2.3867-2.6445 3.6836-3.7852 5.0859-4.4648 10.59-7.7852 16.508-10.016 5.9141-2.2344 12.402-3.375 19.203-3.375 4.3086 0 8.3555 0.51563 12.195 1.5547 3.8438 0.98828 7.3711 2.4922 10.645 4.4141l0.25391 0.15234c3.2734 2.0781 6.1289 4.4648 8.4648 7.2188 2.2812 2.7461 4.1484 5.8633 5.4492 9.2891l0.050781 0.10156c1.2461 3.3203 2.2852 7.5781 2.8555 12.512 0.67969 4.875 0.98828 10.43 0.98828 16.816v105.36h22.418l-0.003906-106.55c0-6.9531-0.15234-12.82-0.35938-17.543-0.3125-4.8242-0.72656-8.6172-1.2461-11.367-0.77734-4.0469-1.9727-7.8359-3.4219-11.363-1.4609-3.4766-3.2227-6.6953-5.2461-9.6562-1.9727-2.7461-4.5664-5.3438-7.6289-7.6289-3.0625-2.3867-6.7539-4.4102-11.004-6.2305-4.2031-1.8672-8.668-3.2695-13.391-4.1523-4.6172-0.98828-9.5-1.4531-14.633-1.4531-11.73-0.003906-22.008 2.2852-30.828 6.9023zm-21.906 7.3203c5.3984-5.9727 11.523-10.691 18.375-14.223 9.9609-5.2422 21.488-7.8359 34.363-7.8359 5.5508 0 10.949 0.57422 16.141 1.6055 5.1406 0.98828 10.121 2.5938 14.895 4.6211 4.7734 2.0234 9.0273 4.4102 12.609 7.1602 3.7344 2.7539 6.7969 5.9141 9.2891 9.4492 2.3867 3.3711 4.4102 7.1602 6.0703 11.156 1.6602 3.9414 2.9609 8.2539 3.8945 12.77v0.054687c0.57422 3.0078 1.0391 7.2109 1.2969 12.453 0.31641 5.1406 0.51953 11.105 0.51953 17.957v110.45c0 2.1289-1.7656 3.8945-3.8945 3.8945h-30.203c-2.1289 0-3.8945-1.7656-3.8945-3.8945l0.003906-109.25c0-6.1797-0.20703-11.422-0.83203-15.836-0.51953-4.3047-1.2969-7.8867-2.4375-10.641l-0.050782-0.20703c-0.98828-2.5938-2.3359-4.9258-4.1562-7.0039-1.7656-2.0781-3.9922-4-6.5898-5.6055l-0.10156-0.050782c-2.6992-1.6133-5.5547-2.8555-8.668-3.6836-3.1719-0.78125-6.543-1.1953-10.277-1.1953-5.9219 0-11.422 0.98828-16.504 2.8555-5.0898 1.9219-9.8125 4.7734-14.02 8.5664h-0.10547c-4.0977 3.6328-7.2109 8.9258-9.2891 15.988-2.2344 7.4727-3.375 16.816-3.375 27.922v98.148c0 2.1289-1.7109 3.8945-3.8945 3.8945l-30.098-0.007812c-2.1289 0-3.8438-1.7656-3.8438-3.8945v-179.84c0-2.1797 1.7148-3.9414 3.8438-3.9414h27.094c2.125 0 3.8398 1.7656 3.8398 3.9414z" fill="#e7e7e7" stroke="white" stroke-width="5"/>
 <path d="m177.83 369.36v-172.06h-22.477v172.06zm7.7852-175.95v179.85c0 2.1289-1.7148 3.8945-3.8945 3.8945h-30.207c-2.1289 0-3.8945-1.7656-3.8945-3.8945l0.003906-179.85c0-2.1797 1.7656-3.9414 3.8945-3.9414h30.207c2.1797 0 3.8906 1.7656 3.8906 3.9414z" fill="#e7e7e7" stroke="white" stroke-width="5"/>
 <path d="m184.16 158.02c0-5.4531-2.1289-10.277-5.6055-13.758-3.4766-3.5859-8.3047-5.707-13.648-5.707-5.2422 0-9.9648 2.0742-13.445 5.5l-0.15234 0.20703c-3.4766 3.4766-5.6055 8.3008-5.6055 13.758 0 5.3438 2.1289 10.172 5.6055 13.699 3.4766 3.4766 8.3047 5.6562 13.598 5.6562 5.3438 0 10.172-2.1797 13.648-5.6562 3.4766-3.5273 5.6055-8.4102 5.6055-13.699zm-0.15625-19.312c4.8828 4.9336 7.8906 11.734 7.8906 19.312 0 7.4727-3.0078 14.324-7.8906 19.258-4.8242 4.875-11.625 7.9922-19.098 7.9922s-14.168-3.1172-19.047-7.9922c-4.8828-4.9336-7.8906-11.785-7.8906-19.258 0-7.5781 3.0078-14.379 7.8359-19.312l0.20703-0.20703c4.9336-4.8242 11.574-7.7852 18.895-7.7852 7.4727 0 14.168 3.0078 19.098 7.9922z" fill="#e7e7e7" stroke="white" stroke-width="5"/>
 <path d="m100.86 464.25c1.7656-1.8711 4.3633-3.0117 7.2148-3.0117 2.8047 0 5.3984 1.1406 7.2148 3.0117 1.8672 1.8633 3.0117 4.4609 3.0117 7.3125 0 2.8594-1.1445 5.4531-3.0117 7.3203-1.8164 1.8711-4.4102 3.0625-7.2148 3.0625-2.8555 0-5.4492-1.1914-7.2148-3.0625-1.8672-1.8633-3.0625-4.4609-3.0625-7.3203 0-2.8516 1.1953-5.4492 3.0625-7.3125zm5.4531 9.1328c0.46875 0.41406 1.0352 0.72656 1.7656 0.72656 0.67578 0 1.2969-0.30859 1.8164-0.72656 0.41406-0.46875 0.67578-1.0898 0.67578-1.8203 0-0.67188-0.25781-1.3477-0.67578-1.8125-0.51953-0.41406-1.1445-0.72656-1.8164-0.72656-0.72656 0-1.2969 0.30859-1.7656 0.72656-0.46484 0.46484-0.72656 1.1406-0.72656 1.8125-0.003907 0.73047 0.25781 1.3555 0.72656 1.8203z" fill="#e7e7e7" stroke="white" stroke-width="5"/>
 <path d="m70.027 42.27c0.625 2.0781-0.62109 4.207-2.6445 4.8281l-6.9531 1.8164c-2.0234 0.57422-4.1016-0.67578-4.7227-2.7539-0.51953-2.0742 0.72656-4.2031 2.75-4.7734l6.9023-1.8633c2.0742-0.52344 4.1523 0.67187 4.668 2.7461z" fill="#e7e7e7" stroke="white" stroke-width="5"/>
 <path d="m60.48 59.09c0.57031 2.1289-0.72656 4.2578-2.75 4.7734-2.0781 0.57031-4.1523-0.67578-4.7227-2.6953l-1.8164-6.8516c-0.57031-2.0781 0.67578-4.2031 2.7539-4.7734 2.0742-0.51562 4.1523 0.67578 4.6719 2.8047z" fill="#e7e7e7" stroke="white" stroke-width="5"/>
 <path d="m100.65 431.86h292.11c5.9219 0 11.477-1.2461 16.559-3.3242 5.3477-2.2812 10.172-5.5 14.168-9.5508 4.0547-4.043 7.2695-8.875 9.4961-14.273 2.0781-5.1367 3.3242-10.797 3.3242-16.762v-268.03c0-5.9141-1.2461-11.621-3.3242-16.812-2.2305-5.3477-5.5-10.172-9.4961-14.223-3.9961-4-8.7695-7.3203-14.109-9.5508-5.1406-2.1289-10.695-3.3242-16.613-3.3242l-292.11 0.003906c-5.8672 0-11.473 1.1953-16.609 3.3242-5.2422 2.2305-10.121 5.5-14.117 9.5508-3.9961 4.0508-7.2109 8.9258-9.4453 14.273-2.0742 5.1406-3.2695 10.848-3.2695 16.762v268.03c0 5.9648 1.1953 11.629 3.2695 16.762 2.2344 5.3477 5.4492 10.23 9.4453 14.273 3.9961 4.0508 8.875 7.2695 14.168 9.5508 5.0859 2.0742 10.691 3.3203 16.559 3.3203zm292.11 7.7891h-292.11c-6.8516 0-13.496-1.4023-19.516-3.9414-6.2812-2.5977-11.938-6.4375-16.66-11.211-4.7227-4.7227-8.4609-10.484-11.109-16.816-2.4922-6.0742-3.8945-12.77-3.8945-19.723v-268.03c0-6.9531 1.4023-13.648 3.8945-19.773 2.5938-6.332 6.3828-11.988 11.109-16.766 4.7227-4.7734 10.379-8.5625 16.66-11.207 6.0195-2.543 12.664-3.9492 19.516-3.9492h292.11c6.9531 0 13.496 1.4023 19.57 3.9492 6.2773 2.6445 11.887 6.4336 16.609 11.207 4.7266 4.7773 8.6172 10.438 11.16 16.766 2.5391 6.1211 3.9453 12.82 3.9453 19.773v268.03c0 7.0039-1.4023 13.648-3.9453 19.773-2.6523 6.2812-6.4375 12.043-11.16 16.766-4.7227 4.7734-10.328 8.6172-16.609 11.211-6.0664 2.5352-12.715 3.9414-19.566 3.9414z" fill="#e7e7e7" stroke="white" stroke-width="5"/>
 <path d="m55.188 39.105c0.51953 2.0742-0.72656 4.2539-2.75 4.7734-2.1289 0.56641-4.2031-0.73047-4.7227-2.7539l-1.7656-6.5391c-0.51953-2.1289 0.67578-4.207 2.75-4.7734 2.0234-0.52344 4.2031 0.67578 4.7227 2.8047z" fill="#e7e7e7" stroke="white" stroke-width="5"/>
 <path d="m50.828 47.516c0.57031 2.0234-0.67578 4.2031-2.6992 4.7734l-7.0625 1.8633c-2.0234 0.57422-4.2031-0.67578-4.7227-2.6953-0.51953-2.1289 0.67578-4.2578 2.75-4.7734l7.0078-1.9727c2.0781-0.51953 4.1523 0.67578 4.7266 2.8047z" fill="#e7e7e7" stroke="white" stroke-width="5"/>
 <path d="m40.289 268.62-7.4219 2.2305-2.0234-7.0039v-0.050781l7.3711-2.2344z" fill="#e7e7e7" stroke="white" stroke-width="5"/>
 <path d="m34.945 277.86-7.3203 2.2344-2.1289-7.0078v-0.054688l7.3711-2.1797z" fill="#e7e7e7" stroke="white" stroke-width="5"/>
 <path d="m30.844 263.8v0.050781l-7.3711 2.2305-2.0742-7.0586 7.3711-2.1758z" fill="#e7e7e7" stroke="white" stroke-width="5"/>
 <path d="m23.422 266.08 2.0742 6.9531v0.054688l-7.3711 2.2305-2.125-7.0586 7.4219-2.2305z" fill="#e7e7e7" stroke="white" stroke-width="5"/>
</svg>
