<?xml version="1.0" encoding="UTF-8"?>
<svg width="100pt" height="100pt" version="1.1" viewBox="0 0 100 100" xmlns="http://www.w3.org/2000/svg">
 <path d="m50 6.25c-17.23 0-31.25 14.02-31.25 31.25 0 16.109 25.805 51.062 28.746 54.996 0.58984 0.78906 1.5195 1.2539 2.5039 1.2539s1.9141-0.46484 2.5039-1.2539c2.9414-3.9336 28.746-38.887 28.746-54.996 0-17.23-14.02-31.25-31.25-31.25zm0 79.082c-8.7656-12.223-25-37.086-25-47.832 0-13.785 11.215-25 25-25s25 11.215 25 25c0 10.746-16.234 35.609-25 47.832zm0-63.457c-8.6133 0-15.625 7.0117-15.625 15.625s7.0117 15.625 15.625 15.625 15.625-7.0117 15.625-15.625-7.0117-15.625-15.625-15.625zm0 25c-5.168 0-9.375-4.207-9.375-9.375s4.207-9.375 9.375-9.375 9.375 4.207 9.375 9.375-4.207 9.375-9.375 9.375z" fill="#7031ff"/>
</svg>
