<?xml version="1.0" encoding="UTF-8"?>
<svg width="1200pt" height="1200pt" version="1.1" viewBox="0 0 1200 1200" xmlns="http://www.w3.org/2000/svg">
 <path d="m288.91 672.91h87.453c8.5469 0 15.453-6.9102 15.453-15.453v-281.09c0-8.5469-6.9102-15.453-15.453-15.453h-87.453c-8.5469 0-15.453 6.9102-15.453 15.453v281.09c-0.003906 8.5469 6.9062 15.457 15.453 15.457zm15.453-281.09h56.363v250.18h-56.363z" fill="#60c"/>
 <path d="m534.55 672.91c8.5469 0 15.453-6.9102 15.453-15.453v-160c0-8.5469-6.9102-15.453-15.453-15.453h-87.453c-8.5469 0-15.453 6.9102-15.453 15.453v160c0 8.5469 6.9102 15.453 15.453 15.453zm-72-160h56.363v129.09h-56.363z" fill="#60c"/>
 <path d="m708.18 657.45v-237.27c0-8.5469-6.9102-15.453-15.453-15.453h-87.453c-8.5469 0-15.453 6.9102-15.453 15.453v237.27c0 8.5469 6.9102 15.453 15.453 15.453h87.453c8.543 0 15.453-6.9102 15.453-15.457zm-30.91-15.453h-56.363v-206.36h56.363z" fill="#60c"/>
 <path d="m763.45 501.45c-8.5469 0-15.453 6.9102-15.453 15.453v140.55c0 8.5469 6.9102 15.453 15.453 15.453h87.453c8.5469 0 15.453-6.9102 15.453-15.453v-140.55c0-8.5469-6.9102-15.453-15.453-15.453zm72 140.55h-56.363v-109.64h56.363z" fill="#60c"/>
 <path d="m885.82 445.27c8 0 15.816-3.2734 21.453-8.9102 7.0898-7.0898 10.184-17.09 8.5469-27.09l-19.453-106.55c-1.8164-11.453-10.184-20.91-20.727-24-10.91-3.4531-22.91-0.72656-30.91 7.4531l-12.91 12.91-106.36-106.18c-16.91-16.91-45.637-16.727-62.184-0.18359l-40.727 40.547-124.91-124.91c-8.5469-8.3633-20.547-12.91-32.363-12.727-12.184 0.54688-23.273 5.8164-31.273 14.727-15.637 17.453-14.547 44.363 2.5469 61.273l154.91 154.91c16 16 46.184 16 62.184 0l40.547-40.547 75.273 75.273-12.547 12.547c-8.1836 8.1836-10.91 20-7.4531 30.91 3.4531 10.727 12.547 18.727 23.637 20.91l106.73 19.453c1.8164 0.18359 3.9961 0.18359 5.9961 0.18359zm-83.453-94.91-97.09-97.09c-3.0898-3.0898-6.9102-4.5469-10.91-4.5469s-8 1.4531-10.91 4.5469l-51.637 51.637c-4.5469 4.5469-13.816 4.5469-18.363 0l-155.09-155.09c-5.2734-5.2734-5.8164-13.453-1.0898-18.727 2.3633-2.5469 5.6367-4.1836 9.0898-4.3633 3.4531 0 7.2734 1.4531 9.6367 3.8164l135.64 135.64c6 6 15.816 6 21.816 0l51.637-51.637c2.5469-2.5469 5.6367-3.8164 9.2734-3.8164 4.3633 0 7.4531 2.1836 9.2734 4l117.27 117.09c6 6 15.816 6 21.816 0l23.09-24 19.273 106.36-106.18-18.727 23.453-23.453c2.9102-2.9102 4.5469-6.9102 4.5469-10.91 0.003906-4.0039-1.6328-7.8203-4.543-10.73z" fill="#60c"/>
 <path d="m930.36 676c-138.55 0-251.27 112.73-251.27 251.45 0 138.55 112.73 251.27 251.27 251.27 138.73-0.17969 251.45-112.91 251.45-251.45 0-138.55-112.73-251.27-251.45-251.27zm0 471.64c-121.45 0-220.36-98.91-220.36-220.36 0-121.45 98.91-220.36 220.36-220.36s220.36 98.91 220.36 220.36c0.18359 121.45-98.727 220.36-220.36 220.36z" fill="#60c"/>
 <path d="m930.55 746.73c-99.453 0-180.55 81.09-180.55 180.55 0 99.453 80.91 180.55 180.55 180.55s180.55-80.91 180.55-180.55c-0.003906-99.457-81.094-180.55-180.55-180.55zm0 330.18c-82.363 0-149.45-67.09-149.45-149.45 0-82.547 67.09-149.64 149.45-149.64 82.547 0 149.64 67.09 149.64 149.64-0.18359 82.359-67.273 149.45-149.64 149.45z" fill="#60c"/>
 <path d="m930.55 864.91c15.453 0 27.816 10.547 27.816 23.637 0 8.5469 6.9102 15.453 15.453 15.453 8.5469 0 15.453-6.9102 15.453-15.453 0-25.09-18.363-46.184-43.453-52.547v-7.4531c0-8.5469-6.9102-15.453-15.453-15.453-8.5469 0-15.453 6.9102-15.453 15.453v7.4531c-24.91 6.3633-43.453 27.453-43.453 52.547 0 30.184 26.363 54.727 58.91 54.727 15.453 0 27.816 10.547 27.816 23.637s-12.547 23.637-27.816 23.637c-15.273 0-27.816-10.547-27.816-23.637 0-8.5469-6.9102-15.453-15.453-15.453-8.5469 0-15.453 6.9102-15.453 15.453 0 25.09 18.363 46.184 43.453 52.547v6.3633c0 8.5469 6.9102 15.453 15.453 15.453 8.5469 0 15.453-6.9102 15.453-15.453v-6.3633c24.91-6.3633 43.453-27.273 43.453-52.547 0-30.184-26.363-54.727-58.91-54.727-15.453 0-27.816-10.547-27.816-23.637-0.003907-13.094 12.359-23.637 27.816-23.637z" fill="#60c"/>
 <path d="m288.91 983.27c-8.5469 0-15.453 6.9102-15.453 15.453 0 8.5469 6.9102 15.453 15.453 15.453h225.64c8.5469 0 15.453-6.9102 15.453-15.453 0-8.5469-6.9102-15.453-15.453-15.453z" fill="#60c"/>
 <path d="m631.64 918.91c0-8.5469-6.9102-15.453-15.453-15.453h-327.27c-8.5469 0-15.453 6.9102-15.453 15.453 0 8.5469 6.9102 15.453 15.453 15.453h327.27c8.543 0 15.453-6.9102 15.453-15.453z" fill="#60c"/>
 <path d="m616.18 823.64h-327.27c-8.5469 0-15.453 6.9102-15.453 15.453 0 8.5469 6.9102 15.453 15.453 15.453h327.27c8.5469 0 15.453-6.9102 15.453-15.453 0-8.543-6.9102-15.453-15.453-15.453z" fill="#60c"/>
 <path d="m682.55 1091.5h-397.64c-23.273 0-44.91-9.0898-61.453-25.453-16.363-16.363-25.453-38.363-25.273-61.637l0.72656-892.91c0-22-7.8164-42.727-22.184-59.273h732.91c39.09 0 70.91 34 70.91 75.816v499.64c0 8.5469 6.9102 15.453 15.453 15.453 8.5469 0 15.453-6.9102 15.453-15.453v-499.45c0-58.91-45.637-106.73-101.82-106.73l-800.91-0.003906h-0.18359c-49.816 0-90.359 40.547-90.359 90.363v172.55c0 28.727 23.453 52.184 52.184 52.184h97.453l-0.54687 667.82c-0.18359 31.453 12.184 61.09 34.363 83.453 22.184 22.363 51.816 34.547 83.273 34.547h397.64c8.5469 0 15.453-6.9102 15.453-15.453 0-8.3633-6.9102-15.457-15.453-15.457zm-612.18-786c-11.637 0-21.273-9.4531-21.273-21.09v-172.55c0-32.727 26.547-59.273 59.273-59.453h0.18359c16 0 30.91 6.1836 42 17.273 11.27 11.273 17.453 26.18 17.453 42l-0.18359 193.82z" fill="#60c"/>
</svg>
