<?xml version="1.0" encoding="UTF-8"?>
<svg width="100pt" height="100pt" version="1.1" viewBox="0 0 100 100" xmlns="http://www.w3.org/2000/svg">
 <path d="m42.125 11.953c-0.63281 0-1.1445-0.51172-1.1445-1.1445 0-0.63281 0.51172-1.1445 1.1445-1.1445h10.574c0.63281 0 1.1445 0.51172 1.1445 1.1445 0 0.63281-0.51172 1.1445-1.1445 1.1445zm-18.637 4.6953h53.023v-4.8125c0-1.7656-0.72266-3.3711-1.8867-4.5352-1.1641-1.1641-2.7695-1.8867-4.5352-1.8867l-40.18-0.003906c-1.7656 0-3.3711 0.72266-4.5352 1.8867s-1.8867 2.7695-1.8867 4.5352zm53.023 2.2852h-53.023v60.375h53.023zm-26.512 65.176c1.1016 0 2.0977 0.44531 2.8164 1.168 0.72266 0.72266 1.168 1.7148 1.168 2.8164s-0.44531 2.0977-1.168 2.8164c-0.72266 0.72266-1.7148 1.168-2.8164 1.168s-2.0977-0.44531-2.8164-1.168c-0.72266-0.72266-1.168-1.7148-1.168-2.8164s0.44531-2.0977 1.168-2.8164c0.71875-0.72266 1.7148-1.168 2.8164-1.168zm1.1992 2.7852c-0.30859-0.30859-0.73047-0.49609-1.1992-0.49609s-0.89453 0.19141-1.1992 0.49609c-0.30469 0.30859-0.49609 0.73047-0.49609 1.1992s0.19141 0.89453 0.49609 1.1992c0.30859 0.30859 0.73047 0.49609 1.1992 0.49609s0.89453-0.19141 1.1992-0.49609c0.30859-0.30859 0.49609-0.73047 0.49609-1.1992s-0.1875-0.89453-0.49609-1.1992zm27.598-6.4453v-68.617c0-2.3945-0.98047-4.5742-2.5586-6.1523-1.5742-1.5742-3.7539-2.5547-6.1484-2.5547h-40.18c-2.3945 0-4.5742 0.98047-6.1523 2.5586-1.5781 1.5781-2.5586 3.7539-2.5586 6.1523v76.332c0 2.3945 0.98047 4.5742 2.5586 6.1523 1.5781 1.5742 3.7578 2.5547 6.1523 2.5547 0.63281 0 1.1445-0.51172 1.1445-1.1445 0-0.63281-0.51172-1.1445-1.1445-1.1445-1.7656 0-3.3711-0.72266-4.5352-1.8867-1.1641-1.1641-1.8867-2.7695-1.8867-4.5352v-6.5703l53.023 0.003906v6.5703c0 1.7656-0.72266 3.3711-1.8867 4.5352s-2.7695 1.8867-4.5352 1.8867l-36.641-0.003906c-0.63281 0-1.1445 0.51172-1.1445 1.1445 0 0.63281 0.51172 1.1445 1.1445 1.1445h36.637c2.3945 0 4.5742-0.98047 6.1523-2.5586s2.5586-3.7539 2.5586-6.1523zm-22.812-68.496c-0.63281 0-1.1445-0.51172-1.1445-1.1445 0-0.63281 0.51172-1.1445 1.1445-1.1445h1.8906c0.63281 0 1.1445 0.51172 1.1445 1.1445 0 0.63281-0.51172 1.1445-1.1445 1.1445z" fill="#7031ff" fill-rule="evenodd"/>
</svg>
