<?xml version="1.0" encoding="UTF-8"?>
<svg width="1200pt" height="1200pt" version="1.1" viewBox="0 0 1200 1200" xmlns="http://www.w3.org/2000/svg">
 <path d="m220.74 490.78v78.281c6.9375 0.09375 13.781-0.84375 20.344-2.7656 10.875-3.1875 21-9.0938 29.344-17.438l0.84375-0.79688c7.875-8.1562 13.547-18 16.594-28.547 2.8594-9.7031 3.5625-20.109 1.875-30.422h-67.266c-0.51562 0-0.9375 0.1875-1.1719 0.46875l-0.046875 0.046875c-0.375 0.23438-0.51562 0.65625-0.51562 1.1719zm878.29 358.64c-6.9375-0.09375-13.781 0.84375-20.344 2.7656-10.875 3.1875-21 9.0938-29.344 17.438s-14.25 18.469-17.438 29.344c-1.9219 6.5156-2.8594 13.406-2.7656 20.344h68.156c0.46875 0 0.89062-0.23438 1.2188-0.51562l0.28125-0.28125c0.14062-0.28125 0.23438-0.5625 0.23438-0.9375zm-104.86 69.844h-668.63c0.09375-10.219-1.3594-20.391-4.2188-30.188-4.6875-15.984-13.266-30.891-25.219-43.172l-0.98438-1.0312c-12.469-12.469-27.75-21.375-44.25-26.203-9.75-2.8594-19.922-4.3125-30.188-4.2188l0.046875-210.47c10.219 0.09375 20.391-1.3594 30.188-4.2188 16.5-4.8281 31.781-13.734 44.25-26.203l0.98438-1.0781c11.953-12.281 20.531-27.188 25.219-43.219 3.7969-12.938 5.1094-26.625 3.6562-40.266h669.79c-1.4531 13.641-0.14062 27.281 3.6562 40.266 4.8281 16.5 13.734 31.781 26.203 44.25s27.75 21.328 44.25 26.203c9.75 2.8594 19.922 4.3125 30.188 4.2188v210.47c-10.266-0.09375-20.391 1.3594-30.188 4.2188-16.5 4.8281-31.781 13.734-44.25 26.203s-21.375 27.75-26.203 44.25c-2.9531 9.7969-4.4062 19.969-4.3125 30.188zm-703.6 0c0.09375-6.9375-0.84375-13.781-2.7656-20.344-3.0938-10.594-8.7188-20.391-16.594-28.547l-0.84375-0.79688c-8.3438-8.3438-18.469-14.25-29.344-17.438-6.5156-1.9219-13.406-2.8594-20.344-2.7656v68.156c0 0.51562 0.1875 0.9375 0.46875 1.2188l0.046875 0.046875c0.28125 0.28125 0.70312 0.46875 1.1719 0.46875zm739.45-430.22c-1.6406 10.312-0.98438 20.719 1.875 30.422 3.1875 10.875 9.0938 21 17.438 29.344s18.469 14.25 29.344 17.438c6.5156 1.9219 13.406 2.8594 20.344 2.7656v-78.281c0-0.51562-0.1875-0.89062-0.46875-1.2188h-0.046875c-0.32812-0.32812-0.75-0.51562-1.2188-0.51562l-67.266 0.09375zm-370.18 36.328c-49.359 0-94.078 20.016-126.42 52.359s-52.359 77.062-52.359 126.42 20.016 94.078 52.359 126.42 77.062 52.359 126.42 52.359c49.355 0 94.078-20.016 126.42-52.359s52.359-77.062 52.359-126.42-20.016-94.078-52.359-126.42-77.062-52.359-126.42-52.359zm101.67 77.109c-26.016-26.016-61.969-42.094-101.67-42.094-39.703 0-75.656 16.078-101.67 42.094-26.016 26.016-42.094 61.969-42.094 101.67s16.078 75.656 42.094 101.67c26.016 26.016 61.969 42.094 101.67 42.094 39.703 0 75.656-16.078 101.67-42.094 26.016-26.016 42.094-61.969 42.094-101.67 0.046874-39.703-16.078-75.609-42.094-101.67zm-119.16-9.5156v13.078c-4.9688 1.3594-9.7031 3.375-14.016 5.9062-8.5781 5.0156-15.656 12.094-20.578 20.344-5.0156 8.4375-7.875 18.141-7.8281 28.219 0.046876 8.9531 2.3438 18.094 7.4062 26.719 9.2344 15.703 27.141 24.234 45.047 32.672 13.078 6.1875 26.156 12.375 29.906 18.703 1.7812 3.0469 2.625 6.2344 2.625 9.2344 0 3.5156-1.0312 7.0312-2.9062 10.172-1.9688 3.3281-4.8281 6.1875-8.25 8.1562-3.2812 1.9219-7.125 3.0938-11.25 3.1406h-0.46875c-0.70313-0.09375-1.4062-0.14062-2.1562-0.14062h-0.51563c-7.875-0.51562-13.5-2.625-17.016-6.1875l-0.09375-0.09375c-4.125-4.2188-6.3281-11.391-6.7969-21.516-0.375-9.6094-8.4844-17.109-18.094-16.734-9.6094 0.375-17.109 8.4844-16.734 18.094 0.79687 19.031 6.2812 33.891 16.734 44.578 6.6562 6.7969 14.953 11.531 24.984 14.203v13.641c0 9.6562 7.8281 17.484 17.484 17.484s17.484-7.8281 17.484-17.484v-13.078c4.9688-1.3594 9.7031-3.375 14.016-5.9062 8.5312-5.0156 15.656-12.094 20.578-20.344 5.0156-8.4375 7.875-18.141 7.8281-28.219-0.046874-8.9531-2.3438-18.094-7.4062-26.719-9.2344-15.703-27.141-24.234-45.047-32.672-13.078-6.1875-26.156-12.375-29.906-18.703-1.7812-3.0469-2.625-6.2344-2.625-9.2344 0-3.5156 1.0312-7.0312 2.9062-10.172 1.9688-3.3281 4.8281-6.1875 8.25-8.2031 3.2812-1.9219 7.125-3.0938 11.25-3.1406h0.46875c0.70312 0.09375 1.4531 0.14062 2.1562 0.14062h0.51562c7.875 0.5625 13.547 2.625 17.062 6.2344 4.125 4.2656 6.3281 11.484 6.7969 21.516 0.375 9.6562 8.4844 17.109 18.094 16.734 9.6094-0.375 17.109-8.4844 16.734-18.094-0.79687-19.031-6.2812-33.891-16.688-44.531l-0.046874-0.09375c-6.6562-6.7969-14.953-11.531-24.984-14.203v-13.641c0-9.6562-7.8281-17.484-17.484-17.484-9.6094 0.14062-17.438 7.9688-17.438 17.625zm353.63-138.94-17.297-64.5c-9.8906 2.7188-20.016 3.9844-30.188 3.75-17.156-0.42188-34.219-5.0156-49.547-13.875-15.375-8.8594-27.938-21.328-36.844-35.906-7.0312-11.484-11.766-24.375-13.922-37.969l-554.34 148.5zm-809.39 28.734-84.422 22.641c-0.46875 0.14062-0.84375 0.42188-1.0312 0.75v0.09375c-0.23438 0.375-0.28125 0.84375-0.14062 1.3125l84.703 316.18v-332.95c0-2.7656 0.32812-5.4375 0.89062-8.0156zm37.547 471.52c-0.51562 0.1875-1.0312 0.32812-1.5469 0.46875-9.75 2.625-19.688 0.98438-27.844-3.7031v-0.046875c-8.1562-4.7344-14.531-12.516-17.109-22.219l-110.44-412.22c-2.5781-9.75-0.98438-19.688 3.7031-27.844l0.046875 0.046874c4.7344-8.1562 12.516-14.484 22.219-17.109l844.13-226.18c0.70312-0.23438 1.4531-0.42188 2.25-0.5625 9.2812-2.1562 18.703-0.46875 26.484 4.0312s13.969 11.812 16.781 20.906c0.28125 0.75 0.46875 1.5 0.65625 2.2969l48.75 181.97h65.109c10.125 0 19.312 4.125 25.969 10.781l-0.046875 0.046875c6.6562 6.7031 10.781 15.844 10.781 25.922v426.79c0 9.4219-3.6094 18.047-9.5156 24.609l-1.2188 1.3594c-6.6562 6.6094-15.844 10.781-25.969 10.781zm745.5-598.45c-6.7031 1.875-13.594 2.7656-20.438 2.5781-11.344-0.28125-22.688-3.375-32.859-9.2344-10.125-5.8594-18.422-14.109-24.375-23.859-5.2969-8.7188-8.6719-18.562-9.7031-28.922l65.016-17.438c0.51562-0.14062 0.98438-0.046875 1.3594 0.14062 0.32812 0.1875 0.60938 0.51562 0.75 0.98438z" fill="#60c" fill-rule="evenodd"/>
</svg>
