<?xml version="1.0" encoding="UTF-8"?>
<svg width="100pt" height="100pt" version="1.1" viewBox="0 0 100 100" xmlns="http://www.w3.org/2000/svg">
 <path d="m70.648 16.805h-1.3047v-4.375c0-0.80078-0.64844-1.4492-1.4492-1.4492h-5.168c-0.80078 0-1.4492 0.64844-1.4492 1.4492v4.375h-1.3047c-0.55078 0-1.0508 0.30859-1.2969 0.80078-0.24609 0.49219-0.19141 1.0781 0.13672 1.5195l5.3398 7.1172c0.27344 0.36719 0.70312 0.58203 1.1602 0.58203s0.88672-0.21484 1.1602-0.58203l5.3398-7.1172c0.33203-0.44141 0.38281-1.0273 0.13672-1.5195-0.24609-0.49219-0.74609-0.80078-1.2969-0.80078zm-5.3398 6.1484-2.4414-3.2539c0.73437-0.070313 1.3086-0.69141 1.3086-1.4453v-4.375h2.2695v4.375c0 0.75391 0.57422 1.3711 1.3086 1.4453l-2.4414 3.2539zm-58.727 49.156h5.75c0.80078 0 1.4492-0.64844 1.4492-1.4492l0.003906-47.512h7.6406v6.1641c0 0.80078 0.64844 1.4492 1.4492 1.4492h23.625c0.80078 0 1.4492-0.64844 1.4492-1.4492v-6.1641h4.0938v6.1641c0 0.80078 0.64844 1.4492 1.4492 1.4492h23.625c0.80078 0 1.4492-0.64844 1.4492-1.4492v-6.1641h7.6406v47.508c0 0.80078 0.64844 1.4492 1.4492 1.4492h5.75c0.80078 0 1.4492-0.64844 1.4492-1.4492l0.011719-62.168c0-0.80078-0.64844-1.4492-1.4492-1.4492h-5.75c-0.80078 0-1.4492 0.64844-1.4492 1.4492v6.1641h-7.6406v-6.1641c0-0.80078-0.64844-1.4492-1.4492-1.4492h-23.625c-0.80078 0-1.4492 0.64844-1.4492 1.4492v6.1641h-4.0938v-6.1641c0-0.80078-0.64844-1.4492-1.4492-1.4492h-23.625c-0.80078 0-1.4492 0.64844-1.4492 1.4492v6.1641h-7.6406v-6.1641c0-0.80078-0.64844-1.4492-1.4492-1.4492h-5.75c-0.80078 0-1.4492 0.64844-1.4492 1.4492v62.172c0 0.80078 0.64844 1.4492 1.4492 1.4492zm82.535-62.172h2.8516v59.27h-2.8516zm-10.543 7.6172h7.6406v2.6953h-7.6406zm-23.625-7.6172h20.723v17.926h-20.723zm-6.9961 7.6172h4.0938v2.6953h-4.0938zm-23.625-7.6172h20.723v17.926h-20.723zm-10.543 7.6172h7.6406v2.6953h-7.6406zm-5.75-7.6172h2.8516v59.27h-2.8516zm31.992 6.8672h-1.3047v-4.375c0-0.80078-0.64844-1.4492-1.4492-1.4492h-5.168c-0.80078 0-1.4492 0.64844-1.4492 1.4492v4.375h-1.3047c-0.55078 0-1.0508 0.30859-1.2969 0.80078-0.24609 0.49219-0.19141 1.0781 0.13672 1.5195l5.3398 7.1172c0.27344 0.36719 0.70312 0.58203 1.1602 0.58203 0.45703 0 0.88672-0.21484 1.1602-0.58203l5.3398-7.1172c0.33203-0.44141 0.38281-1.0273 0.13672-1.5195-0.24609-0.49219-0.74609-0.80078-1.2969-0.80078zm-5.3359 6.1484-2.4414-3.2539c0.73438-0.070313 1.3086-0.69141 1.3086-1.4453v-4.375h2.2695v4.375c0 0.75391 0.57422 1.3711 1.3086 1.4453l-2.4414 3.2539zm16.758 37.258v3.6289c0 0.80078-0.64844 1.4492-1.4492 1.4492s-1.4492-0.64844-1.4492-1.4492v-3.6289c0-0.80078 0.64844-1.4492 1.4492-1.4492s1.4492 0.64844 1.4492 1.4492zm43.355 30.629-25.031-47.77c-0.25-0.47656-0.74609-0.77734-1.2852-0.77734h-37.297c-0.54297 0-1.0391 0.30078-1.2891 0.78516l-24.711 47.77c-0.23047 0.44922-0.21484 0.98828 0.050782 1.4219 0.26172 0.43359 0.73437 0.69531 1.2383 0.69531h87.039c0.50781 0 0.97656-0.26562 1.2422-0.69922 0.26172-0.43359 0.27734-0.97656 0.042969-1.4258zm-85.941-0.77734 23.207-44.871h1.7344l-17.938 44.871zm10.129 0 17.938-44.871h25.898l18.168 44.871zm65.137 0-18.168-44.871h1.6523l23.512 44.871zm-32.68-40.73v3.6289c0 0.80078-0.64844 1.4492-1.4492 1.4492s-1.4492-0.64844-1.4492-1.4492v-3.6289c0-0.80078 0.64844-1.4492 1.4492-1.4492s1.4492 0.64844 1.4492 1.4492zm0 32.641v3.6289c0 0.80078-0.64844 1.4492-1.4492 1.4492s-1.4492-0.64844-1.4492-1.4492v-3.6289c0-0.80078 0.64844-1.4492 1.4492-1.4492s1.4492 0.64844 1.4492 1.4492zm0-10.883v3.6289c0 0.80078-0.64844 1.4492-1.4492 1.4492s-1.4492-0.64844-1.4492-1.4492v-3.6289c0-0.80078 0.64844-1.4492 1.4492-1.4492s1.4492 0.64844 1.4492 1.4492z" fill="#7031ff"/>
</svg>
