<?xml version="1.0" encoding="UTF-8"?>
<svg width="1200pt" height="1200pt" version="1.1" viewBox="0 0 1200 1200" xmlns="http://www.w3.org/2000/svg">
 <path d="m1e3 500v450c0 13.262-5.2695 25.98-14.645 35.355s-22.094 14.645-35.355 14.645h-700c-13.262 0-25.98-5.2695-35.355-14.645s-14.645-22.094-14.645-35.355v-700c0-13.262 5.2695-25.98 14.645-35.355s22.094-14.645 35.355-14.645h450c17.863 0 34.371-9.5312 43.301-25 8.9336-15.469 8.9336-34.531 0-50-8.9297-15.469-25.438-25-43.301-25h-450c-39.781 0-77.938 15.805-106.07 43.934s-43.934 66.285-43.934 106.07v700c0 39.781 15.805 77.938 43.934 106.07s66.285 43.934 106.07 43.934h700c39.781 0 77.938-15.805 106.07-43.934s43.934-66.285 43.934-106.07v-450c0-17.863-9.5312-34.371-25-43.301-15.469-8.9336-34.531-8.9336-50 0-15.469 8.9297-25 25.438-25 43.301z" fill="#e7e7e7"/>
 <path d="m1050 100h-150c-17.863 0-34.371 9.5312-43.301 25-8.9336 15.469-8.9336 34.531 0 50 8.9297 15.469 25.438 25 43.301 25h29.5l-365 364.5c-12.684 12.684-17.637 31.168-12.992 48.492 4.6406 17.328 18.172 30.859 35.5 35.5 17.324 4.6445 35.809-0.30859 48.492-12.992l364.5-365v29.5c0 17.863 9.5312 34.371 25 43.301 15.469 8.9336 34.531 8.9336 50 0 15.469-8.9297 25-25.438 25-43.301v-150c0-13.262-5.2695-25.98-14.645-35.355s-22.094-14.645-35.355-14.645z" fill="#e7e7e7"/>
</svg>
