<?xml version="1.0" encoding="UTF-8"?>
<svg width="" height="" version="1.1" viewBox="0 0 1200 1200" xmlns="http://www.w3.org/2000/svg">
 <path d="m553.18 699.1c-5.0625 7.0312-8.5781 15.281-10.031 24.188h34.266z" fill="#7031ff"/>
 <path d="m528.19 817.69c17.156 14.531 38.766 23.906 62.438 25.875v-35.109c-14.062-1.7344-26.953-7.3125-37.594-15.609z" fill="#7031ff"/>
 <path d="m553.18 766.22 24.188-24.188h-34.219c1.4531 8.9531 4.9219 17.156 10.031 24.188z" fill="#7031ff"/>
 <path d="m709.74 609.66c-27-24.141-61.922-39.422-100.36-41.625v34.969c28.828 2.0625 55.031 13.5 75.656 31.359z" fill="#7031ff"/>
 <path d="m490.26 855.66c27 24.141 61.922 39.469 100.36 41.625v-34.922c-28.828-2.0625-55.078-13.5-75.656-31.406z" fill="#7031ff"/>
 <path d="m590.63 710.02v-34.266c-8.9062 1.4531-17.156 4.9688-24.234 10.031z" fill="#7031ff"/>
 <path d="m553.03 672.47c10.641-8.3438 23.531-13.875 37.594-15.609v-35.109c-23.672 1.9688-45.234 11.391-62.391 25.875z" fill="#7031ff"/>
 <path d="m514.97 634.36c20.625-17.859 46.828-29.297 75.656-31.359v-34.969c-38.438 2.1562-73.359 17.484-100.36 41.625z" fill="#7031ff"/>
 <path d="m516.52 421.87c28.125 0 51-22.875 51-51s-22.875-51-51-51-51 22.875-51 51 22.875 51 51 51z" fill="#7031ff"/>
 <path d="m394.69 1001c0 9.6094 7.8281 17.484 17.438 17.484h375.74c9.6094 0 17.438-7.8281 17.438-17.484v-30.891l-410.63 0.046875z" fill="#7031ff"/>
 <path d="m699.28 502.69c28.125 0 51-22.875 51-51s-22.875-51-51-51-51 22.875-51 51c-0.046875 28.125 22.875 51 51 51z" fill="#7031ff"/>
 <path d="m470.34 742.03h-34.969c2.1562 38.438 17.484 73.359 41.625 100.36l24.703-24.703c-17.859-20.625-29.297-46.828-31.359-75.656z" fill="#7031ff"/>
 <path d="m419.26 181.5h361.74v45.281h-361.74z" fill="#7031ff"/>
 <path d="m489.1 742.03c1.9688 23.672 11.344 45.234 25.875 62.391l24.797-24.844c-8.2969-10.641-13.875-23.531-15.609-37.594z" fill="#7031ff"/>
 <path d="m514.97 660.89c-14.531 17.156-23.906 38.719-25.875 62.391h35.062c1.7344-14.062 7.2656-26.953 15.609-37.594z" fill="#7031ff"/>
 <path d="m501.71 647.63-24.703-24.703c-24.141 27-39.422 61.922-41.625 100.36h34.969c2.0625-28.828 13.5-55.031 31.359-75.656z" fill="#7031ff"/>
 <path d="m590.63 789.56v-34.266l-24.234 24.234c7.0781 5.0625 15.328 8.5312 24.234 10.031z" fill="#7031ff"/>
 <path d="m698.29 817.74 24.656 24.656c24.141-27 39.469-61.922 41.625-100.36h-34.922c-2.0625 28.828-13.5 55.078-31.359 75.703z" fill="#7031ff"/>
 <path d="m698.29 647.63c17.859 20.625 29.344 46.828 31.406 75.656h34.922c-2.1562-38.438-17.484-73.359-41.625-100.36z" fill="#7031ff"/>
 <path d="m646.97 792.89c-10.641 8.3438-23.531 13.875-37.594 15.609v35.109c23.672-1.9688 45.281-11.391 62.438-25.875z" fill="#7031ff"/>
 <path d="m609.37 862.36v34.922c38.438-2.1562 73.359-17.484 100.36-41.625l-24.656-24.656c-20.625 17.812-46.875 29.297-75.703 31.359z" fill="#7031ff"/>
 <path d="m685.03 660.84-24.844 24.844c8.3438 10.641 13.875 23.531 15.609 37.594h35.109c-1.9688-23.672-11.344-45.281-25.875-62.438z" fill="#7031ff"/>
 <path d="m828.14 245.53h-456.28c-2.2031 0-4.0312 1.8281-4.0312 4.0312v697.78c0 2.25 1.8281 4.0312 4.0312 4.0312h456.24c2.25 0 4.0312-1.8281 4.0312-4.0312l0.046875-697.78c0-2.2031-1.8281-4.0312-4.0312-4.0312zm-128.86 136.36c38.484 0 69.75 31.312 69.75 69.75 0 38.484-31.312 69.75-69.75 69.75-38.484 0-69.75-31.312-69.75-69.75-0.046874-38.438 31.266-69.75 69.75-69.75zm-182.76-80.766c38.484 0 69.75 31.312 69.75 69.75 0 38.484-31.312 69.75-69.75 69.75-38.484 0-69.75-31.312-69.75-69.75s31.266-69.75 69.75-69.75zm213.79 561.05c-0.14062 0.14062-0.1875 0.32812-0.32812 0.46875-0.14063 0.14062-0.32813 0.1875-0.46875 0.32812-33.234 33.047-79.031 53.531-129.52 53.531-50.484 0-96.281-20.484-129.52-53.531-0.14063-0.14062-0.32813-0.1875-0.46875-0.32812-0.14063-0.14062-0.1875-0.32812-0.32813-0.46875-33.047-33.234-53.531-79.031-53.531-129.52s20.484-96.281 53.578-129.56c0.14062-0.14062 0.14062-0.28125 0.28125-0.42188 0.14062-0.14062 0.28125-0.1875 0.42187-0.28125 33.234-33.094 79.078-53.578 129.56-53.578 50.531 0 96.328 20.484 129.56 53.578 0.14063 0.09375 0.28125 0.14062 0.375 0.28125 0.09375 0.09375 0.14063 0.28125 0.23438 0.375 33.094 33.234 53.625 79.078 53.625 129.61 0.046874 50.484-20.438 96.281-53.484 129.52z" fill="#7031ff"/>
 <path d="m609.37 755.29v34.266c8.9062-1.4531 17.156-4.9688 24.188-10.031z" fill="#7031ff"/>
 <path d="m646.82 699.05-24.234 24.234h34.266c-1.4531-8.9062-4.9688-17.156-10.031-24.234z" fill="#7031ff"/>
 <path d="m660.24 779.63 24.844 24.844c14.531-17.156 23.906-38.766 25.875-62.438h-35.109c-1.7344 14.062-7.3125 26.953-15.609 37.594z" fill="#7031ff"/>
 <path d="m671.76 647.63c-17.156-14.484-38.719-23.859-62.391-25.875v35.062c14.062 1.7344 26.953 7.3125 37.594 15.609z" fill="#7031ff"/>
 <path d="m656.86 742.03h-34.266l24.188 24.234c5.1094-7.0781 8.625-15.281 10.078-24.234z" fill="#7031ff"/>
 <path d="m609.37 675.79v34.219l24.188-24.188c-7.0312-5.1094-15.281-8.5781-24.188-10.031z" fill="#7031ff"/>
 <path d="m257.72 323.48c-1.9219-1.9219-4.5-2.9062-7.3125-2.7188-2.7188 0.1875-5.2031 1.5469-6.8438 3.7031l-33 44.016-46.125-57.656c-3.2344-4.0312-9.1406-4.6875-13.172-1.4531s-4.6875 9.1406-1.4531 13.172l53.672 67.078c1.8281 2.25 4.7344 3.5625 7.4531 3.5156 2.9062-0.046875 5.625-1.4531 7.3594-3.75l33.797-45.047 59.438 59.438c1.8281 1.8281 4.2188 2.7656 6.6094 2.7656s4.7812-0.9375 6.6094-2.7656c3.6562-3.6562 3.6562-9.6094 0-13.266z" fill="#7031ff"/>
 <path d="m257.72 551.58c-1.9219-1.9219-4.5-2.9062-7.3125-2.7188-2.7188 0.1875-5.2031 1.5469-6.8438 3.75l-33 44.016-46.125-57.656c-3.2344-4.0312-9.1406-4.6875-13.172-1.4531s-4.6875 9.1406-1.4531 13.172l53.672 67.125c1.8281 2.25 4.7344 3.375 7.4531 3.5156 2.9062-0.046875 5.625-1.4062 7.3594-3.75l33.797-45.047 59.438 59.484c1.8281 1.8281 4.2188 2.7656 6.6094 2.7656s4.7812-0.9375 6.6094-2.7656c3.6562-3.6562 3.6562-9.6094 0-13.266z" fill="#7031ff"/>
 <path d="m311.58 766.26-59.438 59.438-33.797-45c-1.7344-2.3438-4.4531-3.7031-7.3594-3.75-2.7188-0.14062-5.6719 1.2656-7.4531 3.5156l-53.672 67.125c-3.2344 4.0312-2.5781 9.9375 1.4531 13.172 1.7344 1.3594 3.7969 2.0625 5.8594 2.0625 2.7656 0 5.4844-1.2188 7.3125-3.5156l46.125-57.656 33 43.969c1.6406 2.1562 4.125 3.5156 6.8438 3.7031 2.8125 0.23438 5.3906-0.79688 7.3125-2.7188l67.078-67.078c3.6562-3.6562 3.6562-9.6094 0-13.266-3.7031-3.6562-9.6094-3.6562-13.266 0z" fill="#7031ff"/>
 <path d="m881.81 406.55c2.3906 0 4.7812-0.9375 6.6094-2.7656l59.438-59.438 33.797 45.047c1.7344 2.3438 4.4531 3.7031 7.3594 3.75 2.6719 0.046875 5.6719-1.2656 7.4531-3.5156l53.672-67.078c3.2344-4.0312 2.5781-9.9375-1.4531-13.172-4.0781-3.2344-9.9375-2.5781-13.172 1.4531l-46.125 57.656-33-44.016c-1.6406-2.1562-4.125-3.5156-6.8438-3.7031s-5.3438 0.79688-7.2656 2.7188l-67.078 67.078c-3.6562 3.6562-3.6562 9.6094 0 13.266 1.7812 1.8281 4.2188 2.7188 6.6094 2.7188z" fill="#7031ff"/>
 <path d="m1035.5 538.92-46.125 57.656-33-44.016c-1.6406-2.1562-4.125-3.5156-6.8438-3.7031-2.8125-0.1875-5.3906 0.79688-7.3125 2.7188l-67.078 67.125c-3.6562 3.6562-3.6562 9.6094 0 13.266 1.8281 1.8281 4.2188 2.7656 6.6094 2.7656s4.7812-0.9375 6.6094-2.7656l59.438-59.484 33.797 45.047c1.7344 2.3438 4.4531 3.7031 7.3594 3.75 2.6719-0.09375 5.6719-1.2656 7.4531-3.5156l53.672-67.125c3.2344-4.0312 2.5781-9.9375-1.4531-13.172-3.9844-3.2344-9.8906-2.5781-13.125 1.4531z" fill="#7031ff"/>
 <path d="m996.47 780.47c-1.8281-2.25-4.8281-3.6562-7.4531-3.5156-2.9062 0.046875-5.625 1.4062-7.3594 3.75l-33.797 45.047-59.438-59.438c-3.6562-3.6562-9.6094-3.6562-13.266 0s-3.6562 9.6094 0 13.266l67.078 67.078c1.9219 1.9219 4.5469 2.9531 7.2656 2.7188 2.7188-0.1875 5.2031-1.5469 6.8438-3.7031l33-43.969 46.125 57.656c1.875 2.2969 4.5938 3.5156 7.3125 3.5156 2.0625 0 4.125-0.65625 5.8594-2.0625 4.0312-3.2344 4.6875-9.1406 1.4531-13.172z" fill="#7031ff"/>
</svg>
