<?xml version="1.0" encoding="UTF-8"?>
<svg width="1200pt" height="1200pt" version="1.1" viewBox="0 0 1200 1200" xmlns="http://www.w3.org/2000/svg">
 <path d="m985 100h-220c-30.5 0-59.75 12.117-81.316 33.684s-33.684 50.816-33.684 81.316v220c0 30.5 12.117 59.75 33.684 81.316s50.816 33.684 81.316 33.684h220c30.5 0 59.75-12.117 81.316-33.684s33.684-50.816 33.684-81.316v-220c0-30.5-12.117-59.75-33.684-81.316s-50.816-33.684-81.316-33.684zm15 335c0.14062 4.0195-1.3945 7.918-4.2383 10.762s-6.7422 4.3789-10.762 4.2383h-220c-4.0195 0.14062-7.918-1.3945-10.762-4.2383s-4.3789-6.7422-4.2383-10.762v-220c-0.14062-4.0195 1.3945-7.918 4.2383-10.762s6.7422-4.3789 10.762-4.2383h220c4.0195-0.14062 7.918 1.3945 10.762 4.2383s4.3789 6.7422 4.2383 10.762z" fill="#e7e7e7"/>
 <path d="m435 650h-220c-30.5 0-59.75 12.117-81.316 33.684s-33.684 50.816-33.684 81.316v220c0 30.5 12.117 59.75 33.684 81.316s50.816 33.684 81.316 33.684h220c30.5 0 59.75-12.117 81.316-33.684s33.684-50.816 33.684-81.316v-220c0-30.5-12.117-59.75-33.684-81.316s-50.816-33.684-81.316-33.684zm15 335c0.14062 4.0195-1.3945 7.918-4.2383 10.762s-6.7422 4.3789-10.762 4.2383h-220c-4.0195 0.14062-7.918-1.3945-10.762-4.2383s-4.3789-6.7422-4.2383-10.762v-220c-0.14062-4.0195 1.3945-7.918 4.2383-10.762s6.7422-4.3789 10.762-4.2383h220c4.0195-0.14062 7.918 1.3945 10.762 4.2383s4.3789 6.7422 4.2383 10.762z" fill="#e7e7e7"/>
 <path d="m435 100h-220c-30.5 0-59.75 12.117-81.316 33.684s-33.684 50.816-33.684 81.316v220c0 30.5 12.117 59.75 33.684 81.316s50.816 33.684 81.316 33.684h220c30.5 0 59.75-12.117 81.316-33.684s33.684-50.816 33.684-81.316v-220c0-30.5-12.117-59.75-33.684-81.316s-50.816-33.684-81.316-33.684zm15 335c0.14062 4.0195-1.3945 7.918-4.2383 10.762s-6.7422 4.3789-10.762 4.2383h-220c-4.0195 0.14062-7.918-1.3945-10.762-4.2383s-4.3789-6.7422-4.2383-10.762v-220c-0.14062-4.0195 1.3945-7.918 4.2383-10.762s6.7422-4.3789 10.762-4.2383h220c4.0195-0.14062 7.918 1.3945 10.762 4.2383s4.3789 6.7422 4.2383 10.762z" fill="#e7e7e7"/>
 <path d="m875 650c-59.672 0-116.9 23.707-159.1 65.902-42.195 42.195-65.902 99.426-65.902 159.1s23.707 116.9 65.902 159.1c42.195 42.195 99.426 65.902 159.1 65.902s116.9-23.707 159.1-65.902c42.195-42.195 65.902-99.426 65.902-159.1-0.13281-59.633-23.879-116.79-66.047-158.95s-99.32-65.914-158.95-66.047zm0 350c-33.152 0-64.945-13.168-88.387-36.613-23.445-23.441-36.613-55.234-36.613-88.387s13.168-64.945 36.613-88.387c23.441-23.445 55.234-36.613 88.387-36.613s64.945 13.168 88.387 36.613c23.445 23.441 36.613 55.234 36.613 88.387s-13.168 64.945-36.613 88.387c-23.441 23.445-55.234 36.613-88.387 36.613z" fill="#e7e7e7"/>
</svg>
