<?xml version="1.0" encoding="UTF-8"?>
<svg width="1200pt" height="1200pt" version="1.1" viewBox="0 0 1200 1200" xmlns="http://www.w3.org/2000/svg">
 <path d="m340.08 649.31c-25.312 0-45.938 20.578-45.938 45.891 0 25.219 20.578 45.656 45.938 45.656 25.312 0 45.938-20.484 45.938-45.656 0-25.266-20.578-45.891-45.938-45.891zm0 56.859c-6.1406 0-11.203-4.875-11.203-10.922 0-6.2812 4.9219-11.203 11.203-11.203s11.203 4.9219 11.203 11.203c0 6.0469-5.0156 10.922-11.203 10.922zm60.234-409.03 11.812 71.812h-72.047l14.953 34.688h62.766l8.25 48.891 34.219-5.3906-7.2188-43.5h110.39l1.7812 26.766 34.5-5.6719-1.5469-21.094h70.266l4.875-34.688h-77.719l-5.3906-71.812h93.141l3.3281-24.188c0.51562-3.8906 1.2656-7.2188 2.5781-10.594l-395.21 0.046875 14.906 34.734zm155.16 0 5.3906 71.812h-113.48l-11.812-71.812zm582.19 562.6-122.95-212.48c-12.141-21.188-34.734-34.359-59.016-34.359-7.8281 0-15.562 1.3125-23.109 4.0312l-56.578 20.156v-431.02c0-80.531-65.625-146.02-146.29-146.02h-523.69c-80.484 0-146.02 65.531-146.02 146.02v523.69c0 80.625 65.531 146.26 146.02 146.26h478.03c-12.75 8.625-21.891 21.375-25.922 36.469-4.4531 16.594-2.2031 33.891 6.2812 48.703l41.297 72.047c11.672 19.688 27.609 33.656 48.797 42.844l136.92 58.172c8.8594 3.75 18 5.6719 27.094 5.6719 11.672 0 22.969-3.0938 33.656-9.1875l152.26-87.797c21.141-12.469 33.422-33.703 33.75-58.172l1.7812-116.06c0.09375-3.1406-0.70312-6.2344-2.2969-8.9531zm-1042.9-129.98v-523.69c0-61.359 49.922-111.28 111.28-111.28h523.64c61.5 0 111.56 49.922 111.56 111.28v443.29l-82.922 29.531-73.781-127.64c-11.391-19.875-32.812-32.203-55.828-32.203-11.203 0-22.266 2.9531-31.969 8.5312-14.859 8.5312-25.5 22.453-29.953 39.141-3.1875 11.859-2.8594 24.094 0.60938 35.531h-242.21c-3.6562 0-6.2344-1.6406-7.9688-5.0156-1.5938-3.1406-1.4062-6.0469 0.70312-8.9531l40.828-56.625 355.4-56.766c7.5469-1.2188 13.406-7.2188 14.484-14.766l24.703-178.08c1.3125-9.5156-5.2969-18.281-14.812-19.594-9.5156-1.2188-18.281 5.3438-19.594 14.812l-22.969 165.32-336.52 53.766-116.34-269.39c-1.9688-4.5469-5.7656-8.0625-10.453-9.6094l-76.406-25.453c-9.0938-3-18.938 1.875-21.938 10.969-3.0469 9.0938 1.875 18.938 10.969 21.938l69.047 23.062 114.75 265.6-39.141 54.328c-9.9375 13.406-11.25 30.328-3.5625 45.328 7.6875 14.906 22.172 23.766 38.859 23.766h260.26l118.08 204.32-497.53 0.046875c-61.359 0-111.28-50.016-111.28-111.52zm1008.7 254.48c-0.1875 12.281-6.0938 22.547-16.547 28.641l-152.02 87.703c-9.5625 5.4375-19.688 6-29.859 1.6875l-136.78-58.078c-14.344-6.2344-24.703-15.375-32.531-28.453l-41.203-71.812c-3.8906-6.8438-4.9219-14.812-2.8594-22.406 2.0625-7.6875 6.9375-14.062 13.734-17.953l2.4375-1.4062c13.547-7.7812 13.547-7.7812 25.312-9.9375 3.2344-0.60938 7.125-1.3594 12-2.3438 5.4844-1.0781 10.078-4.7812 12.422-9.8438 2.2969-5.1094 2.0156-11.016-0.79688-15.844l-145.08-251.26c-0.51562-1.2656-1.2656-2.4844-2.0625-3.5625l-6.375-11.062c-3.9375-6.7969-4.9688-14.812-2.9062-22.641 2.0625-7.7344 6.9375-14.109 13.734-18 4.4531-2.5781 9.5156-3.9375 14.672-3.9375 10.594 0 20.438 5.6719 25.688 14.766l81.047 140.26c4.2188 7.2656 12.984 10.453 20.859 7.6406l106.31-37.828c1.1719-0.28125 2.2969-0.70312 3.375-1.2188l78.094-27.797c15.422-5.3906 32.391 0.89062 40.453 14.953l120.56 208.4z" fill="#60c"/>
</svg>
