<?xml version="1.0" encoding="UTF-8"?>
<svg width="100pt" height="100pt" version="1.1" viewBox="0 0 100 100" xmlns="http://www.w3.org/2000/svg">
 <path d="m42.355 22.066c4.793 0 8.6875-3.8984 8.6875-8.6914-0.40625-11.5-16.973-11.496-17.379 0 0 4.793 3.8984 8.6914 8.6914 8.6914zm0-14.254c7.3516 0.23438 7.3516 10.895 0 11.129-7.3555-0.23438-7.3516-10.895 0-11.129z" fill="#7031ff"/>
 <path d="m77.688 62.219c-0.83203 0.066406-9.3008-0.17578-9.8203 0.17969v-14.164c2.9102-2.3242 1.6758-7.4375-1.9688-8.2031l-6.457-1.625c-3.4297-0.72266-6.6445-3.2148-9.4062-5.2734-1-0.73437-1.7148-1.8047-2.0156-3.0078-2.1328-8.6094-14.434-8.7422-16.762-0.11719-0.34375 1.625-3.8398 17.781-3.8125 18.953l-0.89062 11.969c-0.10938 2.0586 2.9336 2.2734 3.1172 0.23047l0.89062-11.984c-0.11328-0.46094 3.5312-17.422 3.7305-18.438 1.4492-5.4102 9.3828-5.3555 10.695 0.14062 0.61719 3.3438 4.0391 5.4062 6.5781 7.2266 2.1445 1.5664 4.5391 2.6875 7.1172 3.332l6.4609 1.625c0.45312 0.11328 0.82422 0.39844 1.043 0.80078 0.71094 1.1914-0.50781 2.7695-1.8711 2.375l-10.285-2.7656-6.293-2.8242c-0.94531-0.45313-2.1523 0.26172-2.1953 1.3164l-1.0938 15.297c-0.015625 0.19922 0.007812 0.40234 0.070312 0.59375l3.4727 10.699c0.15234 0.45703 0.24609 0.92578 0.28516 1.4141l1.7031 18.676c0.28125 3.1367-4.4883 3.5977-4.8086 0.4375 0 0-1.6875-19.266-1.6875-19.266-0.007813-0.097656-0.027344-0.19531-0.054687-0.28906l-4.3281-15.328c-0.44141-1.625-2.918-1.4219-3.0586 0.26953 0 0-1.6602 16.727-1.6602 16.727l-9.0586 19.027c-0.44141 0.94141-1.5039 1.4375-2.5273 1.168-1.2734-0.3125-2.0156-1.8125-1.4453-3.0117l7.4531-16.859c0.22656-0.15234 0.375-4.5742 0.45703-4.8906 0.12891-2.043-2.9297-2.2852-3.1172-0.23438l-0.30859 4.1094-7.3438 16.617c-1.3516 2.918 0.39844 6.5508 3.5234 7.293 2.4141 0.63672 5.0547-0.54687 6.1328-2.8555l9.1719-19.266c0.078126-0.16406 0.125-0.33984 0.14453-0.51562l0.87109-8.7852 2.043 7.2422 1.6758 19.102c0.10547 1.3984 0.74609 2.6875 1.7734 3.6016 3.5508 3.4453 9.8438 0.35547 9.2617-4.582-0.1875-1.0859-1.6406-20.496-2.1328-20.777l-3.375-10.398 0.91016-12.766 4.3672 1.9609c0.074219 0.035156 0.15234 0.0625 0.23438 0.082031 0.63281 0.09375 11.352 3.2422 11.648 2.9336v17.043c0.03125 0.070312-0.039063 20.906-0.007813 20.98 0 2.3477 1.9102 4.2578 4.2617 4.2773v2.0508c0 0.86328 0.69922 1.5625 1.5625 1.5625 0.86328 0 1.5625-0.69922 1.5625-1.5625v-3.4688c0.14844-0.89844-0.66406-1.7109-1.5586-1.7031-1.0078-0.035156-2.6406 0.3125-2.7031-1.1562 0.011719-2.668-0.007813-18.703 0.007813-20.945 0.019531-0.62891 0.53125-1.1328 1.1641-1.1328h8.6562c0.63672 0 1.1562 0.52734 1.1562 1.1719v20.906c0 0.63672-0.51953 1.1562-1.1562 1.1562h-1.5938c-2.0625 0.03125-2.043 3.0977 0 3.125h1.5938c2.3594 0 4.2812-1.9219 4.2812-4.2812v-20.906c0-2.3672-1.9219-4.2969-4.2812-4.2969z" fill="#7031ff"/>
</svg>
