<?xml version="1.0" encoding="UTF-8"?>
<svg width="100pt" height="100pt" version="1.1" viewBox="0 0 100 100" xmlns="http://www.w3.org/2000/svg">
 <path d="m1.5625 91.406h1.5625c0.86328 0 1.5625-0.69922 1.5625-1.5625s-0.69922-1.5625-1.5625-1.5625h-1.5625c-0.86328 0-1.5625 0.69922-1.5625 1.5625s0.69922 1.5625 1.5625 1.5625z" fill="#7031ff"/>
 <path d="m98.438 88.281h-1.5625c-0.86328 0-1.5625 0.69922-1.5625 1.5625s0.69922 1.5625 1.5625 1.5625h1.5625c0.86328 0 1.5625-0.69922 1.5625-1.5625s-0.69922-1.5625-1.5625-1.5625z" fill="#7031ff"/>
 <path d="m98.438 96.875h-96.875c-0.86328 0-1.5625 0.69922-1.5625 1.5625s0.69922 1.5625 1.5625 1.5625h96.875c0.86328 0 1.5625-0.69922 1.5625-1.5625s-0.69922-1.5625-1.5625-1.5625z" fill="#7031ff"/>
 <path d="m57.031 55.469h6.25c0.86328 0 1.5625-0.69922 1.5625-1.5625v-6.25c0-0.86328-0.69922-1.5625-1.5625-1.5625h-6.25c-0.86328 0-1.5625 0.69922-1.5625 1.5625v6.25c0 0.86328 0.69922 1.5625 1.5625 1.5625zm1.5625-6.25h3.125v3.125h-3.125z" fill="#7031ff"/>
 <path d="m69.531 55.469h6.25c0.86328 0 1.5625-0.69922 1.5625-1.5625v-6.25c0-0.86328-0.69922-1.5625-1.5625-1.5625h-6.25c-0.86328 0-1.5625 0.69922-1.5625 1.5625v6.25c0 0.86328 0.69922 1.5625 1.5625 1.5625zm1.5625-6.25h3.125v3.125h-3.125z" fill="#7031ff"/>
 <path d="m82.031 55.469h6.25c0.86328 0 1.5625-0.69922 1.5625-1.5625v-6.25c0-0.86328-0.69922-1.5625-1.5625-1.5625h-6.25c-0.86328 0-1.5625 0.69922-1.5625 1.5625v6.25c0 0.86328 0.69922 1.5625 1.5625 1.5625zm1.5625-6.25h3.125v3.125h-3.125z" fill="#7031ff"/>
 <path d="m67.969 66.406c0 0.86328 0.69922 1.5625 1.5625 1.5625h6.25c0.86328 0 1.5625-0.69922 1.5625-1.5625v-6.25c0-0.86328-0.69922-1.5625-1.5625-1.5625h-6.25c-0.86328 0-1.5625 0.69922-1.5625 1.5625zm3.125-4.6875h3.125v3.125h-3.125z" fill="#7031ff"/>
 <path d="m80.469 66.406c0 0.86328 0.69922 1.5625 1.5625 1.5625h6.25c0.86328 0 1.5625-0.69922 1.5625-1.5625v-6.25c0-0.86328-0.69922-1.5625-1.5625-1.5625h-6.25c-0.86328 0-1.5625 0.69922-1.5625 1.5625zm3.125-4.6875h3.125v3.125h-3.125z" fill="#7031ff"/>
 <path d="m55.469 66.406c0 0.86328 0.69922 1.5625 1.5625 1.5625h6.25c0.86328 0 1.5625-0.69922 1.5625-1.5625v-6.25c0-0.86328-0.69922-1.5625-1.5625-1.5625h-6.25c-0.86328 0-1.5625 0.69922-1.5625 1.5625zm3.125-4.6875h3.125v3.125h-3.125z" fill="#7031ff"/>
 <path d="m29.285 60.734c-0.29297-0.36719-0.74219-0.57812-1.2109-0.57812h-3.4648c-0.49609 0-0.96094 0.23438-1.2539 0.62891-0.29688 0.39844-0.38672 0.91016-0.24219 1.3828l4.3555 14.465h-1.6406c-0.86328 0-1.5625 0.69922-1.5625 1.5625v4.2422c0 0.73047 0.50391 1.3633 1.2188 1.5234l19.105 4.2812c0.10938 0.027343 0.22656 0.039062 0.33984 0.039062h3.8984l-1.8359 0.94922c-0.63672 0.33203-0.96875 1.0586-0.79688 1.7578 0.16797 0.69922 0.79688 1.1914 1.5156 1.1914h10.359c0.17188 0 0.34375-0.027344 0.50781-0.085938l7.0547-2.4375v0.96094h0.003907c0 0.86328 0.69922 1.5625 1.5625 1.5625s1.5625-0.69922 1.5625-1.5625v-2.0391l0.85938-0.29688h20.824c0.42188 0 0.83984-0.125 1.1953-0.35547l2.5508-1.6406c0.82422-0.55078 1.3633-1.4336 1.4766-2.418 0.15625-1.043-0.15625-2.0977-0.85156-2.8867l-1.9062-2.1211c-1.5625-1.8164-3.8281-2.8789-6.2227-2.9062h-45.039zm61.301 20.215 1.9062 2.1211c0.11328 0.17969 0.11328 0.40625 0.007812 0.58594l-2.3281 1.5h-12.395c0.39844-0.55078 0.39062-1.2969-0.015625-1.8438s-1.1172-0.76562-1.7617-0.54297l-18.191 6.2852h-3.6758l8.6367-4.4688 0.003907 0.003906c0.76172-0.39844 1.0586-1.3398 0.66406-2.1055-0.39844-0.76172-1.3359-1.0625-2.1016-0.67188l-6.4648 3.3438h-9.7695l-17.715-3.9688v-1.4258l2.1875-0.003907c0.49219 0 0.95703-0.23437 1.2539-0.62891 0.29297-0.39844 0.38281-0.91016 0.24219-1.3828l-4.3594-14.465h0.61719l12.359 15.219h0.003906c0.29688 0.36328 0.74219 0.57812 1.2109 0.57812h45.785c1.5078 0.035156 2.9258 0.71484 3.8984 1.8711z" fill="#7031ff"/>
 <path d="m13.281 48.438h-4.6875c-0.86328 0-1.5625 0.69922-1.5625 1.5625s0.69922 1.5625 1.5625 1.5625h4.6875c0.86328 0 1.5625-0.69922 1.5625-1.5625s-0.69922-1.5625-1.5625-1.5625z" fill="#7031ff"/>
 <path d="m13.281 54.688h-4.6875c-0.86328 0-1.5625 0.69922-1.5625 1.5625s0.69922 1.5625 1.5625 1.5625h4.6875c0.86328 0 1.5625-0.69922 1.5625-1.5625s-0.69922-1.5625-1.5625-1.5625z" fill="#7031ff"/>
 <path d="m13.281 60.938h-4.6875c-0.86328 0-1.5625 0.69922-1.5625 1.5625s0.69922 1.5625 1.5625 1.5625h4.6875c0.86328 0 1.5625-0.69922 1.5625-1.5625s-0.69922-1.5625-1.5625-1.5625z" fill="#7031ff"/>
 <path d="m13.281 67.188h-4.6875c-0.86328 0-1.5625 0.69922-1.5625 1.5625s0.69922 1.5625 1.5625 1.5625h4.6875c0.86328 0 1.5625-0.69922 1.5625-1.5625s-0.69922-1.5625-1.5625-1.5625z" fill="#7031ff"/>
 <path d="m13.281 73.438h-4.6875c-0.86328 0-1.5625 0.69922-1.5625 1.5625s0.69922 1.5625 1.5625 1.5625h4.6875c0.86328 0 1.5625-0.69922 1.5625-1.5625s-0.69922-1.5625-1.5625-1.5625z" fill="#7031ff"/>
 <path d="m19.289 88.281c-0.86328 0-1.5625 0.69922-1.5625 1.5625s0.69922 1.5625 1.5625 1.5625h3.2344c0.85937 0 1.5625-0.69922 1.5625-1.5625s-0.70313-1.5625-1.5625-1.5625z" fill="#7031ff"/>
 <path d="m12.824 91.406c0.86328 0 1.5625-0.69922 1.5625-1.5625s-0.69922-1.5625-1.5625-1.5625h-3.2344c-0.86328 0-1.5625 0.69922-1.5625 1.5625s0.69922 1.5625 1.5625 1.5625z" fill="#7031ff"/>
 <path d="m28.988 88.281c-0.86328 0-1.5625 0.69922-1.5625 1.5625s0.69922 1.5625 1.5625 1.5625h3.2344-0.003906c0.58203 0 1.1133-0.32031 1.3828-0.83203 0.26953-0.51172 0.23438-1.1328-0.09375-1.6133l-3.0391-0.67969z" fill="#7031ff"/>
 <path d="m38.684 91.406h3.2344c0.35156 0 0.69141-0.12109 0.96484-0.34375l-5.7539-1.2891c0 0.023437-0.007812 0.046874-0.007812 0.070312 0 0.86328 0.70312 1.5625 1.5625 1.5625z" fill="#7031ff"/>
 <path d="m98.438 33.594h-2.3438v-4.6875c0-0.86328-0.69922-1.5625-1.5625-1.5625h-10.938c-0.86328 0-1.5625 0.69922-1.5625 1.5625v4.6875h-15.625v-4.6875c0-0.86328-0.69922-1.5625-1.5625-1.5625h-12.5c-0.86328 0-1.5625 0.69922-1.5625 1.5625v4.6875h-3.9062c-0.86328 0-1.5625 0.69922-1.5625 1.5625v6.25c0 0.86328 0.69922 1.5625 1.5625 1.5625h2.3438v6.25h-13.281v-5.4688c0-0.86328-0.69922-1.5625-1.5625-1.5625h-5.3711l-1.9883-10.938h1.9648-0.003907c0.6875 0 1.293-0.44922 1.4961-1.1055l3.8359-12.5h-0.003906c0.14844-0.47266 0.058593-0.98828-0.23438-1.3867-0.29687-0.39844-0.76172-0.63281-1.2578-0.63281h-3.125v-4.6875c0-0.86328-0.69922-1.5625-1.5625-1.5625h-4.6875v-3.125c0-0.86328-0.69922-1.5625-1.5625-1.5625h-1.5625v-3.125c0-0.86328-0.69922-1.5625-1.5625-1.5625s-1.5625 0.69922-1.5625 1.5625v3.125h-1.5625c-0.86328 0-1.5625 0.69922-1.5625 1.5625v3.125h-4.6875c-0.86328 0-1.5625 0.69922-1.5625 1.5625v4.6875h-3.125c-0.49609 0-0.96094 0.23438-1.2578 0.63281-0.29297 0.39844-0.38281 0.91406-0.23438 1.3867l3.8359 12.5h-0.003906c0.20312 0.65625 0.80859 1.1055 1.4961 1.1055h1.9648l-1.9922 10.938h-6.9336c-0.86328 0-1.5625 0.69922-1.5625 1.5625v37.5c0 0.86328 0.69922 1.5625 1.5625 1.5625h19.609c-0.011719-0.125-0.03125-0.24609-0.03125-0.375v-2.75h-18.016v-34.375h29.688v3.9062h-7.0312c-0.86328 0-1.5625 0.69922-1.5625 1.5625v6.2734c0.12891-0.011719 0.25781-0.023438 0.39062-0.023438h3.4648c1.332 0 2.5977 0.56641 3.4844 1.5625h17.66v3.125h-15.105l2.5391 3.125h12.566v3.125h-10.027l2.5391 3.125h7.4883v1.7344h3.125v-29.859h40.625v31.832c0.83203 0.5625 1.5938 1.2227 2.2656 1.9688l0.85938 0.95703v-34.758h2.3438c0.86328 0 1.5625-0.69922 1.5625-1.5625v-6.25c0-0.86328-0.69922-1.5625-1.5625-1.5625zm-81.25-25.781h3.125v1.5625h-3.125zm-6.25 4.6875h15.625v3.125h-15.625zm-3.1758 9.375-0.96094-3.125h23.898l-0.95703 3.125zm1.918 6.25-0.95703-3.125h20.059l-0.96094 3.125zm1.9961 14.062 1.9844-10.938h10.18l1.9883 10.938zm37.543 13.281h-21.875v-3.125h21.875zm35.938-25h7.8125v3.125h-7.8125zm-31.25 0h9.375v3.125h-9.375zm42.969 9.375h-48.438v-3.125h48.438z" fill="#7031ff"/>
</svg>
