<?xml version="1.0" encoding="UTF-8"?>
<svg width="100pt" height="100pt" version="1.1" viewBox="0 0 100 100" xmlns="http://www.w3.org/2000/svg">
 <path d="m80.875 5h-61.75c-2.6875 0-4.875 2.1875-4.875 4.875v80.25c0 2.6875 2.1875 4.875 4.875 4.875h50.449c0.10156 0 0.19922-0.011719 0.29688-0.03125 0.066406-0.011719 0.12891-0.035156 0.19141-0.058594 0.027344-0.011718 0.058594-0.015625 0.085938-0.027344 0.074218-0.03125 0.14062-0.070312 0.21094-0.11328 0.015625-0.011719 0.03125-0.015625 0.046875-0.027343 0.082031-0.054688 0.16016-0.11719 0.23047-0.1875l14.672-14.672c0.070312-0.070312 0.13281-0.14453 0.1875-0.23047 0.011718-0.015625 0.015625-0.03125 0.027344-0.046875 0.039062-0.066407 0.082031-0.13672 0.11328-0.21094 0.011719-0.027343 0.015625-0.058593 0.027343-0.085937 0.023438-0.0625 0.046876-0.125 0.058594-0.19141 0.019532-0.097657 0.03125-0.19531 0.03125-0.29688l-0.003906-68.945c0-2.6875-2.1875-4.875-4.875-4.875zm-63.625 85.125v-80.25c0-1.0352 0.83984-1.875 1.875-1.875h61.75c1.0352 0 1.875 0.83984 1.875 1.875v67.449h-9.8008c-2.6875 0-4.875 2.1875-4.875 4.875v9.8008h-48.949c-1.0352 0-1.875-0.83984-1.875-1.875zm63.379-9.8008-9.5547 9.5547v-7.6797c0-1.0352 0.83984-1.875 1.875-1.875z" fill="#7031ff"/>
 <path d="m42.977 79.512h-16.449c-0.82812 0-1.5 0.67188-1.5 1.5s0.67188 1.5 1.5 1.5h16.449c0.82813 0 1.5-0.67188 1.5-1.5s-0.67187-1.5-1.5-1.5z" fill="#7031ff"/>
 <path d="m56.277 79.512h-9.0117c-0.82812 0-1.5 0.67188-1.5 1.5s0.67188 1.5 1.5 1.5h9.0117c0.82812 0 1.5-0.67188 1.5-1.5s-0.67188-1.5-1.5-1.5z" fill="#7031ff"/>
 <path d="m26.316 73.625h9.0742c0.82812 0 1.5-0.67188 1.5-1.5s-0.67188-1.5-1.5-1.5h-9.0742c-0.82812 0-1.5 0.67188-1.5 1.5s0.67188 1.5 1.5 1.5z" fill="#7031ff"/>
 <path d="m40.371 70.625c-0.82812 0-1.5 0.67188-1.5 1.5s0.67188 1.5 1.5 1.5h1.125c0.82812 0 1.5-0.67188 1.5-1.5s-0.67188-1.5-1.5-1.5z" fill="#7031ff"/>
 <path d="m63.5 70.625h-16.984c-0.82812 0-1.5 0.67188-1.5 1.5s0.67188 1.5 1.5 1.5h16.984c0.82812 0 1.5-0.67188 1.5-1.5s-0.67188-1.5-1.5-1.5z" fill="#7031ff"/>
 <path d="m68.391 73.625h5.2891c0.82812 0 1.5-0.67188 1.5-1.5s-0.67188-1.5-1.5-1.5h-5.2891c-0.82812 0-1.5 0.67188-1.5 1.5s0.67188 1.5 1.5 1.5z" fill="#7031ff"/>
 <path d="m39.395 48.539c1.1719 1.0547 1.8438 2.6367 1.8438 4.3398v1.8203c-1.875 0.19922-3.3398 1.7891-3.3398 3.7148 0 2.0625 1.6758 3.7383 3.7383 3.7383h2.6055c0.56641 2.3789 2.7109 4.1562 5.2578 4.1562h1.0039c2.5508 0 4.6953-1.7734 5.2578-4.1562h2.6055c2.0625 0 3.7383-1.6758 3.7383-3.7383 0-1.9258-1.4648-3.5156-3.3398-3.7148v-1.8242c0-1.6875 0.70312-3.293 1.9258-4.4102 3.2695-2.9844 5.1523-7.2305 5.1641-11.645 0.023437-8.3711-6.75-15.492-15.102-15.879-9.0859-0.42969-16.605 6.8438-16.605 15.836-0.003907 4.4727 1.9102 8.7617 5.2461 11.762zm11.105 15.273h-1.0039c-1.3164 0-2.418-0.88672-2.7734-2.0898h6.5508c-0.35156 1.2031-1.457 2.0898-2.7734 2.0898zm9.1016-5.3945c0 0.68359-0.55469 1.2383-1.2383 1.2383h-3.7109c-0.11719 0-0.22266 0.035156-0.32812 0.066406h-8.6523c-0.10547-0.03125-0.21094-0.066406-0.32812-0.066406h-3.7109c-0.68359 0-1.2383-0.55469-1.2383-1.2383 0-0.68359 0.55469-1.2383 1.2383-1.2383h16.73c0.68359 0.003906 1.2383 0.55469 1.2383 1.2383zm-8.9648-34.98c7.0312 0.32422 12.738 6.3242 12.719 13.375-0.011719 3.7148-1.5938 7.2891-4.3516 9.8047-1.7422 1.5898-2.7383 3.8711-2.7383 6.2578v1.8047h-5.3672v-15.363c0-1.0508 0.85547-1.9062 1.9062-1.9062 1.0508 0 1.9062 0.85547 1.9062 1.9062 0 0.49609 0.40234 0.89844 0.89844 0.89844s0.89844-0.40234 0.89844-0.89844c0-2.043-1.6641-3.707-3.707-3.707-1.1289 0-2.125 0.51562-2.8086 1.3125-0.67969-0.79688-1.6797-1.3125-2.8086-1.3125-2.043 0-3.707 1.6641-3.707 3.707 0 0.49609 0.40234 0.89844 0.89844 0.89844s0.89844-0.40234 0.89844-0.89844c0-1.0508 0.85547-1.9062 1.9062-1.9062 1.0508 0 1.9062 0.85547 1.9062 1.9062v15.363h-5.3633v-1.8008c0-2.4102-0.97266-4.6719-2.6719-6.1992-2.8086-2.5273-4.418-6.1406-4.418-9.9023 0.011719-7.5742 6.3359-13.68 14.004-13.34z" fill="#7031ff"/>
 <path d="m27.379 38.102h3.3633c0.69141 0 1.25-0.55859 1.25-1.25 0-0.69141-0.55859-1.25-1.25-1.25h-3.3633c-0.69141 0-1.25 0.55859-1.25 1.25 0 0.6875 0.55859 1.25 1.25 1.25z" fill="#7031ff"/>
 <path d="m69.262 38.102h3.3633c0.69141 0 1.25-0.55859 1.25-1.25 0-0.69141-0.55859-1.25-1.25-1.25h-3.3633c-0.69141 0-1.25 0.55859-1.25 1.25 0 0.6875 0.55859 1.25 1.25 1.25z" fill="#7031ff"/>
 <path d="m34.004 54.098c0.32031 0 0.64062-0.12109 0.88281-0.36719l2.3789-2.3789c0.48828-0.48828 0.48828-1.2773 0-1.7695-0.48828-0.48828-1.2773-0.48828-1.7695 0l-2.3789 2.3789c-0.48828 0.48828-0.48828 1.2773 0 1.7695 0.24609 0.24609 0.56641 0.36719 0.88672 0.36719z" fill="#7031ff"/>
 <path d="m63.617 24.48c0.32031 0 0.64062-0.12109 0.88281-0.36719l2.3789-2.3789c0.48828-0.48828 0.48828-1.2773 0-1.7695-0.48828-0.48828-1.2773-0.48828-1.7695 0l-2.3789 2.3789c-0.48828 0.48828-0.48828 1.2773 0 1.7695 0.25 0.24609 0.57031 0.36719 0.88672 0.36719z" fill="#7031ff"/>
 <path d="m50 18.84c0.69141 0 1.25-0.55859 1.25-1.25v-3.3633c0-0.69141-0.55859-1.25-1.25-1.25s-1.25 0.55859-1.25 1.25v3.3633c0 0.69141 0.55859 1.25 1.25 1.25z" fill="#7031ff"/>
 <path d="m66.883 51.965-2.3789-2.3789c-0.48828-0.48828-1.2773-0.48828-1.7695 0-0.48828 0.48828-0.48828 1.2812 0 1.7695l2.3789 2.3789c0.24219 0.24219 0.5625 0.36719 0.88281 0.36719 0.32031 0 0.64062-0.12109 0.88281-0.36719 0.48828-0.49219 0.48828-1.2852 0.003906-1.7695z" fill="#7031ff"/>
 <path d="m35.496 24.117c0.24219 0.24219 0.5625 0.36719 0.88281 0.36719 0.32031 0 0.64062-0.12109 0.88281-0.36719 0.48828-0.48828 0.48828-1.2773 0-1.7695l-2.3789-2.3789c-0.48828-0.48828-1.2773-0.48828-1.7695 0-0.48828 0.48828-0.48828 1.2773 0 1.7695z" fill="#7031ff"/>
</svg>
