<?xml version="1.0" encoding="UTF-8"?>
<svg width="100pt" height="100pt" version="1.1" viewBox="0 0 100 100" xmlns="http://www.w3.org/2000/svg">
 <path d="m18.18 70.316 52.137-52.137c5.0742-5.0742 13.879-1.5156 13.879 5.75 0 2.082-0.79297 4.168-2.375 5.75l-52.137 52.141c-5.0742 5.0742-13.879 1.5156-13.879-5.75 0-2.0859 0.79297-4.1719 2.375-5.7539zm42.328-9.8086c-5.8867 5.8867-5.8867 15.426 0 21.312 9.4688 9.4688 25.727 2.7344 25.727-10.656 0-13.391-16.262-20.125-25.727-10.656zm10.656-0.54297c-9.9531 0-14.945 12.086-7.918 19.113 7.0312 7.0273 19.113 2.0352 19.113-7.918 0-6.1797-5.0117-11.195-11.195-11.195zm-52.984-41.785c-5.8867 5.8867-5.8867 15.426 0 21.312 9.4648 9.4648 25.73 2.7344 25.73-10.656 0-13.391-16.266-20.121-25.73-10.656zm10.656-0.53906c-9.9531 0-14.945 12.086-7.918 19.113 7.0273 7.0273 19.113 2.0352 19.113-7.918 0-6.1836-5.0117-11.195-11.195-11.195zm44.223 3.2812-52.137 52.137c-2.6328 2.6328-0.82031 7.2617 3.0117 7.2617 1.0938 0 2.1836-0.41406 3.0117-1.2383l52.137-52.137c2.6328-2.6328 0.82031-7.2617-3.0117-7.2617-1.0938-0.003906-2.1875 0.41016-3.0117 1.2383z" fill="#7031ff" fill-rule="evenodd"/>
</svg>
