<?xml version="1.0" encoding="UTF-8"?>
<svg width="100pt" height="100pt" version="1.1" viewBox="0 0 100 100" xmlns="http://www.w3.org/2000/svg">
 <path d="m50.223 86.559c-0.16016 1.3867 0.33594 2.8008 1.3203 3.7852l3.1641 3.1641c0.3125 0.31641 0.73828 0.48828 1.1797 0.48828 0.054687 0 0.10938-0.003906 0.16406-0.007813 0.49609-0.046875 0.94922-0.32031 1.2266-0.73438l10.543-15.812 1.4805 1.4805c0.32422 0.32422 0.75391 0.48828 1.1797 0.48828s0.85547-0.16406 1.1797-0.48828c0.65234-0.65234 0.65234-1.707 0-2.3594l-1.4805-1.4805 15.816-10.543c0.41406-0.27734 0.6875-0.72656 0.73438-1.2227 0.050781-0.49609-0.12891-0.99219-0.48047-1.3438l-3.1641-3.168c-1.0039-0.99609-2.3828-1.4727-3.7852-1.3203l-12.324 1.4023-15.953-17.477 8.9805-7.4219c3.2383 5.2344 9.0156 8.7383 15.609 8.7383 10.125 0 18.363-8.2383 18.363-18.363s-8.2383-18.363-18.363-18.363c-7.3008 0-13.602 4.293-16.559 10.477-1.2539 0.53906-2.6172 1.1289-4.0469 1.7422l-3.1523-3.1523c-2.375-2.3711-6.2383-2.3711-8.6133 0-1.1484 1.1484-1.7812 2.6797-1.7852 4.3086 0.003907 1.4961 0.5625 2.8945 1.5391 4.0039-2.8984 1.2422-5.1484 2.2109-6.0586 2.6016l-3.3477-3.6641c-3.6602-4.0078-8.8711-6.3047-14.293-6.3047h-2.9805c-1.9922 0-3.9414 0.80469-5.3477 2.2148-1.4062 1.4062-2.2148 3.3555-2.2148 5.3477v2.9805c0 5.4219 2.2969 10.633 6.3047 14.297l3.6602 3.3438-2.5977 6.0625c-2.3867-2.1055-6.0273-2.0352-8.3125 0.24609-2.375 2.375-2.375 6.2383 0 8.6133l3.1602 3.1602-2.9844 6.9688c-1.2266 2.8594-0.59766 6.1289 1.6055 8.3281l3.4336 3.4336c0.3125 0.3125 0.73828 0.48828 1.1797 0.48828 0.027344 0 0.054687 0 0.078125-0.003906 0.46875-0.023438 0.91016-0.24219 1.207-0.60547l18.656-22.609 17.48 15.961zm25.391-77.219c8.2852 0 15.023 6.7383 15.023 15.023 0 8.2852-6.7383 15.023-15.023 15.023-8.2852 0-15.023-6.7383-15.023-15.023 0-8.2852 6.7383-15.023 15.023-15.023zm-30.012 8.0859c1.0742-1.0742 2.8203-1.0742 3.8945 0l2.2109 2.2109c-1.8438 0.79297-3.6914 1.5859-5.4453 2.3398l-0.66016-0.66016c-0.51953-0.51953-0.80859-1.2148-0.80859-1.9414 0.003906-0.73438 0.29297-1.4297 0.80859-1.9492zm12.012 3.3047c-0.23438 1.1758-0.36328 2.3867-0.36328 3.6328 0 2.3125 0.44531 4.5117 1.2305 6.5508l-9.7109 8.0234-9.4492-10.344c3.3672-1.4453 11.664-5.0078 18.293-7.8633zm-47.445 36.027c-1.0742-1.0742-1.0742-2.8203 0.003906-3.8984 1.0703-1.0703 2.8125-1.0664 3.8828-0.003906l0.66406 0.66406-2.3359 5.4492zm3.9102 20.586-2.1328-2.1328c-1.2305-1.2266-1.5781-3.0547-0.89453-4.6523l10.277-23.98 10.348 9.4453zm3.2305-38.957c-3.3164-3.0312-5.2188-7.3438-5.2188-11.832v-2.9805c0-1.1133 0.44922-2.2031 1.2383-2.9883 0.78516-0.78516 1.875-1.2383 2.9883-1.2383h2.9805c4.4883 0 8.8008 1.9023 11.828 5.2188l34.516 37.801c1.0898 1.1953 1.8867 2.6523 2.3047 4.2188 0.23828 0.89453 1.1523 1.4258 2.043 1.1836 0.89062-0.23828 1.4219-1.1523 1.1836-2.043-0.35547-1.3359-0.94141-2.6016-1.6836-3.7656l10.195-1.1602c0.37891-0.042969 0.77344 0.09375 1.0469 0.36328l1.7227 1.7266-14.68 9.7812-4.4531-4.4531c-0.65234-0.65234-1.707-0.65234-2.3594 0-0.65234 0.65234-0.65234 1.707 0 2.3594l4.4531 4.4531-9.7852 14.676-1.7266-1.7266c-0.27344-0.27344-0.41016-0.66016-0.36328-1.043l1.1602-10.195c1.1641 0.74219 2.4297 1.3281 3.7656 1.6875 0.14453 0.039062 1.5586 0.41016 2.043-1.1797 0.26953-0.88281-0.28906-1.8047-1.1797-2.0469-1.5625-0.41797-3.0234-1.2148-4.2188-2.3047z" fill="#7031ff"/>
 <path d="m28.617 25.438-1.9336-0.37891c-2.4805-0.49219-5.0273 0.28125-6.8125 2.0703-1.7891 1.7891-2.5625 4.3359-2.0742 6.8086l0.38281 1.9375c0.15625 0.79297 0.85547 1.3438 1.6367 1.3438 0.10938 0 0.21875-0.011719 0.32812-0.03125 0.90234-0.17969 1.4922-1.0586 1.3125-1.9648l-0.38281-1.9297c-0.27344-1.3828 0.16016-2.8047 1.1602-3.8047 0.99609-1.0039 2.418-1.4336 3.8086-1.1562l1.9258 0.37891c0.90625 0.17969 1.7812-0.41016 1.9648-1.3125 0.17578-0.90234-0.41406-1.7812-1.3164-1.9609z" fill="#7031ff"/>
 <path d="m75.105 26.199h1.0117c0.70703 0 1.2812 0.57422 1.2812 1.2812s-0.57422 1.2812-1.2812 1.2812h-0.47656c-0.011719 0-0.019531-0.007813-0.03125-0.007813s-0.019531 0.007813-0.03125 0.007813h-2.832c-0.92188 0-1.668 0.74609-1.668 1.668 0 0.92187 0.74609 1.668 1.668 1.668h1.1953v1.3555c0 0.92188 0.74609 1.668 1.668 1.668s1.668-0.74609 1.668-1.668v-1.5195c1.9844-0.51953 3.4609-2.3125 3.4609-4.4531 0-2.5469-2.0703-4.6172-4.6172-4.6172h-1.0117c-0.70703 0-1.2812-0.57422-1.2812-1.2812s0.57422-1.2812 1.2812-1.2812h3.3711c0.92188 0 1.668-0.74609 1.668-1.668 0-0.92187-0.74609-1.668-1.668-1.668h-1.1992l-0.003906-1.6953c0-0.92188-0.74609-1.668-1.668-1.668s-1.668 0.74609-1.668 1.668v1.8555c-1.9805 0.51953-3.4531 2.3125-3.4531 4.4531-0.003906 2.5508 2.0703 4.6211 4.6172 4.6211z" fill="#7031ff"/>
</svg>
