<?xml version="1.0" encoding="UTF-8"?>
<svg width="1200pt" height="1200pt" version="1.1" viewBox="0 0 1200 1200" xmlns="http://www.w3.org/2000/svg">
 <path d="m610.34 267.49c-73.223 0.15234-146.8 26.055-204.48 76.988-137.51 121.43-142.61 336.3-22.902 471.14 68.898 77.609 165.25 116.3 262.09 116.9h-0.003906c6.0469 0.11719 11.887-2.1914 16.223-6.4023 4.3398-4.2109 6.8125-9.9844 6.875-16.031s-2.2891-11.867-6.5391-16.168c-4.25-4.3008-10.039-6.7305-16.086-6.7422-85.047-0.52734-168.63-34.273-228.56-101.79-103.36-116.43-99.023-302.78 18.891-406.9 104.63-92.398 271.42-88.188 363.86 18.656 80.895 93.504 76.648 242.23-18.418 323.54-81.746 69.91-210.82 65.707-280.51-18.184-58.559-70.496-54.41-181.47 17.707-239.94 58.734-47.613 150.25-43.543 197.16 17.238 36.504 47.301 32.609 120.52-16.293 156.1-35.398 25.758-89.496 22.285-113.57-14.879-7.5938-11.723-10.961-27.867-8.7383-41.562 2.2227-13.699 8.7695-24.348 21.016-30.699 5.0234-2.6055 14.531-3.7461 20.777-2.125 2.0703 0.53516 3.0234 1.0508 4.25 1.6523h0.007813c-5.2109 1.3789-9.7578 4.5703-12.828 8.9961-3.0703 4.4297-4.4648 9.8047-3.9297 15.168 0.53125 5.3633 2.957 10.359 6.8398 14.094 6.7305 6.7539 19.02 11.961 29.75 9.6836 10.73-2.2773 16.781-9.0117 20.777-14.641 7.9922-11.262 12.035-20.879 8.5-36.84-4.9805-22.5-23.852-37.32-42.031-42.035-18.176-4.7148-36.855-2.5352-53.125 5.9023-25.84 13.406-40.523 38.258-44.625 63.527-4.1016 25.27 1.2383 51.668 15.348 73.445 39.625 61.164 123.47 66.797 178.27 26.922 71.309-51.891 76.711-153.97 25.5-220.34-63.477-82.258-184.06-87.672-261.62-24.797-92.949 75.352-98.18 214.73-24.086 303.94 86.645 104.31 244.66 109.41 344.97 23.617 115.12-98.461 120.05-275.52 23.141-387.54-54.801-63.34-130.99-96.145-208.96-99.66-4.875-0.21875-9.7578-0.24609-14.641-0.23438z" fill="#e7e7e7"/>
</svg>
