<?xml version="1.0" encoding="UTF-8"?>
<svg width="1200pt" height="1200pt" version="1.1" viewBox="0 0 1200 1200" xmlns="http://www.w3.org/2000/svg">
 <path d="m214.96 0.46094c-14.148-0.007813-27.391 6.9727-35.379 18.652l-172.3 255.77c-4.7656 7.0977-7.3008 15.457-7.2773 24.004l0.92188 857.66c-0.085937 23.648 19.008 42.895 42.656 42.992h1113.4c23.781 0.085938 43.082-19.211 42.992-42.992l-0.92188-857.66c-0.042969-8.4336-2.5742-16.668-7.2773-23.668l-170.46-255.77c-7.9102-11.809-21.168-18.922-35.379-18.988zm22.75 85.73 226.25 0.003906-35.297 205.42c-0.42188 2.4023-0.64844 4.8359-0.66406 7.2773h-333.64zm313.15 0h99.031l35.297 212.7h-170.96zm185.77 0h226.25l141.86 212.7h-333.14c-0.085938-1.9062-0.25781-3.8086-0.58203-5.6875zm-650.89 298.43h342.51l0.76172 215.54c0.085938 23.648 19.34 42.746 42.988 42.656h256.95c23.684-0.042969 42.832-19.309 42.742-42.992v-215.21h341.76l0.92188 729.27h-1027.8zm428.24 0h171.97v172.55h-171.3zm-299.02 386.59c-23.652 0.082031-42.75 19.34-42.656 42.988 0.085938 23.523 19.137 42.566 42.656 42.656h257.03c23.523-0.082031 42.566-19.133 42.66-42.656 0.085938-23.648-19.008-42.898-42.66-42.988zm0 171.3c-23.551 0.082031-42.609 19.184-42.656 42.738-0.085937 23.652 19.004 42.898 42.656 42.992h257.03c23.652-0.085938 42.75-19.34 42.66-42.992-0.042969-23.555-19.105-42.648-42.66-42.742z" fill="#e7e7e7"/>
</svg>
