<?xml version="1.0" encoding="UTF-8"?>
<svg width="100pt" height="100pt" version="1.1" viewBox="0 0 100 100" xmlns="http://www.w3.org/2000/svg">
 <path d="m37.645 36.305h-0.91406c0.007812-0.13672 0.015625-0.27734 0.015625-0.41797 0-3.5508-2.8867-6.4375-6.4375-6.4375h-13.199c-3.5508 0-6.4375 2.8867-6.4375 6.4375 0 0.14062 0.007813 0.27734 0.015625 0.41797h-0.91406c-3.668 0-6.6484 2.9805-6.6484 6.6445v30.582c0 3.6641 2.9805 6.6484 6.6484 6.6484h27.871c3.6641 0 6.6484-2.9805 6.6484-6.6484v-30.582c0-3.6641-2.9844-6.6445-6.6484-6.6445zm-20.535-4.8164h13.195c2.4258 0 4.3984 1.9727 4.3984 4.4023 0 2.4258-1.9727 4.3984-4.3984 4.3984h-13.195c-2.4258 0-4.3984-1.9727-4.3984-4.3984 0-2.4297 1.9727-4.4023 4.3984-4.4023zm25.145 42.043c0 2.543-2.0664 4.6094-4.6094 4.6094h-27.871c-2.543 0-4.6094-2.0664-4.6094-4.6094v-30.582c0-2.543 2.0664-4.6094 4.6094-4.6094h1.3867c0.96484 2.3359 3.2695 3.9844 5.9492 3.9844h13.195c2.6797 0 4.9844-1.6484 5.9492-3.9844h1.3867c2.543 0 4.6094 2.0664 4.6094 4.6094zm-1.8398 20.832c0.20703 0.52344-0.054687 1.1172-0.57812 1.3203-0.12109 0.046875-0.24609 0.070312-0.37109 0.070312-0.40625 0-0.79297-0.24609-0.94922-0.64844l-4.9648-12.703c-0.20703-0.52344 0.054688-1.1172 0.57812-1.3203 0.48828-0.19141 1.0273 0.023438 1.2656 0.47266 0.078125 0.11328 0.13281 0.23828 0.16016 0.37891zm-26.551-11.961-4.9648 12.703c-0.15625 0.40234-0.54297 0.64844-0.94922 0.64844-0.12109 0-0.25-0.023437-0.37109-0.070312-0.52344-0.20703-0.78516-0.79688-0.57812-1.3203l4.9648-12.703c0.20703-0.52344 0.79688-0.78516 1.3203-0.57812 0.52344 0.20312 0.78125 0.79688 0.57812 1.3203zm-0.17578 5.0117h20.039c0.5625 0 1.0195 0.45703 1.0195 1.0195s-0.45703 1.0195-1.0195 1.0195h-20.039c-0.5625 0-1.0195-0.45703-1.0195-1.0195s0.45703-1.0195 1.0195-1.0195zm23.523 7.3203c0 0.5625-0.45703 1.0195-1.0195 1.0195h-24.965c-0.5625 0-1.0195-0.45703-1.0195-1.0195s0.45703-1.0195 1.0195-1.0195h24.965c0.5625 0 1.0195 0.45703 1.0195 1.0195zm-26.695-42.992c-0.39844-0.39844-0.39844-1.043 0-1.4414l2.5234-2.5234c0.39844-0.39844 1.043-0.39844 1.4414 0 0.39844 0.39844 0.39844 1.043 0 1.4414l-2.5234 2.5234c-0.19922 0.19922-0.46094 0.30078-0.72266 0.30078-0.26172-0.003907-0.52344-0.10156-0.71875-0.30078zm0.73047 2.5469 5.7812-5.7812c0.39844-0.39844 1.043-0.39844 1.4414 0 0.39844 0.39844 0.39844 1.043 0 1.4414l-5.7812 5.7812c-0.19922 0.19922-0.46094 0.30078-0.72266 0.30078-0.26172 0-0.52344-0.10156-0.72266-0.30078-0.39453-0.39453-0.39453-1.043 0.003906-1.4414zm11.355 4.5547v-14.18c0-0.5625-0.45703-1.0195-1.0195-1.0195h-14.18c-0.5625 0-1.0195 0.45703-1.0195 1.0195v14.18c0 0.5625 0.45703 1.0195 1.0195 1.0195h14.18c0.5625 0 1.0195-0.45703 1.0195-1.0195zm-2.0391-1.0195h-12.141v-12.141h12.141zm19.449-14.18h-14.176c-0.5625 0-1.0195 0.45703-1.0195 1.0195v14.18c0 0.5625 0.45703 1.0195 1.0195 1.0195h14.18c0.5625 0 1.0195-0.45703 1.0195-1.0195l-0.003906-14.18c0-0.5625-0.45312-1.0195-1.0195-1.0195zm-1.0156 14.18h-12.141v-12.141h12.141zm-20.031-18.344c1.9805 0 3.5938-1.6133 3.5938-3.5938s-1.6133-3.5938-3.5938-3.5938c-1.9805 0-3.5938 1.6133-3.5938 3.5938s1.6133 3.5938 3.5938 3.5938zm0-5.1484c0.85547 0 1.5547 0.69922 1.5547 1.5547s-0.69922 1.5547-1.5547 1.5547c-0.85547 0-1.5547-0.69922-1.5547-1.5547 0-0.85938 0.69922-1.5547 1.5547-1.5547zm9.4844 5.1484c1.9805 0 3.5938-1.6133 3.5938-3.5938s-1.6133-3.5938-3.5938-3.5938-3.5938 1.6133-3.5938 3.5938 1.6133 3.5938 3.5938 3.5938zm0-5.1484c0.85547 0 1.5547 0.69922 1.5547 1.5547s-0.69922 1.5547-1.5547 1.5547-1.5547-0.69922-1.5547-1.5547c0-0.85938 0.69922-1.5547 1.5547-1.5547zm-14.992 30.785c-2.7773 0-5.0391 2.2578-5.0391 5.0391 0 2.7773 2.2578 5.0391 5.0391 5.0391 2.7773 0 5.0391-2.2578 5.0391-5.0391-0.003906-2.7812-2.2617-5.0391-5.0391-5.0391zm0 8.0352c-1.6523 0-3-1.3477-3-3s1.3477-3 3-3c1.6523 0 3 1.3477 3 3 0 1.6562-1.3477 3-3 3zm20.504-8.0352c-2.7773 0-5.0391 2.2578-5.0391 5.0391 0 2.7773 2.2578 5.0391 5.0391 5.0391 2.7773 0 5.0391-2.2578 5.0391-5.0391-0.003906-2.7812-2.2617-5.0391-5.0391-5.0391zm0 8.0352c-1.6523 0-3-1.3477-3-3s1.3477-3 3-3c1.6523 0 3 1.3477 3 3 0 1.6562-1.3477 3-3 3zm-5.0156-21.41c-0.39844-0.39844-0.39844-1.043 0-1.4414l2.5234-2.5234c0.39844-0.39844 1.043-0.39844 1.4414 0 0.39844 0.39844 0.39844 1.043 0 1.4414l-2.5234 2.5234c-0.19922 0.19922-0.46094 0.30078-0.72266 0.30078-0.25781-0.003907-0.51953-0.10156-0.71875-0.30078zm0.73438 2.5469 5.7812-5.7812c0.39844-0.39844 1.043-0.39844 1.4414 0 0.39844 0.39844 0.39844 1.043 0 1.4414l-5.7812 5.7812c-0.19922 0.19922-0.46094 0.30078-0.72266 0.30078-0.26172 0-0.52344-0.10156-0.72266-0.30078-0.39453-0.39453-0.39453-1.043 0.003907-1.4414zm-1.0938 8.9219h-9.7539c-0.5625 0-1.0195-0.45703-1.0195-1.0195s0.45703-1.0195 1.0195-1.0195h9.7539c0.5625 0 1.0195 0.45703 1.0195 1.0195 0 0.56641-0.45703 1.0195-1.0195 1.0195zm27.664-25.918c-2.8359 0-5.1445 2.3086-5.1445 5.1445s2.3086 5.1445 5.1445 5.1445 5.1445-2.3086 5.1445-5.1445c0-2.8398-2.3086-5.1445-5.1445-5.1445zm0 8.2461c-1.7109 0-3.1055-1.3945-3.1055-3.1055 0-1.7109 1.3945-3.1055 3.1055-3.1055s3.1055 1.3945 3.1055 3.1055c0 1.7148-1.3945 3.1055-3.1055 3.1055zm22.027-8.2461c-2.8359 0-5.1445 2.3086-5.1445 5.1445s2.3086 5.1445 5.1445 5.1445c2.8359 0 5.1445-2.3086 5.1445-5.1445 0-2.8398-2.3047-5.1445-5.1445-5.1445zm0 8.2461c-1.7109 0-3.1055-1.3945-3.1055-3.1055 0-1.7109 1.3945-3.1055 3.1055-3.1055 1.7109 0 3.1055 1.3945 3.1055 3.1055 0 1.7148-1.3906 3.1055-3.1055 3.1055zm-0.88672-9.6797h-20.254c-0.5625 0-1.0195-0.45703-1.0195-1.0195s0.45703-1.0195 1.0195-1.0195h20.254c0.5625 0 1.0195 0.45703 1.0195 1.0195s-0.45312 1.0195-1.0195 1.0195zm4.9961-22.758h-30.246c-1.4219 0-2.582 1.1562-2.582 2.582v13.926c0 1.4219 1.1562 2.582 2.582 2.582h30.246c1.4219 0 2.582-1.1562 2.582-2.582v-13.926c0-1.4219-1.1602-2.582-2.582-2.582zm0.54297 16.508c0 0.29297-0.24609 0.54297-0.54297 0.54297h-30.246c-0.29297 0-0.54297-0.24609-0.54297-0.54297v-13.926c0-0.29297 0.24609-0.54297 0.54297-0.54297h30.246c0.29297 0 0.54297 0.24609 0.54297 0.54297zm12.926-14.074h-1.8633v-1.0742c0-1.7148-1.3984-3.1133-3.1133-3.1133h-2.8867l0.003906-2.7148c0-0.41406-0.25-0.78516-0.63281-0.94141-1.7773-0.72656-3.7383-1.3438-5.8359-1.8516-0.007813 0-0.011719-0.003906-0.019532-0.003906-4.3008-1.0352-9.1797-1.5898-14.242-1.5898-5.0586 0-9.9375 0.55469-14.242 1.5898-0.007813 0-0.011719 0.003906-0.019532 0.003906-2.0977 0.50391-4.0586 1.1211-5.8359 1.8516-0.38281 0.15625-0.63281 0.52734-0.63281 0.94141v2.7109h-2.8867c-1.7148 0-3.1133 1.3984-3.1133 3.1133v1.0742h-1.8633c-0.5625 0-1.0195 0.45703-1.0195 1.0195v11.047c0 2.1523 1.75 3.9023 3.9023 3.9023h2.8828c0.5625 0 1.0195-0.45703 1.0195-1.0195v-13.93c0-0.5625-0.45703-1.0195-1.0195-1.0195h-1.8633v-1.0742c0-0.59375 0.48047-1.0742 1.0742-1.0742h2.8867v31.699c0 2.7148 1.582 5.0664 3.875 6.1797v4.5273c0 0.94141 0.52734 1.7578 1.2969 2.1797l-7.2695 36.562c-0.10938 0.55078 0.25 1.0898 0.80078 1.1992 0.066407 0.011719 0.13281 0.019531 0.19922 0.019531 0.47656 0 0.90234-0.33594 1-0.82031l7.2891-36.66h7.1484c1.3672 0 2.4805-1.1133 2.4805-2.4805v-3.8398h7.8164v3.8398c0 1.3672 1.1133 2.4805 2.4805 2.4805h7.1484l7.2891 36.66c0.097656 0.48437 0.52344 0.82031 1 0.82031 0.066406 0 0.13281-0.007812 0.19922-0.019531 0.55078-0.10938 0.91016-0.64453 0.80078-1.1992l-7.2695-36.562c0.77344-0.42188 1.2969-1.2383 1.2969-2.1797v-4.5273c2.293-1.1133 3.875-3.4648 3.875-6.1797l0.003906-31.699h2.8867c0.59375 0 1.0742 0.48047 1.0742 1.0742v1.0742h-1.8633c-0.5625 0-1.0195 0.45703-1.0195 1.0195v13.93c0 0.5625 0.45703 1.0195 1.0195 1.0195h2.8828c2.1523 0 3.9023-1.75 3.9023-3.9023v-11.047c-0.003906-0.5625-0.46094-1.0156-1.0234-1.0156zm-52.438 13.926h-1.8633c-1.0273 0-1.8633-0.83594-1.8633-1.8633v-10.027h3.7266zm36.871-21.816v1.0938c0 0.64844-0.52734 1.1758-1.1758 1.1758l-23.699-0.003906c-0.64844 0-1.1758-0.52734-1.1758-1.1758l0.003907-1.0898c3.9609-0.88672 8.4062-1.3594 13.023-1.3594s9.0625 0.47266 13.023 1.3594zm-18.973 48.148c0 0.23828-0.20312 0.44141-0.44141 0.44141h-7.9844c-0.23828 0-0.44141-0.20312-0.44141-0.44141v-3.9102c0.3125 0.042969 0.63281 0.066407 0.95703 0.066407h7.9141zm20.766 0c0 0.23828-0.20312 0.44141-0.44141 0.44141h-7.9844c-0.23828 0-0.44141-0.20312-0.44141-0.44141v-3.8398h7.9141c0.32422 0 0.64453-0.023437 0.95703-0.066406zm3.875-10.711c0 2.6641-2.168 4.832-4.832 4.832h-27.723c-2.6641 0-4.832-2.168-4.832-4.832l0.003907-35.758c1.1367-0.4375 2.3555-0.82812 3.6289-1.1758v0.58984c0 1.7695 1.4414 3.2109 3.2109 3.2109h23.699c1.7695 0 3.2109-1.4414 3.2109-3.2109v-0.58984c1.2734 0.34766 2.4922 0.73828 3.6289 1.1758zm8.8789-17.484c0 1.0273-0.83594 1.8633-1.8633 1.8633h-1.8633l0.003906-11.891h3.7266zm-34.727-5.0312c-0.39844-0.39844-0.39844-1.043 0-1.4414l4.7383-4.7383c0.39844-0.39844 1.043-0.39844 1.4414 0 0.39844 0.39844 0.39844 1.043 0 1.4414l-4.7383 4.7383c-0.19922 0.19922-0.46094 0.30078-0.72266 0.30078-0.25781 0-0.51953-0.10156-0.71875-0.30078zm11.969-6.7227c0.39844 0.39844 0.39844 1.043 0 1.4414l-11.074 11.074c-0.19922 0.19922-0.46094 0.30078-0.72266 0.30078s-0.52344-0.10156-0.72266-0.30078c-0.39844-0.39844-0.39844-1.043 0-1.4414l11.074-11.074c0.40234-0.39844 1.0469-0.39844 1.4453 0zm-3.793 74.102v4.7891c0 0.5625-0.45703 1.0195-1.0195 1.0195s-1.0195-0.45703-1.0195-1.0195v-4.7891c0-0.5625 0.45703-1.0195 1.0195-1.0195s1.0195 0.45703 1.0195 1.0195zm0-11.172v4.7891c0 0.5625-0.45703 1.0195-1.0195 1.0195s-1.0195-0.45703-1.0195-1.0195v-4.7891c0-0.5625 0.45703-1.0195 1.0195-1.0195s1.0195 0.45703 1.0195 1.0195zm0-11.172v4.7891c0 0.5625-0.45703 1.0195-1.0195 1.0195s-1.0195-0.45703-1.0195-1.0195v-4.7891c0-0.5625 0.45703-1.0195 1.0195-1.0195s1.0195 0.45703 1.0195 1.0195zm0-11.172v4.7891c0 0.5625-0.45703 1.0195-1.0195 1.0195s-1.0195-0.45703-1.0195-1.0195v-4.7891c0-0.5625 0.45703-1.0195 1.0195-1.0195s1.0195 0.45703 1.0195 1.0195z" fill="#7031ff"/>
</svg>
