<?xml version="1.0" encoding="UTF-8"?>
<svg width="1200pt" height="1200pt" version="1.1" viewBox="0 0 1200 1200" xmlns="http://www.w3.org/2000/svg">
 <path d="m600 200.02c-220.92 0-399.98 179.06-399.98 399.98s179.06 399.98 399.98 399.98 399.98-179.06 399.98-399.98-179.06-399.98-399.98-399.98zm-500.02 399.98c0-276.14 223.87-500.02 500.02-500.02s500.02 223.87 500.02 500.02-223.87 500.02-500.02 500.02-500.02-223.87-500.02-500.02z" fill="#60c" fill-rule="evenodd"/>
 <path d="m650.02 800.02c0 27.609-22.406 49.969-50.016 49.969s-50.016-22.359-50.016-49.969 22.406-50.016 50.016-50.016 50.016 22.406 50.016 50.016z" fill="#60c"/>
 <path d="m600 450c-27.609 0-50.016 22.406-50.016 50.016s-22.359 49.969-49.969 49.969-50.016-22.359-50.016-49.969c0-82.875 67.172-150 150-150s150 67.125 150 150c0 61.172-40.781 102.23-68.484 124.74-11.438 9.2812-23.062 17.297-31.5 23.062v14.672c0 27.609-22.406 50.016-50.016 50.016s-50.016-22.406-50.016-50.016v-37.5c0-16.781 7.9219-28.359 11.109-32.578 3.7969-5.1094 7.9219-8.9062 10.453-11.109 5.1562-4.4531 11.297-8.6719 15.75-11.766 1.7812-1.2188 3.5156-2.3906 5.2969-3.6094 8.625-5.8594 17.156-11.719 25.875-18.797 22.312-18.094 31.547-33.328 31.547-47.109 0-27.609-22.406-50.016-50.016-50.016z" fill="#60c" fill-rule="evenodd"/>
</svg>
