<?xml version="1.0" encoding="UTF-8"?>
<svg width="100pt" height="100pt" version="1.1" viewBox="0 0 100 100" xmlns="http://www.w3.org/2000/svg">
 <path d="m73.645 28.051c1.0625 0 2.0039-0.51953 2.5898-1.3125h6.3984c0.59375 0 1.0742-0.48047 1.0742-1.0742v-11.293c0-0.59375-0.48047-1.0742-1.0742-1.0742h-6.3984c-0.58594-0.79297-1.5273-1.3125-2.5898-1.3125h-1.6719v-4.0977c0-0.59375-0.48047-1.0742-1.0742-1.0742h-5.3711c-0.59375 0-1.0742 0.48047-1.0742 1.0742v4.0938h-1.6719c-1.0625 0-2.0039 0.51953-2.5898 1.3125h-20.832c-0.58594-0.79297-1.5273-1.3125-2.5898-1.3125h-1.6719v-4.0938c0-0.59375-0.48047-1.0742-1.0742-1.0742h-5.3711c-0.59375 0-1.0742 0.48047-1.0742 1.0742v4.0938h-1.6719c-1.0625 0-2.0039 0.51953-2.5898 1.3125l-6.3984 0.003906c-0.59375 0-1.0742 0.48047-1.0742 1.0742v11.297c0 0.59375 0.48047 1.0742 1.0742 1.0742h6.3984c0.58594 0.79297 1.5273 1.3125 2.5898 1.3125h1.6719v3.8945h-1.6719c-1.0625 0-2.0039 0.51953-2.5898 1.3125l-6.3984-0.003907c-0.59375 0-1.0742 0.48047-1.0742 1.0742v11.297c0 0.59375 0.48047 1.0742 1.0742 1.0742h6.3984c0.58594 0.79297 1.5273 1.3125 2.5898 1.3125h1.6719v3.8945h-1.6719c-1.0625 0-2.0039 0.51953-2.5898 1.3125h-6.3984c-0.59375 0-1.0742 0.48047-1.0742 1.0742v11.297c0 0.59375 0.48047 1.0742 1.0742 1.0742h6.3984c0.58594 0.79297 1.5273 1.3125 2.5898 1.3125h1.6719v3.8945h-1.6719c-1.0625 0-2.0039 0.51953-2.5898 1.3125l-6.3984-0.003906c-0.59375 0-1.0742 0.48047-1.0742 1.0742v11.297c0 0.59375 0.48047 1.0742 1.0742 1.0742h6.3984c0.58594 0.79297 1.5273 1.3125 2.5898 1.3125h1.6719v4.0938c0 0.59375 0.48047 1.0742 1.0742 1.0742h5.3711c0.59375 0 1.0742-0.48047 1.0742-1.0742v-4.0938h1.6719c1.0625 0 2.0039-0.51953 2.5898-1.3125h20.832c0.58594 0.79297 1.5273 1.3125 2.5898 1.3125h1.6719v4.0938c0 0.59375 0.48047 1.0742 1.0742 1.0742h5.3711c0.59375 0 1.0742-0.48047 1.0742-1.0742v-4.0938h1.6719c1.0625 0 2.0039-0.51953 2.5898-1.3125h6.3984c0.59375 0 1.0742-0.48047 1.0742-1.0742v-11.297c0-0.59375-0.48047-1.0742-1.0742-1.0742h-6.3984c-0.58594-0.79297-1.5273-1.3125-2.5898-1.3125h-1.6719v-3.8945h1.6719c1.0625 0 2.0039-0.51953 2.5898-1.3125h6.3984c0.59375 0 1.0742-0.48047 1.0742-1.0742v-11.297c0-0.59375-0.48047-1.0742-1.0742-1.0742h-6.3984c-0.58594-0.79297-1.5273-1.3125-2.5898-1.3125h-1.6719v-3.8945h1.6719c1.0625 0 2.0039-0.51953 2.5898-1.3125h6.3984c0.59375 0 1.0742-0.48047 1.0742-1.0742v-11.293c0-0.59375-0.48047-1.0742-1.0742-1.0742h-6.3984c-0.58594-0.79297-1.5273-1.3125-2.5898-1.3125h-1.6719v-3.8945zm3.2227-12.605h4.6914v9.1484h-4.6914zm-4.8945-1.3164h1.6719c0.59375 0 1.0742 0.48047 1.0742 1.0742v9.625c0 0.59375-0.48047 1.0742-1.0742 1.0742h-1.6719zm-49.289 10.461h-4.6914v-9.1445h4.6914zm0 19.965h-4.6914v-9.1484h4.6914zm0 19.961h-4.6914v-9.1484h4.6914zm0 19.965h-4.6914v-9.1484h4.6914zm4.8945 1.3125h-1.6719c-0.59375 0-1.0742-0.48047-1.0742-1.0742v-9.625c0-0.59375 0.48047-1.0742 1.0742-1.0742h1.6719zm0-19.961h-1.6719c-0.59375 0-1.0742-0.48047-1.0742-1.0742v-9.625c0-0.59375 0.48047-1.0742 1.0742-1.0742h1.6719zm0-19.965h-1.6719c-0.59375 0-1.0742-0.48047-1.0742-1.0742v-9.625c0-0.59375 0.48047-1.0742 1.0742-1.0742h1.6719zm0-19.965h-1.6719c-0.59375 0-1.0742-0.48047-1.0742-1.0742v-9.625c0-0.59375 0.48047-1.0742 1.0742-1.0742h1.6719zm5.3711 65.059h-3.2227v-82h3.2227zm7.043-75.516h19.566v9.1484h-19.566zm-4.8945-1.3164h1.6719c0.59375 0 1.0742 0.48047 1.0742 1.0742v9.625c0 0.59375-0.48047 1.0742-1.0742 1.0742h-1.6719zm0 19.965h1.6719c0.59375 0 1.0742 0.48047 1.0742 1.0742v9.625c0 0.59375-0.48047 1.0742-1.0742 1.0742h-1.6719zm0 19.965h1.6719c0.59375 0 1.0742 0.48047 1.0742 1.0742v9.625c0 0.59375-0.48047 1.0742-1.0742 1.0742h-1.6719zm2.7461 30.66c0 0.59375-0.48047 1.0742-1.0742 1.0742h-1.6719v-11.773h1.6719c0.59375 0 1.0742 0.48047 1.0742 1.0742zm21.715-0.23828h-19.566v-9.1484h19.566zm4.8945 1.3125h-1.6719c-0.59375 0-1.0742-0.48047-1.0742-1.0742v-9.625c0-0.59375 0.48047-1.0742 1.0742-1.0742h1.6719zm0-13.922h-1.6719c-1.0625 0-2.0039 0.51953-2.5898 1.3125h-20.832c-0.58594-0.79297-1.5273-1.3125-2.5898-1.3125h-1.6719v-3.8945h1.6719c1.0625 0 2.0039-0.51953 2.5898-1.3125h20.832c0.58594 0.79297 1.5273 1.3125 2.5898 1.3125h1.6719zm-24.461-7.3555v-9.1484h19.566v9.1484zm24.461 1.3164h-1.6719c-0.59375 0-1.0742-0.48047-1.0742-1.0742v-9.625c0-0.59375 0.48047-1.0742 1.0742-1.0742h1.6719zm0-13.922h-1.6719c-1.0625 0-2.0039 0.51953-2.5898 1.3125h-20.832c-0.58594-0.79297-1.5273-1.3125-2.5898-1.3125h-1.6719v-3.8945h1.6719c1.0625 0 2.0039-0.51953 2.5898-1.3125h20.832c0.58594 0.79297 1.5273 1.3125 2.5898 1.3125h1.6719zm-24.461-7.3555v-9.1484h19.566v9.1484zm24.461 1.3125h-1.6719c-0.59375 0-1.0742-0.48047-1.0742-1.0742v-9.625c0-0.59375 0.48047-1.0742 1.0742-1.0742h1.6719zm0-13.922h-1.6719c-1.0625 0-2.0039 0.51953-2.5898 1.3125h-20.832c-0.58594-0.79297-1.5273-1.3125-2.5898-1.3125h-1.6719v-3.8945h1.6719c1.0625 0 2.0039-0.51953 2.5898-1.3125h20.832c0.58594 0.79297 1.5273 1.3125 2.5898 1.3125h1.6719zm0-6.043h-1.6719c-0.59375 0-1.0742-0.48047-1.0742-1.0742v-9.625c0-0.59375 0.48047-1.0742 1.0742-1.0742h1.6719zm5.3711 65.059h-3.2227v-82h3.2227zm7.043-15.629h4.6914v9.1484h-4.6914zm-3.2227-1.3125c0.59375 0 1.0742 0.48047 1.0742 1.0742v9.625c0 0.59375-0.48047 1.0742-1.0742 1.0742h-1.6719v-11.773zm3.2227-18.648h4.6914v9.1484h-4.6914zm-3.2227-1.3125c0.59375 0 1.0742 0.48047 1.0742 1.0742v9.625c0 0.59375-0.48047 1.0742-1.0742 1.0742h-1.6719v-11.773zm3.2227-18.652h4.6914v9.1484h-4.6914zm-3.2227-1.3125c0.59375 0 1.0742 0.48047 1.0742 1.0742v9.625c0 0.59375-0.48047 1.0742-1.0742 1.0742h-1.6719v-11.773z" fill="#7031ff"/>
</svg>
