<?xml version="1.0" encoding="UTF-8"?>
<svg width="100pt" height="100pt" version="1.1" viewBox="0 0 100 100" xmlns="http://www.w3.org/2000/svg">
 <path d="m87.5 79.688h-7.8125v-26.562c0-2.5781-2.1094-4.6875-4.6875-4.6875h-12.5c-0.54688 0-1.0781 0.10938-1.5625 0.28125v-8.0938c0-2.5781-2.1094-4.6875-4.6875-4.6875h-12.5c-2.5781 0-4.6875 2.1094-4.6875 4.6875v17.469c-0.48438-0.17188-1.0156-0.28125-1.5625-0.28125h-12.5c-2.5781 0-4.6875 2.1094-4.6875 4.6875v17.188h-7.8125c-2.5781 0-4.6875 2.1094-4.6875 4.6875v3.125c0 2.5781 2.1094 4.6875 4.6875 4.6875h75c2.5781 0 4.6875-2.1094 4.6875-4.6875v-3.125c0-2.5781-2.1094-4.6875-4.6875-4.6875zm-25-28.125h12.5c0.85938 0 1.5625 0.70312 1.5625 1.5625v26.562h-15.625v-26.562c0-0.85938 0.70312-1.5625 1.5625-1.5625zm-20.312-10.938c0-0.85938 0.70312-1.5625 1.5625-1.5625h12.5c0.85938 0 1.5625 0.70312 1.5625 1.5625v39.062h-15.625zm-18.75 21.875c0-0.85938 0.70312-1.5625 1.5625-1.5625h12.5c0.85938 0 1.5625 0.70312 1.5625 1.5625v17.188h-15.625zm65.625 25c0 0.85938-0.70312 1.5625-1.5625 1.5625h-75c-0.85938 0-1.5625-0.70312-1.5625-1.5625v-3.125c0-0.85938 0.70312-1.5625 1.5625-1.5625h75c0.85938 0 1.5625 0.70312 1.5625 1.5625z" fill="#7031ff"/>
 <path d="m42.266 23.312-0.54688 6.6094c-0.046875 0.54688 0.20312 1.0781 0.64062 1.3906 0.4375 0.32812 1.0156 0.39062 1.5156 0.17188l6.1094-2.5625 6.125 2.5625c0.1875 0.078125 0.39062 0.125 0.60938 0.125 0.32812 0 0.64062-0.09375 0.92188-0.29688 0.4375-0.32812 0.6875-0.84375 0.64062-1.3906l-0.54688-6.6094 4.3281-5.0312c0.35938-0.40625 0.46875-0.98438 0.29688-1.5s-0.59375-0.90625-1.125-1.0312l-6.4531-1.5156-3.4375-5.6719c-0.5625-0.9375-2.1094-0.9375-2.6719 0l-3.4375 5.6719-6.4531 1.5156c-0.53125 0.125-0.95312 0.51562-1.125 1.0312s-0.046875 1.0938 0.29688 1.5l4.3281 5.0312zm4.3125-6.1875c0.40625-0.09375 0.76562-0.35938 0.96875-0.70312l2.4531-4.0312 2.4531 4.0312c0.21875 0.35938 0.5625 0.60938 0.96875 0.70312l4.5938 1.0781-3.0781 3.5781c-0.26562 0.3125-0.40625 0.73438-0.375 1.1406l0.39062 4.7031-4.3438-1.8281c-0.1875-0.078125-0.39062-0.125-0.60938-0.125s-0.40625 0.046875-0.60938 0.125l-4.3438 1.8281 0.39062-4.7031c0.03125-0.42188-0.09375-0.82812-0.375-1.1406l-3.0781-3.5781z" fill="#7031ff"/>
</svg>
