<?xml version="1.0" encoding="UTF-8"?>
<svg width="100pt" height="100pt" version="1.1" viewBox="0 0 100 100" xmlns="http://www.w3.org/2000/svg">
 <path d="m65.051 72.363c0.058594 0.007813 0.11328 0.015625 0.16797 0.023438 6.7969 0.95312 13.59-1.7891 17.82-7.1914 4.2305-5.4062 5.2656-12.656 2.707-19.027-2.5547-6.3711-8.3086-10.898-15.105-11.879-6.793-0.98437-13.594 1.7266-17.852 7.1133-4.2539 5.3867-5.3203 12.633-2.7891 19.016 2.5273 6.3828 8.2617 10.934 15.051 11.945zm-16.141 0.37891c-0.30078 0.011718-0.59375-0.10547-0.8125-0.3125-0.21484-0.21094-0.33594-0.5-0.33594-0.80078 0-0.30469 0.12109-0.59375 0.33594-0.80078 0.21875-0.21094 0.51172-0.32422 0.8125-0.31641h0.21875c0.60156 0.019531 1.082 0.51172 1.082 1.1172 0 0.60156-0.48047 1.0977-1.082 1.1133zm15.488-9.3438c-0.27734 0-0.27734 0.41797 0 0.41797 0.28125 0 0.28125-0.41797 0-0.41797zm-1.7266-1.5156h0.003906c0.64453-0.64453 1.5977-0.875 2.4688-0.59766l1.7305-1.7266v-2.9727l-2.2344-1.293-1.4531 1.4531c0.33984 1.0703-0.097656 2.2344-1.0547 2.8203-0.96094 0.58203-2.1953 0.43359-2.9922-0.36328-0.79297-0.79297-0.9375-2.0312-0.35156-2.9883 0.58594-0.95703 1.7539-1.3906 2.8203-1.0469l1.7266-1.7266v-3.1602l-1.7266-1.7266v0.003906c-1.0703 0.34375-2.2383-0.089844-2.8203-1.0508-0.58594-0.96094-0.44141-2.1992 0.35547-2.9922 0.79688-0.79688 2.0312-0.94141 2.9922-0.35547 0.96094 0.58594 1.3945 1.7539 1.0508 2.8242l1.4531 1.4531 1.0273-0.59375v-0.003906l1.7656-1.0195-0.003906-0.003906c0.34766-0.19922 0.77734-0.19531 1.125 0.011719l2.7812 1.6094 1.4492-1.4531h-0.003906c-0.34375-1.0742 0.089844-2.2422 1.0469-2.832 0.96094-0.58594 2.2031-0.44141 3 0.35156 0.79688 0.79688 0.94531 2.0352 0.35938 3-0.58203 0.96094-1.7539 1.3984-2.8242 1.0547l-1.7266 1.7266v2.9844l2.9727 1.7148v-0.003906c0.34375 0.19922 0.55469 0.56641 0.55469 0.96484v4.082c0 0.42578-0.24219 0.8125-0.625 1l-3.4648 2c-0.35156 0.19922-0.78125 0.19922-1.1289-0.007813l-2.7812-1.6094-1.4492 1.4531 0.003906 0.003907c0.26953 0.83984 0.0625 1.7578-0.53906 2.4062-0.60156 0.64453-1.5039 0.91797-2.3594 0.70703-0.85937-0.20703-1.5391-0.86328-1.7734-1.7109-0.23828-0.85156 0-1.7617 0.625-2.3867zm-1.8086-4.6055h0.003907c-0.25781 0.019531-0.25781 0.39844 0 0.41797 0.26172-0.019531 0.26172-0.39844 0-0.41797zm0-11.254h0.003907c-0.10938 0.007812-0.19531 0.10156-0.19531 0.21094 0 0.11328 0.085937 0.20312 0.19531 0.21094 0.11328-0.007812 0.19922-0.097656 0.19922-0.21094 0-0.10938-0.085937-0.20312-0.19922-0.21094zm14.238 0h0.003907c-0.085938 0-0.16016 0.054687-0.19141 0.13281s-0.015624 0.16797 0.046876 0.22656c0.082031 0.082032 0.21484 0.082032 0.30078 0 0.082031-0.082031 0.082031-0.21875 0-0.30078-0.042969-0.039062-0.097657-0.0625-0.15234-0.0625zm-6 10.562v2.8008l2.4219 1.3984 2.4219-1.3984v-2.8008l-2.4219-1.3984zm0.10156-6.8242-1.2109-0.69922-2.4219 1.3984v2.8008l2.4219 1.3945 2.4219-1.3984v-2.8008zm-35.469 24.449c-0.61719 0-1.1172-0.5-1.1172-1.1172 0-0.61328 0.5-1.1133 1.1172-1.1133h0.22266c0.61719 0 1.1172 0.5 1.1172 1.1133 0 0.61719-0.5 1.1172-1.1172 1.1172zm10.418 3.8984c-0.30078 0.007813-0.59375-0.10547-0.80859-0.3125-0.21484-0.21094-0.33594-0.5-0.33594-0.80078 0-0.30078 0.12109-0.58594 0.33594-0.79688 0.21484-0.21094 0.50781-0.32422 0.80859-0.3125h0.21875c0.30078-0.011719 0.59375 0.10156 0.80859 0.3125 0.21484 0.21094 0.33594 0.49609 0.33594 0.79688 0 0.30078-0.12109 0.58984-0.33594 0.80078-0.21484 0.20703-0.50781 0.32031-0.80859 0.3125zm-1.3008-12.855c-0.30078 0.007813-0.59375-0.10547-0.80859-0.31641-0.21875-0.21094-0.33984-0.5-0.33984-0.80078s0.12109-0.58984 0.33984-0.80078c0.21484-0.21094 0.50781-0.32422 0.80859-0.3125h0.21875c0.60547 0.015624 1.0859 0.51172 1.0859 1.1133 0 0.60547-0.48047 1.0977-1.0859 1.1172zm-2.543 6.5469c-0.61719 0-1.1133-0.5-1.1133-1.1172 0-0.61328 0.49609-1.1133 1.1133-1.1133h0.22266c0.61719 0 1.1172 0.5 1.1172 1.1133 0 0.61719-0.5 1.1172-1.1172 1.1172zm-9.7188-5.75c-0.30078 0.011719-0.59375-0.10156-0.80859-0.3125-0.21875-0.21094-0.33984-0.5-0.33984-0.80078 0-0.30469 0.12109-0.58984 0.33984-0.80078 0.21484-0.21094 0.50781-0.32422 0.80859-0.31641h0.21875c0.60156 0.019532 1.082 0.51172 1.082 1.1172 0 0.60156-0.48047 1.0977-1.082 1.1133zm53.102 1.957 10.434 17.617c1.707 2.8438 0.78125 6.5312-2.0625 8.2383s-6.5312 0.78125-8.2383-2.0625l-10.172-17.18c-3.7227 7.4531-10.297 13.082-18.234 15.613-7.9336 2.5273-16.555 1.7383-23.902-2.1836-7.3438-3.9258-12.793-10.656-15.102-18.656-2.3086-8.0039-1.2852-16.598 2.8398-23.836l-8.4922-7.6406-0.003907 0.003906c-1.207 1.1328-3.082 1.1562-4.3203 0.054687l-0.38281-0.35156c-1.3008-1.1797-1.4062-3.1875-0.23828-4.4961l8.4727-9.4219c1.1797-1.3047 3.1914-1.4102 4.5-0.23828l0.39063 0.34375v0.003906c1.1719 1.0625 1.3906 2.8203 0.51562 4.1367l8.5273 7.6719v0.003906c2.5117-1.7852 5.2734-3.1875 8.1992-4.1562v-17.852c-1.6562-0.49609-2.793-2.0195-2.8008-3.75v-0.69922c0.007812-2.1562 1.7539-3.9062 3.9141-3.9141h17.105c2.1602 0.003907 3.9102 1.7539 3.9102 3.9141v0.69922c-0.003906 1.7305-1.1367 3.2539-2.793 3.75v17.852c1.4648 0.48438 2.8945 1.0781 4.2695 1.7773 6.1133-2.4219 13.004-1.9219 18.699 1.3633 5.6992 3.2852 9.5859 8.9922 10.555 15.5 0.96484 6.5039-1.0898 13.098-5.5898 17.898zm-8.1523 5.4336 10.199 17.227h-0.003906c1.0859 1.7539 3.3711 2.3125 5.1445 1.2656 1.7695-1.0508 2.375-3.3281 1.3555-5.1172l-10.195-17.227c-1.9219 1.6562-4.125 2.9609-6.5 3.8516zm-16-34.582h-0.003906c5.1641-3.043 11.559-3.1055 16.777-0.16406 5.2227 2.9453 8.4805 8.4453 8.5508 14.438 0.074219 5.9922-3.0547 11.57-8.2031 14.637-5.1484 3.0625-11.543 3.1562-16.777 0.23828-5.2344-2.9219-8.5156-8.4062-8.6172-14.398-0.097656-5.9922 3.0039-11.582 8.1406-14.672 0.039062-0.03125 0.082031-0.054688 0.12891-0.078125zm12.035 0.38281c-3.7227-0.95313-7.668-0.38672-10.973 1.5703-3.3047 1.957-5.6953 5.1484-6.6484 8.8672-0.95312 3.7227-0.38672 7.668 1.5703 10.973 1.957 3.3047 5.1445 5.6953 8.8672 6.6484 3.7188 0.95312 7.668 0.38672 10.973-1.5703 3.3008-1.957 5.6953-5.1484 6.6484-8.8672 0.94922-3.7227 0.38281-7.668-1.5742-10.969-1.957-3.3047-5.1445-5.6992-8.8633-6.6523zm-6.0742 35.418c-4 5.5938-10.223 9.1875-17.062 9.8633-6.8438 0.67969-13.648-1.6289-18.664-6.332-5.0195-4.6992-7.7695-11.336-7.5391-18.211 0.019531-0.53906 0.42188-0.98828 0.95703-1.0625 3.25-0.51172 6.543-0.69141 9.8281-0.53516 1.9336 0.15625 3.875 0.015626 5.7656-0.41016 2.5391-0.59375 4.9961-1.5 7.3164-2.6953 0.13672-0.070313 0.27734-0.12891 0.42188-0.18359-0.34766-4.1172 0.49609-8.25 2.4336-11.906 1.9336-3.6523 4.8789-6.668 8.4844-8.6953-0.99609-0.42969-2.0156-0.80469-3.0547-1.1133-0.50391-0.12109-0.85547-0.57031-0.85547-1.0859v-18.5h-14.883v18.5c0 0.49219-0.32813 0.92578-0.80078 1.0625-3.2539 0.98047-6.3047 2.5352-9.0156 4.5859-0.42578 0.32812-1.0273 0.30859-1.4336-0.050781l-9.1758-8.2578-5.9766 6.6445 9.1602 8.2422c0.39453 0.35938 0.47656 0.94531 0.20312 1.3984-3.9922 6.582-5.1641 14.492-3.2578 21.945 1.9102 7.457 6.7383 13.828 13.402 17.68 6.6602 3.8516 14.594 4.8633 22.008 2.7969 7.4141-2.0625 13.684-7.0234 17.395-13.766-1.875 0.28125-3.7812 0.30859-5.6641 0.085937zm-18.664-17.273c-2.3906 1.2109-4.9141 2.1328-7.5234 2.7461-3.1992 0.79297-5.6328 0.42969-8.9883 0.42969-1.9688 0.019531-3.9336 0.16406-5.8828 0.42969 0.0625 6.0039 2.6133 11.707 7.0469 15.758 4.4297 4.0469 10.34 6.0742 16.324 5.5977 5.9844-0.47656 11.5-3.418 15.23-8.1172-4.0352-0.94922-7.7109-3.0469-10.586-6.0312-2.875-2.9883-4.8281-6.7422-5.6211-10.812zm-30.891-32.188-8.4805 9.418c-0.35156 0.39453-0.32031 1 0.074218 1.3555 0.34375 0.30469 0.60156 0.61719 1.082 0.58984 0.27344-0.011719 0.52734-0.14453 0.69922-0.35547l7.9922-8.8945c0.36328-0.39844 0.71484-0.67578 0.68359-1.1797-0.023438-0.48437-0.35156-0.69531-0.69922-1.0117h0.003906c-0.39453-0.35156-1-0.31641-1.3555 0.074218zm38.699-17.707h-17.109c-0.93359 0.003906-1.6836 0.75781-1.6875 1.6875v0.69922c0.003906 0.92969 0.75781 1.6797 1.6875 1.6836h17.105c0.92578-0.003906 1.6797-0.75391 1.6836-1.6836 0-0.73438 0.078125-1.3164-0.5-1.8906-0.3125-0.31641-0.74219-0.49609-1.1875-0.5z" fill="#7031ff"/>
</svg>
