<?xml version="1.0" encoding="UTF-8"?>
<svg width="100pt" height="100pt" version="1.1" viewBox="0 0 100 100" xmlns="http://www.w3.org/2000/svg">
 <path d="m38.484 89.062h-12.703c-3.4453 0-6.25-2.8047-6.25-6.25v-44.281c0-0.86328 0.69922-1.5625 1.5625-1.5625s1.5625 0.69922 1.5625 1.5625v44.281c0 1.7227 1.4023 3.125 3.125 3.125h12.703c0.86328 0 1.5625 0.69922 1.5625 1.5625s-0.69922 1.5625-1.5625 1.5625z" fill="#e7e7e7" stroke="#e7e7e7" stroke-width="1"/>
 <path d="m78.906 53.062c-0.86328 0-1.5625-0.69922-1.5625-1.5625v-22.32l-15.117-15.117h-31.023c-0.86328 0-1.5625-0.69922-1.5625-1.5625s0.69922-1.5625 1.5625-1.5625h31.672c0.41406 0 0.8125 0.16406 1.1055 0.45703l16.031 16.031c0.29297 0.29297 0.45703 0.69141 0.45703 1.1055v22.969c0 0.86328-0.69922 1.5625-1.5625 1.5625z" fill="#e7e7e7" stroke="#e7e7e7" stroke-width="1"/>
 <path d="m74.219 89.062h-18.547c-0.86328 0-1.5625-0.69922-1.5625-1.5625s0.69922-1.5625 1.5625-1.5625h18.547c0.86328 0 1.5625 0.69922 1.5625 1.5625s-0.69922 1.5625-1.5625 1.5625z" fill="#e7e7e7" stroke="#e7e7e7" stroke-width="1"/>
 <path d="m78.906 30.094h-11.344c-3.4453 0-6.25-2.8047-6.25-6.25v-11.344c0-0.86328 0.69922-1.5625 1.5625-1.5625s1.5625 0.69922 1.5625 1.5625v11.344c0 1.7227 1.4023 3.125 3.125 3.125h11.344c0.86328 0 1.5625 0.69922 1.5625 1.5625s-0.69922 1.5625-1.5625 1.5625z" fill="#e7e7e7" stroke="#e7e7e7" stroke-width="1"/>
 <path d="m36.539 48.996h-7.2891c-0.86328 0-1.5625-0.69922-1.5625-1.5625v-7.2891c0-0.86328 0.69922-1.5625 1.5625-1.5625h7.2891c0.86328 0 1.5625 0.69922 1.5625 1.5625v7.2891c0 0.86328-0.69922 1.5625-1.5625 1.5625zm-5.7266-3.125h4.1641v-4.1641h-4.1641z" fill="#e7e7e7" stroke="#e7e7e7" stroke-width="1"/>
 <path d="m58.523 43.215h-15.961c-0.86328 0-1.5625-0.69922-1.5625-1.5625 0-0.86328 0.69922-1.5625 1.5625-1.5625h15.961c0.86328 0 1.5625 0.69922 1.5625 1.5625 0 0.86328-0.69922 1.5625-1.5625 1.5625z" fill="#e7e7e7" stroke="#e7e7e7" stroke-width="1"/>
 <path d="m50.641 47.492h-8.0781c-0.86328 0-1.5625-0.69922-1.5625-1.5625 0-0.86328 0.69922-1.5625 1.5625-1.5625h8.0781c0.86328 0 1.5625 0.69922 1.5625 1.5625 0 0.86328-0.69922 1.5625-1.5625 1.5625z" fill="#e7e7e7" stroke="#e7e7e7" stroke-width="1"/>
 <path d="m36.539 63.398h-7.2891c-0.86328 0-1.5625-0.69922-1.5625-1.5625v-7.2891c0-0.86328 0.69922-1.5625 1.5625-1.5625h7.2891c0.86328 0 1.5625 0.69922 1.5625 1.5625v7.2891c0 0.86328-0.69922 1.5625-1.5625 1.5625zm-5.7266-3.125h4.1641v-4.1641h-4.1641z" fill="#e7e7e7" stroke="#e7e7e7" stroke-width="1"/>
 <path d="m58.523 57.613h-15.961c-0.86328 0-1.5625-0.69922-1.5625-1.5625s0.69922-1.5625 1.5625-1.5625h15.961c0.86328 0 1.5625 0.69922 1.5625 1.5625s-0.69922 1.5625-1.5625 1.5625z" fill="#e7e7e7"/>
 <path d="m50.641 61.891h-8.0781c-0.86328 0-1.5625-0.69922-1.5625-1.5625s0.69922-1.5625 1.5625-1.5625h8.0781c0.86328 0 1.5625 0.69922 1.5625 1.5625s-0.69922 1.5625-1.5625 1.5625z" fill="#e7e7e7"/>
 <path d="m36.539 77.797h-7.2891c-0.86328 0-1.5625-0.69922-1.5625-1.5625v-7.2891c0-0.86328 0.69922-1.5625 1.5625-1.5625h7.2891c0.86328 0 1.5625 0.69922 1.5625 1.5625v7.2891c0 0.86328-0.69922 1.5625-1.5625 1.5625zm-5.7266-3.125h4.1641v-4.1641h-4.1641z" fill="#e7e7e7" stroke="#e7e7e7" stroke-width="1"/>
 <path d="m46.805 72.012h-4.2422c-0.86328 0-1.5625-0.69922-1.5625-1.5625s0.69922-1.5625 1.5625-1.5625h4.2422c0.86328 0 1.5625 0.69922 1.5625 1.5625s-0.69922 1.5625-1.5625 1.5625z" fill="#e7e7e7"/>
 <path d="m44.535 76.293h-1.9688c-0.86328 0-1.5625-0.69922-1.5625-1.5625s0.69922-1.5625 1.5625-1.5625h1.9688c0.86328 0 1.5625 0.69922 1.5625 1.5625s-0.69922 1.5625-1.5625 1.5625z" fill="#e7e7e7"/>
 <path d="m21.094 40.102c-0.29688 0-0.59375-0.085937-0.85156-0.25391l-6.5078-4.2344c-4.6836-3.0273-7.4844-8.1836-7.4844-13.797v-7.8281c0-0.60547 0.35156-1.1602 0.89844-1.4141l13.281-6.2109c0.42187-0.19531 0.90234-0.19531 1.3242 0l13.281 6.2109c0.55078 0.25781 0.89844 0.80859 0.89844 1.4141v7.8281c0 5.6133-2.8008 10.773-7.4883 13.801l-6.5039 4.2305c-0.25781 0.16797-0.55469 0.25391-0.85156 0.25391zm-11.719-25.117v6.832c0 4.5469 2.2656 8.7227 6.0586 11.176l5.6602 3.6797 5.6562-3.6797c3.7969-2.4531 6.0625-6.6289 6.0625-11.176v-6.832l-11.719-5.4766z" fill="#e7e7e7"/>
 <path d="m19.805 26.812c-0.39844 0-0.80078-0.15234-1.1055-0.45703l-4.1445-4.1445c-0.60938-0.60938-0.60938-1.5977 0-2.2109 0.60937-0.60938 1.5977-0.60938 2.2109 0l3.0391 3.0391 5.6211-5.6211c0.60938-0.60938 1.5977-0.60938 2.2109 0 0.60938 0.60938 0.60938 1.6016 0 2.2109l-6.7266 6.7266c-0.30469 0.30469-0.70312 0.45703-1.1055 0.45703z" fill="#e7e7e7"/>
 <path d="m77.109 93.75h-34.004c-0.57812 0-1.1094-0.32031-1.3789-0.82812-0.27344-0.50781-0.23828-1.1289 0.085938-1.6055l3.1602-4.6875c0.28906-0.42969 0.77734-0.6875 1.2969-0.6875h27.953c0.54297 0 1.0469 0.28125 1.332 0.74219l2.8906 4.6875c0.29688 0.48047 0.30859 1.0859 0.03125 1.582-0.27734 0.49609-0.79687 0.80078-1.3633 0.80078zm-31.062-3.125h28.266l-0.96094-1.5625h-26.25z" fill="#e7e7e7"/>
 <path d="m88.359 93.746h-0.14062c-1.4922-0.039063-2.8633-0.66797-3.8633-1.7734l-14.871-16.527-1.8711 1.8711 0.66016 0.66016c0.29297 0.29297 0.45703 0.69141 0.45703 1.1055 0 0.41406-0.16406 0.8125-0.46094 1.1055l-3.4688 3.4531c-0.60938 0.60938-1.5938 0.60547-2.207 0l-11.906-11.891c-0.29297-0.29297-0.45703-0.69141-0.45703-1.1055 0-0.41406 0.16406-0.8125 0.45703-1.1055l3.4688-3.4688c0.60938-0.60937 1.5977-0.60937 2.2109 0l0.66016 0.66016 9.6875-9.6992-0.65625-0.66016c-0.60547-0.60938-0.60547-1.5977 0.003906-2.2031l3.4688-3.4688c0.29297-0.29297 0.6875-0.45703 1.1055-0.45703 0.41406 0 0.8125 0.16406 1.1055 0.45703l11.891 11.906c0.60938 0.60938 0.60938 1.5938 0 2.207l-3.4531 3.4688c-0.29297 0.29297-0.69141 0.46094-1.1055 0.46094-0.41406 0-0.8125-0.16406-1.1055-0.45703l-0.66016-0.66016-1.8711 1.8711 16.527 14.867c1.1094 1.0039 1.7383 2.375 1.7773 3.8672 0.039062 1.4922-0.52344 2.8945-1.5781 3.9492-1.0195 1.0195-2.3672 1.5781-3.8086 1.5781zm2.7031-2.6836h0.015625zm-21.516-19.453h0.039063c0.42969 0.011719 0.83203 0.19531 1.1211 0.51562l15.969 17.75c0.41797 0.46094 0.99609 0.72656 1.6211 0.74219 0.63281 0.035156 1.2188-0.21875 1.6602-0.66406 0.44141-0.44141 0.67969-1.0312 0.66406-1.6602-0.015625-0.625-0.28125-1.2031-0.74609-1.625l-17.746-15.965c-0.32031-0.28906-0.50391-0.69141-0.51562-1.1211-0.011719-0.42969 0.15625-0.84375 0.45703-1.1445l4.1406-4.1406c0.29297-0.29297 0.6875-0.45703 1.1055-0.45703 0.41406 0 0.8125 0.16406 1.1055 0.45703l0.65625 0.65625 1.25-1.2539-9.6836-9.6992-1.2656 1.2656 0.65625 0.66016c0.60547 0.60938 0.60547 1.5938-0.003906 2.2031l-11.891 11.906c-0.29297 0.29297-0.69141 0.45703-1.1055 0.45703-0.41406 0-0.8125-0.16406-1.1055-0.45703l-0.66016-0.66016-1.2578 1.2578 9.6953 9.6836 1.2578-1.25-0.65625-0.65625c-0.60938-0.60938-0.60938-1.5977 0-2.2109l4.1406-4.1406c0.29297-0.29297 0.69141-0.45703 1.1055-0.45703z" fill="#e7e7e7" stroke="#e7e7e7" stroke-width="1"/>
 <path d="m65.406 78.875c-0.39844 0-0.80078-0.15234-1.1055-0.45703l-8.3828-8.3828c-0.60938-0.60938-0.60938-1.6016 0-2.2109s1.5977-0.60938 2.2109 0l8.3828 8.3828c0.60938 0.60938 0.60938 1.6016 0 2.2109-0.30469 0.30469-0.70312 0.45703-1.1055 0.45703z" fill="#e7e7e7" stroke="#e7e7e7" stroke-width="1"/>
 <path d="m77.312 66.973c-0.39844 0-0.80078-0.15234-1.1055-0.45703l-8.3828-8.3828c-0.60938-0.60937-0.60938-1.6016 0-2.2109s1.5977-0.60938 2.2109 0l8.3828 8.3828c0.60938 0.60937 0.60938 1.6016 0 2.2109-0.30469 0.30469-0.70312 0.45703-1.1055 0.45703z" fill="#e7e7e7" stroke="#e7e7e7" stroke-width="1"/>
</svg>
