<?xml version="1.0" encoding="UTF-8"?>
<svg width="100pt" height="100pt" version="1.1" viewBox="0 0 100 100" xmlns="http://www.w3.org/2000/svg">
 <path d="m31.07 63.93c0.070313-0.48047 0.48438-0.82422 0.95703-0.81641l0.054687-0.003906c0.35547-0.019531 0.65234-0.035156 1.1367 0.12891 0.59766 0.20312 1.1094 0.58594 1.6211 0.97266 0.38672 0.28906 0.77344 0.57812 1.0898 0.6875 0.35547 0.12109 0.63281 0.17969 0.89062 0.17969 0.25781 0 0.53516-0.058594 0.89063-0.17969 0.30078-0.10156 0.68359-0.40625 1.0664-0.71094 0.51172-0.40625 1.0273-0.81641 1.6445-1.0234 0.5625-0.19141 1.0234-0.28516 1.5039-0.28516s0.94141 0.09375 1.5039 0.28516c0.61719 0.21094 1.1289 0.61719 1.6445 1.0234 0.38281 0.30469 0.76562 0.60547 1.0664 0.71094 0.35547 0.12109 0.63281 0.17969 0.89062 0.17969s0.53516-0.058594 0.89062-0.17969c0.30078-0.10156 0.68359-0.40625 1.0664-0.71094 0.51172-0.40625 1.0273-0.81641 1.6445-1.0234 0.22266-0.074218 0.43359-0.125 0.64453-0.15234 0.17969-0.027344 0.36328-0.035157 0.53906-0.035157 0.20703-0.007812 0.41406-0.003906 0.61719 0.019532 0.21094 0.027344 0.42969 0.070312 0.66406 0.14844 0.35156 0.10156 0.62891 0.39844 0.68359 0.78125 0.039062 0.27344 0.070312 0.55078 0.089844 0.83594 0.019531 0.28906 0.03125 0.57031 0.03125 0.83594 0 3.1719-1.2852 6.0391-3.3633 8.1172-2.0781 2.0781-4.9492 3.3633-8.1172 3.3633-3.1719 0-6.0391-1.2852-8.1172-3.3633-2.0781-2.0781-3.3633-4.9453-3.3633-8.1172 0-0.26953 0.011719-0.55078 0.03125-0.83594 0.023438-0.27734 0.054688-0.55859 0.097656-0.83203zm55.109-24.246c0.027343-0.18359 0.10547-0.34766 0.21875-0.48047l-34.141-23.961c-0.69141-0.48438-1.4766-0.72656-2.2578-0.72656-0.78516 0-1.5664 0.24219-2.2578 0.72656l-34.141 23.965c0.11328 0.13281 0.19141 0.29297 0.21875 0.48047l6.1094 40.059c0.25391 1.6641 0.95312 3.1758 2.0117 4.2383 0.92969 0.92969 2.1523 1.5078 3.6016 1.5078h48.918c1.4492 0 2.6719-0.57813 3.6016-1.5078 1.0586-1.0586 1.7578-2.5742 2.0117-4.2383zm1.8359 0.65625 7.3555 5.1602c0.42969 0.30469 1.0273 0.19922 1.332-0.23047 0.30469-0.42969 0.19922-1.0273-0.23047-1.332l-43.109-30.262c-1.0234-0.71875-2.1914-1.0781-3.3555-1.0781-1.168 0-2.332 0.35938-3.3555 1.0781l-43.121 30.262c-0.42969 0.30469-0.53516 0.89844-0.23047 1.332 0.30469 0.42969 0.89844 0.53516 1.332 0.23047l7.3555-5.1602 6.0508 39.688c0.3125 2.0586 1.1992 3.957 2.5508 5.3047 1.2773 1.2773 2.957 2.0664 4.9531 2.0664h48.918c1.9961 0 3.6758-0.79297 4.9531-2.0664 1.3516-1.3516 2.2344-3.2461 2.5508-5.3047zm-46.07-2.8672h-4.6328c-0.86328 0-1.6484 0.35156-2.2148 0.91797s-0.91797 1.3516-0.91797 2.2148 0.35156 1.6484 0.91797 2.2148c0.39453 0.39453 0.89453 0.6875 1.4531 0.82422v8.0859c-2.6211 1.1172-4.8594 2.957-6.4609 5.2656-1.6836 2.4258-2.668 5.3672-2.668 8.5391 0 4.1445 1.6797 7.8945 4.3945 10.609 2.7148 2.7148 6.4648 4.3945 10.609 4.3945s7.8945-1.6797 10.609-4.3945c2.7148-2.7148 4.3945-6.4648 4.3945-10.609 0-3.1719-0.98828-6.1133-2.668-8.5391-1.6055-2.3125-3.8398-4.1523-6.4609-5.2656v-8.0859c0.55859-0.14062 1.0586-0.42969 1.4531-0.82422 0.56641-0.56641 0.91797-1.3516 0.91797-2.2148s-0.35156-1.6484-0.91797-2.2148-1.3516-0.91797-2.2148-0.91797h-3.6797v-0.42969c0-0.34375 0.14062-0.65625 0.36719-0.88281 0.22656-0.22656 0.53906-0.36719 0.88281-0.36719h15.258c0.34375 0 0.65625 0.14062 0.88281 0.36719 0.22656 0.22656 0.36719 0.53906 0.36719 0.88281v3.9297h-2.9414c-0.52734 0-0.95703 0.42969-0.95703 0.95703v3.2422c0 0.52734 0.42969 0.95703 0.95703 0.95703h0.13672v5.0547h-1.7852c-0.52734 0-0.95703 0.42969-0.95703 0.95703s0.42969 0.95703 0.95703 0.95703h1.7852v14.242c0 1.0352 0.42188 1.9766 1.1055 2.6562 0.67969 0.67969 1.6211 1.1016 2.6562 1.1016 1.0352 0 1.9766-0.42188 2.6562-1.1016 0.67969-0.67969 1.1016-1.6211 1.1016-2.6562l-0.003906-14.246h2.1406v19.984l-11.293 0.003906c-0.52734 0-0.95703 0.42969-0.95703 0.95703v3.2578c0 0.52734 0.42969 0.95703 0.95703 0.95703h14.266c0.52734 0 0.95703-0.42969 0.95703-0.95703v-3.2578c0-0.52734-0.42969-0.95703-0.95703-0.95703h-1.0625l0.003906-19.988h1.2383c0.52734 0 0.95703-0.42969 0.95703-0.95703 0-0.52734-0.42969-0.95703-0.95703-0.95703h-1.2383v-3.3047c0-0.52734-0.42969-0.95703-0.95703-0.95703-0.52734 0-0.95703 0.42969-0.95703 0.95703v3.3047h-2.1406v-5.0547h0.13672c0.52734 0 0.95703-0.42969 0.95703-0.95703v-3.2422c0-0.52734-0.42969-0.95703-0.95703-0.95703h-2.9414v-3.9297c0-0.87109-0.35547-1.6641-0.92969-2.2344-0.57422-0.57422-1.3633-0.92969-2.2344-0.92969l-15.254 0.003906c-0.87109 0-1.6641 0.35547-2.2344 0.92969-0.57422 0.57422-0.92578 1.3633-0.92578 2.2344zm22.473 15.621v14.242c0 0.50781-0.20703 0.96875-0.54297 1.3047s-0.79688 0.54297-1.3047 0.54297c-0.50781 0-0.96875-0.20703-1.3047-0.54297s-0.54297-0.79688-0.54297-1.3047v-1.8008h0.39844c0.52734 0 0.95703-0.42969 0.95703-0.95703s-0.42969-0.95703-0.95703-0.95703h-0.39844v-0.71484h0.39844c0.52734 0 0.95703-0.42969 0.95703-0.95703 0-0.52734-0.42969-0.95703-0.95703-0.95703h-0.39844v-0.71484h0.39844c0.52734 0 0.95703-0.42969 0.95703-0.95703 0-0.52734-0.42969-0.95703-0.95703-0.95703h-0.39844v-0.71484h0.39844c0.52734 0 0.95703-0.42969 0.95703-0.95703s-0.42969-0.95703-0.95703-0.95703h-0.39844v-2.6406l3.6953 0.003906zm-3.6953-1.9141v-2.1836h0.39844c0.52734 0 0.95703-0.42969 0.95703-0.95703 0-0.52734-0.42969-0.95703-0.95703-0.95703h-0.39844v-0.95703h3.6914v5.0547l-3.6914 0.003906zm9.7656 23.812v1.3438l-12.355 0.003906v-1.3438h11.289zm-10.859-30.777v-1.332h5.8828v1.332zm-12.273 18.125c-0.10156 0-0.19141-0.039063-0.25391-0.10547l-0.003906 0.003906-0.003906-0.003906c-0.0625-0.0625-0.10156-0.15234-0.10156-0.25391 0-0.10156 0.039062-0.19141 0.10156-0.25391l0.003906-0.003906c0.0625-0.0625 0.15234-0.10156 0.25391-0.10156 0.089844 0 0.16797 0.027344 0.23047 0.078125l0.027344 0.027343c0.066406 0.066407 0.10547 0.15625 0.10547 0.25391 0 0.10156-0.039063 0.19141-0.10547 0.25391-0.0625 0.066406-0.15234 0.10547-0.25391 0.10547zm1.6094 1.25c0.41016-0.41016 0.66406-0.98047 0.66406-1.6055 0-0.62891-0.25391-1.1953-0.66406-1.6055-0.023438-0.023437-0.046875-0.042968-0.070313-0.066406-0.40625-0.375-0.94531-0.60156-1.5352-0.60156-0.62109 0-1.1914 0.25391-1.6016 0.66406l-0.007812 0.007812c-0.41016 0.41406-0.66406 0.98047-0.66406 1.6016 0 0.625 0.25391 1.1914 0.66797 1.6055l-0.003906 0.003906c0.41016 0.41016 0.98047 0.66406 1.6055 0.66406 0.62891-0.003906 1.1953-0.25781 1.6094-0.66797zm-11.887-2.207c-0.10156 0-0.19141-0.039062-0.25391-0.10547l-0.003907 0.003906-0.003906-0.003906c-0.0625-0.0625-0.10156-0.15234-0.10156-0.25391 0-0.10156 0.039062-0.19141 0.10156-0.25391l0.003906-0.003906c0.0625-0.0625 0.15234-0.10156 0.25391-0.10156 0.089843 0 0.16797 0.027344 0.22656 0.078126l0.027344 0.027343c0.066406 0.066407 0.10547 0.15625 0.10547 0.25391 0 0.10156-0.039063 0.19141-0.10547 0.25391-0.058594 0.066406-0.14844 0.10547-0.25 0.10547zm1.6055 1.25c0.41016-0.41016 0.66406-0.98047 0.66406-1.6055 0-0.62891-0.25391-1.1953-0.66406-1.6055-0.023438-0.023437-0.046875-0.042969-0.070313-0.066406-0.40625-0.37109-0.94531-0.60156-1.5352-0.60156-0.62109 0-1.1914 0.25391-1.6055 0.66406l-0.007812 0.007812c-0.41016 0.41406-0.66406 0.98047-0.66406 1.6016 0 0.625 0.25391 1.1914 0.66797 1.6055l-0.003906 0.003907c0.41016 0.41016 0.98047 0.66406 1.6055 0.66406 0.63672-0.003906 1.2031-0.25781 1.6133-0.66797zm-5.8164 2.5352c-0.007813 0.14062-0.007813 0.28516-0.007813 0.4375 0 2.6445 1.0703 5.0352 2.8008 6.7656 1.7305 1.7305 4.1211 2.8008 6.7656 2.8008s5.0352-1.0703 6.7656-2.8008c1.7305-1.7305 2.8008-4.1211 2.8008-6.7656 0-0.24609-0.007813-0.48047-0.023438-0.70312v-0.015625c-0.027344 0-0.058594 0-0.085938 0.003906h-0.050781c-0.089843 0-0.18359 0.003906-0.28906 0.019531-0.089844 0.011719-0.1875 0.035156-0.29297 0.070313-0.30078 0.10156-0.68359 0.40625-1.0664 0.71094-0.51172 0.40625-1.0273 0.81641-1.6445 1.0234-0.5625 0.19141-1.0234 0.28516-1.5039 0.28516-0.48047 0-0.94531-0.097656-1.5039-0.28516-0.61719-0.21094-1.1289-0.61719-1.6445-1.0234-0.38281-0.30469-0.76562-0.60547-1.0664-0.71094-0.35547-0.12109-0.63281-0.17969-0.89062-0.17969-0.25781 0-0.53516 0.058594-0.89063 0.17969-0.30078 0.10156-0.68359 0.40625-1.0664 0.71094-0.51172 0.40625-1.0273 0.81641-1.6445 1.0234-0.5625 0.19141-1.0234 0.28516-1.5039 0.28516s-0.94531-0.097656-1.5039-0.28516c-0.59766-0.20312-1.1094-0.58594-1.6211-0.97266-0.28906-0.21875-0.57422-0.43359-0.83203-0.57422zm10.508-9.207c-0.1875 0-0.35938-0.074219-0.48047-0.19922-0.12109-0.125-0.19922-0.29297-0.19922-0.48438 0-0.1875 0.074219-0.35938 0.19922-0.48438 0.12109-0.12109 0.29297-0.19922 0.48047-0.19922s0.35938 0.074219 0.48438 0.19922 0.19922 0.29297 0.19922 0.48438c0 0.1875-0.074219 0.35938-0.19922 0.48438-0.125 0.12109-0.29297 0.19922-0.48438 0.19922zm1.8359 1.1523c-0.46875 0.46875-1.1172 0.76172-1.8359 0.76172-0.71484 0-1.3672-0.28906-1.8359-0.76172-0.46875-0.46875-0.76172-1.1172-0.76172-1.8359 0-0.71484 0.28906-1.3672 0.76172-1.8359 0.46875-0.46875 1.1172-0.76172 1.8359-0.76172 0.71484 0 1.3672 0.28906 1.8359 0.76172 0.46875 0.46875 0.76172 1.1172 0.76172 1.8359s-0.29297 1.3672-0.76172 1.8359zm-7.8984-15.289c-0.33594 0-0.64062-0.13672-0.86328-0.35938-0.22266-0.22266-0.35938-0.52734-0.35938-0.86328 0-0.33594 0.13672-0.64062 0.35938-0.86328 0.22266-0.22266 0.52734-0.35938 0.86328-0.35938h10.227c0.33594 0 0.64063 0.13672 0.86328 0.35938 0.22266 0.22266 0.35938 0.52734 0.35938 0.86328 0 0.33594-0.13672 0.64063-0.35938 0.86328s-0.52734 0.35938-0.86328 0.35938zm1.1562 10.551c0 0.44141-0.29688 0.80859-0.69922 0.92188-2.4883 0.94531-4.6133 2.6328-6.1055 4.7852-1.4648 2.1133-2.3242 4.6836-2.3242 7.457 0 3.6133 1.4648 6.8867 3.8359 9.2578 2.3672 2.3672 5.6406 3.832 9.2578 3.832 3.6133 0 6.8867-1.4648 9.2578-3.832 2.3672-2.3672 3.8359-5.6406 3.8359-9.2578 0-2.7734-0.85938-5.3398-2.3242-7.457-1.4961-2.1523-3.6211-3.8398-6.1055-4.7852-0.40234-0.11328-0.69922-0.48047-0.69922-0.92188v-8.6367h-7.918z" fill="#7031ff" fill-rule="evenodd"/>
</svg>
