<?xml version="1.0" encoding="UTF-8"?>
<svg width="100pt" height="100pt" version="1.1" viewBox="0 0 100 100" xmlns="http://www.w3.org/2000/svg">
 <path 
   d="m18.574 41.801c0-0.60938 0.49609-1.1055 1.1055-1.1055h8.9609c0.60938 0 1.1055 0.49609 1.1055 1.1055s-0.49609 1.1055-1.1055 1.1055h-8.9609c-0.60938 0-1.1055-0.49609-1.1055-1.1055zm1.1055 16.523h8.9609c0.60938 0 1.1055-0.49609 1.1055-1.1055s-0.49609-1.1055-1.1055-1.1055h-8.9609c-0.60938 0-1.1055 0.49609-1.1055 1.1055s0.49609 1.1055 1.1055 1.1055zm0-7.7109h8.9609c0.60938 0 1.1055-0.49609 1.1055-1.1055 0-0.60937-0.49609-1.1055-1.1055-1.1055h-8.9609c-0.60938 0-1.1055 0.49609-1.1055 1.1055 0 0.60938 0.49609 1.1055 1.1055 1.1055zm-7.1914-7.707h1.9961c0.60938 0 1.1055-0.49609 1.1055-1.1055s-0.49609-1.1055-1.1055-1.1055h-1.9961c-0.60938 0-1.1055 0.49609-1.1055 1.1055s0.49609 1.1055 1.1055 1.1055zm0 7.707h1.9961c0.60938 0 1.1055-0.49609 1.1055-1.1055 0-0.60937-0.49609-1.1055-1.1055-1.1055h-1.9961c-0.60938 0-1.1055 0.49609-1.1055 1.1055 0 0.60938 0.49609 1.1055 1.1055 1.1055zm0 7.7109h1.9961c0.60938 0 1.1055-0.49609 1.1055-1.1055s-0.49609-1.1055-1.1055-1.1055h-1.9961c-0.60938 0-1.1055 0.49609-1.1055 1.1055s0.49609 1.1055 1.1055 1.1055zm24.762 8.5234v18.137c0 0.60938-0.49609 1.1055-1.1055 1.1055h-8.6484c-0.60938 0-1.1055-0.49609-1.1055-1.1055v-18.137c0-0.60938 0.49609-1.1055 1.1055-1.1055h8.6484c0.60938 0 1.1055 0.49609 1.1055 1.1055zm-2.2148 1.1055h-6.4336v15.922h6.4336zm17.223-9.5312v26.562c0 0.60938-0.49609 1.1055-1.1055 1.1055h-8.6484c-0.60938 0-1.1055-0.49609-1.1055-1.1055v-26.562c0-0.60938 0.49609-1.1055 1.1055-1.1055h8.6484c0.60938 0 1.1055 0.49609 1.1055 1.1055zm-2.2148 1.1055h-6.4336v24.348h6.4336zm-27.801 15.742v9.7109c0 0.60938-0.49609 1.1055-1.1055 1.1055l-8.6484 0.007812c-0.60938 0-1.1055-0.49609-1.1055-1.1055v-9.7109c0-0.60938 0.49609-1.1055 1.1055-1.1055h8.6484c0.60938 0 1.1055 0.49609 1.1055 1.1055zm-2.2148 1.1055h-6.4336v7.4961h6.4336zm35.672-48.613c0 3.3555-1.6719 6.2656-3.4375 9.3438-0.89844 1.5664-1.8242 3.1836-2.5703 4.9258v3.625c0 0.54688-0.39844 1-0.92188 1.0898v2.7656c0 0.60938-0.49609 1.1055-1.1055 1.1055h-0.17187v0.67578c0 1.5938-1.2969 2.8906-2.8906 2.8906h-5.4609c-1.5938 0-2.8906-1.2969-2.8906-2.8906v-0.67578h-0.17188c-0.60938 0-1.1055-0.49609-1.1055-1.1055v-2.7656c-0.52344-0.089844-0.92188-0.54297-0.92188-1.0898v-3.625c-0.74609-1.7422-1.6719-3.3594-2.5703-4.9258-1.7695-3.082-3.4375-5.9922-3.4375-9.3477 0-7.625 6.2031-13.828 13.828-13.828s13.828 6.2031 13.828 13.828zm-10.422 22.855h-6.8125v0.67578c0 0.36719 0.30859 0.67578 0.67578 0.67578h5.4609c0.36719 0 0.67578-0.30859 0.67578-0.67578zm1.2773-3.8555h-9.3672v1.6406h9.3672zm0.92187-3.8555h-11.207v1.6406h11.207zm-4.332-2.2148v-10.23h-2.5391v10.23z"
   fill="#e7e7e7"
   stroke="#e7e7e7"
   stroke-width="1"
 />
</svg>
