<?xml version="1.0" encoding="UTF-8"?>
<svg width="1200pt" height="1200pt" version="1.1" viewBox="0 0 1200 1200" xmlns="http://www.w3.org/2000/svg">
 <path d="m942.55 512h-6c-7.4531-23.816-29.453-41.09-55.637-41.09-32.184 0-58.547 26.184-58.547 58.547 0 13.09-10.727 23.637-23.637 23.637-13.09 0-23.637-10.727-23.637-23.637 0-13.09 10.547-23.637 23.637-23.637 9.6367 0 17.453-7.8164 17.453-17.453 0-9.6367-7.8164-17.453-17.453-17.453-26.184 0-48 17.453-55.453 41.09h-6c-9.6367 0-17.453 7.8164-17.453 17.453s7.8164 17.453 17.453 17.453h6c7.4531 23.816 29.453 41.09 55.453 41.09 32.363 0 58.547-26.184 58.547-58.547 0-13.09 10.547-23.637 23.637-23.637s23.816 10.727 23.816 23.637c0 13.09-10.727 23.637-23.816 23.637-9.6367 0-17.453 7.8164-17.453 17.453s7.8164 17.453 17.453 17.453c26.184 0 48.184-17.453 55.637-41.09h6c9.6367 0 17.453-7.8164 17.453-17.453s-7.8164-17.453-17.453-17.453z" fill="#60c"/>
 <path d="m864.91 195.09c-9.6367 0-17.453 7.8164-17.453 17.453v50.547c0 9.6367 7.8164 17.453 17.453 17.453 9.6367 0 17.453-7.8164 17.453-17.453v-50.547c0-9.6328-7.8164-17.453-17.453-17.453z" fill="#60c"/>
 <path d="m814.91 195.09c-9.6367 0-17.453 7.8164-17.453 17.453v50.547c0 9.6367 7.8164 17.453 17.453 17.453 9.6367 0 17.453-7.8164 17.453-17.453v-50.547c-0.17969-9.6328-8-17.453-17.453-17.453z" fill="#60c"/>
 <path d="m1157.5 799.27c-4.7266-6-10.547-10.91-16.727-15.09v-671.46c0-44.547-36.363-80.91-80.91-80.91h-439.82c-44.547 0-80.91 36.363-80.91 80.91v386.18c-52.727 6-98.363 41.273-116.55 92-12.184 33.816-34 66.363-67.09 99.816l-8.5469 8.5469c-8.7266-29.453-35.816-51.273-68.184-51.273h-181.63c-39.453 0-71.453 32-71.453 71.453v377.27c0 39.453 32 71.453 71.453 71.453h181.64c34.363 0 63.09-24.363 69.816-56.727l36.363 26.547c26.91 19.637 58.727 30.184 92.184 30.184h536.18c37.637 0 69.816-24 78.547-58.363 6-24 0.91016-48.547-14-67.637-1.2734-1.6367-2.7266-3.2734-4.1836-4.9102 19.453-10.363 34.184-28.184 39.273-49.637 5.0898-21.816 1.0898-44.184-10.91-62.363 33.816-3.4531 62.547-27.09 70-58.727 5.6367-24 0.36328-48.363-14.547-67.273zm-842.18 297.45c0 20.184-16.363 36.547-36.547 36.547h-181.64c-20.184 0-36.547-16.363-36.547-36.547l0.003906-377.27c0-20.184 16.363-36.547 36.547-36.547h181.64c20.184 0 36.547 16.363 36.547 36.547zm258.54-984c0-25.453 20.727-46.184 46-46.184h440c25.453 0 46.184 20.727 46.184 46.184v577.45c-11.09-20.184-31.453-35.09-55.273-39.637v-453.82c0-9.6367-7.8164-17.453-17.453-17.453-22 0-39.816-18-39.816-40 0-9.6367-7.8164-17.453-17.453-17.453l-272-0.003906c-9.6367 0-17.453 7.8164-17.453 17.453 0 22-18 40-40 40-9.6367 0-17.453 7.8164-17.453 17.453v452h-55.273zm395.09 536h-258c-29.09-31.453-47.09-73.273-47.09-119.45 0-97.09 78.91-176 176-176 97.09 0 176 78.91 176 176 0.17969 46.18-17.82 88.18-46.91 119.45zm47.09-3.8164v3.8164h-2.5469c0.91016-1.2734 1.6367-2.543 2.5469-3.8164zm-349.64 3.8164h-2.5469v-3.8164c0.91016 1.2734 1.6367 2.543 2.5469 3.8164zm173.64-330.18c-73.453 0-138.36 37.816-176 95.09v-201.45c27.273-6.5469 48.91-28.184 55.453-55.453h241.27c6.5469 27.273 28 48.91 55.273 55.453v201.45c-37.816-57.273-102.55-95.09-176-95.09zm298.18 540c-4.3672 18.727-23.094 32.363-44.367 32.363h-42c-0.54688 0-1.0898-0.36328-1.6367-0.36328h-170.18c-9.6367 0-17.453 7.8164-17.453 17.453s7.8164 17.453 17.453 17.453h155.64c0.54688 0 1.0898 0.36328 1.6367 0.36328 13.273 0 25.637 6 34 16.363 8.3633 10.547 11.09 23.816 8 37.637-3.8164 16.363-18.547 28.727-36.184 31.637h-165.45c-9.6367 0-17.453 7.8164-17.453 17.453s7.8164 17.453 17.453 17.453h135.64c1.0898 0.18359 2.1836 0.72656 3.4531 0.72656 13.453 0 25.816 6 34 16.727 8.3633 10.727 11.09 24.184 7.6367 37.816-4.7266 18.547-23.453 32-44.727 32l-536.55 0.007813c-25.816 0-50.727-8.1836-71.637-23.453l-55.273-40.363 0.003906-324.37 30-30.184c36.727-37.09 61.273-74 75.09-112.55 13.09-36.547 45.09-62.547 82.363-68.91v132.36c0 9.6367 7.8164 17.453 17.453 17.453h479.64c21.453 0 40.184 13.637 44.547 32.363 3.0898 13.816 0.18359 27.09-8.1836 37.637-8.1836 10.363-20.547 16.184-33.816 16.184h-165.09c-9.6367 0-17.453 7.8164-17.453 17.453s7.8164 17.453 17.453 17.453l224.18 0.007812c13.273 0 25.637 6 34 16.363 8.1836 10.363 10.91 23.82 7.8203 37.457z" fill="#60c"/>
 <path d="m181.82 956.55c-36.547 0-66.184 29.637-66.184 66.184s29.637 66.184 66.184 66.184 66.184-29.637 66.184-66.184-29.637-66.184-66.184-66.184zm0 97.453c-17.273 0-31.273-14-31.273-31.273 0-17.273 14-31.273 31.273-31.273 17.273 0 31.273 14 31.273 31.273 0 17.273-14 31.273-31.273 31.273z" fill="#60c"/>
</svg>
