<?xml version="1.0" encoding="UTF-8"?>
<svg width="1200pt" height="1200pt" version="1.1" viewBox="0 0 1200 1200" xmlns="http://www.w3.org/2000/svg">
 <path d="m602.21 786.32c30.562-0.23438 57.422 16.312 57.281 35.906 0 10.359 8.3906 18.75 18.75 18.75s18.75-8.3906 18.75-18.75c0-36.141-32.016-65.391-75.703-72v-19.359c0-10.359-8.3906-18.75-18.75-18.75s-18.75 8.3906-18.75 18.75v19.359c-111.61 18.469-93.469 145.36 18.75 145.4 30.891 0 56.953 16.453 56.953 35.906-2.7656 47.25-111.14 47.25-113.91 0 0-10.359-8.3906-18.75-18.75-18.75s-18.75 8.3906-18.75 18.75c0 36.141 32.016 65.391 75.703 72v19.359c0.375 24.562 37.078 24.703 37.5 0v-19.359c111.61-18.469 93.469-145.36-18.75-145.4-74.766-1.8281-75.234-69.656-0.32812-71.812z" fill="#7031ff"/>
 <path d="m1032.4 441-116.67-142.64c-7.125-8.7188-21.891-8.7188-29.062 0l-116.67 142.64c-10.031 11.578-0.84375 31.125 14.531 30.609h31.641v116.02c0.42188 24.609 37.078 24.703 37.5 0v-134.76c0-10.359-8.3906-18.75-18.75-18.75h-10.828l77.109-94.312 77.109 94.312h-10.828c-10.359 0-18.75 8.3906-18.75 18.75v136.03c0.375 24.562 37.125 24.703 37.5 0v-117.28h31.641c15.328 0.51562 24.609-19.078 14.531-30.609z" fill="#7031ff"/>
 <path d="m232.55 198.89h-10.828l77.109-94.312 77.109 94.312h-10.828c-10.359 0-18.75 8.3906-18.75 18.75v148.36c0 10.359 8.3906 18.75 18.75 18.75s18.75-8.3906 18.75-18.75v-129.61h31.641c7.2656 0 13.828-4.1719 16.922-10.734s2.1562-14.297-2.4375-19.922l-116.67-142.64c-7.125-8.7188-21.891-8.7188-29.062 0l-116.67 142.64c-4.5938 5.625-5.5312 13.359-2.4375 19.922s9.7031 10.734 16.922 10.734h31.641v129.61c0 10.359 8.3906 18.75 18.75 18.75s18.75-8.3906 18.75-18.75v-148.36c0-10.359-8.3906-18.75-18.75-18.75z" fill="#7031ff"/>
 <path d="m761.9 632.76c-17.297-15.188-32.766-28.875-44.953-41.438 13.922-11.016 9.2812-36.094 9.9375-51.281 0-11.578-5.6719-22.406-15.141-28.922-5.5312-3.7969-11.953-5.7188-18.562-6.0938 13.219-75.703 66.984-173.44 67.594-174.52 3.4219-6.1406 3.0938-13.734-0.84375-19.547-3.9375-5.8594-10.828-9-17.812-8.1562-3 0.375-61.031 7.8281-95.812 44.438-15.234-24.656-41.812-55.922-80.531-60.938-13.266-2.1094-24.938 12.094-20.109 24.75 0.14062 0.375 9.2812 27.141 10.969 57.984-27.609-20.297-71.391-44.062-119.16-37.453-13.969 1.5-21.234 19.406-12.188 30.188 0.70312 0.89062 61.172 78.094 81.703 143.86-16.406 2.5312-29.109 17.766-28.828 34.406v28.969c0 8.7188 3.7031 16.078 9.9375 22.312-12.188 12.562-27.656 26.25-44.953 41.438-69.75 61.219-165.19 145.03-157.6 268.45 9.2344 149.81 164.26 242.53 302.58 242.53 147.1 9.6562 320.86-81.094 331.31-242.53 7.5938-123.42-87.891-207.24-157.6-268.45zm-246.24-66.703v-23.016c44.391 15.094 114.09 16.547 159.47 3.8438 4.7344-1.2656 9.7969-3 14.25-4.5v23.672c-7.3594 6.1406-38.203 16.453-86.859 16.453s-79.5-10.312-86.859-16.453zm43.641-145.45c9.75 11.062 29.625 5.3906 32.016-9.1875 5.0625-25.453 3-52.219-0.5625-73.266 18.609 16.172 31.5 41.203 36 52.922 2.7656 7.2656 9.7031 12.094 17.484 12.141s14.766-4.7344 17.578-12c7.9219-20.531 28.031-33.188 46.688-40.781-19.734 41.016-47.812 107.44-54.234 162.66-32.109 5.625-75.609 5.4375-106.88-0.5625-10.969-50.109-45.141-106.59-68.906-141.32 44.391 11.438 80.344 48.938 80.812 49.406zm322.74 478.31c-8.625 135.42-164.21 217.13-293.9 207.32-121.87 0-257.53-83.297-265.18-207.32-6.4688-105.05 77.484-178.74 144.89-237.98 21.281-18.703 39.984-35.297 54.328-51.328 47.859 13.969 112.73 13.969 160.6 0 77.25 81.516 206.26 154.6 199.22 289.26z" fill="#7031ff"/>
</svg>
