<?xml version="1.0" encoding="UTF-8"?>
<svg width="1200pt" height="1200pt" version="1.1" viewBox="0 0 1200 1200" xmlns="http://www.w3.org/2000/svg">
 <path d="m303.47 535.87c-3.3281-11.297-6.0938-22.969-8.2969-35.062-3.9375-21.75-6.0469-44.625-6.0469-68.859 0-109.92 44.578-209.44 116.58-281.44s171.56-116.58 281.44-116.58c109.87 0 209.39 44.578 281.39 116.58 72 72.047 116.58 171.56 116.58 281.44 0 161.63-86.766 244.78-188.34 342.14-94.641 90.656-58.312 43.875 6.1406 113.72 26.016 28.219 41.109 61.875 41.109 98.25 0 51.562-30.141 97.594-78.891 130.26-45.938 30.797-108.89 49.828-177.94 49.828-60.328 0-115.97-14.484-159.61-38.625-37.969-21-67.219-49.5-83.344-82.453-20.859 5.2969-42.703 8.1094-65.25 8.1094-72.938 0-138.98-29.578-186.74-77.344-47.812-47.812-77.344-113.81-77.344-186.74 0-72.938 29.578-138.98 77.344-186.74 30.609-30.609 68.672-53.719 111.23-66.422zm383.68-326.81c56.062 0 106.83 22.734 143.58 59.484 36.754 36.75 59.484 87.516 59.484 143.58s-22.734 106.83-59.484 143.58c-36.75 36.754-87.516 59.484-143.58 59.484s-106.83-22.734-143.58-59.484c-36.754-36.75-59.484-87.516-59.484-143.58s22.734-106.83 59.484-143.58c36.75-36.754 87.516-59.484 143.58-59.484zm109.64 93.422c-28.031-28.031-66.844-45.422-109.64-45.422s-81.609 17.344-109.64 45.422c-28.031 28.031-45.422 66.844-45.422 109.64s17.344 81.609 45.422 109.64c28.031 28.031 66.844 45.422 109.64 45.422s81.609-17.344 109.64-45.422c28.031-28.031 45.422-66.844 45.422-109.64s-17.344-81.609-45.422-109.64zm-306.98 726.37c12.141 21.984 33.375 41.531 60.797 56.672 36.844 20.344 84.422 32.625 136.55 32.625 59.531 0 113.02-15.891 151.36-41.578 35.531-23.812 57.516-55.875 57.516-90.516 0-23.766-10.359-46.359-28.312-65.812-17.203-18.609-41.156-34.406-69.703-45.938-31.875 36-62.766 76.312-90.094 123.66-6.5625 11.438-21.188 15.375-32.625 8.8125-3.7969-2.2031-6.7969-5.25-8.8125-8.8125-12.188-21.094-25.078-40.828-38.438-59.391-5.625-7.7812-11.344-15.422-17.156-22.875-12.141 22.172-27.375 42.422-45.094 60.141-21.844 21.844-47.531 39.891-75.938 53.062zm142.08-163.36c11.766 14.203 23.438 29.203 34.969 45.141 6.8906 9.5625 13.688 19.453 20.344 29.672 54.703-84.094 118.08-144.84 176.44-200.76 93.609-89.719 173.58-166.36 173.58-307.64 0-96.656-39.188-184.18-102.52-247.5-63.328-63.328-150.84-102.52-247.5-102.52s-184.18 39.188-247.5 102.52c-63.328 63.328-102.52 150.84-102.52 247.5 0 21.984 1.7812 42.047 5.1094 60.422 2.1562 11.859 4.9219 23.203 8.2969 34.078 9.3281-0.98438 18.844-1.5 28.453-1.5 72.938 0 138.98 29.578 186.74 77.344 47.812 47.812 77.344 113.86 77.344 186.74 0 26.578-3.9375 52.266-11.25 76.453zm-100.03-229.26c-39.094-39.094-93.141-63.281-152.81-63.281-59.672 0-113.72 24.188-152.81 63.281-39.094 39.094-63.281 93.141-63.281 152.81s24.188 113.72 63.281 152.81c39.094 39.094 93.141 63.281 152.81 63.281 59.672 0 113.72-24.188 152.81-63.281 39.094-39.094 63.281-93.141 63.281-152.81s-24.188-113.72-63.281-152.81zm-176.86 10.734c0-13.266 10.734-24 24-24 13.266 0 24 10.734 24 24v10.547c10.922 3.8906 18.234 9.1875 26.672 16.875 12.938 12.938 21 30.891 21 50.719 0 13.266-10.734 24-24 24-13.266 0-24-10.734-24-24 0-6.5625-2.6719-12.469-6.9375-16.781-4.2188-4.4062-10.359-6.9375-16.453-6.9375-6.4688 0-12.422 2.25-17.016 6.8438-4.2656 4.3594-6.9375 10.312-6.9375 16.875 0 18.141 18.75 31.312 37.453 44.438 28.969 20.297 57.938 40.641 57.938 83.625 0 19.781-8.0625 37.734-21 50.719-7.4531 7.4531-16.547 13.266-26.719 16.875v10.5c0 13.266-10.734 24-24 24-13.266 0-24-10.734-24-24v-10.5c-10.078-3.6094-19.125-9.4219-26.578-16.875-13.031-12.938-21.094-30.938-21.094-50.719 0-13.266 10.734-24 24-24 13.266 0 24 10.734 24 24 0 6.5625 2.6719 12.516 6.9375 16.781 4.2188 4.2656 10.172 6.9375 16.734 6.9375s12.516-2.6719 16.781-6.9375c4.2656-4.2656 6.9375-10.219 6.9375-16.781 0-18.141-18.75-31.312-37.5-44.484-28.922-20.297-57.891-40.641-57.891-83.625 0-19.781 8.0625-37.734 21-50.719 7.5-7.4062 16.547-13.219 26.672-16.875v-10.547z" fill="#7031ff"/>
</svg>
