<?xml version="1.0" encoding="UTF-8"?>
<svg width="1200pt" height="1200pt" version="1.1" viewBox="0 0 1200 1200" xmlns="http://www.w3.org/2000/svg">
 <path d="m352.78 384.94c-7.3125 0-13.266-5.9531-13.266-13.266s5.9531-13.266 13.266-13.266l410.29-0.046875c7.3125 0 13.266 5.9531 13.266 13.266s-5.9531 13.266-13.266 13.266zm-50.062-95.391h-67.453c-7.3125 0-13.266 5.9531-13.266 13.266s5.9531 13.266 13.266 13.266h67.453c7.3125 0 13.266-5.9531 13.266-13.266s-5.9531-13.266-13.266-13.266zm-67.453-42.234h275.21c7.3125 0 13.266-5.9531 13.266-13.266s-5.9531-13.266-13.266-13.266l-275.21-0.046875c-7.3125 0-13.266 5.9531-13.266 13.266s5.9531 13.266 13.266 13.266zm325.26-68.812h71.672c7.3125 0 13.266-5.9531 13.266-13.266s-5.9531-13.266-13.266-13.266h-71.672c-7.3125 0-13.266 5.9531-13.266 13.266s5.9531 13.266 13.266 13.266zm-325.26 0h275.21c7.3125 0 13.266-5.9531 13.266-13.266s-5.9531-13.266-13.266-13.266l-275.21-0.046875c-7.3125 0-13.266 5.9531-13.266 13.266s5.9531 13.266 13.266 13.266zm104.25 124.31c0 7.3125 5.9531 13.266 13.266 13.266l410.29 0.046875c7.3125 0 13.266-5.9531 13.266-13.266s-5.9531-13.266-13.266-13.266l-410.29-0.046875c-7.3125 0-13.266 5.9531-13.266 13.266zm-36.75 55.5h-67.453c-7.3125 0-13.266 5.9531-13.266 13.266s5.9531 13.266 13.266 13.266h67.453c7.3125 0 13.266-5.9531 13.266-13.266s-5.9531-13.266-13.266-13.266zm257.76-111.05h71.672c7.3125 0 13.266-5.9531 13.266-13.266s-5.9531-13.266-13.266-13.266h-71.672c-7.3125 0-13.266 5.9531-13.266 13.266s5.9531 13.266 13.266 13.266zm-257.06 619.69v148.64c0 7.3125-5.9531 13.266-13.266 13.266l-99.422 0.046875c-7.3125 0-13.266-5.9531-13.266-13.266v-148.64c0-7.3125 5.9531-13.266 13.266-13.266h99.375c7.3125 0 13.266 5.9531 13.266 13.266zm-26.578 13.266h-72.844v122.06h72.844zm199.03-161.9v297.28c0 7.3125-5.9531 13.266-13.266 13.266h-99.375c-7.3125 0-13.266-5.9531-13.266-13.266v-297.28c0-7.3125 5.9531-13.266 13.266-13.266h99.375c7.3125 0 13.266 5.9531 13.266 13.266zm-26.578 13.266h-72.844v270.71h72.844zm199.03 38.906v245.11c0 7.3125-5.9531 13.266-13.266 13.266h-99.375c-7.3125 0-13.266-5.9531-13.266-13.266v-245.11c0-7.3125 5.9531-13.266 13.266-13.266h99.375c7.3125 0 13.266 5.9531 13.266 13.266zm-26.578 13.266h-72.844v218.53h72.844zm-122.63-88.969c-80.578 0-146.16-65.578-146.16-146.16s65.578-146.16 146.16-146.16c80.582 0 146.16 65.578 146.16 146.16s-65.578 146.16-146.16 146.16zm119.58-146.16c0-65.953-53.625-119.58-119.58-119.58-65.906 0-119.58 53.625-119.58 119.58 0 65.906 53.625 119.58 119.58 119.58 65.906 0 119.58-53.625 119.58-119.58zm-117.28-13.969c-26.062-4.5938-33.141-7.5938-33.141-20.25 0-10.875 14.109-20.062 30.844-20.062s28.172 8.625 30.375 16.734c1.9688 7.0781 9.2812 11.25 16.312 9.2812 7.0781-1.9688 11.25-9.2812 9.2812-16.312-4.875-17.766-21.656-31.031-42.703-35.016v-9.9844c0-7.3125-5.9531-13.266-13.266-13.266s-13.266 5.9531-13.266 13.266v10.031c-25.266 4.875-44.109 23.344-44.109 45.328 0 36.703 33.188 42.562 55.125 46.406 26.062 4.5938 33.141 7.5938 33.141 20.25 0 10.875-14.109 20.062-30.844 20.062-16.359 0-27.797-8.3906-30.281-16.312-2.2031-6.9844-9.6562-10.875-16.641-8.7188-6.9844 2.2031-10.875 9.6562-8.7188 16.641 5.3438 17.016 21.891 29.812 42.328 33.703v9.9844c0 7.3125 5.9531 13.266 13.266 13.266s13.266-5.9531 13.266-13.266v-9.9844c25.266-4.875 44.109-23.344 44.109-45.375 0-36.703-33.188-42.562-55.125-46.406zm597.79 394.97c0 118.5-96.422 214.92-214.92 214.92-43.078 0-83.25-12.75-116.95-34.688l-599.26 0.09375c-37.172 0-67.406-30.234-67.406-67.406v-919.78c0-37.172 30.234-67.406 67.406-67.406h530.72c3.5156 0 6.8906 1.4062 9.375 3.8906l185.44 185.44c2.4844 2.4844 3.8906 5.8594 3.8906 9.375l0.046875 461.11c112.36 6.8906 201.66 100.45 201.66 214.5zm-387.1-729.66c0 22.5 18.328 40.828 40.828 40.828h99.234l-140.11-140.11v99.234zm22.078 883.4c-39.984-39.047-64.828-93.516-64.828-153.71 0-36.703 9.2344-71.25 25.5-101.48v-183.74c0-7.3125 5.9531-13.266 13.266-13.266h99.375c7.3125 0 13.266 5.9531 13.266 13.266v79.875c16.031-4.9688 32.812-8.0625 50.156-9.1406l0.046875-447.79h-118.03c-37.172 0-67.406-30.234-67.406-67.406l-0.046875-118.03h-517.4c-22.5 0-40.828 18.328-40.828 40.828v919.78c0 22.5 18.328 40.828 40.828 40.828zm-12.75-425.63v131.81c19.969-23.156 44.766-42.047 72.844-55.031v-76.828h-72.844zm351.24 271.97c0-103.88-84.516-188.34-188.39-188.34-103.87 0-188.34 84.516-188.34 188.34 0 103.88 84.516 188.39 188.34 188.39 103.88 0 188.39-84.516 188.39-188.39zm-117.05-123.61c-6.375-3.6562-14.484-1.5-18.141 4.875l-129.42 224.16c-3.6562 6.375-1.5 14.484 4.875 18.141 2.1094 1.2188 4.3594 1.7812 6.6094 1.7812 4.5938 0 9.0469-2.3906 11.531-6.6562l129.42-224.16c3.6562-6.375 1.5-14.484-4.875-18.141zm-147.05 86.719c-22.734-13.125-30.562-42.328-17.438-65.016 13.125-22.734 42.328-30.516 65.016-17.438 11.016 6.375 18.891 16.641 22.172 28.922s1.5938 25.125-4.7344 36.141c-6.375 11.016-16.594 18.891-28.922 22.172-4.125 1.125-8.25 1.6406-12.422 1.6406-8.25 0-16.406-2.1562-23.719-6.375zm13.266-23.016c4.875 2.8125 10.547 3.5625 15.984 2.1094s9.9844-4.9219 12.75-9.7969c2.8125-4.875 3.5625-10.547 2.1094-15.984s-4.9219-9.9844-9.7969-12.75c-3.3281-1.9219-6.9375-2.8125-10.5-2.8125-7.2656 0-14.344 3.75-18.234 10.5-5.8125 10.031-2.3438 22.922 7.6875 28.734zm155.58 161.81c-8.8125 15.234-24.844 23.812-41.297 23.812-8.0625 0-16.266-2.0625-23.719-6.375-22.734-13.125-30.562-42.281-17.438-65.016 6.375-11.016 16.641-18.891 28.922-22.172s25.125-1.5938 36.141 4.7344c22.734 13.125 30.562 42.281 17.438 65.016zm-30.703-42.047c-3.3281-1.9219-6.9375-2.8125-10.5-2.8125-7.2656 0-14.344 3.75-18.234 10.5-5.8125 10.031-2.3438 22.922 7.6875 28.734s22.969 2.3438 28.734-7.6875c5.8125-10.031 2.3438-22.922-7.6875-28.734z" fill="#7031ff"/>
</svg>
