<?xml version="1.0" encoding="UTF-8"?>
<svg width="100pt" height="100pt" version="1.1" viewBox="0 0 100 100" xmlns="http://www.w3.org/2000/svg">
 <path d="m54.781 84.375c0 0.86328 0.69922 1.5625 1.5625 1.5625h12.406c0.86328 0 1.5625-0.69922 1.5625-1.5625 0-8.9727-5.8555-16.594-13.941-19.273 2.7539-1.9883 4.5664-5.2031 4.5664-8.8516 0-6.0312-4.9062-10.938-10.938-10.938s-10.938 4.9062-10.938 10.938c0 3.6484 1.8125 6.8633 4.5664 8.8516-8.0859 2.6797-13.941 10.301-13.941 19.273 0 0.86328 0.69922 1.5625 1.5625 1.5625h12.594c0.86328 0 1.5625-0.69922 1.5625-1.5625s-0.69922-1.5625-1.5625-1.5625h-10.961c0.78906-8.7461 8.168-15.625 17.117-15.625s16.328 6.8789 17.117 15.625h-10.773c-0.86328 0-1.5625 0.69922-1.5625 1.5625zm-12.594-28.125c0-4.3086 3.5039-7.8125 7.8125-7.8125s7.8125 3.5039 7.8125 7.8125-3.5039 7.8125-7.8125 7.8125-7.8125-3.5039-7.8125-7.8125z" fill="#7031ff"/>
 <path d="m6.25 85.938h18.75c0.86328 0 1.5625-0.69922 1.5625-1.5625s-0.69922-1.5625-1.5625-1.5625h-17.117c0.78906-8.7461 8.168-15.625 17.117-15.625 1.9688 0 3.8984 0.32812 5.7266 0.97656 0.81641 0.28906 1.707-0.13672 1.9961-0.94922 0.28516-0.81641-0.14062-1.707-0.95312-1.9961-0.13281-0.046875-0.27734-0.0625-0.41406-0.10547 2.7617-1.9883 4.5781-5.207 4.5781-8.8633 0-6.0312-4.9062-10.938-10.938-10.938s-10.938 4.9062-10.938 10.938c0 3.6484 1.8125 6.8633 4.5664 8.8516-8.0859 2.6797-13.941 10.301-13.941 19.273 0 0.86328 0.69922 1.5625 1.5625 1.5625zm10.938-29.688c0-4.3086 3.5039-7.8125 7.8125-7.8125s7.8125 3.5039 7.8125 7.8125-3.5039 7.8125-7.8125 7.8125-7.8125-3.5039-7.8125-7.8125z" fill="#7031ff"/>
 <path d="m81.371 65.102c2.7539-1.9883 4.5664-5.2031 4.5664-8.8516 0-6.0312-4.9062-10.938-10.938-10.938s-10.938 4.9062-10.938 10.938c0 3.6523 1.8164 6.875 4.5781 8.8633-0.13672 0.042969-0.27734 0.058594-0.41406 0.10547-0.8125 0.28516-1.2383 1.1797-0.95312 1.9961 0.28906 0.8125 1.1758 1.2344 1.9961 0.94922 1.832-0.64844 3.7578-0.97656 5.7266-0.97656 8.9492 0 16.328 6.8789 17.117 15.625h-17.117c-0.86328 0-1.5625 0.69922-1.5625 1.5625s0.69922 1.5625 1.5625 1.5625h18.75c0.86328 0 1.5625-0.69922 1.5625-1.5625 0-8.9727-5.8555-16.594-13.941-19.273zm-14.184-8.8516c0-4.3086 3.5039-7.8125 7.8125-7.8125s7.8125 3.5039 7.8125 7.8125-3.5039 7.8125-7.8125 7.8125-7.8125-3.5039-7.8125-7.8125z" fill="#7031ff"/>
 <path d="m24.688 41.664c3.2578-3.6406 7.9297-5.7266 12.812-5.7266s9.5508 2.0898 12.809 5.7305c0.3125 0.34375 0.73828 0.51953 1.1641 0.51953 0.37109 0 0.74609-0.13281 1.0391-0.39844 0.64453-0.57422 0.69922-1.5625 0.125-2.207-0.082031-0.089843-0.17578-0.16797-0.25781-0.25781 2.9336-2.1562 6.4414-3.3867 10.117-3.3867 4.8828 0 9.5508 2.0859 12.801 5.7266 0.30859 0.34766 0.73438 0.52344 1.1641 0.52344 0.37109 0 0.74609-0.13281 1.0391-0.39844 0.64453-0.57422 0.69922-1.5625 0.125-2.2031-2.3867-2.6719-5.4219-4.6328-8.7578-5.7383 2.75-1.9883 4.5586-5.2031 4.5586-8.8477 0-6.0312-4.9062-10.938-10.938-10.938s-10.938 4.9062-10.938 10.938c0 3.668 1.832 6.9023 4.6133 8.8906-2.2148 0.72656-4.2734 1.8398-6.1289 3.293-1.8555-1.4609-3.9375-2.5977-6.1641-3.3359 2.75-1.9883 4.5586-5.2031 4.5586-8.8477 0-6.0312-4.9062-10.938-10.938-10.938s-10.938 4.9062-10.938 10.938c0 3.6445 1.8086 6.8594 4.5586 8.8477-3.3359 1.1055-6.3672 3.0664-8.7578 5.7344-0.57812 0.64062-0.52344 1.6328 0.11719 2.207 0.64453 0.57422 1.6328 0.52344 2.207-0.12109zm30-16.664c0-4.3086 3.5039-7.8125 7.8125-7.8125s7.8125 3.5039 7.8125 7.8125-3.5039 7.8125-7.8125 7.8125-7.8125-3.5039-7.8125-7.8125zm-25 0c0-4.3086 3.5039-7.8125 7.8125-7.8125s7.8125 3.5039 7.8125 7.8125-3.5039 7.8125-7.8125 7.8125-7.8125-3.5039-7.8125-7.8125z" fill="#7031ff"/>
 <path d="m10.48 32.355 0.45703-0.45703v8.7266c0 0.86328 0.69922 1.5625 1.5625 1.5625s1.5625-0.69922 1.5625-1.5625v-8.7266l0.45703 0.45703c0.30469 0.30469 0.70312 0.45703 1.1055 0.45703 0.39844 0 0.80078-0.15234 1.1055-0.45703 0.60938-0.60938 0.60938-1.5977 0-2.2109l-3.125-3.125c-0.60938-0.60938-1.5977-0.60938-2.2109 0l-3.125 3.125c-0.60938 0.60938-0.60938 1.5977 0 2.2109 0.60938 0.60938 1.5977 0.60938 2.2109 0z" fill="#7031ff"/>
 <path d="m85.48 32.355 0.45703-0.45703v8.7266c0 0.86328 0.69922 1.5625 1.5625 1.5625s1.5625-0.69922 1.5625-1.5625v-8.7266l0.45703 0.45703c0.30469 0.30469 0.70312 0.45703 1.1055 0.45703 0.39844 0 0.80078-0.15234 1.1055-0.45703 0.60938-0.60938 0.60938-1.5977 0-2.2109l-3.125-3.125c-0.60938-0.60938-1.5977-0.60938-2.2109 0l-3.125 3.125c-0.60938 0.60938-0.60938 1.5977 0 2.2109 0.60938 0.60938 1.5977 0.60938 2.2109 0z" fill="#7031ff"/>
 <path d="m51.105 57.355c-0.60938 0.60938-1.5977 0.60938-2.2109 0-0.60938-0.60938-1.5977-0.60938-2.2109 0-0.60938 0.60938-0.60938 1.5977 0 2.2109 0.91406 0.91406 2.1133 1.3711 3.3125 1.3711 1.1992 0 2.4023-0.45703 3.3125-1.3711 0.60938-0.60938 0.60938-1.5977 0-2.2109-0.60938-0.60938-1.5977-0.60938-2.2109 0z" fill="#7031ff"/>
 <path d="m26.105 57.355c-0.60938 0.60938-1.5977 0.60938-2.2109 0-0.60938-0.60938-1.5977-0.60938-2.2109 0-0.60938 0.60938-0.60938 1.5977 0 2.2109 0.91406 0.91406 2.1133 1.3711 3.3125 1.3711 1.1992 0 2.4023-0.45703 3.3125-1.3711 0.60938-0.60938 0.60938-1.5977 0-2.2109-0.60938-0.60938-1.5977-0.60938-2.2109 0z" fill="#7031ff"/>
 <path d="m63.605 26.105c-0.60938 0.60938-1.5977 0.60938-2.2109 0-0.60938-0.60938-1.5977-0.60938-2.2109 0-0.60938 0.60938-0.60938 1.5977 0 2.2109 0.91406 0.91406 2.1133 1.3711 3.3125 1.3711 1.1992 0 2.4023-0.45703 3.3125-1.3711 0.60938-0.60938 0.60938-1.5977 0-2.2109-0.60938-0.60938-1.5977-0.60938-2.2109 0z" fill="#7031ff"/>
 <path d="m38.605 26.105c-0.60938 0.60938-1.5977 0.60938-2.2109 0-0.60938-0.60938-1.5977-0.60938-2.2109 0-0.60938 0.60938-0.60938 1.5977 0 2.2109 0.91406 0.91406 2.1133 1.3711 3.3125 1.3711 1.1992 0 2.4023-0.45703 3.3125-1.3711 0.60938-0.60938 0.60938-1.5977 0-2.2109-0.60938-0.60938-1.5977-0.60938-2.2109 0z" fill="#7031ff"/>
 <path d="m76.105 57.355c-0.60938 0.60938-1.5977 0.60938-2.2109 0-0.60938-0.60938-1.5977-0.60938-2.2109 0-0.60938 0.60938-0.60938 1.5977 0 2.2109 0.91406 0.91406 2.1133 1.3711 3.3125 1.3711 1.1992 0 2.4023-0.45703 3.3125-1.3711 0.60938-0.60938 0.60938-1.5977 0-2.2109-0.60938-0.60938-1.5977-0.60938-2.2109 0z" fill="#7031ff"/>
 <path d="m51.652 84.375c0 2.082-3.125 2.082-3.125 0s3.125-2.082 3.125 0" fill="#7031ff"/>
</svg>
