<?xml version="1.0" encoding="UTF-8"?>
<svg width="1200pt" height="1200pt" version="1.1" viewBox="0 0 1200 1200" xmlns="http://www.w3.org/2000/svg">
 <path d="m742.52 144.15c-101.71 0-199.85 36.836-276.34 103.71-73.551 64.324-122.36 152.05-138.07 247.81l-83.613 31.5-97.688-53.227c-3.7383-2.0391-8.1641-2.3359-12.137-0.83594l-67.426 25.414c-4.6484 1.75-8.1016 5.75-9.1367 10.613-1.0391 4.8633 0.46094 9.9141 3.9883 13.426l54.227 53.926c-21.012 12.836-30.762 39.137-22.051 63.062l-34.727 13.074c-17.562 6.625-26.477 26.301-19.863 43.875 5.1367 13.625 18.137 22.051 31.898 22.051 3.9766 0 8.0234-0.69922 11.961-2.1875l60.352-22.738 96.512 0.125-84.289 128.76c-3.4609 5.2891-3.125 12.211 0.82422 17.137 2.8359 3.5391 7.0625 5.4766 11.398 5.4766 1.7266 0 3.4609-0.3125 5.1484-0.9375l131.6-49.586c2.2109-0.82422 4.1758-2.1875 5.75-3.9492l48.488-54.336c7.5742 16.824 16.289 33.188 26.023 48.887-2.4492 6.0859-3.8125 12.711-3.8125 19.664v198.12c0 29.137 23.699 52.852 52.852 52.852h326.74c29.137 0 52.852-23.699 52.852-52.852v-24.988c94.438-16.227 180.85-64.613 244.48-137.21 67.102-76.52 104.04-174.78 104.04-276.67 0-231.57-188.4-419.98-419.98-419.98zm390.46 405.36h-173.31c-1.7734-102.23-22.102-198.19-57.789-272.46 21.113-11.387 39.227-25.086 53.262-40.637 103.31 67.273 173 182.05 177.84 313.1zm-371.82 202.51h-4.0234l-0.003906-173.29h173.32c-1.8242 99.336-22.137 191.5-54.824 259.84-18.898-7.6992-39.602-13.773-61.625-17.977v-15.723c0-29.137-23.711-52.852-52.848-52.852zm-54.84 176.83v-49.824h12.273v49.824zm-14.613-79.051c-8.0625 0-14.613 6.5391-14.613 14.613v79.051c0 8.0625 6.5391 14.613 14.613 14.613h6.1367v68.562l-200.11-0.003906v-68.562h6.1367c8.0625 0 14.613-6.5391 14.613-14.613v-79.051c0-8.0625-6.5391-14.613-14.613-14.613h-6.1367v-68.547h200.11v68.551zm-202.45 29.223v49.824h-12.273v-49.824zm62.812-181.25h91.426c11.887 0 22.312 15.602 22.312 33.387v20.875l-136.04 0.003906v-20.875c0-17.789 10.426-33.391 22.301-33.391zm142.95 54.25v-20.875c0-34.523-23.113-62.613-51.523-62.613h-82.102c-1.9141-14.102-3.4258-28.449-4.5508-42.898l81.637-30.762c10.324-3.8867 19.75-9.3633 28.086-16.148h61.336v173.29l-32.883-0.003906zm-35.836-296.45c4.5234 5.6875 8.25 12.164 10.949 19.312 0.050781 0.13672 0.10156 0.27344 0.14844 0.42578l-90.789 36.102c-5.75 2.2891-12.289-0.53906-14.574-6.2734l-4.1484-10.426zm44.574 37.863 0.52344-0.21094-0.69922-1.7617c-0.78906-9.1016-2.8008-18.137-6.1016-26.887-19.164-50.852-75.164-77.25-126.29-60.375 9.375-42.773 22.352-81.488 38.387-114.75 34.949 14.25 75.637 22.926 118.34 24.551v235.5h-36.887c1.375-2.4766 2.6758-5 3.8633-7.6133 6.9922-15.453 9.957-32.027 8.8672-48.453zm53.375 56.074v-235.5c42.688-1.625 83.352-10.289 118.3-24.539 33.914 70.449 53.262 162.04 55.012 260.04zm172.38-328.41c-11.164 11.398-25.074 21.551-41.074 30.25-15.461-27.039-32.699-49.301-51.227-66.387 32.562 8.1367 63.516 20.387 92.301 36.137zm-67.688 42.598c-30.789 12.113-66.738 19.551-104.69 21.074v-110.19c38.215 6.3125 74.551 37.238 104.69 89.113zm-133.91-89.098v110.19c-37.938-1.5234-73.887-8.9609-104.66-21.074 4.3125-7.375 8.7734-14.438 13.426-21.102 19.762-28.262 50.887-61.363 91.238-68.012zm-115.18 51.273c-5.6016 8.0117-10.949 16.562-16.074 25.5-15.898-8.6367-29.738-18.727-40.863-30.023 28.75-15.75 59.586-28 91.898-36.176-12.238 11.312-23.938 24.91-34.961 40.699zm-82.59 10.801c13.988 15.438 32 29.039 52.988 40.363-19.25 40.023-34.25 87.148-44.227 139.23l-178.81 67.375c21.754-103.63 84.816-191.49 170.05-246.96zm-391.45 266.16 69.688 37.961-62.738 23.637-46.836-46.574zm-65.438 186.19c-2.4492 0.92578-5.3008-0.36328-6.2266-2.8125-0.92578-2.4492 0.36328-5.3008 2.8125-6.2266l112.34-42.324c1.6016-0.60156 3-0.17578 3.6875 0.13672s1.9375 1.0742 2.5391 2.6758c0.71094 1.8867 0.050782 3.6992-0.80078 4.7617-0.53906 0.67578-1.2109 1.1641-2.0117 1.4609zm136.3-24.535c0.27344-0.3125 0.55078-0.61328 0.8125-0.9375 7.5508-9.375 9.6133-22.176 5.3867-33.387-3.1992-8.4883-9.5391-15.238-17.836-19-8.3008-3.7617-17.551-4.0625-26.039-0.86328l-50.25 18.938c-4.1875-12 1.9609-25.262 13.926-29.773l441.93-166.51c18.551-6.9883 38.211-5.7891 54.988 1.8008l-96.062 38.199c-3.6016 1.4375-6.4883 4.2383-8.0117 7.8008-1.5391 3.5625-1.5859 7.5742-0.16406 11.188l9.5508 24c6.3008 15.836 21.539 25.5 37.625 25.5 4.9609 0 10.012-0.92578 14.887-2.8633l84.262-33.512c-0.60156 8.4492-2.6875 16.824-6.3008 24.801-7.9492 17.562-22.176 30.949-40.062 37.688l-178.09 67.102 65.148-73.012c4.4766-5.0234 4.9492-12.449 1.1484-17.988-3.8008-5.5508-10.898-7.7734-17.199-5.4141l-203.93 76.836c-2.8984 1.0859-5.375 3.0742-7.0742 5.6758l-28.676 43.812zm81.898 104.04-86.352 32.539 104.94-160.32 143.81-54.188zm116.65-86.836 120.29-45.324c1.1016 12.414 2.5 24.727 4.1484 36.863-18.762 9.3633-32.012 31.801-32.012 57.926v20.875h-66.125c-10.914 0-21.062 3.3242-29.488 9.0117-9.1641-15.676-17.238-32-24.113-48.762zm2.6875 321.31v-198.12c0-13.023 10.602-23.625 23.625-23.625h34.086v68.551h-6.1367c-8.0625 0-14.613 6.5391-14.613 14.613v79.051c0 8.0625 6.5391 14.613 14.613 14.613h6.1367v68.562h-34.086c-13.027-0.015625-23.625-10.617-23.625-23.641zm373.99 0c0 13.023-10.602 23.625-23.625 23.625h-34.086v-68.562h6.1367c8.0625 0 14.613-6.5391 14.613-14.613v-79.051c0-8.0625-6.5391-14.613-14.613-14.613h-6.1367l-0.003906-68.535h34.086c13.023 0 23.625 10.602 23.625 23.625zm29.223-78.199v-74.398c16.938 3.5625 33.012 8.375 47.875 14.262-14.273 24.512-30.348 44.91-47.875 60.137zm74.527-47.715c16.012 8.7266 29.875 18.852 40.914 30.062-28.738 15.773-59.699 28.062-92.352 36.199 18.973-17.387 36.234-39.809 51.438-66.262zm66.562 14.676c-13.977-15.551-31.914-29.262-52.926-40.676 34.664-72.211 55.711-167.89 57.512-272.35h173.3c-4.8633 129.43-74.051 245.16-177.89 313.03zm-639.61-326.27c-2.8516-7.5508 0.96094-15.977 8.5234-18.824l56.414-21.25c7.5508-2.8359 15.977 0.97656 18.824 8.5234 2.8516 7.5508-0.96094 15.977-8.5234 18.824l-56.414 21.25c-1.6992 0.63672-3.4375 0.9375-5.1484 0.9375-5.9141 0-11.477-3.6133-13.676-9.4609zm106.62-40.188c-2.8516-7.5508 0.96094-15.977 8.5234-18.824l56.414-21.25c7.5391-2.8516 15.977 0.97656 18.824 8.5234 2.8516 7.5508-0.96094 15.977-8.5234 18.824l-56.414 21.25c-1.6992 0.63672-3.4375 0.9375-5.1484 0.9375-5.9141 0-11.465-3.5977-13.676-9.4609z" fill="#7031ff"/>
</svg>
