<?xml version="1.0" encoding="UTF-8"?>
<svg version="1.1" viewBox="0 0 100 100" xmlns="http://www.w3.org/2000/svg">
 <path d="m34.801 49.219c-4.0586-4.0586-6.3008-9.4609-6.3008-15.199s2.2383-11.141 6.3008-15.199c0.58984-0.58984 1.5391-0.58984 2.1211 0 0.58984 0.58984 0.58984 1.5391 0 2.1211-3.4883 3.4883-5.4219 8.1406-5.4219 13.078 0 4.9414 1.9219 9.5898 5.4219 13.078 0.58984 0.58984 0.58984 1.5391 0 2.1211-0.28906 0.28906-0.67969 0.44141-1.0586 0.44141-0.38281 0-0.77344-0.14062-1.0625-0.44141zm28.277 0c0.28906 0.28906 0.67969 0.44141 1.0586 0.44141 0.37891 0 0.76953-0.14844 1.0586-0.44141 4.0586-4.0586 6.3008-9.4609 6.3008-15.199s-2.2383-11.141-6.3008-15.199c-0.58984-0.58984-1.5391-0.58984-2.1211 0-0.58984 0.58984-0.58984 1.5391 0 2.1211 3.4883 3.4883 5.4219 8.1406 5.4219 13.078 0 4.9414-1.9219 9.5898-5.4219 13.078-0.57422 0.59375-0.57422 1.543 0.003906 2.1211zm-37.117 10.34c0.37891 0 0.76953-0.14844 1.0586-0.44141 0.58984-0.58984 0.58984-1.5391 0-2.1211-12.672-12.672-12.672-33.289 0-45.961 0.58984-0.58984 0.58984-1.5391 0-2.1211-0.58984-0.58984-1.5391-0.58984-2.1211 0-13.84 13.84-13.84 36.359 0 50.199 0.29297 0.30859 0.67187 0.44531 1.0625 0.44531zm47.02-0.4375c0.28906 0.28906 0.67969 0.44141 1.0586 0.44141 0.37891 0 0.76953-0.14844 1.0586-0.44141 13.84-13.84 13.84-36.359 0-50.199-0.58984-0.58984-1.5391-0.58984-2.1211 0-0.58984 0.58984-0.58984 1.5391 0 2.1211 12.672 12.672 12.672 33.289 0 45.961-0.57812 0.58594-0.57812 1.5352 0.003907 2.1172zm4.5195 30.898c0 0.82812-0.67188 1.5-1.5 1.5h-52c-0.82812 0-1.5-0.67188-1.5-1.5s0.67188-1.5 1.5-1.5h4.9414l16.891-48.27c-2.0117-1.3516-3.3281-3.6406-3.3281-6.2305 0-4.1406 3.3594-7.5 7.5-7.5s7.5 3.3594 7.5 7.5c0 2.5898-1.3203 4.8789-3.3281 6.2305l16.891 48.27h4.9336c0.82812 0 1.5 0.67188 1.5 1.5zm-36.371-27.25 6.75-6.75-3.25-3.25zm14.242-10-3.25 3.25 6.75 6.75zm-2.7227 23.5 14.422 9.9102-5.6016-15.98zm-2.6484-18.129-9.6602 9.6602 9.6602 6.6484 9.6602-6.6406zm-17.07 28.051 14.422-9.9102-8.8281-6.0703zm1.8984 2.3281h30.34l-15.168-10.43zm10.672-54.5c0 2.4805 2.0195 4.5 4.5 4.5s4.5-2.0195 4.5-4.5-2.0195-4.5-4.5-4.5-4.5 2.0195-4.5 4.5zm3.1094 7.3711-2.8789 8.2383 4.2695 4.2695 4.2695-4.2695-2.8789-8.2383c-0.44922 0.078125-0.91016 0.12891-1.3906 0.12891s-0.94141-0.050781-1.3906-0.12891z" fill="#7031ff"/>
</svg>
