<?xml version="1.0" encoding="UTF-8"?>
<svg width="100pt" height="100pt" version="1.1" viewBox="0 0 100 100" xmlns="http://www.w3.org/2000/svg">
 <path d="m54.801 46.699v2.3008h-2c-0.30078-0.80078-1-1.5-1.8008-1.8008v-2h2.3008v-2h-6.6016v2h2.3008v2c-0.80078 0.30078-1.5 1-1.8008 1.8008h-2v-2.3008h-2v6.6016h2v-2.3008h1.8984c0.30078 0.89844 1 1.5 1.8008 1.8008v2h-2.3008v2h6.6016v-2h-2.1992v-2c0.89844-0.30078 1.5-1 1.8008-1.8008h2v2.3008h2v-6.6016zm-4.8008 4.3008c-0.60156 0-1-0.5-1-1s0.5-1 1-1c0.60156 0 1 0.5 1 1s-0.5 1-1 1z" fill="#7031ff"/>
 <path d="m50 83.301h-0.69922v-2c1 0 1.8984 0 2.8984-0.10156l0.10156 2c-0.69922 0.10156-1.5 0.10156-2.3008 0.10156zm-3.8008-0.19922c-1-0.10156-2-0.30078-3.1016-0.5l0.39844-2c0.89844 0.19922 1.8984 0.39844 2.8984 0.5zm9.1992-0.20312-0.30078-2c1-0.19922 1.8984-0.39844 2.8008-0.60156l0.5 1.8984c-0.89844 0.30469-1.8984 0.50391-3 0.70313zm-15.199-1.0977c-1-0.30078-2-0.69922-2.8984-1l0.80078-1.8008c0.89844 0.39844 1.8008 0.69922 2.6992 1zm21.199-0.5-0.69922-1.8984c0.89844-0.30078 1.8008-0.69922 2.6992-1.1016l0.89844 1.8008c-0.99609 0.39844-1.8984 0.79688-2.8984 1.1992zm-26.898-1.8008c-0.89844-0.5-1.8008-1-2.6992-1.6016l1.1016-1.6992c0.80078 0.5 1.6016 1 2.5 1.5zm32.5-0.89844-1-1.6992c0.80078-0.5 1.6016-1 2.3984-1.6016l1.1992 1.6016c-0.79688 0.69922-1.6992 1.1992-2.5977 1.6992zm-37.699-2.5c-0.80078-0.60156-1.6016-1.3008-2.3008-2l1.3984-1.3984c0.69922 0.69922 1.3984 1.3008 2.1992 1.8984zm42.699-1.1016-1.3008-1.5c0.69922-0.60156 1.3984-1.3008 2.1016-2l1.5 1.3984c-0.80078 0.70312-1.5 1.4023-2.3008 2.1016zm-47.199-3.1992c-0.69922-0.80078-1.3008-1.6016-1.8984-2.3984l1.6016-1.1992c0.60156 0.80078 1.1992 1.6016 1.8008 2.3008zm51.398-1.3008-1.6016-1.1992c0.60156-0.80078 1.1992-1.6016 1.6992-2.3984l1.7031 1.0977c-0.5 0.89844-1.1016 1.6992-1.8008 2.5zm-55-3.6992c-0.5-0.89844-1-1.8008-1.3984-2.6992l1.8008-0.80078c0.39844 0.89844 0.89844 1.6992 1.3008 2.6016zm58.402-1.5-1.8008-0.89844c0.39844-0.89844 0.89844-1.6992 1.1992-2.6016l1.8984 0.80078c-0.39844 0.89844-0.79688 1.7969-1.2969 2.6992zm-61-4.1016c-0.30078-1-0.60156-2-0.89844-3l1.8984-0.5c0.19922 0.89844 0.5 1.8984 0.80078 2.8008zm63.297-1.5977-1.8984-0.60156c0.30078-0.89844 0.5-1.8984 0.69922-2.8008l2 0.39844c-0.30078 1.0039-0.5 2.0039-0.80078 3.0039zm-64.797-4.4023c-0.19922-1-0.30078-2-0.30078-3.1016l2-0.10156c0.10156 1 0.19922 1.8984 0.30078 2.8984zm66-1.5977-2-0.19922c0.10156-1 0.19922-1.8984 0.19922-2.8984h2c0 0.99609-0.10156 1.9961-0.19922 3.0977zm-64.402-3.6016h-2c0-1 0-2.1016 0.10156-3.1016l2 0.19922c-0.10156 1.0039-0.10156 1.9023-0.10156 2.9023zm62.5-2.5c-0.10156-1-0.19922-1.8984-0.39844-2.8984l2-0.30078c0.19922 1 0.30078 2 0.39844 3.1016zm-62-3.3008-2-0.39844c0.19922-1 0.39844-2 0.69922-3l1.8984 0.5c-0.19531 1-0.39844 2-0.59766 2.8984zm61-2.3984c-0.30078-0.89844-0.60156-1.8984-0.89844-2.8008l1.8984-0.69922c0.39844 1 0.69922 1.8984 0.89844 2.8984zm-59.398-3.1992-1.8008-0.70312c0.39844-1 0.80078-1.8984 1.3008-2.8008l1.6992 0.90234c-0.39844 0.80078-0.80078 1.6992-1.1992 2.6016zm57.398-2.2031c-0.39844-0.89844-0.89844-1.6992-1.3984-2.6016l1.6992-1c0.5 0.89844 1 1.8008 1.5 2.6992zm-54.801-2.8984-1.6992-1.1016c0.5-0.89844 1.1016-1.6992 1.8008-2.5l1.6016 1.1992c-0.60156 0.70312-1.2031 1.5039-1.7031 2.4023zm51.801-2.1016c-0.60156-0.80078-1.1992-1.5-1.8008-2.3008l1.5-1.3008c0.69922 0.80078 1.3008 1.6016 1.8984 2.3984zm-48.301-2.5977-1.5-1.3984c0.69922-0.80078 1.3984-1.5 2.1992-2.1992l1.3008 1.5c-0.59766 0.69531-1.2969 1.3984-2 2.0977zm44.402-1.6992c-0.69922-0.69922-1.3984-1.3008-2.1992-1.8984l1.1992-1.6016c0.80078 0.60156 1.6016 1.3008 2.3984 2zm-40.102-2.2031-1.1992-1.5977c0.80078-0.60156 1.6992-1.1992 2.6016-1.6992l1 1.6992c-0.80078 0.5-1.6016 1.0977-2.4023 1.5977zm35.5-1.3984c-0.80078-0.5-1.6992-1-2.5-1.3984l0.89844-1.8008c0.89844 0.5 1.8008 1 2.6992 1.5zm-30.5-1.6016-0.89844-1.8008c0.89844-0.5 1.8984-0.89844 2.8008-1.1992l0.69922 1.8984c-0.90234 0.30469-1.8008 0.70312-2.6016 1.1016zm25.402-1c-0.89844-0.39844-1.8008-0.69922-2.6992-0.89844l0.60156-1.8984c1 0.30078 2 0.60156 2.8984 1zm-20-1.0977-0.5-1.8984c1-0.30078 2-0.5 3-0.69922l0.39844 2c-1 0.19531-2 0.39844-2.8984 0.59766zm14.398-0.5c-0.89844-0.19922-1.8984-0.30078-2.8984-0.39844l0.19922-2c1 0.10156 2.1016 0.30078 3.1016 0.39844zm-8.6992-0.5-0.19922-2c0.89844-0.10156 1.8984-0.10156 2.8984-0.10156h0.19922v2h-0.19922c-0.89844 0-1.8008 0-2.6992 0.10156z" fill="#7031ff"/>
 <path d="m50 69.301c-10.602 0-19.301-8.6992-19.301-19.301s8.6992-19.301 19.301-19.301 19.301 8.6992 19.301 19.301-8.6992 19.301-19.301 19.301zm0-36.602c-9.5 0-17.301 7.8008-17.301 17.301s7.8008 17.301 17.301 17.301 17.301-7.8008 17.301-17.301-7.8008-17.301-17.301-17.301z" fill="#7031ff"/>
</svg>
