<?xml version="1.0" encoding="UTF-8"?>
<svg width="1200pt" height="1200pt" version="1.1" viewBox="0 0 1200 1200" xmlns="http://www.w3.org/2000/svg">
 <path d="m247.08 384.1v740.9c0 18.234 7.2188 35.719 20.156 48.609 12.891 12.891 30.375 20.156 48.609 20.156h568.31c18.234 0 35.719-7.2188 48.609-20.156 12.891-12.891 20.156-30.375 20.156-48.609v-933.79c0-18.234-7.2188-35.719-20.156-48.609-12.891-12.891-30.375-20.156-48.609-20.156h-163.5c-10.359 0-18.75 8.3906-18.75 18.75s8.3906 18.75 18.75 18.75h163.5c8.2969 0 16.219 3.2812 22.078 9.1406s9.1406 13.828 9.1406 22.078v933.79c0 8.2969-3.2812 16.219-9.1406 22.078s-13.828 9.1406-22.078 9.1406h-568.31c-8.2969 0-16.219-3.2812-22.078-9.1406s-9.1406-13.828-9.1406-22.078v-740.9c0-10.359-8.3906-18.75-18.75-18.75s-18.75 8.3906-18.75 18.75zm294.14-261.61h-225.42c-18.234 0-35.719 7.2188-48.609 20.156-12.891 12.891-20.156 30.375-20.156 48.609v129.79c0 10.359 8.3906 18.75 18.75 18.75s18.75-8.3906 18.75-18.75v-129.79c0-8.2969 3.2812-16.219 9.1406-22.078s13.828-9.1406 22.078-9.1406h225.42c10.359 0 18.75-8.3906 18.75-18.75s-8.3906-18.75-18.75-18.75zm213.79 173.53v-31.031c0-24.141-19.594-43.734-43.734-43.734h-222.56c-24.141 0-43.734 19.594-43.734 43.734v31.031c0 24.141 19.594 43.734 43.734 43.734h222.56c24.141 0 43.734-19.594 43.734-43.734zm-37.5-31.031v31.031c0 3.4688-2.8125 6.2344-6.2344 6.2344h-222.56c-3.4688 0-6.2344-2.8125-6.2344-6.2344v-31.031c0-3.4688 2.8125-6.2344 6.2344-6.2344h222.56c3.4688 0 6.2344 2.8125 6.2344 6.2344z" fill="#7031ff" fill-rule="evenodd"/>
 <path d="m431.26 996.66h337.45c10.359 0 18.75-8.3906 18.75-18.75s-8.3906-18.75-18.75-18.75h-337.45c-10.359 0-18.75 8.3906-18.75 18.75s8.3906 18.75 18.75 18.75z" fill="#7031ff" fill-rule="evenodd"/>
 <path d="m520.97 1065h158.06c10.359 0 18.75-8.3906 18.75-18.75s-8.3906-18.75-18.75-18.75h-158.06c-10.359 0-18.75 8.3906-18.75 18.75s8.3906 18.75 18.75 18.75z" fill="#7031ff" fill-rule="evenodd"/>
 <path d="m600 442.5c-113.39 0-205.45 92.062-205.45 205.45s92.062 205.45 205.45 205.45 205.45-92.062 205.45-205.45-92.062-205.45-205.45-205.45zm0 37.5c92.719 0 167.95 75.281 167.95 167.95 0 92.719-75.281 167.95-167.95 167.95-92.719 0-167.95-75.281-167.95-167.95 0-92.719 75.281-167.95 167.95-167.95z" fill="#7031ff" fill-rule="evenodd"/>
 <path d="m527.58 713.72c48.188 28.359 96.375 27.375 144.56 0.1875 9-5.1094 12.188-16.547 7.125-25.547-5.1094-9-16.547-12.234-25.547-7.125-35.719 20.156-71.391 21.188-107.11 0.1875-8.9062-5.25-20.391-2.2969-25.641 6.6562-5.25 8.9062-2.2969 20.438 6.6562 25.688z" fill="#7031ff" fill-rule="evenodd"/>
 <path d="m530.58 578.02v27.609c0 10.359 8.3906 18.75 18.75 18.75s18.75-8.3906 18.75-18.75v-27.609c0-10.359-8.3906-18.75-18.75-18.75s-18.75 8.3906-18.75 18.75z" fill="#7031ff" fill-rule="evenodd"/>
 <path d="m631.92 578.02v27.609c0 10.359 8.3906 18.75 18.75 18.75s18.75-8.3906 18.75-18.75v-27.609c0-10.359-8.3906-18.75-18.75-18.75s-18.75 8.3906-18.75 18.75z" fill="#7031ff" fill-rule="evenodd"/>
 <path d="m673.6 240v-190.03c0-11.578-4.5938-22.734-12.797-30.938s-19.359-12.797-30.938-12.797h-59.719c-11.578 0-22.734 4.5938-30.938 12.797s-12.797 19.359-12.797 30.938v190.03c0 10.359 8.3906 18.75 18.75 18.75s18.75-8.3906 18.75-18.75v-190.03c0-1.6406 0.65625-3.2344 1.8281-4.4062s2.7656-1.8281 4.4062-1.8281h59.719c1.6406 0 3.2344 0.65625 4.4062 1.8281s1.8281 2.7656 1.8281 4.4062v190.03c0 10.359 8.3906 18.75 18.75 18.75s18.75-8.3906 18.75-18.75z" fill="#7031ff" fill-rule="evenodd"/>
</svg>
