<?xml version="1.0" encoding="UTF-8"?>
<svg width="100pt" height="100pt" version="1.1" viewBox="0 0 100 100" xmlns="http://www.w3.org/2000/svg">
 <path d="m97.895 38.801c-0.57422 0.57031-1.3516 0.88672-2.1641 0.87891-0.80859-0.003907-1.582-0.32813-2.1484-0.90625-11.496-11.66-27.207-18.188-43.582-18.105-16.375-0.082031-32.086 6.4492-43.582 18.109-1.1836 1.1992-3.1133 1.2109-4.3125 0.027344-1.1992-1.1836-1.2109-3.1133-0.027344-4.3125 6.3594-6.457 13.969-11.543 22.367-14.945 16.391-6.6406 34.727-6.6406 51.117 0 8.3945 3.4023 16.004 8.4883 22.359 14.941 0.56641 0.57422 0.88281 1.3516 0.87891 2.1602-0.003906 0.80859-0.33203 1.5859-0.90625 2.1523zm-47.895 18.754c-6.5977-0.023438-12.914 2.6641-17.473 7.4336-1.1719 1.2109-1.1328 3.1445 0.078125 4.3125 1.2148 1.1719 3.1445 1.1328 4.3164-0.078125 3.4219-3.5547 8.1445-5.5664 13.078-5.5664s9.6562 2.0117 13.078 5.5664c1.1719 1.2109 3.1016 1.25 4.3164 0.082032 1.2109-1.1719 1.2461-3.1016 0.078125-4.3164-4.5586-4.7656-10.875-7.4531-17.473-7.4336zm17.398-17.957c-11.156-4.5391-23.641-4.5391-34.797 0-5.7188 2.3281-10.895 5.8047-15.211 10.215-1.1836 1.2031-1.1641 3.1328 0.039063 4.3125 1.2031 1.1797 3.1328 1.1641 4.3125-0.039062 7.4688-7.5469 17.641-11.793 28.258-11.793s20.789 4.2461 28.258 11.793c1.1797 1.2031 3.1094 1.2188 4.3125 0.039062 1.2031-1.1797 1.2227-3.1094 0.039063-4.3125-4.3164-4.4102-9.4922-7.8867-15.211-10.215zm-17.398 38.605c-1.6836 0-3.0508 1.3672-3.0508 3.0508v1.1289c0 1.6836 1.3672 3.0508 3.0508 3.0508s3.0508-1.3672 3.0508-3.0508v-1.1289c0-0.80859-0.32031-1.5859-0.89453-2.1562-0.57031-0.57031-1.3477-0.89453-2.1562-0.89453z" fill="#7031ff"/>
</svg>
