<?xml version="1.0" encoding="UTF-8"?>
<svg width="512pt" height="512pt" version="1.1" viewBox="0 0 512 512" xmlns="http://www.w3.org/2000/svg">
 <path d="m314.26 478.72c4.2383 0 7.6797 3.4414 7.6797 7.6797 0 4.2383-3.4414 7.6797-7.6797 7.6797h-243.44c-14.539 0-27.781-5.9609-37.359-15.559-9.5781-9.5781-15.52-22.82-15.52-37.34v-370.34c0-14.559 5.9609-27.801 15.52-37.359l0.46094-0.42188c9.5586-9.3398 22.621-15.121 36.918-15.121h21.602c4.2383 0 7.6797 3.4414 7.6797 7.6797 0 4.2383-3.4414 7.6797-7.6797 7.6797h-21.602c-10.141 0-19.398 4.0781-26.32 10.84-6.9805 7-11.219 16.379-11.219 26.699v370.34c0 10.34 4.2188 19.738 11.039 26.539 6.7812 6.7812 16.18 11 26.5 11h243.44zm-51.941-268.74 97.102-118.08c1.3789-2 3.6992-3.3203 6.3203-3.3203h43.262c1.7188 0.039063 3.4414 0.60156 4.8594 1.7812 3.2617 2.6797 3.7383 7.5195 1.0391 10.781l-123.46 150.12 112.98 160.04c2.4414 3.4609 1.6016 8.2383-1.8594 10.68-1.3398 0.94141-2.8789 1.3984-4.3984 1.3984l-58.797 0.019532c-2.7617 0-5.1797-1.4609-6.5391-3.6406l-83.098-117.74-97.102 118.06c-1.3789 2-3.6992 3.3203-6.3203 3.3203h-43.262c-1.7188-0.039063-3.4414-0.60156-4.8594-1.7812-3.2617-2.6797-3.7383-7.5195-1.0391-10.781l123.46-150.1-112.98-160.06c-2.4414-3.4609-1.6016-8.2383 1.8594-10.68 1.3398-0.94141 2.8789-1.3984 4.3984-1.3984h58.797c2.7617 0 5.1797 1.4609 6.5391 3.6406l83.117 117.76zm-64.559-176.7c-4.2383 0-7.6797-3.4414-7.6797-7.6797 0-4.2383 3.4414-7.6797 7.6797-7.6797h243.42c14.559 0 27.801 5.9609 37.379 15.52l0.42188 0.46094c9.3398 9.5586 15.121 22.621 15.121 36.918v370.34c0 14.52-5.9609 27.762-15.559 37.379-9.6016 9.6016-22.84 15.539-37.359 15.539h-21.578c-4.2383 0-7.6797-3.4414-7.6797-7.6797s3.4414-7.6797 7.6797-7.6797h21.578c10.34 0 19.738-4.2188 26.52-11 6.8203-6.8008 11.039-16.199 11.039-26.539v-370.34c0-10.16-4.0781-19.398-10.84-26.32-7-6.9805-16.379-11.219-26.699-11.219h-243.42z" fill="#e7e7e7"/>
</svg>
