<svg width="1024" height="1024" xmlns="http://www.w3.org/2000/svg">
  <rect width="1024" height="1024" fill="#403f4c"/>
  <g stroke-width="4">
    <line x1="200" y1="200" x2="400" y2="400" stroke="darkgrey" />
    <line x1="300" y1="500" x2="600" y2="700" stroke="darkpurple" />
    <line x1="500" y1="100" x2="800" y2="300" stroke="black" />
    <line x1="700" y1="600" x2="900" y2="800" stroke="orange" />
    <line x1="150" y1="850" x2="350" y2="650" stroke="darkgrey" />
    <line x1="250" y1="300" x2="450" y2="500" stroke="darkpurple" />
    <line x1="600" y1="200" x2="900" y2="400" stroke="black" />
    <line x1="400" y1="700" x2="700" y2="900" stroke="orange" />
    <line x1="100" y1="100" x2="500" y2="500" stroke="darkgrey" />
    <line x1="800" y1="200" x2="1000" y2="400" stroke="darkpurple" />
    <line x1="50" y1="950" x2="300" y2="700" stroke="black" />
    <line x1="600" y1="50" x2="900" y2="350" stroke="orange" />
    <line x1="850" y1="850" x2="650" y2="650" stroke="darkgrey" />
    <line x1="700" y1="300" x2="950" y2="500" stroke="darkpurple" />
    <line x1="200" y1="100" x2="600" y2="500" stroke="black" />
    <line x1="500" y1="800" x2="800" y2="900" stroke="orange" />
    <line x1="100" y1="300" x2="400" y2="700" stroke="darkgrey" />
    <line x1="900" y1="100" x2="1000" y2="500" stroke="darkpurple" />
  </g>
  <g fill="none" stroke-width="4">
    <polygon points="150,150 250,250 200,350 100,250" stroke="darkgrey"/>
    <polygon points="450,450 550,550 500,650 400,550" stroke="darkpurple"/>
    <polygon points="750,750 850,850 800,950 700,850" stroke="black"/>
    <polygon points="350,750 450,850 400,950 300,850" stroke="orange"/>
  </g>
</svg>