<svg width="181" height="37" class="" xmlns="http://www.w3.org/2000/svg" viewBox="0 0 181 37" xmlns:xlink="http://www.w3.org/1999/xlink"><g clip-path="url(#clip0)"><path d="M35.3474 22.0581C36.7107 23.2168 38.4353 23.8625 40.2235 23.8839C41.8549 23.8839 42.3824 23.2142 42.3824 22.5808C42.3824 19.9347 33.4133 21.5735 33.4133 15.2033C33.4133 11.9601 35.7208 9.53906 39.6652 9.53906C41.2277 9.53906 44.0936 9.90204 46.1038 11.775L43.6857 15.0636C42.1232 13.9746 40.6712 13.7206 39.6978 13.7206C38.1715 13.7206 37.8743 14.3921 37.8743 14.8385C37.8743 17.3358 46.731 16.1434 46.731 22.4411C46.731 25.6824 44.3854 28.0672 39.9208 28.0672C36.6453 28.0672 34.5244 26.7968 32.9238 25.5699L35.3474 22.0581Z" fill="#6640FF"></path><path d="M59.8365 27.6118C59.8365 27.6118 58.4952 28.0583 56.3 28.0583C52.8396 28.0583 51.0523 25.7843 51.0523 22.3196V14.2706H48.2607V9.875H51.0523V3.875H55.6311V9.875H60.3205V14.2706H55.6311V21.3487C55.6311 22.5792 55.9646 23.7334 57.6033 23.7334C58.3512 23.7287 59.0977 23.668 59.8365 23.552V27.6118Z" fill="#6640FF"></path><path d="M63.8535 27.5735V9.87474H68.4305V11.1778C70.1417 9.90741 71.8166 9.54443 75.2408 9.54443V13.9364C69.3985 13.9364 68.4305 15.5698 68.4305 18.6316V27.5735H63.8535Z" fill="#6640FF"></path><path d="M90.7917 27.5736V26.4194C89.376 27.5736 87.7011 28.0527 85.8775 28.0527C80.6679 28.0527 76.5005 23.8785 76.5005 18.7751C76.5005 13.6317 80.6697 9.53369 85.8775 9.53369C87.6648 9.53369 89.3397 10.0183 90.7917 11.1671V9.87489H95.3687V27.5736H90.7917ZM85.8775 13.9366C84.9188 13.9481 83.985 14.2434 83.1937 14.7854C82.4024 15.3274 81.789 16.0917 81.4309 16.9822C81.0727 17.8726 80.9859 18.8492 81.1812 19.789C81.3766 20.7288 81.8454 21.5896 82.5286 22.2631C83.2118 22.9365 84.0788 23.3924 85.0204 23.5733C85.962 23.7542 86.936 23.652 87.8196 23.2795C88.7033 22.9071 89.457 22.2811 89.9859 21.4805C90.5148 20.6799 90.7952 19.7404 90.7917 18.7805C90.7917 16.1707 88.5947 13.9366 85.8775 13.9366Z" fill="#6640FF"></path><path d="M109.78 27.6118C109.78 27.6118 108.44 28.0583 106.245 28.0583C102.785 28.0583 100.988 25.7843 100.988 22.3196V14.2706H98.1968V9.875H100.988V3.875H105.567V9.875H110.255V14.2706H105.576V21.3487C105.576 22.5792 105.91 23.7334 107.548 23.7334C108.296 23.7288 109.042 23.6681 109.78 23.552V27.6118Z" fill="#6640FF"></path><path d="M113.082 4.02354C113.077 3.64242 113.149 3.26422 113.294 2.91157C113.438 2.55891 113.652 2.23906 113.923 1.97117C114.194 1.70327 114.516 1.49283 114.87 1.35246C115.223 1.21208 115.602 1.14466 115.983 1.15421C116.361 1.14501 116.738 1.21293 117.09 1.35387C117.442 1.49481 117.762 1.70583 118.03 1.97412C118.297 2.24242 118.508 2.56241 118.649 2.9147C118.79 3.26698 118.858 3.64422 118.848 4.02354C118.858 4.40457 118.791 4.7836 118.65 5.13796C118.51 5.49231 118.3 5.8147 118.032 6.08582C117.765 6.35693 117.445 6.57121 117.093 6.7158C116.741 6.8604 116.363 6.93235 115.983 6.92735C115.6 6.93272 115.221 6.86129 114.866 6.71726C114.512 6.57323 114.19 6.35954 113.92 6.08882C113.649 5.8181 113.436 5.49584 113.292 5.14111C113.148 4.78637 113.077 4.40636 113.082 4.02354ZM113.679 27.5734V9.87472H118.256V27.5734H113.679Z" fill="#6640FF"></path><path d="M122.764 37V9.87474H127.341V11.1778C128.755 10.0236 130.423 9.54443 132.254 9.54443C137.465 9.54443 141.632 13.6424 141.632 18.7858C141.632 23.8893 137.463 28.0635 132.254 28.0635C130.43 28.0635 128.755 27.5789 127.341 26.4301V37.0109L122.764 37ZM127.341 19.0036C127.395 20.2742 127.943 21.4732 128.87 22.3436C129.796 23.2139 131.026 23.6863 132.295 23.6595C133.565 23.6327 134.774 23.1088 135.663 22.2001C136.552 21.2914 137.049 20.0703 137.049 18.7985C137.049 17.5268 136.552 16.3057 135.663 15.397C134.774 14.4883 133.565 13.9644 132.295 13.9375C131.026 13.9107 129.796 14.3831 128.87 15.2535C127.943 16.1238 127.395 17.3228 127.341 18.5934V19.0036Z" fill="#6640FF"></path><path d="M156.762 27.5735V18.1089C156.762 14.6806 154.939 13.9347 153.115 13.9347C151.292 13.9347 149.468 14.6425 149.468 18.0327V27.5717H144.891V0H149.468V11.1779C150.472 10.4338 151.701 9.54446 154.119 9.54446C157.991 9.54446 161.339 11.8167 161.339 17.3684V27.5789L156.762 27.5735Z" fill="#6640FF"></path><path d="M166.745 36.9997L169.947 28.0578L162.614 9.87451H167.673L172.104 22.0959L176.494 9.87451H180.998L171.21 36.9997H166.745Z" fill="#6640FF"></path><path d="M24.7668 16.3339L28.3813 12.7223C28.4598 12.6428 28.5038 12.5355 28.5038 12.4238C28.5038 12.312 28.4598 12.2047 28.3813 12.1252L18.1143 1.84572C18.0348 1.76659 17.9273 1.72217 17.8152 1.72217C17.7031 1.72217 17.5956 1.76659 17.5161 1.84572L6.82126 12.5535C6.78196 12.5926 6.75078 12.6392 6.7295 12.6904C6.70822 12.7416 6.69727 12.7966 6.69727 12.8521C6.69727 12.9076 6.70822 12.9625 6.7295 13.0137C6.75078 13.065 6.78196 13.1115 6.82126 13.1506L10.3977 16.7386C10.4772 16.8178 10.5847 16.8622 10.6968 16.8622C10.8089 16.8622 10.9164 16.8178 10.9959 16.7386L17.4744 10.2523C17.5536 10.1732 17.6608 10.1289 17.7726 10.1289C17.8844 10.1289 17.9916 10.1732 18.0708 10.2523L24.1704 16.3339C24.2095 16.3733 24.256 16.4045 24.3072 16.4258C24.3583 16.4471 24.4132 16.4581 24.4686 16.4581C24.5241 16.4581 24.5789 16.4471 24.6301 16.4258C24.6813 16.4045 24.7277 16.3733 24.7668 16.3339Z" fill="#6640FF"></path><path d="M3.73751 15.5935L0.123018 19.2124C0.083721 19.2515 0.0525367 19.298 0.0312573 19.3493C0.009978 19.4005 -0.000976562 19.4555 -0.000976562 19.5109C-0.000976563 19.5664 0.009978 19.6214 0.0312573 19.6726C0.0525367 19.7238 0.083721 19.7704 0.123018 19.8095L10.3901 30.089C10.4291 30.1283 10.4756 30.1596 10.5268 30.1809C10.5779 30.2022 10.6328 30.2131 10.6882 30.2131C10.7437 30.2131 10.7985 30.2022 10.8497 30.1809C10.9009 30.1596 10.9473 30.1283 10.9864 30.089L21.6813 19.3812C21.7603 19.3016 21.8047 19.1939 21.8047 19.0817C21.8047 18.9695 21.7603 18.8618 21.6813 18.7823L18.1048 15.1979C18.0657 15.1585 18.0193 15.1273 17.9681 15.106C17.9169 15.0847 17.8621 15.0737 17.8066 15.0737C17.7512 15.0737 17.6963 15.0847 17.6452 15.106C17.594 15.1273 17.5475 15.1585 17.5085 15.1979L11.0299 21.6843C10.9908 21.7236 10.9444 21.7548 10.8932 21.7761C10.842 21.7974 10.7872 21.8084 10.7317 21.8084C10.6763 21.8084 10.6214 21.7974 10.5703 21.7761C10.5191 21.7548 10.4726 21.7236 10.4336 21.6843L4.33388 15.5935C4.25448 15.5149 4.14734 15.4709 4.03569 15.4709C3.92405 15.4709 3.81691 15.5149 3.73751 15.5935Z" fill="#6640FF"></path></g></svg>