<svg id="visual" viewBox="0 0 900 600" width="900" height="600" xmlns="http://www.w3.org/2000/svg" xmlns:xlink="http://www.w3.org/1999/xlink" version="1.1"><g><g transform="translate(156 353)"><path d="M65.5 -23.4C69.4 -9.1 46.6 11.7 23.9 26.7C1.2 41.8 -21.2 51 -36.9 41.7C-52.5 32.5 -61.3 4.9 -54 -14C-46.7 -32.8 -23.3 -42.9 3.7 -44.1C30.8 -45.3 61.5 -37.7 65.5 -23.4Z" fill="#6600cc"></path></g><g transform="translate(771 271)"><path d="M33.5 -7.4C37.5 1.5 30.8 17.3 19.2 25.5C7.5 33.7 -8.9 34.4 -18.3 27.1C-27.6 19.9 -29.8 4.7 -25.6 -4.5C-21.3 -13.7 -10.7 -17 2 -17.7C14.7 -18.4 29.5 -16.4 33.5 -7.4Z" fill="#6600cc"></path></g><g transform="translate(447 249)"><path d="M44.1 -15.1C49.8 3.1 41.9 24.9 23.4 40.2C5 55.5 -24 64.2 -40.1 53C-56.3 41.8 -59.6 10.7 -50.8 -11.9C-42 -34.5 -21 -48.5 -0.9 -48.2C19.2 -48 38.4 -33.3 44.1 -15.1Z" fill="#6600cc"></path></g><g transform="translate(516 486)"><path d="M46.2 -20C51.6 1.4 41.8 22.8 24.3 36.1C6.8 49.5 -18.4 54.8 -29.5 45.6C-40.5 36.4 -37.3 12.6 -30.1 -11.4C-22.8 -35.5 -11.4 -59.9 4.5 -61.4C20.4 -62.9 40.9 -41.4 46.2 -20Z" fill="#6600cc"></path></g><g transform="translate(623 132)"><path d="M51.1 -21.2C54.9 -4.8 39 13.5 20 27.2C0.9 41 -21.1 50.2 -36.7 41.1C-52.2 32.1 -61.2 4.6 -54 -16.5C-46.8 -37.6 -23.4 -52.3 0.1 -52.4C23.6 -52.4 47.2 -37.7 51.1 -21.2Z" fill="#6600cc"></path></g><g transform="translate(171 120)"><path d="M25.4 -13.8C28.4 0.8 23 12.5 12 21.7C1 30.9 -15.6 37.6 -25.8 31.2C-36 24.8 -39.7 5.3 -34.4 -12.6C-29 -30.6 -14.5 -47 -1.6 -46.4C11.2 -45.9 22.5 -28.4 25.4 -13.8Z" fill="#6600cc"></path></g><g transform="translate(307 493)"><path d="M17.2 -8.8C18.5 -1.6 13.1 4.5 7.5 8C2 11.5 -3.8 12.3 -9.8 9C-15.7 5.7 -21.9 -1.7 -20.3 -9.3C-18.7 -16.9 -9.3 -24.7 -0.7 -24.5C8 -24.3 15.9 -16 17.2 -8.8Z" fill="#6600cc"></path></g><g transform="translate(742 485)"><path d="M43.6 -9.5C49.4 3.6 42.1 25.7 27.2 36.2C12.4 46.7 -10 45.6 -21.3 35.8C-32.6 26.1 -32.9 7.6 -27.5 -4.9C-22.1 -17.5 -11 -24.2 3.9 -25.5C18.9 -26.7 37.8 -22.6 43.6 -9.5Z" fill="#6600cc"></path></g></g></svg>