<svg id="visual" viewBox="0 0 900 600" width="900" height="600" xmlns="http://www.w3.org/2000/svg" xmlns:xlink="http://www.w3.org/1999/xlink" version="1.1"><path d="M0 417L21.5 420C43 423 86 429 128.8 430.8C171.7 432.7 214.3 430.3 257.2 428.8C300 427.3 343 426.7 385.8 421.3C428.7 416 471.3 406 514.2 404C557 402 600 408 642.8 402.5C685.7 397 728.3 380 771.2 378C814 376 857 389 878.5 395.5L900 402L900 601L878.5 601C857 601 814 601 771.2 601C728.3 601 685.7 601 642.8 601C600 601 557 601 514.2 601C471.3 601 428.7 601 385.8 601C343 601 300 601 257.2 601C214.3 601 171.7 601 128.8 601C86 601 43 601 21.5 601L0 601Z" fill="#914dde"></path><path d="M0 420L21.5 426.3C43 432.7 86 445.3 128.8 450C171.7 454.7 214.3 451.3 257.2 448.5C300 445.7 343 443.3 385.8 442.7C428.7 442 471.3 443 514.2 448.2C557 453.3 600 462.7 642.8 455.2C685.7 447.7 728.3 423.3 771.2 413.5C814 403.7 857 408.3 878.5 410.7L900 413L900 601L878.5 601C857 601 814 601 771.2 601C728.3 601 685.7 601 642.8 601C600 601 557 601 514.2 601C471.3 601 428.7 601 385.8 601C343 601 300 601 257.2 601C214.3 601 171.7 601 128.8 601C86 601 43 601 21.5 601L0 601Z" fill="#7c30d5"></path><path d="M0 463L21.5 469C43 475 86 487 128.8 483C171.7 479 214.3 459 257.2 461C300 463 343 487 385.8 495.3C428.7 503.7 471.3 496.3 514.2 491C557 485.7 600 482.3 642.8 477.5C685.7 472.7 728.3 466.3 771.2 463.5C814 460.7 857 461.3 878.5 461.7L900 462L900 601L878.5 601C857 601 814 601 771.2 601C728.3 601 685.7 601 642.8 601C600 601 557 601 514.2 601C471.3 601 428.7 601 385.8 601C343 601 300 601 257.2 601C214.3 601 171.7 601 128.8 601C86 601 43 601 21.5 601L0 601Z" fill="#6600cc"></path><path d="M0 484L21.5 487C43 490 86 496 128.8 504.8C171.7 513.7 214.3 525.3 257.2 523C300 520.7 343 504.3 385.8 498.3C428.7 492.3 471.3 496.7 514.2 502.5C557 508.3 600 515.7 642.8 516.5C685.7 517.3 728.3 511.7 771.2 509.5C814 507.3 857 508.7 878.5 509.3L900 510L900 601L878.5 601C857 601 814 601 771.2 601C728.3 601 685.7 601 642.8 601C600 601 557 601 514.2 601C471.3 601 428.7 601 385.8 601C343 601 300 601 257.2 601C214.3 601 171.7 601 128.8 601C86 601 43 601 21.5 601L0 601Z" fill="#5705b0"></path><path d="M0 544L21.5 548.8C43 553.7 86 563.3 128.8 562.3C171.7 561.3 214.3 549.7 257.2 543.7C300 537.7 343 537.3 385.8 537.8C428.7 538.3 471.3 539.7 514.2 545.3C557 551 600 561 642.8 566.2C685.7 571.3 728.3 571.7 771.2 566C814 560.3 857 548.7 878.5 542.8L900 537L900 601L878.5 601C857 601 814 601 771.2 601C728.3 601 685.7 601 642.8 601C600 601 557 601 514.2 601C471.3 601 428.7 601 385.8 601C343 601 300 601 257.2 601C214.3 601 171.7 601 128.8 601C86 601 43 601 21.5 601L0 601Z" fill="#490795"></path></svg>