<svg id="visual" viewBox="0 0 900 600" width="900" height="600" xmlns="http://www.w3.org/2000/svg" xmlns:xlink="http://www.w3.org/1999/xlink" version="1.1"><path d="M0 375L16.7 380.7C33.3 386.3 66.7 397.7 100 399.7C133.3 401.7 166.7 394.3 200 388.3C233.3 382.3 266.7 377.7 300 386.5C333.3 395.3 366.7 417.7 400 424.2C433.3 430.7 466.7 421.3 500 411.5C533.3 401.7 566.7 391.3 600 382C633.3 372.7 666.7 364.3 700 363.8C733.3 363.3 766.7 370.7 800 372.3C833.3 374 866.7 370 883.3 368L900 366L900 601L883.3 601C866.7 601 833.3 601 800 601C766.7 601 733.3 601 700 601C666.7 601 633.3 601 600 601C566.7 601 533.3 601 500 601C466.7 601 433.3 601 400 601C366.7 601 333.3 601 300 601C266.7 601 233.3 601 200 601C166.7 601 133.3 601 100 601C66.7 601 33.3 601 16.7 601L0 601Z" fill="#914dde"></path><path d="M0 457L16.7 456.3C33.3 455.7 66.7 454.3 100 444.8C133.3 435.3 166.7 417.7 200 414.7C233.3 411.7 266.7 423.3 300 433.3C333.3 443.3 366.7 451.7 400 455.3C433.3 459 466.7 458 500 450.8C533.3 443.7 566.7 430.3 600 422.8C633.3 415.3 666.7 413.7 700 410.3C733.3 407 766.7 402 800 405.2C833.3 408.3 866.7 419.7 883.3 425.3L900 431L900 601L883.3 601C866.7 601 833.3 601 800 601C766.7 601 733.3 601 700 601C666.7 601 633.3 601 600 601C566.7 601 533.3 601 500 601C466.7 601 433.3 601 400 601C366.7 601 333.3 601 300 601C266.7 601 233.3 601 200 601C166.7 601 133.3 601 100 601C66.7 601 33.3 601 16.7 601L0 601Z" fill="#7c30d5"></path><path d="M0 439L16.7 448.2C33.3 457.3 66.7 475.7 100 476.3C133.3 477 166.7 460 200 461C233.3 462 266.7 481 300 487.3C333.3 493.7 366.7 487.3 400 480.3C433.3 473.3 466.7 465.7 500 470.7C533.3 475.7 566.7 493.3 600 496.7C633.3 500 666.7 489 700 478.3C733.3 467.7 766.7 457.3 800 451.5C833.3 445.7 866.7 444.3 883.3 443.7L900 443L900 601L883.3 601C866.7 601 833.3 601 800 601C766.7 601 733.3 601 700 601C666.7 601 633.3 601 600 601C566.7 601 533.3 601 500 601C466.7 601 433.3 601 400 601C366.7 601 333.3 601 300 601C266.7 601 233.3 601 200 601C166.7 601 133.3 601 100 601C66.7 601 33.3 601 16.7 601L0 601Z" fill="#6600cc"></path><path d="M0 505L16.7 504.7C33.3 504.3 66.7 503.7 100 502C133.3 500.3 166.7 497.7 200 495.5C233.3 493.3 266.7 491.7 300 499.2C333.3 506.7 366.7 523.3 400 531.7C433.3 540 466.7 540 500 536.2C533.3 532.3 566.7 524.7 600 516.2C633.3 507.7 666.7 498.3 700 499.7C733.3 501 766.7 513 800 512.2C833.3 511.3 866.7 497.7 883.3 490.8L900 484L900 601L883.3 601C866.7 601 833.3 601 800 601C766.7 601 733.3 601 700 601C666.7 601 633.3 601 600 601C566.7 601 533.3 601 500 601C466.7 601 433.3 601 400 601C366.7 601 333.3 601 300 601C266.7 601 233.3 601 200 601C166.7 601 133.3 601 100 601C66.7 601 33.3 601 16.7 601L0 601Z" fill="#5705b0"></path><path d="M0 567L16.7 567.3C33.3 567.7 66.7 568.3 100 564.7C133.3 561 166.7 553 200 548.8C233.3 544.7 266.7 544.3 300 542.7C333.3 541 366.7 538 400 534.8C433.3 531.7 466.7 528.3 500 530.3C533.3 532.3 566.7 539.7 600 547.7C633.3 555.7 666.7 564.3 700 563.7C733.3 563 766.7 553 800 549.2C833.3 545.3 866.7 547.7 883.3 548.8L900 550L900 601L883.3 601C866.7 601 833.3 601 800 601C766.7 601 733.3 601 700 601C666.7 601 633.3 601 600 601C566.7 601 533.3 601 500 601C466.7 601 433.3 601 400 601C366.7 601 333.3 601 300 601C266.7 601 233.3 601 200 601C166.7 601 133.3 601 100 601C66.7 601 33.3 601 16.7 601L0 601Z" fill="#490795"></path></svg>