<?xml version="1.0" encoding="UTF-8"?>
<!DOCTYPE svg PUBLIC "-//W3C//DTD SVG 1.1//EN" "http://www.w3.org/Graphics/SVG/1.1/DTD/svg11.dtd">
<svg xmlns="http://www.w3.org/2000/svg" version="1.1" width="490px" height="408px" style="shape-rendering:geometricPrecision; text-rendering:geometricPrecision; image-rendering:optimizeQuality; fill-rule:evenodd; clip-rule:evenodd" xmlns:xlink="http://www.w3.org/1999/xlink">
<g><path style="opacity:0.993" fill="#bd2aba" d="M 284.5,24.5 C 284.5,40.1667 284.5,55.8333 284.5,71.5C 316.833,71.5 349.167,71.5 381.5,71.5C 381.5,119.5 381.5,167.5 381.5,215.5C 358.5,215.5 335.5,215.5 312.5,215.5C 312.5,204.833 312.5,194.167 312.5,183.5C 272.167,183.5 231.833,183.5 191.5,183.5C 191.832,130.331 191.499,77.3307 190.5,24.5C 190.5,16.5 190.5,8.5 190.5,0.5C 221.833,0.5 253.167,0.5 284.5,0.5C 284.5,8.5 284.5,16.5 284.5,24.5 Z"/></g>
<g><path style="opacity:0.985" fill="#2e2d62" d="M 190.5,24.5 C 190.5,88.1667 190.5,151.833 190.5,215.5C 127.167,215.5 63.8333,215.5 0.5,215.5C 0.5,151.833 0.5,88.1667 0.5,24.5C 63.8333,24.5 127.167,24.5 190.5,24.5 Z"/></g>
<g><path style="opacity:0.989" fill="#8a1a9b" d="M 284.5,24.5 C 316.833,24.5 349.167,24.5 381.5,24.5C 381.5,40.1667 381.5,55.8333 381.5,71.5C 349.167,71.5 316.833,71.5 284.5,71.5C 284.5,55.8333 284.5,40.1667 284.5,24.5 Z"/></g>
<g><path style="opacity:1" fill="#fcfcfc" d="M 144.5,178.5 C 152.65,179.493 160.983,179.826 169.5,179.5C 169.5,184.167 169.5,188.833 169.5,193.5C 137.833,193.5 106.167,193.5 74.5,193.5C 67.5055,185.161 60.8388,176.495 54.5,167.5C 51.2317,166.513 47.8984,166.18 44.5,166.5C 44.5,175.5 44.5,184.5 44.5,193.5C 37.1667,193.5 29.8333,193.5 22.5,193.5C 22.5,168.833 22.5,144.167 22.5,119.5C 31.1731,119.666 39.8397,119.5 48.5,119C 34.7405,115.573 25.9072,107.073 22,93.5C 21.5001,77.5035 21.3334,61.5035 21.5,45.5C 29.1667,45.5 36.8333,45.5 44.5,45.5C 44.3334,60.837 44.5001,76.1703 45,91.5C 46.9928,98.5022 51.6595,101.836 59,101.5C 65.7331,101.968 70.7331,99.3015 74,93.5C 74.4999,77.5035 74.6666,61.5035 74.5,45.5C 89.1667,45.5 103.833,45.5 118.5,45.5C 118.334,55.8387 118.5,66.172 119,76.5C 128.5,66.3333 138,56.1667 147.5,46C 155.159,45.5003 162.826,45.3336 170.5,45.5C 170.66,47.1992 170.494,48.8659 170,50.5C 159.292,61.0409 148.792,71.7076 138.5,82.5C 148.819,93.3193 159.319,103.986 170,114.5C 170.5,121.492 170.666,128.492 170.5,135.5C 161.833,135.5 153.167,135.5 144.5,135.5C 144.5,149.833 144.5,164.167 144.5,178.5 Z"/></g>
<g><path style="opacity:1" fill="#cacad7" d="M 119.5,89.5 C 118.506,99.3194 118.173,109.319 118.5,119.5C 117.177,109.326 117.177,98.9925 118.5,88.5C 119.107,88.6236 119.44,88.9569 119.5,89.5 Z"/></g>
<g><path style="opacity:1" fill="#302e63" d="M 119.5,89.5 C 128.111,99.4474 137.111,109.114 146.5,118.5C 137.19,119.498 127.857,119.832 118.5,119.5C 118.173,109.319 118.506,99.3194 119.5,89.5 Z"/></g>
<g><path style="opacity:1" fill="#9796b1" d="M 95.5,129.5 C 95.8269,119.985 95.4936,110.652 94.5,101.5C 94.9867,100.527 95.4867,99.5266 96,98.5C 96.8211,109.579 96.6545,119.912 95.5,129.5 Z"/></g>
<g><path style="opacity:1" fill="#323064" d="M 94.5,101.5 C 95.4936,110.652 95.8269,119.985 95.5,129.5C 88.5735,123.793 80.5735,120.293 71.5,119C 81.68,116.302 89.3467,110.469 94.5,101.5 Z"/></g>
<g><path style="opacity:1" fill="#9695b0" d="M 22.5,119.5 C 22.5,144.167 22.5,168.833 22.5,193.5C 29.8333,193.5 37.1667,193.5 44.5,193.5C 37.0182,194.492 29.3516,194.825 21.5,194.5C 21.169,169.328 21.5023,144.328 22.5,119.5 Z"/></g>
<g><path style="opacity:1" fill="#313064" d="M 44.5,135.5 C 53.5062,135.334 62.5062,135.5 71.5,136C 75.749,139.377 76.5823,143.543 74,148.5C 72.5806,149.46 71.0806,150.293 69.5,151C 61.1733,151.5 52.84,151.666 44.5,151.5C 44.5,146.167 44.5,140.833 44.5,135.5 Z"/></g>
<g><path style="opacity:1" fill="#302e63" d="M 121.5,178.5 C 112.833,178.5 104.167,178.5 95.5,178.5C 95.8064,181.385 95.4731,184.052 94.5,186.5C 89.1908,179.519 83.8575,172.519 78.5,165.5C 95.4773,161.888 102.144,151.555 98.5,134.5C 106.167,134.5 113.833,134.5 121.5,134.5C 121.5,149.167 121.5,163.833 121.5,178.5 Z"/></g>
<g><path style="opacity:1" fill="#bdbccd" d="M 121.5,178.5 C 113.35,179.493 105.017,179.826 96.5,179.5C 96.6646,182.518 96.498,185.518 96,188.5C 95.2828,187.956 94.7828,187.289 94.5,186.5C 95.4731,184.052 95.8064,181.385 95.5,178.5C 104.167,178.5 112.833,178.5 121.5,178.5 Z"/></g>
<g><path style="opacity:1" fill="#b4b3c7" d="M 144.5,178.5 C 153.167,178.5 161.833,178.5 170.5,178.5C 170.5,183.833 170.5,189.167 170.5,194.5C 138.329,194.832 106.329,194.498 74.5,193.5C 106.167,193.5 137.833,193.5 169.5,193.5C 169.5,188.833 169.5,184.167 169.5,179.5C 160.983,179.826 152.65,179.493 144.5,178.5 Z"/></g>
<g><path style="opacity:0.977" fill="#8a1a9b" d="M 190.5,24.5 C 191.499,77.3307 191.832,130.331 191.5,183.5C 231.833,183.5 272.167,183.5 312.5,183.5C 312.5,194.167 312.5,204.833 312.5,215.5C 271.833,215.5 231.167,215.5 190.5,215.5C 190.5,151.833 190.5,88.1667 190.5,24.5 Z"/></g>
<g><path style="opacity:0.846" fill="#2e2d62" d="M 21.5,255.5 C 24.8333,255.5 28.1667,255.5 31.5,255.5C 31.5,270.5 31.5,285.5 31.5,300.5C 28.1667,300.5 24.8333,300.5 21.5,300.5C 21.5,285.5 21.5,270.5 21.5,255.5 Z"/></g>
<g><path style="opacity:0.886" fill="#2e2d62" d="M 213.5,258.5 C 216.5,258.5 219.5,258.5 222.5,258.5C 222.5,261.833 222.5,265.167 222.5,268.5C 225.167,268.5 227.833,268.5 230.5,268.5C 230.5,270.833 230.5,273.167 230.5,275.5C 227.833,275.5 225.167,275.5 222.5,275.5C 222.334,280.511 222.501,285.511 223,290.5C 223.739,291.574 224.739,292.241 226,292.5C 229.921,291.059 232.088,292.559 232.5,297C 228.395,300.825 223.728,301.491 218.5,299C 216.622,297.457 215.122,295.624 214,293.5C 213.501,287.509 213.334,281.509 213.5,275.5C 211.5,275.5 209.5,275.5 207.5,275.5C 207.5,273.167 207.5,270.833 207.5,268.5C 209.467,268.739 211.301,268.406 213,267.5C 213.498,264.518 213.665,261.518 213.5,258.5 Z"/></g>
<g><path style="opacity:0.891" fill="#2e2d62" d="M 54.5,267.5 C 60.1039,267.383 64.2705,269.716 67,274.5C 68.3759,283.098 68.8759,291.765 68.5,300.5C 65.5,300.5 62.5,300.5 59.5,300.5C 59.6663,293.825 59.4996,287.158 59,280.5C 57.3088,276.787 54.4755,275.621 50.5,277C 49.2986,277.903 48.4652,279.069 48,280.5C 46.6712,287.092 46.1712,293.759 46.5,300.5C 43.5,300.5 40.5,300.5 37.5,300.5C 37.5,289.833 37.5,279.167 37.5,268.5C 40.1667,268.5 42.8333,268.5 45.5,268.5C 45.281,269.675 45.6143,270.675 46.5,271.5C 48.9909,269.588 51.6575,268.254 54.5,267.5 Z"/></g>
<g><path style="opacity:0.908" fill="#2e2d62" d="M 90.5,267.5 C 95.8019,267.196 99.9686,269.196 103,273.5C 104.414,282.418 104.914,291.418 104.5,300.5C 101.5,300.5 98.5,300.5 95.5,300.5C 95.6663,293.492 95.4996,286.492 95,279.5C 92.4973,276.055 89.3306,275.555 85.5,278C 84.8742,278.75 84.3742,279.584 84,280.5C 83.5004,287.158 83.3337,293.825 83.5,300.5C 80.5,300.5 77.5,300.5 74.5,300.5C 74.5,289.833 74.5,279.167 74.5,268.5C 77.9721,267.963 80.8055,268.963 83,271.5C 85.2552,269.501 87.7552,268.168 90.5,267.5 Z"/></g>
<g><path style="opacity:0.886" fill="#2e2d62" d="M 122.5,267.5 C 139.375,268.912 144.875,277.579 139,293.5C 131.767,301.2 123.6,302.367 114.5,297C 107.795,289.803 106.961,281.969 112,273.5C 115.069,270.554 118.569,268.554 122.5,267.5 Z M 122.5,276.5 C 131.514,276.855 134.18,281.188 130.5,289.5C 125.959,293.383 122.126,292.717 119,287.5C 117.663,282.872 118.83,279.205 122.5,276.5 Z"/></g>
<g><path style="opacity:0.895" fill="#2e2d62" d="M 247.5,267.5 C 259.849,267.868 265.515,274.201 264.5,286.5C 257.137,286.169 249.803,286.503 242.5,287.5C 245.676,292.797 249.676,293.63 254.5,290C 257.482,289.502 260.482,289.335 263.5,289.5C 262.312,295.52 258.645,299.02 252.5,300C 238.203,300.027 232.037,292.861 234,278.5C 236.64,272.343 241.14,268.677 247.5,267.5 Z M 247.5,275.5 C 250.463,275.151 252.796,276.151 254.5,278.5C 250.878,279.659 247.211,279.825 243.5,279C 244.731,277.595 246.064,276.429 247.5,275.5 Z"/></g>
<g><path style="opacity:0.893" fill="#2e2d62" d="M 141.5,269.5 C 144.625,268.521 147.958,268.187 151.5,268.5C 153.559,275.845 155.725,283.178 158,290.5C 160.718,283.681 163.051,276.681 165,269.5C 168.057,268.549 171.223,268.216 174.5,268.5C 171.848,278.96 168.681,289.293 165,299.5C 160.599,300.467 156.099,300.8 151.5,300.5C 148.943,289.83 145.609,279.497 141.5,269.5 Z"/></g>
<g><path style="opacity:0.886" fill="#2e2d62" d="M 184.5,268.5 C 188.846,268.334 193.179,268.501 197.5,269C 199.286,269.785 200.786,270.951 202,272.5C 203.709,282.025 205.543,291.358 207.5,300.5C 204.215,300.264 201.215,299.264 198.5,297.5C 192.249,301.241 185.916,301.407 179.5,298C 174.985,291.579 175.985,286.246 182.5,282C 186.855,280.896 191.188,279.729 195.5,278.5C 192.737,274.752 189.737,274.585 186.5,278C 183.854,278.497 181.187,278.664 178.5,278.5C 178.469,273.887 180.469,270.553 184.5,268.5 Z M 191.5,286.5 C 196.167,286.894 196.501,288.728 192.5,292C 183.552,291.928 183.219,290.094 191.5,286.5 Z"/></g>
<g><path style="opacity:0.928" fill="#2e2d62" d="M 21.5,318.5 C 24.5,318.5 27.5,318.5 30.5,318.5C 30.3335,327.839 30.5002,337.173 31,346.5C 33.5019,354.334 38.1686,356 45,351.5C 45.9734,349.608 46.6401,347.608 47,345.5C 47.4998,336.506 47.6664,327.506 47.5,318.5C 50.5,318.5 53.5,318.5 56.5,318.5C 56.9355,330.243 56.4355,341.91 55,353.5C 51.802,360.106 46.4686,363.439 39,363.5C 31.8071,363.669 26.4738,360.669 23,354.5C 21.5625,342.576 21.0625,330.576 21.5,318.5 Z"/></g>
<g><path style="opacity:0.901" fill="#2e2d62" d="M 63.5,318.5 C 66.5,318.5 69.5,318.5 72.5,318.5C 72.5,324.167 72.5,329.833 72.5,335.5C 73.8221,335.67 74.9887,335.337 76,334.5C 79.1667,329.5 82.3333,324.5 85.5,319.5C 89.1667,318.167 92.8333,318.167 96.5,319.5C 91.9161,326.332 87.5827,333.332 83.5,340.5C 88.5,347.833 93.5,355.167 98.5,362.5C 94.878,363.659 91.2113,363.825 87.5,363C 83.6953,357.029 79.6953,351.196 75.5,345.5C 74.675,344.614 73.675,344.281 72.5,344.5C 72.5,350.833 72.5,357.167 72.5,363.5C 69.5,363.5 66.5,363.5 63.5,363.5C 63.5,348.5 63.5,333.5 63.5,318.5 Z"/></g>
</svg>
