<svg height="32" width="101" viewBox="0 0 101 32" fill="none" xmlns="http://www.w3.org/2000/svg"><title>Kroo.com</title><g><path d="M0 6.54604H3.67934V15.5063L11.9765 6.54604H16.2346L8.56996 14.6831L16.6728 25.4553H12.4436L6.20939 17.1817L3.67934 19.8747V25.4553H0V6.54604Z" fill="#E3176F"></path><path d="M22.9697 6.5459H31.0725C35.62 6.5459 38.0508 8.74668 38.0508 12.4284C38.0508 15.1215 36.6742 17.2395 34.0656 18.1455L38.7619 25.4552H34.7518L30.4111 18.584H26.6449V25.4552H22.9697V6.5459ZM26.6491 9.5161V15.7212H30.9071C33.1602 15.7212 34.3136 14.3479 34.3136 12.478C34.3136 10.6082 33.1064 9.5368 30.9071 9.5368L26.6491 9.5161Z" fill="#E3176F"></path><path d="M101 15.8249C100.964 13.6853 100.497 11.575 99.6277 9.61976C98.3293 6.61841 96.1409 4.08865 93.3584 2.37283C90.576 0.657011 87.3339 -0.162025 84.0711 0.0265641C81.7592 0.151662 79.5022 0.77839 77.4566 1.86329C75.2139 3.06498 73.2807 4.77142 71.8093 6.84812C71.1717 7.7696 70.4815 8.65358 69.7423 9.49566C69.1636 10.2008 68.3462 10.6688 67.4454 10.8106C66.5445 10.9525 65.6231 10.7583 64.8559 10.2651C63.956 9.70906 63.1066 9.07509 62.3175 8.37046C62.0612 8.1512 61.7966 7.95678 61.5279 7.75821C59.7486 6.41533 57.5803 5.68921 55.3516 5.68982C54.7978 5.68989 54.245 5.73275 53.698 5.81806C52.258 6.03502 50.8842 6.5691 49.6755 7.38176C48.1674 8.37526 46.9447 9.74561 46.1285 11.3572C45.5013 12.5398 45.1347 13.8432 45.0536 15.1795C45.033 15.4526 45.0205 15.7339 45.0205 16.007C45.0172 17.7569 45.4612 19.4785 46.3103 21.0083C46.6521 21.652 47.0684 22.2533 47.5505 22.7995C48.4598 23.8394 49.568 24.6864 50.8098 25.2904C52.0516 25.8945 53.4018 26.2435 54.7806 26.3168C56.1595 26.3901 57.539 26.1862 58.8378 25.717C60.1365 25.2479 61.3282 24.5232 62.3423 23.5855C63.0451 23.0187 63.7231 22.4231 64.4672 21.9309C65.8439 21 67.3197 20.8387 68.8039 21.7406C69.7117 22.3641 70.4767 23.1735 71.0487 24.1151C72.1219 25.7658 73.4359 27.2466 74.9471 28.5083C76.6755 29.8842 78.6691 30.8883 80.8032 31.4578C82.9373 32.0272 85.1658 32.1497 87.3494 31.8177C90.0591 31.4142 92.6195 30.3202 94.7848 28.641C96.9502 26.9618 98.6478 24.7536 99.7144 22.2287C100.58 20.2058 101.018 18.0255 101 15.8249Z" fill="#E3176F"></path></g></svg>