<svg xmlns="http://www.w3.org/2000/svg" fill="#e8e8e8" width="152.01" height="28.125" viewBox="0 0 152.01 28.125"><path d="M142.4,44.706h6.438V41.829h-8.3a.284.284,0,0,1-.284-.287V27.527H137.4V39.684a5.006,5.006,0,0,0,5,5.022m13.586,0h2.861V27.527h-2.861Zm16.447,0h6.435V41.829h-8.3a.284.284,0,0,1-.284-.287V27.527H167.43V39.684a5.006,5.006,0,0,0,5.006,5.022m13.583,0h2.861V27.527h-2.861Zm25.74-5.006V27.527H208.9V41.552a.287.287,0,0,1-.287.287H200.6a.287.287,0,0,1-.287-.287V27.527h-2.858V39.684a5.006,5.006,0,0,0,5,5.022h4.293a5.006,5.006,0,0,0,5-5.006m34.31,5.006V32.533a5.006,5.006,0,0,0-5.015-5.006h-4.29a4.069,4.069,0,0,0-2.208.514,3.353,3.353,0,0,0-1.237,1.262h0a.139.139,0,0,1-.123.076.148.148,0,0,1-.126-.076h0a3.353,3.353,0,0,0-1.237-1.262,4.072,4.072,0,0,0-2.208-.514h-4.29a5.006,5.006,0,0,0-5.006,5.006V44.706h2.861V30.675a.284.284,0,0,1,.284-.287h8.009a.287.287,0,0,1,.287.287V44.706h2.858V30.675a.287.287,0,0,1,.287-.287h8.009a.284.284,0,0,1,.284.287V44.706Z" transform="translate(-94.059 -18.84)"/><path d="M26.708,19.135H20.4l1.262,2.18a2.337,2.337,0,0,0,2.022,1.158H30l-1.262-2.18a2.328,2.328,0,0,0-2.022-1.158m-10.409,3.1a2.766,2.766,0,0,0,0,2.785l1.807,3.1,1.8-3.1a2.782,2.782,0,0,0,0-2.785l-1.8-3.1ZM7.476,20.292l-1.262,2.18h6.312a2.344,2.344,0,0,0,2.022-1.158l1.261-2.179H9.488a2.328,2.328,0,0,0-2.022,1.158m8.35-3.085-2.208-3.785a3.747,3.747,0,0,0-3.236-1.852H0l2.208,3.785a3.732,3.732,0,0,0,3.236,1.852Zm5.949-6.287a4.605,4.605,0,0,0,0-4.64L18.1,0,14.444,6.28a4.605,4.605,0,0,0,0,4.64L18.1,17.2Zm14.434.631H25.828A3.744,3.744,0,0,0,22.6,13.4L20.39,17.188H30.749a3.732,3.732,0,0,0,3.236-1.852Z"/></svg>