<svg xmlns="http://www.w3.org/2000/svg" width="230" height="38" fill="#e8e8e8" viewBox="0 0 230 38"><g fill="#e8e8e8" clip-path="url(#a)"><path d="M187.171 18.74h-3.514v18.667h12.5v-3.2h-8.986V18.74Zm-27.064 11.426 2.866-7.443 2.843 7.443h-5.709Zm1.007-11.43-7.593 18.667h3.799l1.602-4.166h8.059l1.602 4.166h3.822l-7.541-18.667h-3.75ZM59.3 21.838h5.113c.912 0 1.623.23 2.132.687.506.458.762 1.06.762 1.802 0 .741-.252 1.347-.762 1.801-.509.458-1.228.687-2.155.687H59.3v-4.977Zm0 8.025h3.049l5.322 7.544h4.133l-5.606-7.672c1.48-.272 2.622-.877 3.423-1.817.801-.94 1.2-2.135 1.2-3.595 0-1.709-.564-3.067-1.69-4.077-1.129-1.005-2.665-1.51-4.611-1.51h-8.73v18.667h3.515V29.86l-.004.004Zm-26.594-.33h8.86v-3.048h-8.86v-4.647h9.554V18.74H29.192v18.667h13.12v-3.098h-9.606v-4.776ZM14.103 18.74l-5.14 14.323L3.848 18.74H0l6.897 18.667h4.027l7-18.667h-3.821Zm99.101 0h-3.514v18.667h3.514V18.74Zm25.686 15.076c-1.058.66-2.278.99-3.656.99-1.224 0-2.31-.276-3.269-.827a5.724 5.724 0 0 1-2.235-2.338c-.533-1.005-.801-2.17-.801-3.49 0-1.32.276-2.535.825-3.54.553-1.01 1.303-1.783 2.258-2.326.956-.544 2.046-.812 3.269-.812 1.359 0 2.547.33 3.566.99 1.014.66 1.729 1.541 2.143 2.64l2.867-1.879c-.774-1.541-1.927-2.733-3.463-3.58-1.532-.846-3.229-1.27-5.089-1.27-1.859 0-3.47.405-4.986 1.208a9.118 9.118 0 0 0-3.605 3.428c-.888 1.484-1.33 3.188-1.33 5.118 0 1.93.43 3.61 1.291 5.094a9.026 9.026 0 0 0 3.553 3.455c1.508.823 3.19 1.23 5.049 1.23 1.86 0 3.645-.426 5.153-1.28 1.508-.855 2.68-2.07 3.525-3.646l-2.866-1.88c-.414 1.154-1.149 2.059-2.207 2.718M81.37 18.74v3.199h6.364v15.468h3.514V21.939h6.364v-3.2H81.37Zm142.673-5.203a.529.529 0 0 0 .533-.524.532.532 0 0 0-.533-.524.531.531 0 0 0-.533.524c0 .287.24.524.533.524Z"></path><path d="M226.771 13.246c-.872-.57-1.911-2.159-3.924-2.159-.999 0-1.856.319-2.511.835a2.601 2.601 0 0 0-.289.26C217.153 9.81 204.413 6.517 204.413.647c0-.182.008-.365.028-.547-.257.143-.435.376-.62.648-2.993 4.29 3.766 8.654 8.63 10.262-1.851.135-8.058-2.76-9.645-5.743-1.875 4.07 5.247 7.3 10.091 7.84-.58.286-7.671-.315-9.68-3.518-.719 3.936 5.061 5.264 10.19 5.276-.395.617-6.384.664-8.737-1.25.221 3.393 6.534 3.121 9.566 2.993-.312.439-5.298.92-7.265-.078.427 1.53 3.135 1.701 8.11 1.701-.407.49-4.446.485-5.437.144.446.955 2.973 1.234 5.997 1.234 3.025 0 2.424 4.912-5.219 10.635.73 0 2.898-.893 3.64-1.383-.134.641-1.425 1.682-2.392 2.353.904-.213 4.157-1.75 5.049-4.142 0 0 .004 0 .008-.004.344-.862.699-2.271.683-4.395.344 1.37.269 2.737.115 3.743 2.68-2.303 5.045-5.452 5.045-8.923 0-2.018-.939-3.859-2.451-5.245l.082-.07a3.315 3.315 0 0 1 1.007-.532 3.657 3.657 0 0 1 1.185-.194c.438 0 .758.07 1.137.194.142.047.276.101.406.163.675.358.885.839.885 1.297 0 .645-.442.765-.956 1.037-.75.392-.88 1.153-.564 1.463.316.311 1.078.358 1.697-.625.474-.753 1.386-1.098 5.007-1.172l-3.23-.555-.004-.008Z"></path></g><defs><clipPath id="a"><path fill="#e8e8e8" d="M0 .096h230v37.808H0z"></path></clipPath></defs></svg>